<svg xmlns="http://www.w3.org/2000/svg" xmlns:xlink="http://www.w3.org/1999/xlink" version="1.1" viewBox="0 0 3508 2480" style="background: #ffffff"><defs><style>@import url(https://fonts.googleapis.com/css?family=Open+Sans:400,700);</style></defs><defs joint-selector="defs"></defs><g joint-selector="layers"  transform="matrix(1,0,0,1,0,0)"><g ></g><g ><!--z-index:1--><!--z-index:2--><!--z-index:3--><!--z-index:4--><!--z-index:5--><!--z-index:6--><!--z-index:7--><!--z-index:8--><!--z-index:9--><!--z-index:10--><!--z-index:11--><!--z-index:12--><!--z-index:13--><!--z-index:14--><!--z-index:15--><!--z-index:16--><!--z-index:17--><!--z-index:18--><!--z-index:19--><!--z-index:20--><!--z-index:21--><g   id="j_2"  transform="translate(20,2443.6)"><g id="v-5"><text  id="v-6" font-size="22px" xml:space="preserve" y="0.8em" font-weight="normal" text-anchor="start" fill="#aaaaaa" pointer-events="none" display="block" font-family="Open Sans"><tspan dy="0"  display="none">Wednesday, September 4, 2024 at 9:46 PM Eastern Daylight Time</tspan></text></g></g><!--z-index:22--><g   id="j_1"  transform="translate(20,2400.4)"><g id="v-3"><text  id="v-4" font-size="36px" xml:space="preserve" y="0.8em" font-weight="normal" text-anchor="start" fill="#000000" pointer-events="none" display="block" font-family="Open Sans"><tspan dy="0"  display="none">[System Context] Audit as a Service</tspan></text></g></g><!--z-index:23--><g   id="j_3"  transform="translate(145,1385)" style=""><g  id="v-10" style="opacity: 1;"><rect  x="0" y="160" width="400" height="240" rx="70" id="v-12" stroke="#073b6f" stroke-width="2" pointer-events="visiblePainted" fill="#08427b" style="fill: rgb(8, 66, 123); stroke: rgb(7, 59, 111);"></rect><circle  cx="200" cy="88.88888888888889" r="88.88888888888889" id="v-11" stroke="#073b6f" stroke-width="2" pointer-events="visiblePainted" fill="#08427b" style="fill: rgb(8, 66, 123); stroke: rgb(7, 59, 111);"></circle><line  x1="80" y1="266.6666666666667" x2="80" y2="400" id="v-18" stroke="#073b6f" stroke-width="2" style="stroke: rgb(7, 59, 111);"></line><line  x1="320" y1="266.6666666666667" x2="320" y2="400" id="v-19" stroke="#073b6f" stroke-width="2" style="stroke: rgb(7, 59, 111);"></line><text  id="v-13" font-size="34" xml:space="preserve" y="0.8em" font-weight="bold" text-anchor="middle" pointer-events="visible" font-family="Open Sans" fill="#ffffff" transform="matrix(1,0,0,1,200,189.3)" style="fill: rgb(255, 255, 255);"><tspan dy="0" >Security Team</tspan></text><text  id="v-14" font-size="17" xml:space="preserve" y="0.8em" text-anchor="middle" font-family="Open Sans" fill="#ffffff" transform="matrix(1,0,0,1,200,230.1)" style="fill: rgb(255, 255, 255);"><tspan dy="0" >[Person]</tspan></text><text  id="v-15" font-size="24" xml:space="preserve" y="0.8em" text-anchor="middle" font-family="Open Sans" fill="#ffffff" transform="matrix(1,0,0,1,200,260.5)" style="fill: rgb(255, 255, 255);"><tspan dy="0" >Uses audit logs to detect</tspan><tspan dy="1.2em" x="0" >suspicious activities, investigate</tspan><tspan dy="1.2em" x="0" >security incidents, and respond</tspan><tspan dy="1.2em" x="0" >to breaches.</tspan></text><g  id="v-16" font-weight="normal" text-anchor="middle" color="#ffffff" transform="matrix(1,0,0,1,197.5,368)" display="none" style="fill: rgb(255, 255, 255);"><g ></g><g ></g><g ></g><g ></g></g><image  id="v-17"></image></g></g><!--z-index:24--><g   id="j_4"  transform="translate(145,215)" style=""><g  id="v-26" style="opacity: 1;"><rect  x="0" y="160" width="400" height="240" rx="70" id="v-28" stroke="#073b6f" stroke-width="2" pointer-events="visiblePainted" fill="#08427b" style="fill: rgb(8, 66, 123); stroke: rgb(7, 59, 111);"></rect><circle  cx="200" cy="88.88888888888889" r="88.88888888888889" id="v-27" stroke="#073b6f" stroke-width="2" pointer-events="visiblePainted" fill="#08427b" style="fill: rgb(8, 66, 123); stroke: rgb(7, 59, 111);"></circle><line  x1="80" y1="266.6666666666667" x2="80" y2="400" id="v-34" stroke="#073b6f" stroke-width="2" style="stroke: rgb(7, 59, 111);"></line><line  x1="320" y1="266.6666666666667" x2="320" y2="400" id="v-35" stroke="#073b6f" stroke-width="2" style="stroke: rgb(7, 59, 111);"></line><text  id="v-29" font-size="34" xml:space="preserve" y="0.8em" font-weight="bold" text-anchor="middle" pointer-events="visible" font-family="Open Sans" fill="#ffffff" transform="matrix(1,0,0,1,200,160.5)" style="fill: rgb(255, 255, 255);"><tspan dy="0" >Compliance Officer</tspan></text><text  id="v-30" font-size="17" xml:space="preserve" y="0.8em" text-anchor="middle" font-family="Open Sans" fill="#ffffff" transform="matrix(1,0,0,1,200,201.3)" style="fill: rgb(255, 255, 255);"><tspan dy="0" >[Person]</tspan></text><text  id="v-31" font-size="24" xml:space="preserve" y="0.8em" text-anchor="middle" font-family="Open Sans" fill="#ffffff" transform="matrix(1,0,0,1,200,231.7)" style="fill: rgb(255, 255, 255);"><tspan dy="0" >Reviews audit logs for</tspan><tspan dy="1.2em" x="0" >regulatory compliance, ensures</tspan><tspan dy="1.2em" x="0" >that data access and</tspan><tspan dy="1.2em" x="0" >modification follow legal</tspan><tspan dy="1.2em" x="0" >guidelines, and prepares for</tspan><tspan dy="1.2em" x="0" >audits.</tspan></text><g  id="v-32" font-weight="normal" text-anchor="middle" color="#ffffff" transform="matrix(1,0,0,1,197.5,368)" display="none" style="fill: rgb(255, 255, 255);"><g ></g><g ></g><g ></g><g ></g></g><image  id="v-33"></image></g></g><!--z-index:25--><g   id="j_5"  transform="translate(145,795)" style=""><g  id="v-42" style="opacity: 1;"><rect  x="0" y="160" width="400" height="240" rx="70" id="v-44" stroke="#073b6f" stroke-width="2" pointer-events="visiblePainted" fill="#08427b" style="fill: rgb(8, 66, 123); stroke: rgb(7, 59, 111);"></rect><circle  cx="200" cy="88.88888888888889" r="88.88888888888889" id="v-43" stroke="#073b6f" stroke-width="2" pointer-events="visiblePainted" fill="#08427b" style="fill: rgb(8, 66, 123); stroke: rgb(7, 59, 111);"></circle><line  x1="80" y1="266.6666666666667" x2="80" y2="400" id="v-50" stroke="#073b6f" stroke-width="2" style="stroke: rgb(7, 59, 111);"></line><line  x1="320" y1="266.6666666666667" x2="320" y2="400" id="v-51" stroke="#073b6f" stroke-width="2" style="stroke: rgb(7, 59, 111);"></line><text  id="v-45" font-size="34" xml:space="preserve" y="0.8em" font-weight="bold" text-anchor="middle" pointer-events="visible" font-family="Open Sans" fill="#ffffff" transform="matrix(1,0,0,1,200,189.3)" style="fill: rgb(255, 255, 255);"><tspan dy="0" >External Auditor</tspan></text><text  id="v-46" font-size="17" xml:space="preserve" y="0.8em" text-anchor="middle" font-family="Open Sans" fill="#ffffff" transform="matrix(1,0,0,1,200,230.1)" style="fill: rgb(255, 255, 255);"><tspan dy="0" >[Person]</tspan></text><text  id="v-47" font-size="24" xml:space="preserve" y="0.8em" text-anchor="middle" font-family="Open Sans" fill="#ffffff" transform="matrix(1,0,0,1,200,260.5)" style="fill: rgb(255, 255, 255);"><tspan dy="0" >Conducts independent reviews</tspan><tspan dy="1.2em" x="0" >of the organization's operations</tspan><tspan dy="1.2em" x="0" >and controls, using audit logs</tspan><tspan dy="1.2em" x="0" >for verification.</tspan></text><g  id="v-48" font-weight="normal" text-anchor="middle" color="#ffffff" transform="matrix(1,0,0,1,197.5,368)" display="none" style="fill: rgb(255, 255, 255);"><g ></g><g ></g><g ></g><g ></g></g><image  id="v-49"></image></g></g><!--z-index:26--><g   id="j_6"  transform="translate(815,1455)" style=""><g  id="v-58" style="opacity: 1;"><rect  id="v-59" rx="20" ry="20" stroke="#0f5eaa" stroke-width="2" pointer-events="visiblePainted" fill="#1168bd" width="450" height="300" style="fill: rgb(17, 104, 189); stroke: rgb(15, 94, 170);"></rect><text  id="v-60" font-size="34" xml:space="preserve" y="0.8em" font-weight="bold" text-anchor="middle" pointer-events="visible" font-family="Open Sans" fill="#ffffff" transform="matrix(1,0,0,1,225,67.7)" style="fill: rgb(255, 255, 255);"><tspan dy="0" >Security Incident</tspan><tspan dy="1.2em" x="0" >Management System</tspan></text><text  id="v-61" font-size="17" xml:space="preserve" y="0.8em" text-anchor="middle" font-family="Open Sans" fill="#ffffff" transform="matrix(1,0,0,1,225,149.3)" style="fill: rgb(255, 255, 255);"><tspan dy="0" >[Software System]</tspan></text><text  id="v-62" font-size="24" xml:space="preserve" y="0.8em" text-anchor="middle" font-family="Open Sans" fill="#ffffff" transform="matrix(1,0,0,1,225,179.7)" style="fill: rgb(255, 255, 255);"><tspan dy="0" >Allows security teams to track and</tspan><tspan dy="1.2em" x="0" >manage security incidents.</tspan></text><g  id="v-63" color="#ffffff" transform="matrix(1,0,0,1,222.5,268)" display="none" style="fill: rgb(255, 255, 255);"><g ></g><g ></g><g ></g><g ></g></g><image  id="v-64"></image></g></g><!--z-index:27--><g   id="j_7"  transform="translate(1480,270)" style=""><g  id="v-71" style="opacity: 1;"><rect  id="v-72" rx="20" ry="20" stroke="#0f5eaa" stroke-width="2" pointer-events="visiblePainted" fill="#1168bd" width="450" height="300" style="fill: rgb(17, 104, 189); stroke: rgb(15, 94, 170);"></rect><text  id="v-73" font-size="34" xml:space="preserve" y="0.8em" font-weight="bold" text-anchor="middle" pointer-events="visible" font-family="Open Sans" fill="#ffffff" transform="matrix(1,0,0,1,225,53.3)" style="fill: rgb(255, 255, 255);"><tspan dy="0" >Compliance Reporting</tspan><tspan dy="1.2em" x="0" >Tool</tspan></text><text  id="v-74" font-size="17" xml:space="preserve" y="0.8em" text-anchor="middle" font-family="Open Sans" fill="#ffffff" transform="matrix(1,0,0,1,225,134.9)" style="fill: rgb(255, 255, 255);"><tspan dy="0" >[Software System]</tspan></text><text  id="v-75" font-size="24" xml:space="preserve" y="0.8em" text-anchor="middle" font-family="Open Sans" fill="#ffffff" transform="matrix(1,0,0,1,225,165.3)" style="fill: rgb(255, 255, 255);"><tspan dy="0" >Enables compliance officers to</tspan><tspan dy="1.2em" x="0" >generate reports and ensure</tspan><tspan dy="1.2em" x="0" >regulatory compliance.</tspan></text><g  id="v-76" color="#ffffff" transform="matrix(1,0,0,1,222.5,268)" display="none" style="fill: rgb(255, 255, 255);"><g ></g><g ></g><g ></g><g ></g></g><image  id="v-77"></image></g></g><!--z-index:28--><g   id="j_8"  transform="translate(1495,850)" style=""><g  id="v-84" style="opacity: 1;"><rect  id="v-85" rx="20" ry="20" stroke="#0f5eaa" stroke-width="2" pointer-events="visiblePainted" fill="#1168bd" width="450" height="300" style="fill: rgb(17, 104, 189); stroke: rgb(15, 94, 170);"></rect><text  id="v-86" font-size="34" xml:space="preserve" y="0.8em" font-weight="bold" text-anchor="middle" pointer-events="visible" font-family="Open Sans" fill="#ffffff" transform="matrix(1,0,0,1,225,44.9)" style="fill: rgb(255, 255, 255);"><tspan dy="0" >Audit as a Service</tspan></text><text  id="v-87" font-size="17" xml:space="preserve" y="0.8em" text-anchor="middle" font-family="Open Sans" fill="#ffffff" transform="matrix(1,0,0,1,225,85.7)" style="fill: rgb(255, 255, 255);"><tspan dy="0" >[Software System]</tspan></text><text  id="v-88" font-size="24" xml:space="preserve" y="0.8em" text-anchor="middle" font-family="Open Sans" fill="#ffffff" transform="matrix(1,0,0,1,225,116.1)" style="fill: rgb(255, 255, 255);"><tspan dy="0" >Provides audit logging, tracking, and</tspan><tspan dy="1.2em" x="0" >reporting capabilities, ensuring that</tspan><tspan dy="1.2em" x="0" >all actions and transactions within</tspan><tspan dy="1.2em" x="0" >the organization are recorded in a</tspan><tspan dy="1.2em" x="0" >secure and tamper-proof manner.</tspan></text><g  id="v-89" color="#ffffff" transform="matrix(1,0,0,1,222.5,268)" display="none" style="fill: rgb(255, 255, 255);"><g ></g><g ></g><g ></g><g ></g></g><image  id="v-90"></image></g></g><!--z-index:29--><g   id="j_9"  transform="translate(2255,255)" style=""><g  id="v-97" style="opacity: 1;"><rect  id="v-98" rx="20" ry="20" stroke="#0f5eaa" stroke-width="2" pointer-events="visiblePainted" fill="#1168bd" width="450" height="300" style="fill: rgb(17, 104, 189); stroke: rgb(15, 94, 170);"></rect><text  id="v-99" font-size="34" xml:space="preserve" y="0.8em" font-weight="bold" text-anchor="middle" pointer-events="visible" font-family="Open Sans" fill="#ffffff" transform="matrix(1,0,0,1,225,53.3)" style="fill: rgb(255, 255, 255);"><tspan dy="0" >Authentication &amp;</tspan><tspan dy="1.2em" x="0" >Authorization Service</tspan></text><text  id="v-100" font-size="17" xml:space="preserve" y="0.8em" text-anchor="middle" font-family="Open Sans" fill="#ffffff" transform="matrix(1,0,0,1,225,134.9)" style="fill: rgb(255, 255, 255);"><tspan dy="0" >[Software System]</tspan></text><text  id="v-101" font-size="24" xml:space="preserve" y="0.8em" text-anchor="middle" font-family="Open Sans" fill="#ffffff" transform="matrix(1,0,0,1,225,165.3)" style="fill: rgb(255, 255, 255);"><tspan dy="0" >Responsible for authentication and</tspan><tspan dy="1.2em" x="0" >authorization of users accessing</tspan><tspan dy="1.2em" x="0" >various systems.</tspan></text><g  id="v-102" color="#ffffff" transform="matrix(1,0,0,1,222.5,268)" display="none" style="fill: rgb(255, 255, 255);"><g ></g><g ></g><g ></g><g ></g></g><image  id="v-103"></image></g></g><!--z-index:30--><g   id="j_10"  transform="translate(2260,860)" style=""><g  id="v-110" style="opacity: 1;"><rect  id="v-111" rx="20" ry="20" stroke="#0f5eaa" stroke-width="2" pointer-events="visiblePainted" fill="#1168bd" width="450" height="300" style="fill: rgb(17, 104, 189); stroke: rgb(15, 94, 170);"></rect><text  id="v-112" font-size="34" xml:space="preserve" y="0.8em" font-weight="bold" text-anchor="middle" pointer-events="visible" font-family="Open Sans" fill="#ffffff" transform="matrix(1,0,0,1,225,53.3)" style="fill: rgb(255, 255, 255);"><tspan dy="0" >Documents Management</tspan><tspan dy="1.2em" x="0" >Service</tspan></text><text  id="v-113" font-size="17" xml:space="preserve" y="0.8em" text-anchor="middle" font-family="Open Sans" fill="#ffffff" transform="matrix(1,0,0,1,225,134.9)" style="fill: rgb(255, 255, 255);"><tspan dy="0" >[Software System]</tspan></text><text  id="v-114" font-size="24" xml:space="preserve" y="0.8em" text-anchor="middle" font-family="Open Sans" fill="#ffffff" transform="matrix(1,0,0,1,225,165.3)" style="fill: rgb(255, 255, 255);"><tspan dy="0" >Manages documents uploaded by</tspan><tspan dy="1.2em" x="0" >users or generated by systems (can</tspan><tspan dy="1.2em" x="0" >contain regulated data)</tspan></text><g  id="v-115" color="#ffffff" transform="matrix(1,0,0,1,222.5,268)" display="none" style="fill: rgb(255, 255, 255);"><g ></g><g ></g><g ></g><g ></g></g><image  id="v-116"></image></g></g><!--z-index:31--><g   id="j_11"  transform="translate(2255,1455)" style=""><g  id="v-123" style="opacity: 1;"><rect  id="v-124" rx="20" ry="20" stroke="#0f5eaa" stroke-width="2" pointer-events="visiblePainted" fill="#1168bd" width="450" height="300" style="fill: rgb(17, 104, 189); stroke: rgb(15, 94, 170);"></rect><text  id="v-125" font-size="34" xml:space="preserve" y="0.8em" font-weight="bold" text-anchor="middle" pointer-events="visible" font-family="Open Sans" fill="#ffffff" transform="matrix(1,0,0,1,225,67.7)" style="fill: rgb(255, 255, 255);"><tspan dy="0" >Other Services with</tspan><tspan dy="1.2em" x="0" >Audited Data</tspan></text><text  id="v-126" font-size="17" xml:space="preserve" y="0.8em" text-anchor="middle" font-family="Open Sans" fill="#ffffff" transform="matrix(1,0,0,1,225,149.3)" style="fill: rgb(255, 255, 255);"><tspan dy="0" >[Software System]</tspan></text><text  id="v-127" font-size="24" xml:space="preserve" y="0.8em" text-anchor="middle" font-family="Open Sans" fill="#ffffff" transform="matrix(1,0,0,1,225,179.7)" style="fill: rgb(255, 255, 255);"><tspan dy="0" >Manages data, that should be</tspan><tspan dy="1.2em" x="0" >audited</tspan></text><g  id="v-128" color="#ffffff" transform="matrix(1,0,0,1,222.5,268)" display="none" style="fill: rgb(255, 255, 255);"><g ></g><g ></g><g ></g><g ></g></g><image  id="v-129"></image></g></g><!--z-index:32--><g   id="j_12"  transform="translate(1495,1470)" style=""><g  id="v-133" style="opacity: 1;"><rect  id="v-134" rx="20" ry="20" stroke="#0f5eaa" stroke-width="2" pointer-events="visiblePainted" fill="#1168bd" width="450" height="300" style="fill: rgb(17, 104, 189); stroke: rgb(15, 94, 170);"></rect><text  id="v-135" font-size="34" xml:space="preserve" y="0.8em" font-weight="bold" text-anchor="middle" pointer-events="visible" font-family="Open Sans" fill="#ffffff" transform="matrix(1,0,0,1,225,73.7)" style="fill: rgb(255, 255, 255);"><tspan dy="0" >Billing Service</tspan></text><text  id="v-136" font-size="17" xml:space="preserve" y="0.8em" text-anchor="middle" font-family="Open Sans" fill="#ffffff" transform="matrix(1,0,0,1,225,114.5)" style="fill: rgb(255, 255, 255);"><tspan dy="0" >[Software System]</tspan></text><text  id="v-137" font-size="24" xml:space="preserve" y="0.8em" text-anchor="middle" font-family="Open Sans" fill="#ffffff" transform="matrix(1,0,0,1,225,144.9)" style="fill: rgb(255, 255, 255);"><tspan dy="0" >Handles billing transactions,</tspan><tspan dy="1.2em" x="0" >possibly involving PCI-DSS</tspan><tspan dy="1.2em" x="0" >compliance.</tspan></text><g  id="v-138" color="#ffffff" transform="matrix(1,0,0,1,222.5,268)" display="none" style="fill: rgb(255, 255, 255);"><g ></g><g ></g><g ></g><g ></g></g><image  id="v-139"></image></g></g><!--z-index:33--><g   id="j_13" ><path  stroke="#707070" d="M 545 1591 L 815 1599" id="v-152" stroke-width="2" stroke-dasharray="30 30" fill="none" style="opacity: 1;"></path><path  fill="black" stroke="black" d="M 0 0 0 0" transform="matrix(0.9995861767562699,0.028765869320828807,-0.028765869320828807,0.9995861767562699,545,1590.760009765625)"></path><path  fill="#707070" stroke="#707070" d="M 20 0 L 0 10 L 20 20 z" id="v-154" transform="matrix(-0.9995861760380683,-0.028765894277632178,0.028765894277632178,-0.9995861760380683,814.7123532082292,1608.5258302734694)" style="opacity: 1;"></path><path  d="M 545 1591 L 815 1599" id="v-153" fill="none" style="cursor: default;"></path><g ><g id="v-146"  label-idx="0" cursor="move" transform="matrix(1,0,0,1,680,1595)" style="cursor: default; opacity: 1;"><rect joint-selector="rect" id="v-149" fill="#ffffff" rx="3" ry="3" pointer-events="none" width="167.4032745361328" height="62.24215507507324" transform="matrix(1,0,0,1,-83.7,-31.1)"></rect><text joint-selector="text" id="v-148" font-size="24px" xml:space="preserve" y="0.8em" fill="#707070" text-anchor="middle" pointer-events="none" font-family="Open Sans" font-weight="normal" transform="matrix(1,0,0,1,0,-23.9)"><tspan dy="0" >Investigates</tspan><tspan dy="1.2em" x="0" >security events</tspan></text></g><g id="v-147"  label-idx="1" cursor="move" transform="matrix(1,0,0,1,670,1635.800048828125)" style="cursor: default; opacity: 1;"><rect joint-selector="rect" id="v-151" fill="#ffffff" rx="3" ry="3"  width="0" height="0" transform="matrix(1,0,0,1,0,0)" display="none"></rect><text joint-selector="text" id="v-150" fill="#000000" font-size="14" text-anchor="middle" pointer-events="none"></text></g></g><g  display="none"></g><g  id="v-156" display="none"><g  id="v-144"><path  end="source" d="M 26 0 L 0 13 L 26 26 z"></path></g><g  id="v-145"><path  end="target" d="M 26 0 L 0 13 L 26 26 z"></path></g></g><g  id="v-155" display="none"><g  id="v-143" transform="translate(584.9824532535287, 1592.184665281586) "><g  event="remove"><circle r="11"></circle><path transform="scale(.8) translate(-16, -16)" d="M24.778,21.419 19.276,15.917 24.777,10.415 21.949,7.585 16.447,13.087 10.945,7.585 8.117,10.415 13.618,15.917 8.116,21.419 10.946,24.248 16.447,18.746 21.948,24.248z"></path><title>Remove link.</title></g><g  event="link:options"><circle r="11" transform="translate(25)"></circle><path fill="white" transform="scale(.55) translate(29, -16)" d="M31.229,17.736c0.064-0.571,0.104-1.148,0.104-1.736s-0.04-1.166-0.104-1.737l-4.377-1.557c-0.218-0.716-0.504-1.401-0.851-2.05l1.993-4.192c-0.725-0.91-1.549-1.734-2.458-2.459l-4.193,1.994c-0.647-0.347-1.334-0.632-2.049-0.849l-1.558-4.378C17.165,0.708,16.588,0.667,16,0.667s-1.166,0.041-1.737,0.105L12.707,5.15c-0.716,0.217-1.401,0.502-2.05,0.849L6.464,4.005C5.554,4.73,4.73,5.554,4.005,6.464l1.994,4.192c-0.347,0.648-0.632,1.334-0.849,2.05l-4.378,1.557C0.708,14.834,0.667,15.412,0.667,16s0.041,1.165,0.105,1.736l4.378,1.558c0.217,0.715,0.502,1.401,0.849,2.049l-1.994,4.193c0.725,0.909,1.549,1.733,2.459,2.458l4.192-1.993c0.648,0.347,1.334,0.633,2.05,0.851l1.557,4.377c0.571,0.064,1.148,0.104,1.737,0.104c0.588,0,1.165-0.04,1.736-0.104l1.558-4.377c0.715-0.218,1.399-0.504,2.049-0.851l4.193,1.993c0.909-0.725,1.733-1.549,2.458-2.458l-1.993-4.193c0.347-0.647,0.633-1.334,0.851-2.049L31.229,17.736zM16,20.871c-2.69,0-4.872-2.182-4.872-4.871c0-2.69,2.182-4.872,4.872-4.872c2.689,0,4.871,2.182,4.871,4.872C20.871,18.689,18.689,20.871,16,20.871z"></path><title>Link options.</title></g></g></g></g><!--z-index:34--><g   id="j_14" ><path  stroke="#707070" d="M 545 417 L 1480 419" id="v-169" stroke-width="2" stroke-dasharray="30 30" fill="none" style="opacity: 1;"></path><path  fill="black" stroke="black" d="M 0 0 0 0" transform="matrix(0.9999956116278637,0.0029625537995005505,-0.0029625537995005505,0.9999956116278637,545,416.55999755859375)"></path><path  fill="#707070" stroke="#707070" d="M 20 0 L 0 10 L 20 20 z" id="v-171" transform="matrix(-0.9999956117989095,-0.0029624960632537367,0.0029624960632537367,-0.9999956117989095,1479.9703311573564,429.329965600106)" style="opacity: 1;"></path><path  d="M 545 417 L 1480 419" id="v-170" fill="none" style="cursor: default;"></path><g ><g id="v-163"  label-idx="0" cursor="move" transform="matrix(1,0,0,1,1012.5,418)" style="cursor: default; opacity: 1;"><rect joint-selector="rect" id="v-166" fill="#ffffff" rx="3" ry="3" pointer-events="none" width="189.95472717285156" height="119.8421516418457" transform="matrix(1,0,0,1,-95,-59.9)"></rect><text joint-selector="text" id="v-165" font-size="24px" xml:space="preserve" y="0.8em" fill="#707070" text-anchor="middle" pointer-events="none" font-family="Open Sans" font-weight="normal" transform="matrix(1,0,0,1,0,-52.7)"><tspan dy="0" >Reviews logs and</tspan><tspan dy="1.2em" x="0" >generates</tspan><tspan dy="1.2em" x="0" >compliance</tspan><tspan dy="1.2em" x="0" >reports</tspan></text></g><g id="v-164"  label-idx="1" cursor="move" transform="matrix(1,0,0,1,1002.5,487.6000061035156)" style="cursor: default; opacity: 1;"><rect joint-selector="rect" id="v-168" fill="#ffffff" rx="3" ry="3"  width="0" height="0" transform="matrix(1,0,0,1,0,0)" display="none"></rect><text joint-selector="text" id="v-167" fill="#000000" font-size="14" text-anchor="middle" pointer-events="none"></text></g></g><g  display="none"></g><g  id="v-173" display="none"><g  id="v-161"><path  end="source" d="M 26 0 L 0 13 L 26 26 z"></path></g><g  id="v-162"><path  end="target" d="M 26 0 L 0 13 L 26 26 z"></path></g></g><g  id="v-172" display="none"><g  id="v-160" transform="translate(584.9999084906913, 417.0855613015844) "><g  event="remove"><circle r="11"></circle><path transform="scale(.8) translate(-16, -16)" d="M24.778,21.419 19.276,15.917 24.777,10.415 21.949,7.585 16.447,13.087 10.945,7.585 8.117,10.415 13.618,15.917 8.116,21.419 10.946,24.248 16.447,18.746 21.948,24.248z"></path><title>Remove link.</title></g><g  event="link:options"><circle r="11" transform="translate(25)"></circle><path fill="white" transform="scale(.55) translate(29, -16)" d="M31.229,17.736c0.064-0.571,0.104-1.148,0.104-1.736s-0.04-1.166-0.104-1.737l-4.377-1.557c-0.218-0.716-0.504-1.401-0.851-2.05l1.993-4.192c-0.725-0.91-1.549-1.734-2.458-2.459l-4.193,1.994c-0.647-0.347-1.334-0.632-2.049-0.849l-1.558-4.378C17.165,0.708,16.588,0.667,16,0.667s-1.166,0.041-1.737,0.105L12.707,5.15c-0.716,0.217-1.401,0.502-2.05,0.849L6.464,4.005C5.554,4.73,4.73,5.554,4.005,6.464l1.994,4.192c-0.347,0.648-0.632,1.334-0.849,2.05l-4.378,1.557C0.708,14.834,0.667,15.412,0.667,16s0.041,1.165,0.105,1.736l4.378,1.558c0.217,0.715,0.502,1.401,0.849,2.049l-1.994,4.193c0.725,0.909,1.549,1.733,2.459,2.458l4.192-1.993c0.648,0.347,1.334,0.633,2.05,0.851l1.557,4.377c0.571,0.064,1.148,0.104,1.737,0.104c0.588,0,1.165-0.04,1.736-0.104l1.558-4.377c0.715-0.218,1.399-0.504,2.049-0.851l4.193,1.993c0.909-0.725,1.733-1.549,2.458-2.458l-1.993-4.193c0.347-0.647,0.633-1.334,0.851-2.049L31.229,17.736zM16,20.871c-2.69,0-4.872-2.182-4.872-4.871c0-2.69,2.182-4.872,4.872-4.872c2.689,0,4.871,2.182,4.871,4.872C20.871,18.689,18.689,20.871,16,20.871z"></path><title>Link options.</title></g></g></g></g><!--z-index:35--><g   id="j_15" ><path  stroke="#707070" d="M 545 910 L 1480 515" id="v-186" stroke-width="2" stroke-dasharray="30 30" fill="none" style="opacity: 1;"></path><path  fill="black" stroke="black" d="M 0 0 0 0" transform="matrix(0.9210616662877259,-0.3894167522016456,0.3894167522016456,0.9210616662877259,545,910.4400024414062)"></path><path  fill="#707070" stroke="#707070" d="M 20 0 L 0 10 L 20 20 z" id="v-188" transform="matrix(-0.921061562579739,0.38941699749519093,-0.38941699749519093,-0.921061562579739,1483.8942143116865,524.3406155727206)" style="opacity: 1;"></path><path  d="M 545 910 L 1480 515" id="v-187" fill="none" style="cursor: default;"></path><g ><g id="v-180"  label-idx="0" cursor="move" transform="matrix(1,0,0,1,1012.5,712.5)" style="cursor: default; opacity: 1;"><rect joint-selector="rect" id="v-183" fill="#ffffff" rx="3" ry="3" pointer-events="none" width="180.1365966796875" height="91.04215621948242" transform="matrix(1,0,0,1,-90.1,-45.5)"></rect><text joint-selector="text" id="v-182" font-size="24px" xml:space="preserve" y="0.8em" fill="#707070" text-anchor="middle" pointer-events="none" font-family="Open Sans" font-weight="normal" transform="matrix(1,0,0,1,0,-38.3)"><tspan dy="0" >Conducts audits</tspan><tspan dy="1.2em" x="0" >and verifies</tspan><tspan dy="1.2em" x="0" >system logs</tspan></text></g><g id="v-181"  label-idx="1" cursor="move" transform="matrix(1,0,0,1,1002.5,767.7000122070312)" style="cursor: default; opacity: 1;"><rect joint-selector="rect" id="v-185" fill="#ffffff" rx="3" ry="3"  width="0" height="0" transform="matrix(1,0,0,1,0,0)" display="none"></rect><text joint-selector="text" id="v-184" fill="#000000" font-size="14" text-anchor="middle" pointer-events="none"></text></g></g><g  display="none"></g><g  id="v-190" display="none"><g  id="v-178"><path  end="source" d="M 26 0 L 0 13 L 26 26 z"></path></g><g  id="v-179"><path  end="target" d="M 26 0 L 0 13 L 26 26 z"></path></g></g><g  id="v-189" display="none"><g  id="v-177" transform="translate(581.8468435703362, 894.4336864061147) "><g  event="remove"><circle r="11"></circle><path transform="scale(.8) translate(-16, -16)" d="M24.778,21.419 19.276,15.917 24.777,10.415 21.949,7.585 16.447,13.087 10.945,7.585 8.117,10.415 13.618,15.917 8.116,21.419 10.946,24.248 16.447,18.746 21.948,24.248z"></path><title>Remove link.</title></g><g  event="link:options"><circle r="11" transform="translate(25)"></circle><path fill="white" transform="scale(.55) translate(29, -16)" d="M31.229,17.736c0.064-0.571,0.104-1.148,0.104-1.736s-0.04-1.166-0.104-1.737l-4.377-1.557c-0.218-0.716-0.504-1.401-0.851-2.05l1.993-4.192c-0.725-0.91-1.549-1.734-2.458-2.459l-4.193,1.994c-0.647-0.347-1.334-0.632-2.049-0.849l-1.558-4.378C17.165,0.708,16.588,0.667,16,0.667s-1.166,0.041-1.737,0.105L12.707,5.15c-0.716,0.217-1.401,0.502-2.05,0.849L6.464,4.005C5.554,4.73,4.73,5.554,4.005,6.464l1.994,4.192c-0.347,0.648-0.632,1.334-0.849,2.05l-4.378,1.557C0.708,14.834,0.667,15.412,0.667,16s0.041,1.165,0.105,1.736l4.378,1.558c0.217,0.715,0.502,1.401,0.849,2.049l-1.994,4.193c0.725,0.909,1.549,1.733,2.459,2.458l4.192-1.993c0.648,0.347,1.334,0.633,2.05,0.851l1.557,4.377c0.571,0.064,1.148,0.104,1.737,0.104c0.588,0,1.165-0.04,1.736-0.104l1.558-4.377c0.715-0.218,1.399-0.504,2.049-0.851l4.193,1.993c0.909-0.725,1.733-1.549,2.458-2.458l-1.993-4.193c0.347-0.647,0.633-1.334,0.851-2.049L31.229,17.736zM16,20.871c-2.69,0-4.872-2.182-4.872-4.871c0-2.69,2.182-4.872,4.872-4.872c2.689,0,4.871,2.182,4.871,4.872C20.871,18.689,18.689,20.871,16,20.871z"></path><title>Link options.</title></g></g></g></g><!--z-index:36--><g   id="j_16" ><path  stroke="#707070" d="M 1209 1455 L 1551 1150" id="v-203" stroke-width="2" stroke-dasharray="30 30" fill="none" style="opacity: 1;"></path><path  fill="black" stroke="black" d="M 0 0 0 0" transform="matrix(0.7470967114560477,-0.6647153554203175,0.6647153554203175,0.7470967114560477,1208.5999755859375,1455)"></path><path  fill="#707070" stroke="#707070" d="M 20 0 L 0 10 L 20 20 z" id="v-205" transform="matrix(-0.7470965344316142,0.6647155543841831,-0.6647155543841831,-0.7470965344316142,1558.0471980365953,1157.470904527037)" style="opacity: 1;"></path><path  d="M 1209 1455 L 1551 1150" id="v-204" fill="none" style="cursor: default;"></path><g ><g id="v-197"  label-idx="0" cursor="move" transform="matrix(1,0,0,1,1380,1302.5)" style="cursor: default; opacity: 1;"><rect joint-selector="rect" id="v-200" fill="#ffffff" rx="3" ry="3" pointer-events="none" width="179.4490509033203" height="91.04215621948242" transform="matrix(1,0,0,1,-89.7,-45.5)"></rect><text joint-selector="text" id="v-199" font-size="24px" xml:space="preserve" y="0.8em" fill="#707070" text-anchor="middle" pointer-events="none" font-family="Open Sans" font-weight="normal" transform="matrix(1,0,0,1,0,-38.3)"><tspan dy="0" >Retrieves audit</tspan><tspan dy="1.2em" x="0" >logs for incident</tspan><tspan dy="1.2em" x="0" >investigation</tspan></text></g><g id="v-198"  label-idx="1" cursor="move" transform="matrix(1,0,0,1,1370,1357.699951171875)" style="cursor: default; opacity: 1;"><rect joint-selector="rect" id="v-202" fill="#ffffff" rx="3" ry="3"  width="0" height="0" transform="matrix(1,0,0,1,0,0)" display="none"></rect><text joint-selector="text" id="v-201" fill="#000000" font-size="14" text-anchor="middle" pointer-events="none"></text></g></g><g  display="none"></g><g  id="v-207" display="none"><g  id="v-195"><path  end="source" d="M 26 0 L 0 13 L 26 26 z"></path></g><g  id="v-196"><path  end="target" d="M 26 0 L 0 13 L 26 26 z"></path></g></g><g  id="v-206" display="none"><g  id="v-194" transform="translate(1238.8529892585273, 1428.3767201056994) "><g  event="remove"><circle r="11"></circle><path transform="scale(.8) translate(-16, -16)" d="M24.778,21.419 19.276,15.917 24.777,10.415 21.949,7.585 16.447,13.087 10.945,7.585 8.117,10.415 13.618,15.917 8.116,21.419 10.946,24.248 16.447,18.746 21.948,24.248z"></path><title>Remove link.</title></g><g  event="link:options"><circle r="11" transform="translate(25)"></circle><path fill="white" transform="scale(.55) translate(29, -16)" d="M31.229,17.736c0.064-0.571,0.104-1.148,0.104-1.736s-0.04-1.166-0.104-1.737l-4.377-1.557c-0.218-0.716-0.504-1.401-0.851-2.05l1.993-4.192c-0.725-0.91-1.549-1.734-2.458-2.459l-4.193,1.994c-0.647-0.347-1.334-0.632-2.049-0.849l-1.558-4.378C17.165,0.708,16.588,0.667,16,0.667s-1.166,0.041-1.737,0.105L12.707,5.15c-0.716,0.217-1.401,0.502-2.05,0.849L6.464,4.005C5.554,4.73,4.73,5.554,4.005,6.464l1.994,4.192c-0.347,0.648-0.632,1.334-0.849,2.05l-4.378,1.557C0.708,14.834,0.667,15.412,0.667,16s0.041,1.165,0.105,1.736l4.378,1.558c0.217,0.715,0.502,1.401,0.849,2.049l-1.994,4.193c0.725,0.909,1.549,1.733,2.459,2.458l4.192-1.993c0.648,0.347,1.334,0.633,2.05,0.851l1.557,4.377c0.571,0.064,1.148,0.104,1.737,0.104c0.588,0,1.165-0.04,1.736-0.104l1.558-4.377c0.715-0.218,1.399-0.504,2.049-0.851l4.193,1.993c0.909-0.725,1.733-1.549,2.458-2.458l-1.993-4.193c0.347-0.647,0.633-1.334,0.851-2.049L31.229,17.736zM16,20.871c-2.69,0-4.872-2.182-4.872-4.871c0-2.69,2.182-4.872,4.872-4.872c2.689,0,4.871,2.182,4.871,4.872C20.871,18.689,18.689,20.871,16,20.871z"></path><title>Link options.</title></g></g></g></g><!--z-index:37--><g   id="j_17" ><path  stroke="#707070" d="M 1709 570 L 1716 850" id="v-220" stroke-width="2" stroke-dasharray="30 30" fill="none" style="opacity: 1;"></path><path  fill="black" stroke="black" d="M 0 0 0 0" transform="matrix(0.025848558549964495,0.9996658701890793,-0.9996658701890793,0.025848558549964495,1708.8800048828125,570)"></path><path  fill="#707070" stroke="#707070" d="M 20 0 L 0 10 L 20 20 z" id="v-222" transform="matrix(-0.025848425436401437,-0.9996658736310142,0.9996658736310142,-0.025848425436401437,1706.123397783679,850.2584999242677)" style="opacity: 1;"></path><path  d="M 1709 570 L 1716 850" id="v-221" fill="none" style="cursor: default;"></path><g ><g id="v-214"  label-idx="0" cursor="move" transform="matrix(1,0,0,1,1712.5,710)" style="cursor: default; opacity: 1;"><rect joint-selector="rect" id="v-217" fill="#ffffff" rx="3" ry="3" pointer-events="none" width="175.2412872314453" height="91.04215621948242" transform="matrix(1,0,0,1,-87.6,-45.5)"></rect><text joint-selector="text" id="v-216" font-size="24px" xml:space="preserve" y="0.8em" fill="#707070" text-anchor="middle" pointer-events="none" font-family="Open Sans" font-weight="normal" transform="matrix(1,0,0,1,0,-38.3)"><tspan dy="0" >Fetches logs for</tspan><tspan dy="1.2em" x="0" >compliance</tspan><tspan dy="1.2em" x="0" >analysis</tspan></text></g><g id="v-215"  label-idx="1" cursor="move" transform="matrix(1,0,0,1,1702.5,765.2000122070312)" style="cursor: default; opacity: 1;"><rect joint-selector="rect" id="v-219" fill="#ffffff" rx="3" ry="3"  width="0" height="0" transform="matrix(1,0,0,1,0,0)" display="none"></rect><text joint-selector="text" id="v-218" fill="#000000" font-size="14" text-anchor="middle" pointer-events="none"></text></g></g><g  display="none"></g><g  id="v-224" display="none"><g  id="v-212"><path  end="source" d="M 26 0 L 0 13 L 26 26 z"></path></g><g  id="v-213"><path  end="target" d="M 26 0 L 0 13 L 26 26 z"></path></g></g><g  id="v-223" display="none"><g  id="v-211" transform="translate(1709.9996876464081, 609.9875058563249) "><g  event="remove"><circle r="11"></circle><path transform="scale(.8) translate(-16, -16)" d="M24.778,21.419 19.276,15.917 24.777,10.415 21.949,7.585 16.447,13.087 10.945,7.585 8.117,10.415 13.618,15.917 8.116,21.419 10.946,24.248 16.447,18.746 21.948,24.248z"></path><title>Remove link.</title></g><g  event="link:options"><circle r="11" transform="translate(25)"></circle><path fill="white" transform="scale(.55) translate(29, -16)" d="M31.229,17.736c0.064-0.571,0.104-1.148,0.104-1.736s-0.04-1.166-0.104-1.737l-4.377-1.557c-0.218-0.716-0.504-1.401-0.851-2.05l1.993-4.192c-0.725-0.91-1.549-1.734-2.458-2.459l-4.193,1.994c-0.647-0.347-1.334-0.632-2.049-0.849l-1.558-4.378C17.165,0.708,16.588,0.667,16,0.667s-1.166,0.041-1.737,0.105L12.707,5.15c-0.716,0.217-1.401,0.502-2.05,0.849L6.464,4.005C5.554,4.73,4.73,5.554,4.005,6.464l1.994,4.192c-0.347,0.648-0.632,1.334-0.849,2.05l-4.378,1.557C0.708,14.834,0.667,15.412,0.667,16s0.041,1.165,0.105,1.736l4.378,1.558c0.217,0.715,0.502,1.401,0.849,2.049l-1.994,4.193c0.725,0.909,1.549,1.733,2.459,2.458l4.192-1.993c0.648,0.347,1.334,0.633,2.05,0.851l1.557,4.377c0.571,0.064,1.148,0.104,1.737,0.104c0.588,0,1.165-0.04,1.736-0.104l1.558-4.377c0.715-0.218,1.399-0.504,2.049-0.851l4.193,1.993c0.909-0.725,1.733-1.549,2.458-2.458l-1.993-4.193c0.347-0.647,0.633-1.334,0.851-2.049L31.229,17.736zM16,20.871c-2.69,0-4.872-2.182-4.872-4.871c0-2.69,2.182-4.872,4.872-4.872c2.689,0,4.871,2.182,4.871,4.872C20.871,18.689,18.689,20.871,16,20.871z"></path><title>Link options.</title></g></g></g></g><!--z-index:38--><g   id="j_18" ><path  stroke="#707070" d="M 2288 555 L 1912 850" id="v-237" stroke-width="2" stroke-dasharray="30 30" fill="none" style="opacity: 1;"></path><path  fill="black" stroke="black" d="M 0 0 0 0" transform="matrix(-0.7873902551357993,0.6164548532676021,-0.6164548532676021,-0.7873902551357993,2288.39990234375,555)"></path><path  fill="#707070" stroke="#707070" d="M 20 0 L 0 10 L 20 20 z" id="v-239" transform="matrix(0.7873902551357992,-0.6164548532676022,0.6164548532676022,0.7873902551357992,1905.4354258690912,842.1260952000679)" style="opacity: 1;"></path><path  d="M 2288 555 L 1912 850" id="v-238" fill="none" style="cursor: default;"></path><g ><g id="v-231"  label-idx="0" cursor="move" transform="matrix(1,0,0,1,2100,702.5)" style="cursor: default; opacity: 1;"><rect joint-selector="rect" id="v-234" fill="#ffffff" rx="3" ry="3" pointer-events="none" width="198.89280700683594" height="119.8421516418457" transform="matrix(1,0,0,1,-99.4,-59.9)"></rect><text joint-selector="text" id="v-233" font-size="24px" xml:space="preserve" y="0.8em" fill="#707070" text-anchor="middle" pointer-events="none" font-family="Open Sans" font-weight="normal" transform="matrix(1,0,0,1,0,-52.7)"><tspan dy="0" >Logs</tspan><tspan dy="1.2em" x="0" >authentication</tspan><tspan dy="1.2em" x="0" >and authorization</tspan><tspan dy="1.2em" x="0" >events</tspan></text></g><g id="v-232"  label-idx="1" cursor="move" transform="matrix(1,0,0,1,2090,772.0999755859375)" style="cursor: default; opacity: 1;"><rect joint-selector="rect" id="v-236" fill="#ffffff" rx="3" ry="3"  width="0" height="0" transform="matrix(1,0,0,1,0,0)" display="none"></rect><text joint-selector="text" id="v-235" fill="#000000" font-size="14" text-anchor="middle" pointer-events="none"></text></g></g><g  display="none"></g><g  id="v-241" display="none"><g  id="v-229"><path  end="source" d="M 26 0 L 0 13 L 26 26 z"></path></g><g  id="v-230"><path  end="target" d="M 26 0 L 0 13 L 26 26 z"></path></g></g><g  id="v-240" display="none"><g  id="v-228" transform="translate(2256.5298483485853, 579.6906774924661) "><g  event="remove"><circle r="11"></circle><path transform="scale(.8) translate(-16, -16)" d="M24.778,21.419 19.276,15.917 24.777,10.415 21.949,7.585 16.447,13.087 10.945,7.585 8.117,10.415 13.618,15.917 8.116,21.419 10.946,24.248 16.447,18.746 21.948,24.248z"></path><title>Remove link.</title></g><g  event="link:options"><circle r="11" transform="translate(25)"></circle><path fill="white" transform="scale(.55) translate(29, -16)" d="M31.229,17.736c0.064-0.571,0.104-1.148,0.104-1.736s-0.04-1.166-0.104-1.737l-4.377-1.557c-0.218-0.716-0.504-1.401-0.851-2.05l1.993-4.192c-0.725-0.91-1.549-1.734-2.458-2.459l-4.193,1.994c-0.647-0.347-1.334-0.632-2.049-0.849l-1.558-4.378C17.165,0.708,16.588,0.667,16,0.667s-1.166,0.041-1.737,0.105L12.707,5.15c-0.716,0.217-1.401,0.502-2.05,0.849L6.464,4.005C5.554,4.73,4.73,5.554,4.005,6.464l1.994,4.192c-0.347,0.648-0.632,1.334-0.849,2.05l-4.378,1.557C0.708,14.834,0.667,15.412,0.667,16s0.041,1.165,0.105,1.736l4.378,1.558c0.217,0.715,0.502,1.401,0.849,2.049l-1.994,4.193c0.725,0.909,1.549,1.733,2.459,2.458l4.192-1.993c0.648,0.347,1.334,0.633,2.05,0.851l1.557,4.377c0.571,0.064,1.148,0.104,1.737,0.104c0.588,0,1.165-0.04,1.736-0.104l1.558-4.377c0.715-0.218,1.399-0.504,2.049-0.851l4.193,1.993c0.909-0.725,1.733-1.549,2.458-2.458l-1.993-4.193c0.347-0.647,0.633-1.334,0.851-2.049L31.229,17.736zM16,20.871c-2.69,0-4.872-2.182-4.872-4.871c0-2.69,2.182-4.872,4.872-4.872c2.689,0,4.871,2.182,4.871,4.872C20.871,18.689,18.689,20.871,16,20.871z"></path><title>Link options.</title></g></g></g></g><!--z-index:39--><g   id="j_19" ><path  stroke="#707070" d="M 2260 1007 L 1945 1003" id="v-254" stroke-width="2" stroke-dasharray="30 30" fill="none" style="opacity: 1;"></path><path  fill="black" stroke="black" d="M 0 0 0 0" transform="matrix(-0.99991447740516,-0.01307814495888464,0.01307814495888464,-0.99991447740516,2260,1007.0599975585938)"></path><path  fill="#707070" stroke="#707070" d="M 20 0 L 0 10 L 20 20 z" id="v-256" transform="matrix(0.9999144760718494,0.013078246899301255,-0.013078246899301255,0.9999144760718494,1945.1307832160871,992.9408735515385)" style="opacity: 1;"></path><path  d="M 2260 1007 L 1945 1003" id="v-255" fill="none" style="cursor: default;"></path><g ><g id="v-248"  label-idx="0" cursor="move" transform="matrix(1,0,0,1,2102.5,1005)" style="cursor: default; opacity: 1;"><rect joint-selector="rect" id="v-251" fill="#ffffff" rx="3" ry="3" pointer-events="none" width="171.91357421875" height="91.04215621948242" transform="matrix(1,0,0,1,-86,-45.5)"></rect><text joint-selector="text" id="v-250" font-size="24px" xml:space="preserve" y="0.8em" fill="#707070" text-anchor="middle" pointer-events="none" font-family="Open Sans" font-weight="normal" transform="matrix(1,0,0,1,0,-38.3)"><tspan dy="0" >Logs document</tspan><tspan dy="1.2em" x="0" >management</tspan><tspan dy="1.2em" x="0" >activities</tspan></text></g><g id="v-249"  label-idx="1" cursor="move" transform="matrix(1,0,0,1,2092.5,1060.199951171875)" style="cursor: default; opacity: 1;"><rect joint-selector="rect" id="v-253" fill="#ffffff" rx="3" ry="3"  width="0" height="0" transform="matrix(1,0,0,1,0,0)" display="none"></rect><text joint-selector="text" id="v-252" fill="#000000" font-size="14" text-anchor="middle" pointer-events="none"></text></g></g><g  display="none"></g><g  id="v-258" display="none"><g  id="v-246"><path  end="source" d="M 26 0 L 0 13 L 26 26 z"></path></g><g  id="v-247"><path  end="target" d="M 26 0 L 0 13 L 26 26 z"></path></g></g><g  id="v-257" display="none"><g  id="v-245" transform="translate(2220.0032246037317, 1006.4921044394125) "><g  event="remove"><circle r="11"></circle><path transform="scale(.8) translate(-16, -16)" d="M24.778,21.419 19.276,15.917 24.777,10.415 21.949,7.585 16.447,13.087 10.945,7.585 8.117,10.415 13.618,15.917 8.116,21.419 10.946,24.248 16.447,18.746 21.948,24.248z"></path><title>Remove link.</title></g><g  event="link:options"><circle r="11" transform="translate(25)"></circle><path fill="white" transform="scale(.55) translate(29, -16)" d="M31.229,17.736c0.064-0.571,0.104-1.148,0.104-1.736s-0.04-1.166-0.104-1.737l-4.377-1.557c-0.218-0.716-0.504-1.401-0.851-2.05l1.993-4.192c-0.725-0.91-1.549-1.734-2.458-2.459l-4.193,1.994c-0.647-0.347-1.334-0.632-2.049-0.849l-1.558-4.378C17.165,0.708,16.588,0.667,16,0.667s-1.166,0.041-1.737,0.105L12.707,5.15c-0.716,0.217-1.401,0.502-2.05,0.849L6.464,4.005C5.554,4.73,4.73,5.554,4.005,6.464l1.994,4.192c-0.347,0.648-0.632,1.334-0.849,2.05l-4.378,1.557C0.708,14.834,0.667,15.412,0.667,16s0.041,1.165,0.105,1.736l4.378,1.558c0.217,0.715,0.502,1.401,0.849,2.049l-1.994,4.193c0.725,0.909,1.549,1.733,2.459,2.458l4.192-1.993c0.648,0.347,1.334,0.633,2.05,0.851l1.557,4.377c0.571,0.064,1.148,0.104,1.737,0.104c0.588,0,1.165-0.04,1.736-0.104l1.558-4.377c0.715-0.218,1.399-0.504,2.049-0.851l4.193,1.993c0.909-0.725,1.733-1.549,2.458-2.458l-1.993-4.193c0.347-0.647,0.633-1.334,0.851-2.049L31.229,17.736zM16,20.871c-2.69,0-4.872-2.182-4.872-4.871c0-2.69,2.182-4.872,4.872-4.872c2.689,0,4.871,2.182,4.871,4.872C20.871,18.689,18.689,20.871,16,20.871z"></path><title>Link options.</title></g></g></g></g><!--z-index:40--><g   id="j_20" ><path  stroke="#707070" d="M 2292 1455 L 1908 1150" id="v-271" stroke-width="2" stroke-dasharray="30 30" fill="none" style="opacity: 1;"></path><path  fill="black" stroke="black" d="M 0 0 0 0" transform="matrix(-0.7823726852372868,-0.6228105501632076,0.6228105501632076,-0.7823726852372868,2291.570068359375,1455)"></path><path  fill="#707070" stroke="#707070" d="M 20 0 L 0 10 L 20 20 z" id="v-273" transform="matrix(0.7823726437711646,0.6228106022528186,-0.6228106022528186,0.7823726437711646,1914.6581637645043,1142.1763169538228)" style="opacity: 1;"></path><path  d="M 2292 1455 L 1908 1150" id="v-272" fill="none" style="cursor: default;"></path><g ><g id="v-265"  label-idx="0" cursor="move" transform="matrix(1,0,0,1,2100,1302.5)" style="cursor: default; opacity: 1;"><rect joint-selector="rect" id="v-268" fill="#ffffff" rx="3" ry="3" pointer-events="none" width="177.7439422607422" height="62.24215507507324" transform="matrix(1,0,0,1,-88.9,-31.1)"></rect><text joint-selector="text" id="v-267" font-size="24px" xml:space="preserve" y="0.8em" fill="#707070" text-anchor="middle" pointer-events="none" font-family="Open Sans" font-weight="normal" transform="matrix(1,0,0,1,0,-23.9)"><tspan dy="0" >Logs activities</tspan><tspan dy="1.2em" x="0" >and data access</tspan></text></g><g id="v-266"  label-idx="1" cursor="move" transform="matrix(1,0,0,1,2090,1343.300048828125)" style="cursor: default; opacity: 1;"><rect joint-selector="rect" id="v-270" fill="#ffffff" rx="3" ry="3"  width="0" height="0" transform="matrix(1,0,0,1,0,0)" display="none"></rect><text joint-selector="text" id="v-269" fill="#000000" font-size="14" text-anchor="middle" pointer-events="none"></text></g></g><g  display="none"></g><g  id="v-275" display="none"><g  id="v-263"><path  end="source" d="M 26 0 L 0 13 L 26 26 z"></path></g><g  id="v-264"><path  end="target" d="M 26 0 L 0 13 L 26 26 z"></path></g></g><g  id="v-274" display="none"><g  id="v-262" transform="translate(2260.6779029331797, 1430.1217718609892) "><g  event="remove"><circle r="11"></circle><path transform="scale(.8) translate(-16, -16)" d="M24.778,21.419 19.276,15.917 24.777,10.415 21.949,7.585 16.447,13.087 10.945,7.585 8.117,10.415 13.618,15.917 8.116,21.419 10.946,24.248 16.447,18.746 21.948,24.248z"></path><title>Remove link.</title></g><g  event="link:options"><circle r="11" transform="translate(25)"></circle><path fill="white" transform="scale(.55) translate(29, -16)" d="M31.229,17.736c0.064-0.571,0.104-1.148,0.104-1.736s-0.04-1.166-0.104-1.737l-4.377-1.557c-0.218-0.716-0.504-1.401-0.851-2.05l1.993-4.192c-0.725-0.91-1.549-1.734-2.458-2.459l-4.193,1.994c-0.647-0.347-1.334-0.632-2.049-0.849l-1.558-4.378C17.165,0.708,16.588,0.667,16,0.667s-1.166,0.041-1.737,0.105L12.707,5.15c-0.716,0.217-1.401,0.502-2.05,0.849L6.464,4.005C5.554,4.73,4.73,5.554,4.005,6.464l1.994,4.192c-0.347,0.648-0.632,1.334-0.849,2.05l-4.378,1.557C0.708,14.834,0.667,15.412,0.667,16s0.041,1.165,0.105,1.736l4.378,1.558c0.217,0.715,0.502,1.401,0.849,2.049l-1.994,4.193c0.725,0.909,1.549,1.733,2.459,2.458l4.192-1.993c0.648,0.347,1.334,0.633,2.05,0.851l1.557,4.377c0.571,0.064,1.148,0.104,1.737,0.104c0.588,0,1.165-0.04,1.736-0.104l1.558-4.377c0.715-0.218,1.399-0.504,2.049-0.851l4.193,1.993c0.909-0.725,1.733-1.549,2.458-2.458l-1.993-4.193c0.347-0.647,0.633-1.334,0.851-2.049L31.229,17.736zM16,20.871c-2.69,0-4.872-2.182-4.872-4.871c0-2.69,2.182-4.872,4.872-4.872c2.689,0,4.871,2.182,4.871,4.872C20.871,18.689,18.689,20.871,16,20.871z"></path><title>Link options.</title></g></g></g></g><!--z-index:41--><g   id="j_21" ><path  stroke="#707070" d="M 1720 1470 L 1720 1150" id="v-288" stroke-width="2" stroke-dasharray="30 30" fill="none" style="opacity: 1;"></path><path  fill="black" stroke="black" d="M 0 0 0 0" transform="matrix(-1.8369701987210297e-16,-1,1,-1.8369701987210297e-16,1720,1470)"></path><path  fill="#707070" stroke="#707070" d="M 20 0 L 0 10 L 20 20 z" id="v-290" transform="matrix(6.123233995736766e-17,1,-1,6.123233995736766e-17,1730,1150.0000000000002)" style="opacity: 1;"></path><path  d="M 1720 1470 L 1720 1150" id="v-289" fill="none" style="cursor: default;"></path><g ><g id="v-282"  label-idx="0" cursor="move" transform="matrix(1,0,0,1,1720,1310)" style="cursor: default; opacity: 1;"><rect joint-selector="rect" id="v-285" fill="#ffffff" rx="3" ry="3" pointer-events="none" width="137.83888244628906" height="62.24215507507324" transform="matrix(1,0,0,1,-68.9,-31.1)"></rect><text joint-selector="text" id="v-284" font-size="24px" xml:space="preserve" y="0.8em" fill="#707070" text-anchor="middle" pointer-events="none" font-family="Open Sans" font-weight="normal" transform="matrix(1,0,0,1,0,-23.9)"><tspan dy="0" >Logs billing</tspan><tspan dy="1.2em" x="0" >transactions</tspan></text></g><g id="v-283"  label-idx="1" cursor="move" transform="matrix(1,0,0,1,1710,1350.800048828125)" style="cursor: default; opacity: 1;"><rect joint-selector="rect" id="v-287" fill="#ffffff" rx="3" ry="3"  width="0" height="0" transform="matrix(1,0,0,1,0,0)" display="none"></rect><text joint-selector="text" id="v-286" fill="#000000" font-size="14" text-anchor="middle" pointer-events="none"></text></g></g><g  display="none"></g><g  id="v-292" display="none"><g  id="v-280"><path  end="source" d="M 26 0 L 0 13 L 26 26 z"></path></g><g  id="v-281"><path  end="target" d="M 26 0 L 0 13 L 26 26 z"></path></g></g><g  id="v-291" display="none"><g  id="v-279" transform="translate(1720, 1430) "><g  event="remove"><circle r="11"></circle><path transform="scale(.8) translate(-16, -16)" d="M24.778,21.419 19.276,15.917 24.777,10.415 21.949,7.585 16.447,13.087 10.945,7.585 8.117,10.415 13.618,15.917 8.116,21.419 10.946,24.248 16.447,18.746 21.948,24.248z"></path><title>Remove link.</title></g><g  event="link:options"><circle r="11" transform="translate(25)"></circle><path fill="white" transform="scale(.55) translate(29, -16)" d="M31.229,17.736c0.064-0.571,0.104-1.148,0.104-1.736s-0.04-1.166-0.104-1.737l-4.377-1.557c-0.218-0.716-0.504-1.401-0.851-2.05l1.993-4.192c-0.725-0.91-1.549-1.734-2.458-2.459l-4.193,1.994c-0.647-0.347-1.334-0.632-2.049-0.849l-1.558-4.378C17.165,0.708,16.588,0.667,16,0.667s-1.166,0.041-1.737,0.105L12.707,5.15c-0.716,0.217-1.401,0.502-2.05,0.849L6.464,4.005C5.554,4.73,4.73,5.554,4.005,6.464l1.994,4.192c-0.347,0.648-0.632,1.334-0.849,2.05l-4.378,1.557C0.708,14.834,0.667,15.412,0.667,16s0.041,1.165,0.105,1.736l4.378,1.558c0.217,0.715,0.502,1.401,0.849,2.049l-1.994,4.193c0.725,0.909,1.549,1.733,2.459,2.458l4.192-1.993c0.648,0.347,1.334,0.633,2.05,0.851l1.557,4.377c0.571,0.064,1.148,0.104,1.737,0.104c0.588,0,1.165-0.04,1.736-0.104l1.558-4.377c0.715-0.218,1.399-0.504,2.049-0.851l4.193,1.993c0.909-0.725,1.733-1.549,2.458-2.458l-1.993-4.193c0.347-0.647,0.633-1.334,0.851-2.049L31.229,17.736zM16,20.871c-2.69,0-4.872-2.182-4.872-4.871c0-2.69,2.182-4.872,4.872-4.872c2.689,0,4.871,2.182,4.871,4.872C20.871,18.689,18.689,20.871,16,20.871z"></path><title>Link options.</title></g></g></g></g><!--z-index:42--></g><g ></g><g ></g><g ></g></g></svg>