<svg xmlns="http://www.w3.org/2000/svg" xmlns:xlink="http://www.w3.org/1999/xlink" version="1.1" viewBox="0 0 3120 2204" style="background: #ffffff"><defs><style>@import url(https://fonts.googleapis.com/css?family=Open+Sans:400,700);</style></defs><defs joint-selector="defs"></defs><g joint-selector="layers"  transform="matrix(1,0,0,1,0,0)"><g ></g><g ><!--z-index:1--><!--z-index:2--><!--z-index:3--><!--z-index:4--><!--z-index:5--><!--z-index:6--><!--z-index:7--><!--z-index:8--><!--z-index:9--><!--z-index:10--><!--z-index:11--><!--z-index:12--><!--z-index:13--><!--z-index:14--><!--z-index:15--><!--z-index:16--><!--z-index:17--><!--z-index:18--><!--z-index:19--><g   id="j_2"  transform="translate(20,2167.6)"><g id="v-5"><text  id="v-6" font-size="22px" xml:space="preserve" y="0.8em" font-weight="normal" text-anchor="start" fill="#aaaaaa" pointer-events="none" display="block" font-family="Open Sans"><tspan dy="0"  display="none">Tuesday, August 13, 2024 at 12:43 PM Eastern Daylight Time</tspan></text></g></g><!--z-index:20--><g   id="j_1"  transform="translate(20,2124.4)"><g id="v-3"><text  id="v-4" font-size="36px" xml:space="preserve" y="0.8em" font-weight="normal" text-anchor="start" fill="#000000" pointer-events="none" display="block" font-family="Open Sans"><tspan dy="0"  display="none">[Component] Document Management System - Upload Document</tspan></text></g></g><!--z-index:21--><g   id="j_3"  transform="translate(199,1703)" style=""><g  id="v-7" style="opacity: 1;"><rect  id="v-8" rx="20" ry="20" stroke="#0f5eaa" stroke-width="2" pointer-events="visiblePainted" fill="#1168bd" width="450" height="300" style="fill: rgb(17, 104, 189); stroke: rgb(15, 94, 170);"></rect><text  id="v-9" font-size="34" xml:space="preserve" y="0.8em" font-weight="bold" text-anchor="middle" pointer-events="visible" font-family="Open Sans" fill="#ffffff" transform="matrix(1,0,0,1,225,121.9)" style="fill: rgb(255, 255, 255);"><tspan dy="0" >UI Application</tspan></text><text  id="v-10" font-size="17" xml:space="preserve" y="0.8em" text-anchor="middle" font-family="Open Sans" fill="#ffffff" transform="matrix(1,0,0,1,225,162.7)" style="fill: rgb(255, 255, 255);"><tspan dy="0" >[Software System]</tspan></text><text  id="v-11" font-size="24" xml:space="preserve" display="none" y="0.8em" text-anchor="middle" font-family="Open Sans" fill="#ffffff" transform="matrix(1,0,0,1,225,183.1)" style="fill: rgb(255, 255, 255);"><tspan dy="0" style="fill-opacity: 0; stroke-opacity: 0;" >-</tspan></text><g  id="v-12" color="#ffffff" transform="matrix(1,0,0,1,222.5,268)" display="none" style="fill: rgb(255, 255, 255);"><g ></g><g ></g><g ></g><g ></g></g><image  id="v-13"></image></g></g><!--z-index:22--><g   id="j_4"  transform="translate(2449,199)" style=""><g  id="v-14" style="opacity: 1;"><rect  id="v-15" rx="20" ry="20" stroke="#0f5eaa" stroke-width="2" pointer-events="visiblePainted" fill="#1168bd" width="450" height="300" style="fill: rgb(17, 104, 189); stroke: rgb(15, 94, 170);"></rect><text  id="v-16" font-size="34" xml:space="preserve" y="0.8em" font-weight="bold" text-anchor="middle" pointer-events="visible" font-family="Open Sans" fill="#ffffff" transform="matrix(1,0,0,1,225,121.9)" style="fill: rgb(255, 255, 255);"><tspan dy="0" >Audit Service</tspan></text><text  id="v-17" font-size="17" xml:space="preserve" y="0.8em" text-anchor="middle" font-family="Open Sans" fill="#ffffff" transform="matrix(1,0,0,1,225,162.7)" style="fill: rgb(255, 255, 255);"><tspan dy="0" >[Software System]</tspan></text><text  id="v-18" font-size="24" xml:space="preserve" display="none" y="0.8em" text-anchor="middle" font-family="Open Sans" fill="#ffffff" transform="matrix(1,0,0,1,225,183.1)" style="fill: rgb(255, 255, 255);"><tspan dy="0" style="fill-opacity: 0; stroke-opacity: 0;" >-</tspan></text><g  id="v-19" color="#ffffff" transform="matrix(1,0,0,1,222.5,268)" display="none" style="fill: rgb(255, 255, 255);"><g ></g><g ></g><g ></g><g ></g></g><image  id="v-20"></image></g></g><!--z-index:23--><g   id="j_6"  transform="translate(929,779)" style=""><g id="v-37"><rect  id="v-38" width="1990" height="1011" rx="0" ry="0" fill="#ffffff" stroke="#3c7fc0" stroke-width="1" stroke-dasharray="20,20" pointer-events="none"></rect><text  id="v-39" font-size="24px" xml:space="preserve" y="972" font-weight="normal" fill="#3c7fc0" text-anchor="start" pointer-events="visible" font-family="Open Sans" transform="matrix(1,0,0,1,15,0)"><tspan dy="0" >Upload Document</tspan></text><text  id="v-40" font-size="17px" xml:space="preserve" y="996" font-weight="normal" fill="#3c7fc0" text-anchor="start" pointer-events="visible" font-family="Open Sans" transform="matrix(1,0,0,1,15,0)"><tspan dy="0" >[Container]</tspan></text><image  id="v-41" pointer-events="visible"></image></g></g><!--z-index:24--><g   id="j_5"  transform="translate(949,1399)" style=""><g  id="v-30" style="opacity: 1;"><rect  id="v-31" rx="20" ry="20" stroke="#78a8d8" stroke-width="2" pointer-events="visiblePainted" fill="#85bbf0" width="450" height="300" style="fill: rgb(133, 187, 240); stroke: rgb(120, 168, 216);"></rect><text  id="v-32" font-size="34" xml:space="preserve" y="0.8em" font-weight="bold" text-anchor="middle" pointer-events="visible" font-family="Open Sans" fill="#000000" transform="matrix(1,0,0,1,225,88.1)" style="fill: rgb(0, 0, 0);"><tspan dy="0" >Document Upload API</tspan></text><text  id="v-33" font-size="17" xml:space="preserve" y="0.8em" text-anchor="middle" font-family="Open Sans" fill="#000000" transform="matrix(1,0,0,1,225,128.9)" style="fill: rgb(0, 0, 0);"><tspan dy="0" >[Component: AWS API Gateway - REST / POST]</tspan></text><text  id="v-34" font-size="24" xml:space="preserve" y="0.8em" text-anchor="middle" font-family="Open Sans" fill="#000000" transform="matrix(1,0,0,1,225,159.3)" style="fill: rgb(0, 0, 0);"><tspan dy="0" >API for generating S3 pre-signed</tspan><tspan dy="1.2em" x="0" >upload URLs.</tspan></text><g  id="v-35" color="#000000" transform="matrix(1,0,0,1,222.5,268)" display="none" style="fill: rgb(0, 0, 0);"><g ></g><g ></g><g ></g><g ></g></g><image  id="v-36"></image></g></g><!--z-index:25--><g   id="j_7"  transform="translate(2449,1399)" style=""><g  id="v-45" style="opacity: 1;"><rect  id="v-46" rx="20" ry="20" stroke="#78a8d8" stroke-width="2" pointer-events="visiblePainted" fill="#85bbf0" width="450" height="300" style="fill: rgb(133, 187, 240); stroke: rgb(120, 168, 216);"></rect><text  id="v-47" font-size="34" xml:space="preserve" y="0.8em" font-weight="bold" text-anchor="middle" pointer-events="visible" font-family="Open Sans" fill="#000000" transform="matrix(1,0,0,1,225,102.5)" style="fill: rgb(0, 0, 0);"><tspan dy="0" >Document Storage (S3)</tspan></text><text  id="v-48" font-size="17" xml:space="preserve" y="0.8em" text-anchor="middle" font-family="Open Sans" fill="#000000" transform="matrix(1,0,0,1,225,143.3)" style="fill: rgb(0, 0, 0);"><tspan dy="0" >[Component: AWS S3]</tspan></text><text  id="v-49" font-size="24" xml:space="preserve" y="0.8em" text-anchor="middle" font-family="Open Sans" fill="#000000" transform="matrix(1,0,0,1,225,173.7)" style="fill: rgb(0, 0, 0);"><tspan dy="0" >Documents storage</tspan></text><g  id="v-50" color="#000000" transform="matrix(1,0,0,1,222.5,268)" display="none" style="fill: rgb(0, 0, 0);"><g ></g><g ></g><g ></g><g ></g></g><image  id="v-51"></image></g></g><!--z-index:26--><g   id="j_8"  transform="translate(2449,799)" style=""><g  id="v-58" style="opacity: 1;"><rect  id="v-59" rx="20" ry="20" stroke="#78a8d8" stroke-width="2" pointer-events="visiblePainted" fill="#85bbf0" width="450" height="300" style="fill: rgb(133, 187, 240); stroke: rgb(120, 168, 216);"></rect><text  id="v-60" font-size="34" xml:space="preserve" y="0.8em" font-weight="bold" text-anchor="middle" pointer-events="visible" font-family="Open Sans" fill="#000000" transform="matrix(1,0,0,1,225,82.1)" style="fill: rgb(0, 0, 0);"><tspan dy="0" >Metadata Storage</tspan><tspan dy="1.2em" x="0" >(DynamoDB)</tspan></text><text  id="v-61" font-size="17" xml:space="preserve" y="0.8em" text-anchor="middle" font-family="Open Sans" fill="#000000" transform="matrix(1,0,0,1,225,163.7)" style="fill: rgb(0, 0, 0);"><tspan dy="0" >[Component: AWS DynamoDB]</tspan></text><text  id="v-62" font-size="24" xml:space="preserve" y="0.8em" text-anchor="middle" font-family="Open Sans" fill="#000000" transform="matrix(1,0,0,1,225,194.1)" style="fill: rgb(0, 0, 0);"><tspan dy="0" >Documents metadata storage</tspan></text><g  id="v-63" color="#000000" transform="matrix(1,0,0,1,222.5,268)" display="none" style="fill: rgb(0, 0, 0);"><g ></g><g ></g><g ></g><g ></g></g><image  id="v-64"></image></g></g><!--z-index:27--><g   id="j_9"  transform="translate(1699,1399)" style=""><g  id="v-74" style="opacity: 1;"><rect  id="v-75" rx="20" ry="20" stroke="#78a8d8" stroke-width="2" pointer-events="visiblePainted" fill="#85bbf0" width="450" height="300" style="fill: rgb(133, 187, 240); stroke: rgb(120, 168, 216);"></rect><text  id="v-76" font-size="34" xml:space="preserve" y="0.8em" font-weight="bold" text-anchor="middle" pointer-events="visible" font-family="Open Sans" fill="#000000" transform="matrix(1,0,0,1,225,53.3)" style="fill: rgb(0, 0, 0);"><tspan dy="0" >Generate Presigned</tspan><tspan dy="1.2em" x="0" >Upload Urls Lambda</tspan></text><text  id="v-77" font-size="17" xml:space="preserve" y="0.8em" text-anchor="middle" font-family="Open Sans" fill="#000000" transform="matrix(1,0,0,1,225,134.9)" style="fill: rgb(0, 0, 0);"><tspan dy="0" >[Component: AWS Lambda - NodeJS/TypeScript]</tspan></text><text  id="v-78" font-size="24" xml:space="preserve" y="0.8em" text-anchor="middle" font-family="Open Sans" fill="#000000" transform="matrix(1,0,0,1,225,165.3)" style="fill: rgb(0, 0, 0);"><tspan dy="0" >Processor for URLs generation in</tspan><tspan dy="1.2em" x="0" >the upload process (5 mins</tspan><tspan dy="1.2em" x="0" >expiration time)</tspan></text><g  id="v-79" color="#000000" transform="matrix(1,0,0,1,222.5,268)" display="none" style="fill: rgb(0, 0, 0);"><g ></g><g ></g><g ></g><g ></g></g><image  id="v-80"></image></g></g><!--z-index:28--><g   id="j_10"  transform="translate(1699,799)" style=""><g  id="v-90" style="opacity: 1;"><rect  id="v-91" rx="20" ry="20" stroke="#78a8d8" stroke-width="2" pointer-events="visiblePainted" fill="#85bbf0" width="450" height="300" style="fill: rgb(133, 187, 240); stroke: rgb(120, 168, 216);"></rect><text  id="v-92" font-size="34" xml:space="preserve" y="0.8em" font-weight="bold" text-anchor="middle" pointer-events="visible" font-family="Open Sans" fill="#000000" transform="matrix(1,0,0,1,225,53.3)" style="fill: rgb(0, 0, 0);"><tspan dy="0" >S3 Upload Listener</tspan><tspan dy="1.2em" x="0" >Lambda</tspan></text><text  id="v-93" font-size="17" xml:space="preserve" y="0.8em" text-anchor="middle" font-family="Open Sans" fill="#000000" transform="matrix(1,0,0,1,225,134.9)" style="fill: rgb(0, 0, 0);"><tspan dy="0" >[Component: AWS Lambda - NodeJS/TypeScript]</tspan></text><text  id="v-94" font-size="24" xml:space="preserve" y="0.8em" text-anchor="middle" font-family="Open Sans" fill="#000000" transform="matrix(1,0,0,1,225,165.3)" style="fill: rgb(0, 0, 0);"><tspan dy="0" >Processor for captchuring upload</tspan><tspan dy="1.2em" x="0" >events, creation of metadata record</tspan><tspan dy="1.2em" x="0" >and audit record</tspan></text><g  id="v-95" color="#000000" transform="matrix(1,0,0,1,222.5,268)" display="none" style="fill: rgb(0, 0, 0);"><g ></g><g ></g><g ></g><g ></g></g><image  id="v-96"></image></g></g><!--z-index:29--><g   id="j_11" ><path  stroke="#707070" d="M 649 1762 L 949 1640" id="v-109" stroke-width="2" stroke-dasharray="30 30" fill="none" style="opacity: 1;"></path><path  fill="black" stroke="black" d="M 0 0 0 0" transform="matrix(0.9267624660880707,-0.3756478822652373,0.3756478822652373,0.9267624660880707,649,1761.800048828125)"></path><path  fill="#707070" stroke="#707070" d="M 20 0 L 0 10 L 20 20 z" id="v-111" transform="matrix(-0.9267625661291203,0.37564763545344976,-0.37564763545344976,-0.9267625661291203,952.7564628556695,1649.4675702051943)" style="opacity: 1;"></path><path  d="M 649 1762 L 949 1640" id="v-110" fill="none" style="cursor: auto; pointer-events: visiblepainted;"></path><g ><g id="v-103"  label-idx="0" cursor="move" transform="matrix(1,0,0,1,799,1701)" style="cursor: default; opacity: 1;"><rect joint-selector="rect" id="v-106" fill="#ffffff" rx="3" ry="3" pointer-events="none" width="181.5348358154297" height="119.38504028320312" transform="matrix(1,0,0,1,-90.8,-59.7)"></rect><text joint-selector="text" id="v-105" font-size="24px" xml:space="preserve" y="0.8em" fill="#707070" text-anchor="middle" pointer-events="none" font-family="Open Sans" font-weight="normal" transform="matrix(1,0,0,1,0,-53.4)"><tspan dy="0" >Requests list of</tspan><tspan dy="1.2em" x="0" >pre-signed URLs</tspan><tspan dy="1.2em" x="0" >for uploaded</tspan><tspan dy="1.2em" x="0" >documents</tspan></text></g><g id="v-104"  label-idx="1" cursor="move" transform="matrix(1,0,0,1,789,1770.5999755859375)" style="cursor: default; opacity: 1;"><rect joint-selector="rect" id="v-108" fill="#ffffff" rx="3" ry="3"  width="0" height="0" transform="matrix(1,0,0,1,0,0)" display="none"></rect><text joint-selector="text" id="v-107" fill="#000000" font-size="14" text-anchor="middle" pointer-events="none"></text></g></g><g  display="none" style="display: none;"></g><g  id="v-113" display="none"><g  id="v-101"><path  end="source" d="M 26 0 L 0 13 L 26 26 z"></path></g><g  id="v-102"><path  end="target" d="M 26 0 L 0 13 L 26 26 z"></path></g></g><g  id="v-112" display="none"><g  id="v-100" transform="translate(686.053277171495, 1746.931667283592) "><g  event="remove"><circle r="11"></circle><path transform="scale(.8) translate(-16, -16)" d="M24.778,21.419 19.276,15.917 24.777,10.415 21.949,7.585 16.447,13.087 10.945,7.585 8.117,10.415 13.618,15.917 8.116,21.419 10.946,24.248 16.447,18.746 21.948,24.248z"></path><title>Remove link.</title></g><g  event="link:options"><circle r="11" transform="translate(25)"></circle><path fill="white" transform="scale(.55) translate(29, -16)" d="M31.229,17.736c0.064-0.571,0.104-1.148,0.104-1.736s-0.04-1.166-0.104-1.737l-4.377-1.557c-0.218-0.716-0.504-1.401-0.851-2.05l1.993-4.192c-0.725-0.91-1.549-1.734-2.458-2.459l-4.193,1.994c-0.647-0.347-1.334-0.632-2.049-0.849l-1.558-4.378C17.165,0.708,16.588,0.667,16,0.667s-1.166,0.041-1.737,0.105L12.707,5.15c-0.716,0.217-1.401,0.502-2.05,0.849L6.464,4.005C5.554,4.73,4.73,5.554,4.005,6.464l1.994,4.192c-0.347,0.648-0.632,1.334-0.849,2.05l-4.378,1.557C0.708,14.834,0.667,15.412,0.667,16s0.041,1.165,0.105,1.736l4.378,1.558c0.217,0.715,0.502,1.401,0.849,2.049l-1.994,4.193c0.725,0.909,1.549,1.733,2.459,2.458l4.192-1.993c0.648,0.347,1.334,0.633,2.05,0.851l1.557,4.377c0.571,0.064,1.148,0.104,1.737,0.104c0.588,0,1.165-0.04,1.736-0.104l1.558-4.377c0.715-0.218,1.399-0.504,2.049-0.851l4.193,1.993c0.909-0.725,1.733-1.549,2.458-2.458l-1.993-4.193c0.347-0.647,0.633-1.334,0.851-2.049L31.229,17.736zM16,20.871c-2.69,0-4.872-2.182-4.872-4.871c0-2.69,2.182-4.872,4.872-4.872c2.689,0,4.871,2.182,4.871,4.872C20.871,18.689,18.689,20.871,16,20.871z"></path><title>Link options.</title></g></g></g></g><!--z-index:30--><g   id="j_12" ><path  stroke="#707070" d="M 1399 1549 L 1699 1549" id="v-123" stroke-width="2" stroke-dasharray="30 30" fill="none" style="opacity: 1;"></path><path  fill="black" stroke="black" d="M 0 0 0 0" transform="matrix(1,0,0,1,1399,1549)"></path><path  fill="#707070" stroke="#707070" d="M 20 0 L 0 10 L 20 20 z" id="v-125" transform="matrix(-1,1.2246467991473532e-16,-1.2246467991473532e-16,-1,1699,1559)" style="opacity: 1;"></path><path  d="M 1399 1549 L 1699 1549" id="v-124" fill="none" style="cursor: auto; pointer-events: visiblepainted;"></path><g ><g id="v-117"  label-idx="0" cursor="move" transform="matrix(1,0,0,1,1549,1549)" style="cursor: default; opacity: 1;"><rect joint-selector="rect" id="v-120" fill="#ffffff" rx="3" ry="3" pointer-events="none" width="85.18010711669922" height="32.98503494262695" transform="matrix(1,0,0,1,-42.6,-16.5)"></rect><text joint-selector="text" id="v-119" font-size="24px" xml:space="preserve" y="0.8em" fill="#707070" text-anchor="middle" pointer-events="none" font-family="Open Sans" font-weight="normal" transform="matrix(1,0,0,1,0,-10.2)"><tspan dy="0" >triggers</tspan></text></g><g id="v-118"  label-idx="1" cursor="move" transform="matrix(1,0,0,1,1539,1575.4000244140625)" style="cursor: default; opacity: 1;"><rect joint-selector="rect" id="v-122" fill="#ffffff" rx="3" ry="3"  width="0" height="0" transform="matrix(1,0,0,1,0,0)" display="none"></rect><text joint-selector="text" id="v-121" fill="#000000" font-size="14" text-anchor="middle" pointer-events="none"></text></g></g><g  display="none" style="display: none;"></g><g  id="v-127" display="none"><g  id="v-115"><path  end="source" d="M 26 0 L 0 13 L 26 26 z"></path></g><g  id="v-116"><path  end="target" d="M 26 0 L 0 13 L 26 26 z"></path></g></g><g  id="v-126" display="none"><g  id="v-114" transform="translate(1439, 1549) "><g  event="remove"><circle r="11"></circle><path transform="scale(.8) translate(-16, -16)" d="M24.778,21.419 19.276,15.917 24.777,10.415 21.949,7.585 16.447,13.087 10.945,7.585 8.117,10.415 13.618,15.917 8.116,21.419 10.946,24.248 16.447,18.746 21.948,24.248z"></path><title>Remove link.</title></g><g  event="link:options"><circle r="11" transform="translate(25)"></circle><path fill="white" transform="scale(.55) translate(29, -16)" d="M31.229,17.736c0.064-0.571,0.104-1.148,0.104-1.736s-0.04-1.166-0.104-1.737l-4.377-1.557c-0.218-0.716-0.504-1.401-0.851-2.05l1.993-4.192c-0.725-0.91-1.549-1.734-2.458-2.459l-4.193,1.994c-0.647-0.347-1.334-0.632-2.049-0.849l-1.558-4.378C17.165,0.708,16.588,0.667,16,0.667s-1.166,0.041-1.737,0.105L12.707,5.15c-0.716,0.217-1.401,0.502-2.05,0.849L6.464,4.005C5.554,4.73,4.73,5.554,4.005,6.464l1.994,4.192c-0.347,0.648-0.632,1.334-0.849,2.05l-4.378,1.557C0.708,14.834,0.667,15.412,0.667,16s0.041,1.165,0.105,1.736l4.378,1.558c0.217,0.715,0.502,1.401,0.849,2.049l-1.994,4.193c0.725,0.909,1.549,1.733,2.459,2.458l4.192-1.993c0.648,0.347,1.334,0.633,2.05,0.851l1.557,4.377c0.571,0.064,1.148,0.104,1.737,0.104c0.588,0,1.165-0.04,1.736-0.104l1.558-4.377c0.715-0.218,1.399-0.504,2.049-0.851l4.193,1.993c0.909-0.725,1.733-1.549,2.458-2.458l-1.993-4.193c0.347-0.647,0.633-1.334,0.851-2.049L31.229,17.736zM16,20.871c-2.69,0-4.872-2.182-4.872-4.871c0-2.69,2.182-4.872,4.872-4.872c2.689,0,4.871,2.182,4.871,4.872C20.871,18.689,18.689,20.871,16,20.871z"></path><title>Link options.</title></g></g></g></g><!--z-index:31--><g   id="j_13" ><path  stroke="#707070" d="M 2149 1549 L 2449 1549" id="v-140" stroke-width="2" stroke-dasharray="30 30" fill="none" style="opacity: 1;"></path><path  fill="black" stroke="black" d="M 0 0 0 0" transform="matrix(1,0,0,1,2149,1549)"></path><path  fill="#707070" stroke="#707070" d="M 20 0 L 0 10 L 20 20 z" id="v-142" transform="matrix(-1,1.2246467991473532e-16,-1.2246467991473532e-16,-1,2449,1559)" style="opacity: 1;"></path><path  d="M 2149 1549 L 2449 1549" id="v-141" fill="none" style="cursor: auto; pointer-events: visiblepainted;"></path><g ><g id="v-134"  label-idx="0" cursor="move" transform="matrix(1,0,0,1,2299,1549)" style="cursor: default; opacity: 1;"><rect joint-selector="rect" id="v-137" fill="#ffffff" rx="3" ry="3" pointer-events="none" width="179.41470336914062" height="61.78503227233887" transform="matrix(1,0,0,1,-89.2,-30.9)"></rect><text joint-selector="text" id="v-136" font-size="24px" xml:space="preserve" y="0.8em" fill="#707070" text-anchor="middle" pointer-events="none" font-family="Open Sans" font-weight="normal" transform="matrix(1,0,0,1,0,-24.6)"><tspan dy="0" >generates list of</tspan><tspan dy="1.2em" x="0" >URLs</tspan></text></g><g id="v-135"  label-idx="1" cursor="move" transform="matrix(1,0,0,1,2289,1589.800048828125)" style="cursor: default; opacity: 1;"><rect joint-selector="rect" id="v-139" fill="#ffffff" rx="3" ry="3"  width="0" height="0" transform="matrix(1,0,0,1,0,0)" display="none"></rect><text joint-selector="text" id="v-138" fill="#000000" font-size="14" text-anchor="middle" pointer-events="none"></text></g></g><g  display="none" style="display: none;"></g><g  id="v-144" display="none"><g  id="v-132"><path  end="source" d="M 26 0 L 0 13 L 26 26 z"></path></g><g  id="v-133"><path  end="target" d="M 26 0 L 0 13 L 26 26 z"></path></g></g><g  id="v-143" display="none"><g  id="v-131" transform="translate(2189, 1549) "><g  event="remove"><circle r="11"></circle><path transform="scale(.8) translate(-16, -16)" d="M24.778,21.419 19.276,15.917 24.777,10.415 21.949,7.585 16.447,13.087 10.945,7.585 8.117,10.415 13.618,15.917 8.116,21.419 10.946,24.248 16.447,18.746 21.948,24.248z"></path><title>Remove link.</title></g><g  event="link:options"><circle r="11" transform="translate(25)"></circle><path fill="white" transform="scale(.55) translate(29, -16)" d="M31.229,17.736c0.064-0.571,0.104-1.148,0.104-1.736s-0.04-1.166-0.104-1.737l-4.377-1.557c-0.218-0.716-0.504-1.401-0.851-2.05l1.993-4.192c-0.725-0.91-1.549-1.734-2.458-2.459l-4.193,1.994c-0.647-0.347-1.334-0.632-2.049-0.849l-1.558-4.378C17.165,0.708,16.588,0.667,16,0.667s-1.166,0.041-1.737,0.105L12.707,5.15c-0.716,0.217-1.401,0.502-2.05,0.849L6.464,4.005C5.554,4.73,4.73,5.554,4.005,6.464l1.994,4.192c-0.347,0.648-0.632,1.334-0.849,2.05l-4.378,1.557C0.708,14.834,0.667,15.412,0.667,16s0.041,1.165,0.105,1.736l4.378,1.558c0.217,0.715,0.502,1.401,0.849,2.049l-1.994,4.193c0.725,0.909,1.549,1.733,2.459,2.458l4.192-1.993c0.648,0.347,1.334,0.633,2.05,0.851l1.557,4.377c0.571,0.064,1.148,0.104,1.737,0.104c0.588,0,1.165-0.04,1.736-0.104l1.558-4.377c0.715-0.218,1.399-0.504,2.049-0.851l4.193,1.993c0.909-0.725,1.733-1.549,2.458-2.458l-1.993-4.193c0.347-0.647,0.633-1.334,0.851-2.049L31.229,17.736zM16,20.871c-2.69,0-4.872-2.182-4.872-4.871c0-2.69,2.182-4.872,4.872-4.872c2.689,0,4.871,2.182,4.871,4.872C20.871,18.689,18.689,20.871,16,20.871z"></path><title>Link options.</title></g></g></g></g><!--z-index:32--><g   id="j_14" ><path  stroke="#707070" d="M 649 1852 L 2139 1849 C 2145.6666666666665 1848.9999999999998 2152 1847.333333333333 2158 1844 L 2449 1678" id="v-158" stroke-width="2" stroke-dasharray="30 30" fill="none" style="opacity: 1;"></path><path  fill="black" stroke="black" d="M 0 0 0 0" transform="matrix(0.9999973109336114,-0.0023190785985200864,0.0023190785985200864,0.9999973109336114,649,1852.478271484375)"></path><path  fill="#707070" stroke="#707070" d="M 20 0 L 0 10 L 20 20 z" id="v-160" transform="matrix(-0.868243081434122,0.4961390445649089,-0.4961390445649089,-0.868243081434122,2453.961448213115,1686.2538772827547)" style="opacity: 1;"></path><path  d="M 649 1852 L 2139 1849 C 2145.6666666666665 1848.9999999999998 2152 1847.333333333333 2158 1844 L 2449 1678" id="v-159" fill="none" style="cursor: auto; pointer-events: visiblepainted;"></path><g ><g id="v-152"  label-idx="0" cursor="move" transform="matrix(1,0,0,1,1571.439208984375,1850.1427001953125)" style="cursor: default; opacity: 1;"><rect joint-selector="rect" id="v-155" fill="#ffffff" rx="3" ry="3" pointer-events="none" width="178.3019256591797" height="148.18504333496094" transform="matrix(1,0,0,1,-89.2,-74.1)"></rect><text joint-selector="text" id="v-154" font-size="24px" xml:space="preserve" y="0.8em" fill="#707070" text-anchor="middle" pointer-events="none" font-family="Open Sans" font-weight="normal" transform="matrix(1,0,0,1,0,-67.8)"><tspan dy="0" >Uploads</tspan><tspan dy="1.2em" x="0" >documents</tspan><tspan dy="1.2em" x="0" >directly through</tspan><tspan dy="1.2em" x="0" >generated URLs</tspan><tspan dy="1.2em" x="0" >(REST PUT)</tspan></text></g><g id="v-153"  label-idx="1" cursor="move" transform="matrix(1,0,0,1,1561.439208984375,1934.1427001953125)" style="cursor: default; opacity: 1;"><rect joint-selector="rect" id="v-157" fill="#ffffff" rx="3" ry="3"  width="0" height="0" transform="matrix(1,0,0,1,0,0)" display="none"></rect><text joint-selector="text" id="v-156" fill="#000000" font-size="14" text-anchor="middle" pointer-events="none"></text></g></g><g  display="none" style="display: none;"><g  transform="translate(2149, 1849)" id="v-149"><circle  idx="0" r="10"></circle><path  idx="0" d="M16,5.333c-7.732,0-14,4.701-14,10.5c0,1.982,0.741,3.833,2.016,5.414L2,25.667l5.613-1.441c2.339,1.317,5.237,2.107,8.387,2.107c7.732,0,14-4.701,14-10.5C30,10.034,23.732,5.333,16,5.333z" transform="translate(5, -33)"></path><path  idx="0" transform="scale(.8) translate(9.5, -37)" d="M24.778,21.419 19.276,15.917 24.777,10.415 21.949,7.585 16.447,13.087 10.945,7.585 8.117,10.415 13.618,15.917 8.116,21.419 10.946,24.248 16.447,18.746 21.948,24.248z"><title>Remove vertex.</title></path></g></g><g  id="v-162" display="none"><g  id="v-150"><path  end="source" d="M 26 0 L 0 13 L 26 26 z"></path></g><g  id="v-151"><path  end="target" d="M 26 0 L 0 13 L 26 26 z"></path></g></g><g  id="v-161" display="none"><g  id="v-148" transform="translate(688.9999189228175, 1851.9194632504912) "><g  event="remove"><circle r="11"></circle><path transform="scale(.8) translate(-16, -16)" d="M24.778,21.419 19.276,15.917 24.777,10.415 21.949,7.585 16.447,13.087 10.945,7.585 8.117,10.415 13.618,15.917 8.116,21.419 10.946,24.248 16.447,18.746 21.948,24.248z"></path><title>Remove link.</title></g><g  event="link:options"><circle r="11" transform="translate(25)"></circle><path fill="white" transform="scale(.55) translate(29, -16)" d="M31.229,17.736c0.064-0.571,0.104-1.148,0.104-1.736s-0.04-1.166-0.104-1.737l-4.377-1.557c-0.218-0.716-0.504-1.401-0.851-2.05l1.993-4.192c-0.725-0.91-1.549-1.734-2.458-2.459l-4.193,1.994c-0.647-0.347-1.334-0.632-2.049-0.849l-1.558-4.378C17.165,0.708,16.588,0.667,16,0.667s-1.166,0.041-1.737,0.105L12.707,5.15c-0.716,0.217-1.401,0.502-2.05,0.849L6.464,4.005C5.554,4.73,4.73,5.554,4.005,6.464l1.994,4.192c-0.347,0.648-0.632,1.334-0.849,2.05l-4.378,1.557C0.708,14.834,0.667,15.412,0.667,16s0.041,1.165,0.105,1.736l4.378,1.558c0.217,0.715,0.502,1.401,0.849,2.049l-1.994,4.193c0.725,0.909,1.549,1.733,2.459,2.458l4.192-1.993c0.648,0.347,1.334,0.633,2.05,0.851l1.557,4.377c0.571,0.064,1.148,0.104,1.737,0.104c0.588,0,1.165-0.04,1.736-0.104l1.558-4.377c0.715-0.218,1.399-0.504,2.049-0.851l4.193,1.993c0.909-0.725,1.733-1.549,2.458-2.458l-1.993-4.193c0.347-0.647,0.633-1.334,0.851-2.049L31.229,17.736zM16,20.871c-2.69,0-4.872-2.182-4.872-4.871c0-2.69,2.182-4.872,4.872-4.872c2.689,0,4.871,2.182,4.871,4.872C20.871,18.689,18.689,20.871,16,20.871z"></path><title>Link options.</title></g></g></g></g><!--z-index:33--><g   id="j_15" ><path  stroke="#707070" d="M 2112 1099 L 2487 1399" id="v-175" stroke-width="2" stroke-dasharray="30 30" fill="none" style="opacity: 1;"></path><path  fill="black" stroke="black" d="M 0 0 0 0" transform="matrix(0.7808688000832672,0.624695059254128,-0.624695059254128,0.7808688000832672,2111.5,1099)"></path><path  fill="#707070" stroke="#707070" d="M 20 0 L 0 10 L 20 20 z" id="v-177" transform="matrix(-0.7808688416748548,-0.6246950072646416,0.6246950072646416,-0.7808688416748548,2480.253144594102,1406.8086902472076)" style="opacity: 1;"></path><path  d="M 2112 1099 L 2487 1399" id="v-176" fill="none" style="cursor: auto; pointer-events: visiblepainted;"></path><g ><g id="v-169"  label-idx="0" cursor="move" transform="matrix(1,0,0,1,2299.5,1249)" style="cursor: default; opacity: 1;"><rect joint-selector="rect" id="v-172" fill="#ffffff" rx="3" ry="3" pointer-events="none" width="198.89413452148438" height="119.38504028320312" transform="matrix(1,0,0,1,-99.4,-59.7)"></rect><text joint-selector="text" id="v-171" font-size="24px" xml:space="preserve" y="0.8em" fill="#707070" text-anchor="middle" pointer-events="none" font-family="Open Sans" font-weight="normal" transform="matrix(1,0,0,1,0,-53.4)"><tspan dy="0" >Listens when new</tspan><tspan dy="1.2em" x="0" >file is uploaded</tspan><tspan dy="1.2em" x="0" >through</tspan><tspan dy="1.2em" x="0" >pre-signed URL</tspan></text></g><g id="v-170"  label-idx="1" cursor="move" transform="matrix(1,0,0,1,2289.5,1318.5999755859375)" style="cursor: default; opacity: 1;"><rect joint-selector="rect" id="v-174" fill="#ffffff" rx="3" ry="3"  width="0" height="0" transform="matrix(1,0,0,1,0,0)" display="none"></rect><text joint-selector="text" id="v-173" fill="#000000" font-size="14" text-anchor="middle" pointer-events="none"></text></g></g><g  display="none" style="display: none;"></g><g  id="v-179" display="none"><g  id="v-167"><path  end="source" d="M 26 0 L 0 13 L 26 26 z"></path></g><g  id="v-168"><path  end="target" d="M 26 0 L 0 13 L 26 26 z"></path></g></g><g  id="v-178" display="none"><g  id="v-166" transform="translate(2143.234752377721, 1123.987801902177) "><g  event="remove"><circle r="11"></circle><path transform="scale(.8) translate(-16, -16)" d="M24.778,21.419 19.276,15.917 24.777,10.415 21.949,7.585 16.447,13.087 10.945,7.585 8.117,10.415 13.618,15.917 8.116,21.419 10.946,24.248 16.447,18.746 21.948,24.248z"></path><title>Remove link.</title></g><g  event="link:options"><circle r="11" transform="translate(25)"></circle><path fill="white" transform="scale(.55) translate(29, -16)" d="M31.229,17.736c0.064-0.571,0.104-1.148,0.104-1.736s-0.04-1.166-0.104-1.737l-4.377-1.557c-0.218-0.716-0.504-1.401-0.851-2.05l1.993-4.192c-0.725-0.91-1.549-1.734-2.458-2.459l-4.193,1.994c-0.647-0.347-1.334-0.632-2.049-0.849l-1.558-4.378C17.165,0.708,16.588,0.667,16,0.667s-1.166,0.041-1.737,0.105L12.707,5.15c-0.716,0.217-1.401,0.502-2.05,0.849L6.464,4.005C5.554,4.73,4.73,5.554,4.005,6.464l1.994,4.192c-0.347,0.648-0.632,1.334-0.849,2.05l-4.378,1.557C0.708,14.834,0.667,15.412,0.667,16s0.041,1.165,0.105,1.736l4.378,1.558c0.217,0.715,0.502,1.401,0.849,2.049l-1.994,4.193c0.725,0.909,1.549,1.733,2.459,2.458l4.192-1.993c0.648,0.347,1.334,0.633,2.05,0.851l1.557,4.377c0.571,0.064,1.148,0.104,1.737,0.104c0.588,0,1.165-0.04,1.736-0.104l1.558-4.377c0.715-0.218,1.399-0.504,2.049-0.851l4.193,1.993c0.909-0.725,1.733-1.549,2.458-2.458l-1.993-4.193c0.347-0.647,0.633-1.334,0.851-2.049L31.229,17.736zM16,20.871c-2.69,0-4.872-2.182-4.872-4.871c0-2.69,2.182-4.872,4.872-4.872c2.689,0,4.871,2.182,4.871,4.872C20.871,18.689,18.689,20.871,16,20.871z"></path><title>Link options.</title></g></g></g></g><!--z-index:34--><g   id="j_16" ><path  stroke="#707070" d="M 2149 949 L 2449 949" id="v-192" stroke-width="2" stroke-dasharray="30 30" fill="none" style="opacity: 1;"></path><path  fill="black" stroke="black" d="M 0 0 0 0" transform="matrix(1,0,0,1,2149,949)"></path><path  fill="#707070" stroke="#707070" d="M 20 0 L 0 10 L 20 20 z" id="v-194" transform="matrix(-1,1.2246467991473532e-16,-1.2246467991473532e-16,-1,2449,959)" style="opacity: 1;"></path><path  d="M 2149 949 L 2449 949" id="v-193" fill="none" style="cursor: auto; pointer-events: visiblepainted;"></path><g ><g id="v-186"  label-idx="0" cursor="move" transform="matrix(1,0,0,1,2299,949)" style="cursor: default; opacity: 1;"><rect joint-selector="rect" id="v-189" fill="#ffffff" rx="3" ry="3" pointer-events="none" width="187.41497802734375" height="90.58503723144531" transform="matrix(1,0,0,1,-93.7,-45.3)"></rect><text joint-selector="text" id="v-188" font-size="24px" xml:space="preserve" y="0.8em" fill="#707070" text-anchor="middle" pointer-events="none" font-family="Open Sans" font-weight="normal" transform="matrix(1,0,0,1,0,-39)"><tspan dy="0" >Create metadata</tspan><tspan dy="1.2em" x="0" >record in</tspan><tspan dy="1.2em" x="0" >DynamoDB</tspan></text></g><g id="v-187"  label-idx="1" cursor="move" transform="matrix(1,0,0,1,2289,1004.2000122070312)" style="cursor: default; opacity: 1;"><rect joint-selector="rect" id="v-191" fill="#ffffff" rx="3" ry="3"  width="0" height="0" transform="matrix(1,0,0,1,0,0)" display="none"></rect><text joint-selector="text" id="v-190" fill="#000000" font-size="14" text-anchor="middle" pointer-events="none"></text></g></g><g  display="none" style="display: none;"></g><g  id="v-196" display="none"><g  id="v-184"><path  end="source" d="M 26 0 L 0 13 L 26 26 z"></path></g><g  id="v-185"><path  end="target" d="M 26 0 L 0 13 L 26 26 z"></path></g></g><g  id="v-195" display="none"><g  id="v-183" transform="translate(2189, 949) "><g  event="remove"><circle r="11"></circle><path transform="scale(.8) translate(-16, -16)" d="M24.778,21.419 19.276,15.917 24.777,10.415 21.949,7.585 16.447,13.087 10.945,7.585 8.117,10.415 13.618,15.917 8.116,21.419 10.946,24.248 16.447,18.746 21.948,24.248z"></path><title>Remove link.</title></g><g  event="link:options"><circle r="11" transform="translate(25)"></circle><path fill="white" transform="scale(.55) translate(29, -16)" d="M31.229,17.736c0.064-0.571,0.104-1.148,0.104-1.736s-0.04-1.166-0.104-1.737l-4.377-1.557c-0.218-0.716-0.504-1.401-0.851-2.05l1.993-4.192c-0.725-0.91-1.549-1.734-2.458-2.459l-4.193,1.994c-0.647-0.347-1.334-0.632-2.049-0.849l-1.558-4.378C17.165,0.708,16.588,0.667,16,0.667s-1.166,0.041-1.737,0.105L12.707,5.15c-0.716,0.217-1.401,0.502-2.05,0.849L6.464,4.005C5.554,4.73,4.73,5.554,4.005,6.464l1.994,4.192c-0.347,0.648-0.632,1.334-0.849,2.05l-4.378,1.557C0.708,14.834,0.667,15.412,0.667,16s0.041,1.165,0.105,1.736l4.378,1.558c0.217,0.715,0.502,1.401,0.849,2.049l-1.994,4.193c0.725,0.909,1.549,1.733,2.459,2.458l4.192-1.993c0.648,0.347,1.334,0.633,2.05,0.851l1.557,4.377c0.571,0.064,1.148,0.104,1.737,0.104c0.588,0,1.165-0.04,1.736-0.104l1.558-4.377c0.715-0.218,1.399-0.504,2.049-0.851l4.193,1.993c0.909-0.725,1.733-1.549,2.458-2.458l-1.993-4.193c0.347-0.647,0.633-1.334,0.851-2.049L31.229,17.736zM16,20.871c-2.69,0-4.872-2.182-4.872-4.871c0-2.69,2.182-4.872,4.872-4.872c2.689,0,4.871,2.182,4.871,4.872C20.871,18.689,18.689,20.871,16,20.871z"></path><title>Link options.</title></g></g></g></g><!--z-index:35--><g   id="j_17" ><path  stroke="#707070" d="M 2112 799 L 2487 499" id="v-209" stroke-width="2" stroke-dasharray="30 30" fill="none" style="opacity: 1;"></path><path  fill="black" stroke="black" d="M 0 0 0 0" transform="matrix(0.7808686753084834,-0.6246952152225711,0.6246952152225711,0.7808686753084834,2111.5,799)"></path><path  fill="#707070" stroke="#707070" d="M 20 0 L 0 10 L 20 20 z" id="v-211" transform="matrix(-0.7808688416748546,0.6246950072646418,-0.6246950072646418,-0.7808688416748546,2492.747044739395,506.80868658628964)" style="opacity: 1;"></path><path  d="M 2112 799 L 2487 499" id="v-210" fill="none" style="cursor: auto; pointer-events: visiblepainted;"></path><g ><g id="v-203"  label-idx="0" cursor="move" transform="matrix(1,0,0,1,2299.5,649)" style="cursor: default; opacity: 1;"><rect joint-selector="rect" id="v-206" fill="#ffffff" rx="3" ry="3" pointer-events="none" width="164.85488891601562" height="61.78503227233887" transform="matrix(1,0,0,1,-82.4,-30.9)"></rect><text joint-selector="text" id="v-205" font-size="24px" xml:space="preserve" y="0.8em" fill="#707070" text-anchor="middle" pointer-events="none" font-family="Open Sans" font-weight="normal" transform="matrix(1,0,0,1,0,-24.6)"><tspan dy="0" >Sends 'Upload'</tspan><tspan dy="1.2em" x="0" >audit event</tspan></text></g><g id="v-204"  label-idx="1" cursor="move" transform="matrix(1,0,0,1,2289.5,689.7999877929688)" style="cursor: default; opacity: 1;"><rect joint-selector="rect" id="v-208" fill="#ffffff" rx="3" ry="3"  width="0" height="0" transform="matrix(1,0,0,1,0,0)" display="none"></rect><text joint-selector="text" id="v-207" fill="#000000" font-size="14" text-anchor="middle" pointer-events="none"></text></g></g><g  display="none" style="display: none;"></g><g  id="v-213" display="none"><g  id="v-201"><path  end="source" d="M 26 0 L 0 13 L 26 26 z"></path></g><g  id="v-202"><path  end="target" d="M 26 0 L 0 13 L 26 26 z"></path></g></g><g  id="v-212" display="none"><g  id="v-200" transform="translate(2143.234752377721, 774.0121980978231) "><g  event="remove"><circle r="11"></circle><path transform="scale(.8) translate(-16, -16)" d="M24.778,21.419 19.276,15.917 24.777,10.415 21.949,7.585 16.447,13.087 10.945,7.585 8.117,10.415 13.618,15.917 8.116,21.419 10.946,24.248 16.447,18.746 21.948,24.248z"></path><title>Remove link.</title></g><g  event="link:options"><circle r="11" transform="translate(25)"></circle><path fill="white" transform="scale(.55) translate(29, -16)" d="M31.229,17.736c0.064-0.571,0.104-1.148,0.104-1.736s-0.04-1.166-0.104-1.737l-4.377-1.557c-0.218-0.716-0.504-1.401-0.851-2.05l1.993-4.192c-0.725-0.91-1.549-1.734-2.458-2.459l-4.193,1.994c-0.647-0.347-1.334-0.632-2.049-0.849l-1.558-4.378C17.165,0.708,16.588,0.667,16,0.667s-1.166,0.041-1.737,0.105L12.707,5.15c-0.716,0.217-1.401,0.502-2.05,0.849L6.464,4.005C5.554,4.73,4.73,5.554,4.005,6.464l1.994,4.192c-0.347,0.648-0.632,1.334-0.849,2.05l-4.378,1.557C0.708,14.834,0.667,15.412,0.667,16s0.041,1.165,0.105,1.736l4.378,1.558c0.217,0.715,0.502,1.401,0.849,2.049l-1.994,4.193c0.725,0.909,1.549,1.733,2.459,2.458l4.192-1.993c0.648,0.347,1.334,0.633,2.05,0.851l1.557,4.377c0.571,0.064,1.148,0.104,1.737,0.104c0.588,0,1.165-0.04,1.736-0.104l1.558-4.377c0.715-0.218,1.399-0.504,2.049-0.851l4.193,1.993c0.909-0.725,1.733-1.549,2.458-2.458l-1.993-4.193c0.347-0.647,0.633-1.334,0.851-2.049L31.229,17.736zM16,20.871c-2.69,0-4.872-2.182-4.872-4.871c0-2.69,2.182-4.872,4.872-4.872c2.689,0,4.871,2.182,4.871,4.872C20.871,18.689,18.689,20.871,16,20.871z"></path><title>Link options.</title></g></g></g></g><!--z-index:36--></g><g ></g><g ></g><g ></g></g></svg>