<svg xmlns="http://www.w3.org/2000/svg" xmlns:xlink="http://www.w3.org/1999/xlink" version="1.1" viewBox="0 0 3870 2428" style="background: #ffffff"><defs><style>@import url(https://fonts.googleapis.com/css?family=Open+Sans:400,700);</style></defs><defs joint-selector="defs"></defs><g joint-selector="layers"  transform="matrix(1,0,0,1,0,0)"><g ></g><g ><!--z-index:1--><!--z-index:2--><!--z-index:3--><!--z-index:4--><!--z-index:5--><!--z-index:6--><!--z-index:7--><!--z-index:8--><!--z-index:9--><!--z-index:10--><!--z-index:11--><!--z-index:12--><!--z-index:13--><!--z-index:14--><!--z-index:15--><!--z-index:16--><!--z-index:17--><!--z-index:18--><!--z-index:19--><!--z-index:20--><!--z-index:21--><!--z-index:22--><!--z-index:23--><g   id="j_2"  transform="translate(20,2391.6)"><g id="v-5"><text  id="v-6" font-size="22px" xml:space="preserve" y="0.8em" font-weight="normal" text-anchor="start" fill="#aaaaaa" pointer-events="none" display="block" font-family="Open Sans"><tspan dy="0"  display="none">Tuesday, August 13, 2024 at 1:20 PM Eastern Daylight Time</tspan></text></g></g><!--z-index:24--><g   id="j_1"  transform="translate(20,2348.4)"><g id="v-3"><text  id="v-4" font-size="36px" xml:space="preserve" y="0.8em" font-weight="normal" text-anchor="start" fill="#000000" pointer-events="none" display="block" font-family="Open Sans"><tspan dy="0"  display="none">[Component] Document Management System - Get Document Details</tspan></text></g></g><!--z-index:25--><g   id="j_3"  transform="translate(200,819)" style=""><g  id="v-7" style="opacity: 1;"><rect  id="v-8" rx="20" ry="20" stroke="#0f5eaa" stroke-width="2" pointer-events="visiblePainted" fill="#1168bd" width="450" height="300" style="fill: rgb(17, 104, 189); stroke: rgb(15, 94, 170);"></rect><text  id="v-9" font-size="34" xml:space="preserve" y="0.8em" font-weight="bold" text-anchor="middle" pointer-events="visible" font-family="Open Sans" fill="#ffffff" transform="matrix(1,0,0,1,225,121.9)" style="fill: rgb(255, 255, 255);"><tspan dy="0" >UI Application</tspan></text><text  id="v-10" font-size="17" xml:space="preserve" y="0.8em" text-anchor="middle" font-family="Open Sans" fill="#ffffff" transform="matrix(1,0,0,1,225,162.7)" style="fill: rgb(255, 255, 255);"><tspan dy="0" >[Software System]</tspan></text><text  id="v-11" font-size="24" xml:space="preserve" display="none" y="0.8em" text-anchor="middle" font-family="Open Sans" fill="#ffffff" transform="matrix(1,0,0,1,225,183.1)" style="fill: rgb(255, 255, 255);"><tspan dy="0" style="fill-opacity: 0; stroke-opacity: 0;" >-</tspan></text><g  id="v-12" color="#ffffff" transform="matrix(1,0,0,1,222.5,268)" display="none" style="fill: rgb(255, 255, 255);"><g ></g><g ></g><g ></g><g ></g></g><image  id="v-13"></image></g></g><!--z-index:26--><g   id="j_4"  transform="translate(3200,1927)" style=""><g  id="v-14" style="opacity: 1;"><rect  id="v-15" rx="20" ry="20" stroke="#0f5eaa" stroke-width="2" pointer-events="visiblePainted" fill="#1168bd" width="450" height="300" style="fill: rgb(17, 104, 189); stroke: rgb(15, 94, 170);"></rect><text  id="v-16" font-size="34" xml:space="preserve" y="0.8em" font-weight="bold" text-anchor="middle" pointer-events="visible" font-family="Open Sans" fill="#ffffff" transform="matrix(1,0,0,1,225,121.9)" style="fill: rgb(255, 255, 255);"><tspan dy="0" >Audit Service</tspan></text><text  id="v-17" font-size="17" xml:space="preserve" y="0.8em" text-anchor="middle" font-family="Open Sans" fill="#ffffff" transform="matrix(1,0,0,1,225,162.7)" style="fill: rgb(255, 255, 255);"><tspan dy="0" >[Software System]</tspan></text><text  id="v-18" font-size="24" xml:space="preserve" display="none" y="0.8em" text-anchor="middle" font-family="Open Sans" fill="#ffffff" transform="matrix(1,0,0,1,225,183.1)" style="fill: rgb(255, 255, 255);"><tspan dy="0" style="fill-opacity: 0; stroke-opacity: 0;" >-</tspan></text><g  id="v-19" color="#ffffff" transform="matrix(1,0,0,1,222.5,268)" display="none" style="fill: rgb(255, 255, 255);"><g ></g><g ></g><g ></g><g ></g></g><image  id="v-20"></image></g></g><!--z-index:27--><g   id="j_6"  transform="translate(930,199)" style=""><g id="v-37"><rect  id="v-38" width="2740" height="1611" rx="0" ry="0" fill="#ffffff" stroke="#3c7fc0" stroke-width="1" stroke-dasharray="20,20" pointer-events="none"></rect><text  id="v-39" font-size="24px" xml:space="preserve" y="1572" font-weight="normal" fill="#3c7fc0" text-anchor="start" pointer-events="visible" font-family="Open Sans" transform="matrix(1,0,0,1,15,0)"><tspan dy="0" >Get Document Details</tspan></text><text  id="v-40" font-size="17px" xml:space="preserve" y="1596" font-weight="normal" fill="#3c7fc0" text-anchor="start" pointer-events="visible" font-family="Open Sans" transform="matrix(1,0,0,1,15,0)"><tspan dy="0" >[Container]</tspan></text><image  id="v-41" pointer-events="visible"></image></g></g><!--z-index:28--><g   id="j_5"  transform="translate(950,819)" style=""><g  id="v-30" style="opacity: 1;"><rect  id="v-31" rx="20" ry="20" stroke="#78a8d8" stroke-width="2" pointer-events="visiblePainted" fill="#85bbf0" width="450" height="300" style="fill: rgb(133, 187, 240); stroke: rgb(120, 168, 216);"></rect><text  id="v-32" font-size="34" xml:space="preserve" y="0.8em" font-weight="bold" text-anchor="middle" pointer-events="visible" font-family="Open Sans" fill="#000000" transform="matrix(1,0,0,1,225,53.3)" style="fill: rgb(0, 0, 0);"><tspan dy="0" >Document Get Full</tspan><tspan dy="1.2em" x="0" >Details API</tspan></text><text  id="v-33" font-size="17" xml:space="preserve" y="0.8em" text-anchor="middle" font-family="Open Sans" fill="#000000" transform="matrix(1,0,0,1,225,134.9)" style="fill: rgb(0, 0, 0);"><tspan dy="0" >[Component: AWS API Gateway - REST / POST]</tspan></text><text  id="v-34" font-size="24" xml:space="preserve" y="0.8em" text-anchor="middle" font-family="Open Sans" fill="#000000" transform="matrix(1,0,0,1,225,165.3)" style="fill: rgb(0, 0, 0);"><tspan dy="0" >API to initiate workflow, that will</tspan><tspan dy="1.2em" x="0" >retrieve all documents information</tspan><tspan dy="1.2em" x="0" >and record audit event</tspan></text><g  id="v-35" color="#000000" transform="matrix(1,0,0,1,222.5,268)" display="none" style="fill: rgb(0, 0, 0);"><g ></g><g ></g><g ></g><g ></g></g><image  id="v-36"></image></g></g><!--z-index:29--><g   id="j_7"  transform="translate(3200,819)" style=""><g  id="v-45" style="opacity: 1;"><rect  id="v-46" rx="20" ry="20" stroke="#78a8d8" stroke-width="2" pointer-events="visiblePainted" fill="#85bbf0" width="450" height="300" style="fill: rgb(133, 187, 240); stroke: rgb(120, 168, 216);"></rect><text  id="v-47" font-size="34" xml:space="preserve" y="0.8em" font-weight="bold" text-anchor="middle" pointer-events="visible" font-family="Open Sans" fill="#000000" transform="matrix(1,0,0,1,225,102.5)" style="fill: rgb(0, 0, 0);"><tspan dy="0" >Document Storage (S3)</tspan></text><text  id="v-48" font-size="17" xml:space="preserve" y="0.8em" text-anchor="middle" font-family="Open Sans" fill="#000000" transform="matrix(1,0,0,1,225,143.3)" style="fill: rgb(0, 0, 0);"><tspan dy="0" >[Component: AWS S3]</tspan></text><text  id="v-49" font-size="24" xml:space="preserve" y="0.8em" text-anchor="middle" font-family="Open Sans" fill="#000000" transform="matrix(1,0,0,1,225,173.7)" style="fill: rgb(0, 0, 0);"><tspan dy="0" >Documents storage</tspan></text><g  id="v-50" color="#000000" transform="matrix(1,0,0,1,222.5,268)" display="none" style="fill: rgb(0, 0, 0);"><g ></g><g ></g><g ></g><g ></g></g><image  id="v-51"></image></g></g><!--z-index:30--><g   id="j_8"  transform="translate(3200,219)" style=""><g  id="v-58" style="opacity: 1;"><rect  id="v-59" rx="20" ry="20" stroke="#78a8d8" stroke-width="2" pointer-events="visiblePainted" fill="#85bbf0" width="450" height="300" style="fill: rgb(133, 187, 240); stroke: rgb(120, 168, 216);"></rect><text  id="v-60" font-size="34" xml:space="preserve" y="0.8em" font-weight="bold" text-anchor="middle" pointer-events="visible" font-family="Open Sans" fill="#000000" transform="matrix(1,0,0,1,225,82.1)" style="fill: rgb(0, 0, 0);"><tspan dy="0" >Metadata Storage</tspan><tspan dy="1.2em" x="0" >(DynamoDB)</tspan></text><text  id="v-61" font-size="17" xml:space="preserve" y="0.8em" text-anchor="middle" font-family="Open Sans" fill="#000000" transform="matrix(1,0,0,1,225,163.7)" style="fill: rgb(0, 0, 0);"><tspan dy="0" >[Component: AWS DynamoDB]</tspan></text><text  id="v-62" font-size="24" xml:space="preserve" y="0.8em" text-anchor="middle" font-family="Open Sans" fill="#000000" transform="matrix(1,0,0,1,225,194.1)" style="fill: rgb(0, 0, 0);"><tspan dy="0" >Documents metadata storage</tspan></text><g  id="v-63" color="#000000" transform="matrix(1,0,0,1,222.5,268)" display="none" style="fill: rgb(0, 0, 0);"><g ></g><g ></g><g ></g><g ></g></g><image  id="v-64"></image></g></g><!--z-index:31--><g   id="j_9"  transform="translate(1700,819)" style=""><g  id="v-71" style="opacity: 1;"><rect  id="v-72" rx="20" ry="20" stroke="#78a8d8" stroke-width="2" pointer-events="visiblePainted" fill="#85bbf0" width="450" height="300" style="fill: rgb(133, 187, 240); stroke: rgb(120, 168, 216);"></rect><text  id="v-73" font-size="34" xml:space="preserve" y="0.8em" font-weight="bold" text-anchor="middle" pointer-events="visible" font-family="Open Sans" fill="#000000" transform="matrix(1,0,0,1,225,67.7)" style="fill: rgb(0, 0, 0);"><tspan dy="0" >Get Document Details</tspan><tspan dy="1.2em" x="0" >Step Function</tspan></text><text  id="v-74" font-size="17" xml:space="preserve" y="0.8em" text-anchor="middle" font-family="Open Sans" fill="#000000" transform="matrix(1,0,0,1,225,149.3)" style="fill: rgb(0, 0, 0);"><tspan dy="0" >[Component: AWS State Machine]</tspan></text><text  id="v-75" font-size="24" xml:space="preserve" y="0.8em" text-anchor="middle" font-family="Open Sans" fill="#000000" transform="matrix(1,0,0,1,225,179.7)" style="fill: rgb(0, 0, 0);"><tspan dy="0" >Orchestrates multi-step process of</tspan><tspan dy="1.2em" x="0" >document's retrieval</tspan></text><g  id="v-76" color="#000000" transform="matrix(1,0,0,1,222.5,268)" display="none" style="fill: rgb(0, 0, 0);"><g ></g><g ></g><g ></g><g ></g></g><image  id="v-77"></image></g></g><!--z-index:32--><g   id="j_10"  transform="translate(2450,219)" style=""><g  id="v-87" style="opacity: 1;"><rect  id="v-88" rx="20" ry="20" stroke="#78a8d8" stroke-width="2" pointer-events="visiblePainted" fill="#85bbf0" width="450" height="300" style="fill: rgb(133, 187, 240); stroke: rgb(120, 168, 216);"></rect><text  id="v-89" font-size="34" xml:space="preserve" y="0.8em" font-weight="bold" text-anchor="middle" pointer-events="visible" font-family="Open Sans" fill="#000000" transform="matrix(1,0,0,1,225,67.7)" style="fill: rgb(0, 0, 0);"><tspan dy="0" >Get Document Metadata</tspan><tspan dy="1.2em" x="0" >Lambda</tspan></text><text  id="v-90" font-size="17" xml:space="preserve" y="0.8em" text-anchor="middle" font-family="Open Sans" fill="#000000" transform="matrix(1,0,0,1,225,149.3)" style="fill: rgb(0, 0, 0);"><tspan dy="0" >[Component: AWS Lambda - NodeJS/TypeScript]</tspan></text><text  id="v-91" font-size="24" xml:space="preserve" y="0.8em" text-anchor="middle" font-family="Open Sans" fill="#000000" transform="matrix(1,0,0,1,225,179.7)" style="fill: rgb(0, 0, 0);"><tspan dy="0" >Processor for retrieving document</tspan><tspan dy="1.2em" x="0" >metadata</tspan></text><g  id="v-92" color="#000000" transform="matrix(1,0,0,1,222.5,268)" display="none" style="fill: rgb(0, 0, 0);"><g ></g><g ></g><g ></g><g ></g></g><image  id="v-93"></image></g></g><!--z-index:33--><g   id="j_11"  transform="translate(2450,819)" style=""><g  id="v-103" style="opacity: 1;"><rect  id="v-104" rx="20" ry="20" stroke="#78a8d8" stroke-width="2" pointer-events="visiblePainted" fill="#85bbf0" width="450" height="300" style="fill: rgb(133, 187, 240); stroke: rgb(120, 168, 216);"></rect><text  id="v-105" font-size="34" xml:space="preserve" y="0.8em" font-weight="bold" text-anchor="middle" pointer-events="visible" font-family="Open Sans" fill="#000000" transform="matrix(1,0,0,1,225,53.3)" style="fill: rgb(0, 0, 0);"><tspan dy="0" >Generate Presigned Read</tspan><tspan dy="1.2em" x="0" >Url Lambda</tspan></text><text  id="v-106" font-size="17" xml:space="preserve" y="0.8em" text-anchor="middle" font-family="Open Sans" fill="#000000" transform="matrix(1,0,0,1,225,134.9)" style="fill: rgb(0, 0, 0);"><tspan dy="0" >[Component: AWS Lambda - NodeJS/TypeScript]</tspan></text><text  id="v-107" font-size="24" xml:space="preserve" y="0.8em" text-anchor="middle" font-family="Open Sans" fill="#000000" transform="matrix(1,0,0,1,225,165.3)" style="fill: rgb(0, 0, 0);"><tspan dy="0" >Processor for URL generation in the</tspan><tspan dy="1.2em" x="0" >read processes (5 mins expiration</tspan><tspan dy="1.2em" x="0" >time)</tspan></text><g  id="v-108" color="#000000" transform="matrix(1,0,0,1,222.5,268)" display="none" style="fill: rgb(0, 0, 0);"><g ></g><g ></g><g ></g><g ></g></g><image  id="v-109"></image></g></g><!--z-index:34--><g   id="j_12"  transform="translate(2450,1419)" style=""><g  id="v-119" style="opacity: 1;"><rect  id="v-120" rx="20" ry="20" stroke="#78a8d8" stroke-width="2" pointer-events="visiblePainted" fill="#85bbf0" width="450" height="300" style="fill: rgb(133, 187, 240); stroke: rgb(120, 168, 216);"></rect><text  id="v-121" font-size="34" xml:space="preserve" y="0.8em" font-weight="bold" text-anchor="middle" pointer-events="visible" font-family="Open Sans" fill="#000000" transform="matrix(1,0,0,1,225,67.7)" style="fill: rgb(0, 0, 0);"><tspan dy="0" >Store Audit Event</tspan><tspan dy="1.2em" x="0" >Lambda</tspan></text><text  id="v-122" font-size="17" xml:space="preserve" y="0.8em" text-anchor="middle" font-family="Open Sans" fill="#000000" transform="matrix(1,0,0,1,225,149.3)" style="fill: rgb(0, 0, 0);"><tspan dy="0" >[Component: AWS Lambda - NodeJS/TypeScript]</tspan></text><text  id="v-123" font-size="24" xml:space="preserve" y="0.8em" text-anchor="middle" font-family="Open Sans" fill="#000000" transform="matrix(1,0,0,1,225,179.7)" style="fill: rgb(0, 0, 0);"><tspan dy="0" >Processor for communication with</tspan><tspan dy="1.2em" x="0" >Audit Service</tspan></text><g  id="v-124" color="#000000" transform="matrix(1,0,0,1,222.5,268)" display="none" style="fill: rgb(0, 0, 0);"><g ></g><g ></g><g ></g><g ></g></g><image  id="v-125"></image></g></g><!--z-index:35--><g   id="j_13" ><path  stroke="#707070" d="M 650 1059 L 791 1115 C 796.9999999999999 1117.6666666666665 802.9999999999999 1117.6666666666665 809 1115 L 950 1059" id="v-139" stroke-width="2" stroke-dasharray="30 30" fill="none" style="opacity: 1;"></path><path  fill="black" stroke="black" d="M 0 0 0 0" transform="matrix(0.9284766955435519,0.371390664708372,-0.371390664708372,0.9284766955435519,650,1059)"></path><path  fill="#707070" stroke="#707070" d="M 20 0 L 0 10 L 20 20 z" id="v-141" transform="matrix(-0.928476707906966,0.37139063379983406,-0.37139063379983406,-0.928476707906966,953.7138833780054,1068.2847279285713)" style="opacity: 1;"></path><path  d="M 650 1059 L 791 1115 C 796.9999999999999 1117.6666666666665 802.9999999999999 1117.6666666666665 809 1115 L 950 1059" id="v-140" fill="none" style="cursor: auto; pointer-events: visiblepainted;"></path><g ><g id="v-133"  label-idx="0" cursor="move" transform="matrix(1,0,0,1,800,1117)" style="cursor: default; opacity: 1;"><rect joint-selector="rect" id="v-136" fill="#ffffff" rx="3" ry="3" pointer-events="none" width="131.00048828125" height="90.6340217590332" transform="matrix(1,0,0,1,-65.5,-45.3)"></rect><text joint-selector="text" id="v-135" font-size="24px" xml:space="preserve" y="0.8em" fill="#707070" text-anchor="middle" pointer-events="none" font-family="Open Sans" font-weight="normal" transform="matrix(1,0,0,1,0,-38.1)"><tspan dy="0" >Requests</tspan><tspan dy="1.2em" x="0" >document's</tspan><tspan dy="1.2em" x="0" >details</tspan></text></g><g id="v-134"  label-idx="1" cursor="move" transform="matrix(1,0,0,1,790,1172.199951171875)" style="cursor: default; opacity: 1;"><rect joint-selector="rect" id="v-138" fill="#ffffff" rx="3" ry="3"  width="0" height="0" transform="matrix(1,0,0,1,0,0)" display="none"></rect><text joint-selector="text" id="v-137" fill="#000000" font-size="14" text-anchor="middle" pointer-events="none"></text></g></g><g  display="none" style="display: none;"><g  transform="translate(800, 1119)" id="v-130"><circle  idx="0" r="10"></circle><path  idx="0" d="M16,5.333c-7.732,0-14,4.701-14,10.5c0,1.982,0.741,3.833,2.016,5.414L2,25.667l5.613-1.441c2.339,1.317,5.237,2.107,8.387,2.107c7.732,0,14-4.701,14-10.5C30,10.034,23.732,5.333,16,5.333z" transform="translate(5, -33)"></path><path  idx="0" transform="scale(.8) translate(9.5, -37)" d="M24.778,21.419 19.276,15.917 24.777,10.415 21.949,7.585 16.447,13.087 10.945,7.585 8.117,10.415 13.618,15.917 8.116,21.419 10.946,24.248 16.447,18.746 21.948,24.248z"><title>Remove vertex.</title></path></g></g><g  id="v-143" display="none"><g  id="v-131"><path  end="source" d="M 26 0 L 0 13 L 26 26 z"></path></g><g  id="v-132"><path  end="target" d="M 26 0 L 0 13 L 26 26 z"></path></g></g><g  id="v-142" display="none"><g  id="v-129" transform="translate(687.1753225311057, 1073.7646671045527) "><g  event="remove"><circle r="11"></circle><path transform="scale(.8) translate(-16, -16)" d="M24.778,21.419 19.276,15.917 24.777,10.415 21.949,7.585 16.447,13.087 10.945,7.585 8.117,10.415 13.618,15.917 8.116,21.419 10.946,24.248 16.447,18.746 21.948,24.248z"></path><title>Remove link.</title></g><g  event="link:options"><circle r="11" transform="translate(25)"></circle><path fill="white" transform="scale(.55) translate(29, -16)" d="M31.229,17.736c0.064-0.571,0.104-1.148,0.104-1.736s-0.04-1.166-0.104-1.737l-4.377-1.557c-0.218-0.716-0.504-1.401-0.851-2.05l1.993-4.192c-0.725-0.91-1.549-1.734-2.458-2.459l-4.193,1.994c-0.647-0.347-1.334-0.632-2.049-0.849l-1.558-4.378C17.165,0.708,16.588,0.667,16,0.667s-1.166,0.041-1.737,0.105L12.707,5.15c-0.716,0.217-1.401,0.502-2.05,0.849L6.464,4.005C5.554,4.73,4.73,5.554,4.005,6.464l1.994,4.192c-0.347,0.648-0.632,1.334-0.849,2.05l-4.378,1.557C0.708,14.834,0.667,15.412,0.667,16s0.041,1.165,0.105,1.736l4.378,1.558c0.217,0.715,0.502,1.401,0.849,2.049l-1.994,4.193c0.725,0.909,1.549,1.733,2.459,2.458l4.192-1.993c0.648,0.347,1.334,0.633,2.05,0.851l1.557,4.377c0.571,0.064,1.148,0.104,1.737,0.104c0.588,0,1.165-0.04,1.736-0.104l1.558-4.377c0.715-0.218,1.399-0.504,2.049-0.851l4.193,1.993c0.909-0.725,1.733-1.549,2.458-2.458l-1.993-4.193c0.347-0.647,0.633-1.334,0.851-2.049L31.229,17.736zM16,20.871c-2.69,0-4.872-2.182-4.872-4.871c0-2.69,2.182-4.872,4.872-4.872c2.689,0,4.871,2.182,4.871,4.872C20.871,18.689,18.689,20.871,16,20.871z"></path><title>Link options.</title></g></g></g></g><!--z-index:36--><g   id="j_14" ><path  stroke="#707070" d="M 950 879 L 809 823 C 802.9999999999999 820.3333333333333 796.9999999999999 820.3333333333333 791 823 L 650 879" id="v-157" stroke-width="2" stroke-dasharray="30 30" fill="none" style="opacity: 1;"></path><path  fill="black" stroke="black" d="M 0 0 0 0" transform="matrix(-0.928476707906966,-0.3713906337998342,0.3713906337998342,-0.928476707906966,950,879)"></path><path  fill="#707070" stroke="#707070" d="M 20 0 L 0 10 L 20 20 z" id="v-159" transform="matrix(0.9284766089996245,-0.3713908810681253,0.3713908810681253,0.9284766089996245,646.286115138385,869.7152144980288)" style="opacity: 1;"></path><path  d="M 950 879 L 809 823 C 802.9999999999999 820.3333333333333 796.9999999999999 820.3333333333333 791 823 L 650 879" id="v-158" fill="none" style="cursor: auto; pointer-events: visiblepainted;"></path><g ><g id="v-151"  label-idx="0" cursor="move" transform="matrix(1,0,0,1,800,821)" style="cursor: default; opacity: 1;"><rect joint-selector="rect" id="v-154" fill="#ffffff" rx="3" ry="3" pointer-events="none" width="187.36477661132812" height="90.6340217590332" transform="matrix(1,0,0,1,-93.7,-45.3)"></rect><text joint-selector="text" id="v-153" font-size="24px" xml:space="preserve" y="0.8em" fill="#707070" text-anchor="middle" pointer-events="none" font-family="Open Sans" font-weight="normal" transform="matrix(1,0,0,1,0,-38.1)"><tspan dy="0" >Returns</tspan><tspan dy="1.2em" x="0" >document's</tspan><tspan dy="1.2em" x="0" >details to display</tspan></text></g><g id="v-152"  label-idx="1" cursor="move" transform="matrix(1,0,0,1,790,876.2000122070312)" style="cursor: default; opacity: 1;"><rect joint-selector="rect" id="v-156" fill="#ffffff" rx="3" ry="3"  width="0" height="0" transform="matrix(1,0,0,1,0,0)" display="none"></rect><text joint-selector="text" id="v-155" fill="#000000" font-size="14" text-anchor="middle" pointer-events="none"></text></g></g><g  display="none" style="display: none;"><g  transform="translate(800, 819)" id="v-148"><circle  idx="0" r="10"></circle><path  idx="0" d="M16,5.333c-7.732,0-14,4.701-14,10.5c0,1.982,0.741,3.833,2.016,5.414L2,25.667l5.613-1.441c2.339,1.317,5.237,2.107,8.387,2.107c7.732,0,14-4.701,14-10.5C30,10.034,23.732,5.333,16,5.333z" transform="translate(5, -33)"></path><path  idx="0" transform="scale(.8) translate(9.5, -37)" d="M24.778,21.419 19.276,15.917 24.777,10.415 21.949,7.585 16.447,13.087 10.945,7.585 8.117,10.415 13.618,15.917 8.116,21.419 10.946,24.248 16.447,18.746 21.948,24.248z"><title>Remove vertex.</title></path></g></g><g  id="v-161" display="none"><g  id="v-149"><path  end="source" d="M 26 0 L 0 13 L 26 26 z"></path></g><g  id="v-150"><path  end="target" d="M 26 0 L 0 13 L 26 26 z"></path></g></g><g  id="v-160" display="none"><g  id="v-147" transform="translate(912.8246774688942, 864.2353328954473) "><g  event="remove"><circle r="11"></circle><path transform="scale(.8) translate(-16, -16)" d="M24.778,21.419 19.276,15.917 24.777,10.415 21.949,7.585 16.447,13.087 10.945,7.585 8.117,10.415 13.618,15.917 8.116,21.419 10.946,24.248 16.447,18.746 21.948,24.248z"></path><title>Remove link.</title></g><g  event="link:options"><circle r="11" transform="translate(25)"></circle><path fill="white" transform="scale(.55) translate(29, -16)" d="M31.229,17.736c0.064-0.571,0.104-1.148,0.104-1.736s-0.04-1.166-0.104-1.737l-4.377-1.557c-0.218-0.716-0.504-1.401-0.851-2.05l1.993-4.192c-0.725-0.91-1.549-1.734-2.458-2.459l-4.193,1.994c-0.647-0.347-1.334-0.632-2.049-0.849l-1.558-4.378C17.165,0.708,16.588,0.667,16,0.667s-1.166,0.041-1.737,0.105L12.707,5.15c-0.716,0.217-1.401,0.502-2.05,0.849L6.464,4.005C5.554,4.73,4.73,5.554,4.005,6.464l1.994,4.192c-0.347,0.648-0.632,1.334-0.849,2.05l-4.378,1.557C0.708,14.834,0.667,15.412,0.667,16s0.041,1.165,0.105,1.736l4.378,1.558c0.217,0.715,0.502,1.401,0.849,2.049l-1.994,4.193c0.725,0.909,1.549,1.733,2.459,2.458l4.192-1.993c0.648,0.347,1.334,0.633,2.05,0.851l1.557,4.377c0.571,0.064,1.148,0.104,1.737,0.104c0.588,0,1.165-0.04,1.736-0.104l1.558-4.377c0.715-0.218,1.399-0.504,2.049-0.851l4.193,1.993c0.909-0.725,1.733-1.549,2.458-2.458l-1.993-4.193c0.347-0.647,0.633-1.334,0.851-2.049L31.229,17.736zM16,20.871c-2.69,0-4.872-2.182-4.872-4.871c0-2.69,2.182-4.872,4.872-4.872c2.689,0,4.871,2.182,4.871,4.872C20.871,18.689,18.689,20.871,16,20.871z"></path><title>Link options.</title></g></g></g></g><!--z-index:37--><g   id="j_15" ><path  stroke="#707070" d="M 1400 969 L 1700 969" id="v-174" stroke-width="2" stroke-dasharray="30 30" fill="none" style="opacity: 1;"></path><path  fill="black" stroke="black" d="M 0 0 0 0" transform="matrix(1,0,0,1,1400,969)"></path><path  fill="#707070" stroke="#707070" d="M 20 0 L 0 10 L 20 20 z" id="v-176" transform="matrix(-1,1.2246467991473532e-16,-1.2246467991473532e-16,-1,1700,979)" style="opacity: 1;"></path><path  d="M 1400 969 L 1700 969" id="v-175" fill="none" style="cursor: auto; pointer-events: visiblepainted;"></path><g ><g id="v-168"  label-idx="0" cursor="move" transform="matrix(1,0,0,1,1550,969)" style="cursor: default; opacity: 1;"><rect joint-selector="rect" id="v-171" fill="#ffffff" rx="3" ry="3" pointer-events="none" width="177.27391052246094" height="33.03401184082031" transform="matrix(1,0,0,1,-88.6,-16.5)"></rect><text joint-selector="text" id="v-170" font-size="24px" xml:space="preserve" y="0.8em" fill="#707070" text-anchor="middle" pointer-events="none" font-family="Open Sans" font-weight="normal" transform="matrix(1,0,0,1,0,-9.3)"><tspan dy="0" >Starts Workflow</tspan></text></g><g id="v-169"  label-idx="1" cursor="move" transform="matrix(1,0,0,1,1540,995.4000244140625)" style="cursor: default; opacity: 1;"><rect joint-selector="rect" id="v-173" fill="#ffffff" rx="3" ry="3"  width="0" height="0" transform="matrix(1,0,0,1,0,0)" display="none"></rect><text joint-selector="text" id="v-172" fill="#000000" font-size="14" text-anchor="middle" pointer-events="none"></text></g></g><g  display="none" style="display: none;"></g><g  id="v-178" display="none"><g  id="v-166"><path  end="source" d="M 26 0 L 0 13 L 26 26 z"></path></g><g  id="v-167"><path  end="target" d="M 26 0 L 0 13 L 26 26 z"></path></g></g><g  id="v-177" display="none"><g  id="v-165" transform="translate(1440.0000000000002, 969) "><g  event="remove"><circle r="11"></circle><path transform="scale(.8) translate(-16, -16)" d="M24.778,21.419 19.276,15.917 24.777,10.415 21.949,7.585 16.447,13.087 10.945,7.585 8.117,10.415 13.618,15.917 8.116,21.419 10.946,24.248 16.447,18.746 21.948,24.248z"></path><title>Remove link.</title></g><g  event="link:options"><circle r="11" transform="translate(25)"></circle><path fill="white" transform="scale(.55) translate(29, -16)" d="M31.229,17.736c0.064-0.571,0.104-1.148,0.104-1.736s-0.04-1.166-0.104-1.737l-4.377-1.557c-0.218-0.716-0.504-1.401-0.851-2.05l1.993-4.192c-0.725-0.91-1.549-1.734-2.458-2.459l-4.193,1.994c-0.647-0.347-1.334-0.632-2.049-0.849l-1.558-4.378C17.165,0.708,16.588,0.667,16,0.667s-1.166,0.041-1.737,0.105L12.707,5.15c-0.716,0.217-1.401,0.502-2.05,0.849L6.464,4.005C5.554,4.73,4.73,5.554,4.005,6.464l1.994,4.192c-0.347,0.648-0.632,1.334-0.849,2.05l-4.378,1.557C0.708,14.834,0.667,15.412,0.667,16s0.041,1.165,0.105,1.736l4.378,1.558c0.217,0.715,0.502,1.401,0.849,2.049l-1.994,4.193c0.725,0.909,1.549,1.733,2.459,2.458l4.192-1.993c0.648,0.347,1.334,0.633,2.05,0.851l1.557,4.377c0.571,0.064,1.148,0.104,1.737,0.104c0.588,0,1.165-0.04,1.736-0.104l1.558-4.377c0.715-0.218,1.399-0.504,2.049-0.851l4.193,1.993c0.909-0.725,1.733-1.549,2.458-2.458l-1.993-4.193c0.347-0.647,0.633-1.334,0.851-2.049L31.229,17.736zM16,20.871c-2.69,0-4.872-2.182-4.872-4.871c0-2.69,2.182-4.872,4.872-4.872c2.689,0,4.871,2.182,4.871,4.872C20.871,18.689,18.689,20.871,16,20.871z"></path><title>Link options.</title></g></g></g></g><!--z-index:38--><g   id="j_16" ><path  stroke="#707070" d="M 2113 819 L 2488 519" id="v-191" stroke-width="2" stroke-dasharray="30 30" fill="none" style="opacity: 1;"></path><path  fill="black" stroke="black" d="M 0 0 0 0" transform="matrix(0.7808686753084834,-0.6246952152225711,0.6246952152225711,0.7808686753084834,2112.5,819)"></path><path  fill="#707070" stroke="#707070" d="M 20 0 L 0 10 L 20 20 z" id="v-193" transform="matrix(-0.7808688416748546,0.6246950072646418,-0.6246950072646418,-0.7808688416748546,2493.747044739395,526.8086865862896)" style="opacity: 1;"></path><path  d="M 2113 819 L 2488 519" id="v-192" fill="none" style="cursor: auto; pointer-events: visiblepainted;"></path><g ><g id="v-185"  label-idx="0" cursor="move" transform="matrix(1,0,0,1,2300.5,669)" style="cursor: default; opacity: 1;"><rect joint-selector="rect" id="v-188" fill="#ffffff" rx="3" ry="3" pointer-events="none" width="107.515380859375" height="90.6340217590332" transform="matrix(1,0,0,1,-53.8,-45.3)"></rect><text joint-selector="text" id="v-187" font-size="24px" xml:space="preserve" y="0.8em" fill="#707070" text-anchor="middle" pointer-events="none" font-family="Open Sans" font-weight="normal" transform="matrix(1,0,0,1,0,-38.1)"><tspan dy="0" >Triggers</tspan><tspan dy="1.2em" x="0" >metadata</tspan><tspan dy="1.2em" x="0" >retrieval</tspan></text></g><g id="v-186"  label-idx="1" cursor="move" transform="matrix(1,0,0,1,2290.5,724.2000122070312)" style="cursor: default; opacity: 1;"><rect joint-selector="rect" id="v-190" fill="#ffffff" rx="3" ry="3"  width="0" height="0" transform="matrix(1,0,0,1,0,0)" display="none"></rect><text joint-selector="text" id="v-189" fill="#000000" font-size="14" text-anchor="middle" pointer-events="none"></text></g></g><g  display="none" style="display: none;"></g><g  id="v-195" display="none"><g  id="v-183"><path  end="source" d="M 26 0 L 0 13 L 26 26 z"></path></g><g  id="v-184"><path  end="target" d="M 26 0 L 0 13 L 26 26 z"></path></g></g><g  id="v-194" display="none"><g  id="v-182" transform="translate(2144.234752377721, 794.0121980978231) "><g  event="remove"><circle r="11"></circle><path transform="scale(.8) translate(-16, -16)" d="M24.778,21.419 19.276,15.917 24.777,10.415 21.949,7.585 16.447,13.087 10.945,7.585 8.117,10.415 13.618,15.917 8.116,21.419 10.946,24.248 16.447,18.746 21.948,24.248z"></path><title>Remove link.</title></g><g  event="link:options"><circle r="11" transform="translate(25)"></circle><path fill="white" transform="scale(.55) translate(29, -16)" d="M31.229,17.736c0.064-0.571,0.104-1.148,0.104-1.736s-0.04-1.166-0.104-1.737l-4.377-1.557c-0.218-0.716-0.504-1.401-0.851-2.05l1.993-4.192c-0.725-0.91-1.549-1.734-2.458-2.459l-4.193,1.994c-0.647-0.347-1.334-0.632-2.049-0.849l-1.558-4.378C17.165,0.708,16.588,0.667,16,0.667s-1.166,0.041-1.737,0.105L12.707,5.15c-0.716,0.217-1.401,0.502-2.05,0.849L6.464,4.005C5.554,4.73,4.73,5.554,4.005,6.464l1.994,4.192c-0.347,0.648-0.632,1.334-0.849,2.05l-4.378,1.557C0.708,14.834,0.667,15.412,0.667,16s0.041,1.165,0.105,1.736l4.378,1.558c0.217,0.715,0.502,1.401,0.849,2.049l-1.994,4.193c0.725,0.909,1.549,1.733,2.459,2.458l4.192-1.993c0.648,0.347,1.334,0.633,2.05,0.851l1.557,4.377c0.571,0.064,1.148,0.104,1.737,0.104c0.588,0,1.165-0.04,1.736-0.104l1.558-4.377c0.715-0.218,1.399-0.504,2.049-0.851l4.193,1.993c0.909-0.725,1.733-1.549,2.458-2.458l-1.993-4.193c0.347-0.647,0.633-1.334,0.851-2.049L31.229,17.736zM16,20.871c-2.69,0-4.872-2.182-4.872-4.871c0-2.69,2.182-4.872,4.872-4.872c2.689,0,4.871,2.182,4.871,4.872C20.871,18.689,18.689,20.871,16,20.871z"></path><title>Link options.</title></g></g></g></g><!--z-index:39--><g   id="j_17" ><path  stroke="#707070" d="M 2150 969 L 2450 969" id="v-208" stroke-width="2" stroke-dasharray="30 30" fill="none" style="opacity: 1;"></path><path  fill="black" stroke="black" d="M 0 0 0 0" transform="matrix(1,0,0,1,2150,969)"></path><path  fill="#707070" stroke="#707070" d="M 20 0 L 0 10 L 20 20 z" id="v-210" transform="matrix(-1,1.2246467991473532e-16,-1.2246467991473532e-16,-1,2450,979)" style="opacity: 1;"></path><path  d="M 2150 969 L 2450 969" id="v-209" fill="none" style="cursor: auto; pointer-events: visiblepainted;"></path><g ><g id="v-202"  label-idx="0" cursor="move" transform="matrix(1,0,0,1,2300,969)" style="cursor: default; opacity: 1;"><rect joint-selector="rect" id="v-205" fill="#ffffff" rx="3" ry="3" pointer-events="none" width="140.96231079101562" height="61.83401107788086" transform="matrix(1,0,0,1,-70.5,-30.9)"></rect><text joint-selector="text" id="v-204" font-size="24px" xml:space="preserve" y="0.8em" fill="#707070" text-anchor="middle" pointer-events="none" font-family="Open Sans" font-weight="normal" transform="matrix(1,0,0,1,0,-23.7)"><tspan dy="0" >Triggers URL</tspan><tspan dy="1.2em" x="0" >generation</tspan></text></g><g id="v-203"  label-idx="1" cursor="move" transform="matrix(1,0,0,1,2290,1009.7999877929688)" style="cursor: default; opacity: 1;"><rect joint-selector="rect" id="v-207" fill="#ffffff" rx="3" ry="3"  width="0" height="0" transform="matrix(1,0,0,1,0,0)" display="none"></rect><text joint-selector="text" id="v-206" fill="#000000" font-size="14" text-anchor="middle" pointer-events="none"></text></g></g><g  display="none" style="display: none;"></g><g  id="v-212" display="none"><g  id="v-200"><path  end="source" d="M 26 0 L 0 13 L 26 26 z"></path></g><g  id="v-201"><path  end="target" d="M 26 0 L 0 13 L 26 26 z"></path></g></g><g  id="v-211" display="none"><g  id="v-199" transform="translate(2190, 969) "><g  event="remove"><circle r="11"></circle><path transform="scale(.8) translate(-16, -16)" d="M24.778,21.419 19.276,15.917 24.777,10.415 21.949,7.585 16.447,13.087 10.945,7.585 8.117,10.415 13.618,15.917 8.116,21.419 10.946,24.248 16.447,18.746 21.948,24.248z"></path><title>Remove link.</title></g><g  event="link:options"><circle r="11" transform="translate(25)"></circle><path fill="white" transform="scale(.55) translate(29, -16)" d="M31.229,17.736c0.064-0.571,0.104-1.148,0.104-1.736s-0.04-1.166-0.104-1.737l-4.377-1.557c-0.218-0.716-0.504-1.401-0.851-2.05l1.993-4.192c-0.725-0.91-1.549-1.734-2.458-2.459l-4.193,1.994c-0.647-0.347-1.334-0.632-2.049-0.849l-1.558-4.378C17.165,0.708,16.588,0.667,16,0.667s-1.166,0.041-1.737,0.105L12.707,5.15c-0.716,0.217-1.401,0.502-2.05,0.849L6.464,4.005C5.554,4.73,4.73,5.554,4.005,6.464l1.994,4.192c-0.347,0.648-0.632,1.334-0.849,2.05l-4.378,1.557C0.708,14.834,0.667,15.412,0.667,16s0.041,1.165,0.105,1.736l4.378,1.558c0.217,0.715,0.502,1.401,0.849,2.049l-1.994,4.193c0.725,0.909,1.549,1.733,2.459,2.458l4.192-1.993c0.648,0.347,1.334,0.633,2.05,0.851l1.557,4.377c0.571,0.064,1.148,0.104,1.737,0.104c0.588,0,1.165-0.04,1.736-0.104l1.558-4.377c0.715-0.218,1.399-0.504,2.049-0.851l4.193,1.993c0.909-0.725,1.733-1.549,2.458-2.458l-1.993-4.193c0.347-0.647,0.633-1.334,0.851-2.049L31.229,17.736zM16,20.871c-2.69,0-4.872-2.182-4.872-4.871c0-2.69,2.182-4.872,4.872-4.872c2.689,0,4.871,2.182,4.871,4.872C20.871,18.689,18.689,20.871,16,20.871z"></path><title>Link options.</title></g></g></g></g><!--z-index:40--><g   id="j_18" ><path  stroke="#707070" d="M 2113 1119 L 2488 1419" id="v-225" stroke-width="2" stroke-dasharray="30 30" fill="none" style="opacity: 1;"></path><path  fill="black" stroke="black" d="M 0 0 0 0" transform="matrix(0.7808688000832672,0.624695059254128,-0.624695059254128,0.7808688000832672,2112.5,1119)"></path><path  fill="#707070" stroke="#707070" d="M 20 0 L 0 10 L 20 20 z" id="v-227" transform="matrix(-0.7808688416748548,-0.6246950072646416,0.6246950072646416,-0.7808688416748548,2481.253144594102,1426.8086902472076)" style="opacity: 1;"></path><path  d="M 2113 1119 L 2488 1419" id="v-226" fill="none" style="cursor: auto; pointer-events: visiblepainted;"></path><g ><g id="v-219"  label-idx="0" cursor="move" transform="matrix(1,0,0,1,2300.5,1269)" style="cursor: default; opacity: 1;"><rect joint-selector="rect" id="v-222" fill="#ffffff" rx="3" ry="3" pointer-events="none" width="175.9835205078125" height="61.83401107788086" transform="matrix(1,0,0,1,-88,-30.9)"></rect><text joint-selector="text" id="v-221" font-size="24px" xml:space="preserve" y="0.8em" fill="#707070" text-anchor="middle" pointer-events="none" font-family="Open Sans" font-weight="normal" transform="matrix(1,0,0,1,0,-23.7)"><tspan dy="0" >Triggers audit</tspan><tspan dy="1.2em" x="0" >event recording</tspan></text></g><g id="v-220"  label-idx="1" cursor="move" transform="matrix(1,0,0,1,2290.5,1309.800048828125)" style="cursor: default; opacity: 1;"><rect joint-selector="rect" id="v-224" fill="#ffffff" rx="3" ry="3"  width="0" height="0" transform="matrix(1,0,0,1,0,0)" display="none"></rect><text joint-selector="text" id="v-223" fill="#000000" font-size="14" text-anchor="middle" pointer-events="none"></text></g></g><g  display="none" style="display: none;"></g><g  id="v-229" display="none"><g  id="v-217"><path  end="source" d="M 26 0 L 0 13 L 26 26 z"></path></g><g  id="v-218"><path  end="target" d="M 26 0 L 0 13 L 26 26 z"></path></g></g><g  id="v-228" display="none"><g  id="v-216" transform="translate(2144.234752377721, 1143.987801902177) "><g  event="remove"><circle r="11"></circle><path transform="scale(.8) translate(-16, -16)" d="M24.778,21.419 19.276,15.917 24.777,10.415 21.949,7.585 16.447,13.087 10.945,7.585 8.117,10.415 13.618,15.917 8.116,21.419 10.946,24.248 16.447,18.746 21.948,24.248z"></path><title>Remove link.</title></g><g  event="link:options"><circle r="11" transform="translate(25)"></circle><path fill="white" transform="scale(.55) translate(29, -16)" d="M31.229,17.736c0.064-0.571,0.104-1.148,0.104-1.736s-0.04-1.166-0.104-1.737l-4.377-1.557c-0.218-0.716-0.504-1.401-0.851-2.05l1.993-4.192c-0.725-0.91-1.549-1.734-2.458-2.459l-4.193,1.994c-0.647-0.347-1.334-0.632-2.049-0.849l-1.558-4.378C17.165,0.708,16.588,0.667,16,0.667s-1.166,0.041-1.737,0.105L12.707,5.15c-0.716,0.217-1.401,0.502-2.05,0.849L6.464,4.005C5.554,4.73,4.73,5.554,4.005,6.464l1.994,4.192c-0.347,0.648-0.632,1.334-0.849,2.05l-4.378,1.557C0.708,14.834,0.667,15.412,0.667,16s0.041,1.165,0.105,1.736l4.378,1.558c0.217,0.715,0.502,1.401,0.849,2.049l-1.994,4.193c0.725,0.909,1.549,1.733,2.459,2.458l4.192-1.993c0.648,0.347,1.334,0.633,2.05,0.851l1.557,4.377c0.571,0.064,1.148,0.104,1.737,0.104c0.588,0,1.165-0.04,1.736-0.104l1.558-4.377c0.715-0.218,1.399-0.504,2.049-0.851l4.193,1.993c0.909-0.725,1.733-1.549,2.458-2.458l-1.993-4.193c0.347-0.647,0.633-1.334,0.851-2.049L31.229,17.736zM16,20.871c-2.69,0-4.872-2.182-4.872-4.871c0-2.69,2.182-4.872,4.872-4.872c2.689,0,4.871,2.182,4.871,4.872C20.871,18.689,18.689,20.871,16,20.871z"></path><title>Link options.</title></g></g></g></g><!--z-index:41--><g   id="j_19" ><path  stroke="#707070" d="M 2900 369 L 3200 369" id="v-242" stroke-width="2" stroke-dasharray="30 30" fill="none" style="opacity: 1;"></path><path  fill="black" stroke="black" d="M 0 0 0 0" transform="matrix(1,0,0,1,2900,369)"></path><path  fill="#707070" stroke="#707070" d="M 20 0 L 0 10 L 20 20 z" id="v-244" transform="matrix(-1,1.2246467991473532e-16,-1.2246467991473532e-16,-1,3200,379)" style="opacity: 1;"></path><path  d="M 2900 369 L 3200 369" id="v-243" fill="none" style="cursor: auto; pointer-events: visiblepainted;"></path><g ><g id="v-236"  label-idx="0" cursor="move" transform="matrix(1,0,0,1,3050,369)" style="cursor: default; opacity: 1;"><rect joint-selector="rect" id="v-239" fill="#ffffff" rx="3" ry="3" pointer-events="none" width="107.515380859375" height="61.83401107788086" transform="matrix(1,0,0,1,-53.8,-30.9)"></rect><text joint-selector="text" id="v-238" font-size="24px" xml:space="preserve" y="0.8em" fill="#707070" text-anchor="middle" pointer-events="none" font-family="Open Sans" font-weight="normal" transform="matrix(1,0,0,1,0,-23.7)"><tspan dy="0" >Retrieves</tspan><tspan dy="1.2em" x="0" >metadata</tspan></text></g><g id="v-237"  label-idx="1" cursor="move" transform="matrix(1,0,0,1,3040,409.79998779296875)" style="cursor: default; opacity: 1;"><rect joint-selector="rect" id="v-241" fill="#ffffff" rx="3" ry="3"  width="0" height="0" transform="matrix(1,0,0,1,0,0)" display="none"></rect><text joint-selector="text" id="v-240" fill="#000000" font-size="14" text-anchor="middle" pointer-events="none"></text></g></g><g  display="none" style="display: none;"></g><g  id="v-246" display="none"><g  id="v-234"><path  end="source" d="M 26 0 L 0 13 L 26 26 z"></path></g><g  id="v-235"><path  end="target" d="M 26 0 L 0 13 L 26 26 z"></path></g></g><g  id="v-245" display="none"><g  id="v-233" transform="translate(2940, 369) "><g  event="remove"><circle r="11"></circle><path transform="scale(.8) translate(-16, -16)" d="M24.778,21.419 19.276,15.917 24.777,10.415 21.949,7.585 16.447,13.087 10.945,7.585 8.117,10.415 13.618,15.917 8.116,21.419 10.946,24.248 16.447,18.746 21.948,24.248z"></path><title>Remove link.</title></g><g  event="link:options"><circle r="11" transform="translate(25)"></circle><path fill="white" transform="scale(.55) translate(29, -16)" d="M31.229,17.736c0.064-0.571,0.104-1.148,0.104-1.736s-0.04-1.166-0.104-1.737l-4.377-1.557c-0.218-0.716-0.504-1.401-0.851-2.05l1.993-4.192c-0.725-0.91-1.549-1.734-2.458-2.459l-4.193,1.994c-0.647-0.347-1.334-0.632-2.049-0.849l-1.558-4.378C17.165,0.708,16.588,0.667,16,0.667s-1.166,0.041-1.737,0.105L12.707,5.15c-0.716,0.217-1.401,0.502-2.05,0.849L6.464,4.005C5.554,4.73,4.73,5.554,4.005,6.464l1.994,4.192c-0.347,0.648-0.632,1.334-0.849,2.05l-4.378,1.557C0.708,14.834,0.667,15.412,0.667,16s0.041,1.165,0.105,1.736l4.378,1.558c0.217,0.715,0.502,1.401,0.849,2.049l-1.994,4.193c0.725,0.909,1.549,1.733,2.459,2.458l4.192-1.993c0.648,0.347,1.334,0.633,2.05,0.851l1.557,4.377c0.571,0.064,1.148,0.104,1.737,0.104c0.588,0,1.165-0.04,1.736-0.104l1.558-4.377c0.715-0.218,1.399-0.504,2.049-0.851l4.193,1.993c0.909-0.725,1.733-1.549,2.458-2.458l-1.993-4.193c0.347-0.647,0.633-1.334,0.851-2.049L31.229,17.736zM16,20.871c-2.69,0-4.872-2.182-4.872-4.871c0-2.69,2.182-4.872,4.872-4.872c2.689,0,4.871,2.182,4.871,4.872C20.871,18.689,18.689,20.871,16,20.871z"></path><title>Link options.</title></g></g></g></g><!--z-index:42--><g   id="j_20" ><path  stroke="#707070" d="M 2900 969 L 3200 969" id="v-259" stroke-width="2" stroke-dasharray="30 30" fill="none" style="opacity: 1;"></path><path  fill="black" stroke="black" d="M 0 0 0 0" transform="matrix(1,0,0,1,2900,969)"></path><path  fill="#707070" stroke="#707070" d="M 20 0 L 0 10 L 20 20 z" id="v-261" transform="matrix(-1,1.2246467991473532e-16,-1.2246467991473532e-16,-1,3200,979)" style="opacity: 1;"></path><path  d="M 2900 969 L 3200 969" id="v-260" fill="none" style="cursor: auto; pointer-events: visiblepainted;"></path><g ><g id="v-253"  label-idx="0" cursor="move" transform="matrix(1,0,0,1,3050,969)" style="cursor: default; opacity: 1;"><rect joint-selector="rect" id="v-256" fill="#ffffff" rx="3" ry="3" pointer-events="none" width="182.64193725585938" height="33.03401184082031" transform="matrix(1,0,0,1,-91.3,-16.5)"></rect><text joint-selector="text" id="v-255" font-size="24px" xml:space="preserve" y="0.8em" fill="#707070" text-anchor="middle" pointer-events="none" font-family="Open Sans" font-weight="normal" transform="matrix(1,0,0,1,0,-9.3)"><tspan dy="0" >Gets secure URL</tspan></text></g><g id="v-254"  label-idx="1" cursor="move" transform="matrix(1,0,0,1,3040,995.4000244140625)" style="cursor: default; opacity: 1;"><rect joint-selector="rect" id="v-258" fill="#ffffff" rx="3" ry="3"  width="0" height="0" transform="matrix(1,0,0,1,0,0)" display="none"></rect><text joint-selector="text" id="v-257" fill="#000000" font-size="14" text-anchor="middle" pointer-events="none"></text></g></g><g  display="none" style="display: none;"></g><g  id="v-263" display="none"><g  id="v-251"><path  end="source" d="M 26 0 L 0 13 L 26 26 z"></path></g><g  id="v-252"><path  end="target" d="M 26 0 L 0 13 L 26 26 z"></path></g></g><g  id="v-262" display="none"><g  id="v-250" transform="translate(2940, 969) "><g  event="remove"><circle r="11"></circle><path transform="scale(.8) translate(-16, -16)" d="M24.778,21.419 19.276,15.917 24.777,10.415 21.949,7.585 16.447,13.087 10.945,7.585 8.117,10.415 13.618,15.917 8.116,21.419 10.946,24.248 16.447,18.746 21.948,24.248z"></path><title>Remove link.</title></g><g  event="link:options"><circle r="11" transform="translate(25)"></circle><path fill="white" transform="scale(.55) translate(29, -16)" d="M31.229,17.736c0.064-0.571,0.104-1.148,0.104-1.736s-0.04-1.166-0.104-1.737l-4.377-1.557c-0.218-0.716-0.504-1.401-0.851-2.05l1.993-4.192c-0.725-0.91-1.549-1.734-2.458-2.459l-4.193,1.994c-0.647-0.347-1.334-0.632-2.049-0.849l-1.558-4.378C17.165,0.708,16.588,0.667,16,0.667s-1.166,0.041-1.737,0.105L12.707,5.15c-0.716,0.217-1.401,0.502-2.05,0.849L6.464,4.005C5.554,4.73,4.73,5.554,4.005,6.464l1.994,4.192c-0.347,0.648-0.632,1.334-0.849,2.05l-4.378,1.557C0.708,14.834,0.667,15.412,0.667,16s0.041,1.165,0.105,1.736l4.378,1.558c0.217,0.715,0.502,1.401,0.849,2.049l-1.994,4.193c0.725,0.909,1.549,1.733,2.459,2.458l4.192-1.993c0.648,0.347,1.334,0.633,2.05,0.851l1.557,4.377c0.571,0.064,1.148,0.104,1.737,0.104c0.588,0,1.165-0.04,1.736-0.104l1.558-4.377c0.715-0.218,1.399-0.504,2.049-0.851l4.193,1.993c0.909-0.725,1.733-1.549,2.458-2.458l-1.993-4.193c0.347-0.647,0.633-1.334,0.851-2.049L31.229,17.736zM16,20.871c-2.69,0-4.872-2.182-4.872-4.871c0-2.69,2.182-4.872,4.872-4.872c2.689,0,4.871,2.182,4.871,4.872C20.871,18.689,18.689,20.871,16,20.871z"></path><title>Link options.</title></g></g></g></g><!--z-index:43--><g   id="j_21" ><path  stroke="#707070" d="M 2896 1719 L 3204 1927" id="v-276" stroke-width="2" stroke-dasharray="30 30" fill="none" style="opacity: 1;"></path><path  fill="black" stroke="black" d="M 0 0 0 0" transform="matrix(0.8279517503693529,0.5607993393900574,-0.5607993393900574,0.8279517503693529,2896.456787109375,1719)"></path><path  fill="#707070" stroke="#707070" d="M 20 0 L 0 10 L 20 20 z" id="v-278" transform="matrix(-0.8279517130318764,-0.5607993945142785,0.5607993945142785,-0.8279517130318764,3197.935195060176,1935.279478848899)" style="opacity: 1;"></path><path  d="M 2896 1719 L 3204 1927" id="v-277" fill="none" style="cursor: auto; pointer-events: visiblepainted;"></path><g ><g id="v-270"  label-idx="0" cursor="move" transform="matrix(1,0,0,1,3050,1823)" style="cursor: default; opacity: 1;"><rect joint-selector="rect" id="v-273" fill="#ffffff" rx="3" ry="3" pointer-events="none" width="176.06094360351562" height="119.43402481079102" transform="matrix(1,0,0,1,-88,-59.7)"></rect><text joint-selector="text" id="v-272" font-size="24px" xml:space="preserve" y="0.8em" fill="#707070" text-anchor="middle" pointer-events="none" font-family="Open Sans" font-weight="normal" transform="matrix(1,0,0,1,0,-52.5)"><tspan dy="0" >Sends 'View</tspan><tspan dy="1.2em" x="0" >Content' and</tspan><tspan dy="1.2em" x="0" >'View Metadata'</tspan><tspan dy="1.2em" x="0" >audit events</tspan></text></g><g id="v-271"  label-idx="1" cursor="move" transform="matrix(1,0,0,1,3040,1892.5999755859375)" style="cursor: default; opacity: 1;"><rect joint-selector="rect" id="v-275" fill="#ffffff" rx="3" ry="3"  width="0" height="0" transform="matrix(1,0,0,1,0,0)" display="none"></rect><text joint-selector="text" id="v-274" fill="#000000" font-size="14" text-anchor="middle" pointer-events="none"></text></g></g><g  display="none" style="display: none;"></g><g  id="v-280" display="none"><g  id="v-268"><path  end="source" d="M 26 0 L 0 13 L 26 26 z"></path></g><g  id="v-269"><path  end="target" d="M 26 0 L 0 13 L 26 26 z"></path></g></g><g  id="v-279" display="none"><g  id="v-267" transform="translate(2929.148955301438, 1741.386307476296) "><g  event="remove"><circle r="11"></circle><path transform="scale(.8) translate(-16, -16)" d="M24.778,21.419 19.276,15.917 24.777,10.415 21.949,7.585 16.447,13.087 10.945,7.585 8.117,10.415 13.618,15.917 8.116,21.419 10.946,24.248 16.447,18.746 21.948,24.248z"></path><title>Remove link.</title></g><g  event="link:options"><circle r="11" transform="translate(25)"></circle><path fill="white" transform="scale(.55) translate(29, -16)" d="M31.229,17.736c0.064-0.571,0.104-1.148,0.104-1.736s-0.04-1.166-0.104-1.737l-4.377-1.557c-0.218-0.716-0.504-1.401-0.851-2.05l1.993-4.192c-0.725-0.91-1.549-1.734-2.458-2.459l-4.193,1.994c-0.647-0.347-1.334-0.632-2.049-0.849l-1.558-4.378C17.165,0.708,16.588,0.667,16,0.667s-1.166,0.041-1.737,0.105L12.707,5.15c-0.716,0.217-1.401,0.502-2.05,0.849L6.464,4.005C5.554,4.73,4.73,5.554,4.005,6.464l1.994,4.192c-0.347,0.648-0.632,1.334-0.849,2.05l-4.378,1.557C0.708,14.834,0.667,15.412,0.667,16s0.041,1.165,0.105,1.736l4.378,1.558c0.217,0.715,0.502,1.401,0.849,2.049l-1.994,4.193c0.725,0.909,1.549,1.733,2.459,2.458l4.192-1.993c0.648,0.347,1.334,0.633,2.05,0.851l1.557,4.377c0.571,0.064,1.148,0.104,1.737,0.104c0.588,0,1.165-0.04,1.736-0.104l1.558-4.377c0.715-0.218,1.399-0.504,2.049-0.851l4.193,1.993c0.909-0.725,1.733-1.549,2.458-2.458l-1.993-4.193c0.347-0.647,0.633-1.334,0.851-2.049L31.229,17.736zM16,20.871c-2.69,0-4.872-2.182-4.872-4.871c0-2.69,2.182-4.872,4.872-4.872c2.689,0,4.871,2.182,4.871,4.872C20.871,18.689,18.689,20.871,16,20.871z"></path><title>Link options.</title></g></g></g></g><!--z-index:44--></g><g ></g><g ></g><g ></g></g></svg>