<svg xmlns="http://www.w3.org/2000/svg" xmlns:xlink="http://www.w3.org/1999/xlink" version="1.1" viewBox="0 0 4033 2216" style="background: #ffffff"><defs><style>@import url(https://fonts.googleapis.com/css?family=Open+Sans:400,700);</style></defs><defs joint-selector="defs"></defs><g joint-selector="layers"  transform="matrix(1,0,0,1,0,0)"><g ></g><g ><!--z-index:1--><!--z-index:2--><!--z-index:3--><!--z-index:4--><!--z-index:5--><!--z-index:6--><!--z-index:7--><!--z-index:8--><!--z-index:9--><!--z-index:10--><!--z-index:11--><!--z-index:12--><!--z-index:13--><!--z-index:14--><!--z-index:15--><!--z-index:16--><!--z-index:17--><!--z-index:18--><!--z-index:19--><!--z-index:20--><!--z-index:21--><g   id="j_2"  transform="translate(20,2179.6)"><g id="v-5"><text  id="v-6" font-size="22px" xml:space="preserve" y="0.8em" font-weight="normal" text-anchor="start" fill="#aaaaaa" pointer-events="none" display="block" font-family="Open Sans"><tspan dy="0"  display="none">Monday, August 19, 2024 at 10:06 PM Eastern Daylight Time</tspan></text></g></g><!--z-index:22--><g   id="j_1"  transform="translate(20,2136.4)"><g id="v-3"><text  id="v-4" font-size="36px" xml:space="preserve" y="0.8em" font-weight="normal" text-anchor="start" fill="#000000" pointer-events="none" display="block" font-family="Open Sans"><tspan dy="0"  display="none">[System Context] Healthcare Data Access Auditing System</tspan></text></g></g><!--z-index:23--><g   id="j_3"  transform="translate(1816,170)" style=""><g  id="v-13" style="opacity: 1;"><rect  x="0" y="160" width="400" height="240" rx="70" id="v-15" stroke="#073b6f" stroke-width="2" pointer-events="visiblePainted" fill="#08427b" style="fill: rgb(8, 66, 123); stroke: rgb(7, 59, 111);"></rect><circle  cx="200" cy="88.88888888888889" r="88.88888888888889" id="v-14" stroke="#073b6f" stroke-width="2" pointer-events="visiblePainted" fill="#08427b" style="fill: rgb(8, 66, 123); stroke: rgb(7, 59, 111);"></circle><line  x1="80" y1="266.6666666666667" x2="80" y2="400" id="v-21" stroke="#073b6f" stroke-width="2" style="stroke: rgb(7, 59, 111);"></line><line  x1="320" y1="266.6666666666667" x2="320" y2="400" id="v-22" stroke="#073b6f" stroke-width="2" style="stroke: rgb(7, 59, 111);"></line><text  id="v-16" font-size="34" xml:space="preserve" y="0.8em" font-weight="bold" text-anchor="middle" pointer-events="visible" font-family="Open Sans" fill="#ffffff" transform="matrix(1,0,0,1,200,189.3)" style="fill: rgb(255, 255, 255);"><tspan dy="0" >Compliance Officer</tspan></text><text  id="v-17" font-size="17" xml:space="preserve" y="0.8em" text-anchor="middle" font-family="Open Sans" fill="#ffffff" transform="matrix(1,0,0,1,200,230.1)" style="fill: rgb(255, 255, 255);"><tspan dy="0" >[Person]</tspan></text><text  id="v-18" font-size="24" xml:space="preserve" y="0.8em" text-anchor="middle" font-family="Open Sans" fill="#ffffff" transform="matrix(1,0,0,1,200,260.5)" style="fill: rgb(255, 255, 255);"><tspan dy="0" >Responsible for ensuring that</tspan><tspan dy="1.2em" x="0" >access to electronic health</tspan><tspan dy="1.2em" x="0" >records (EHRs) complies with</tspan><tspan dy="1.2em" x="0" >HIPAA regulations.</tspan></text><g  id="v-19" font-weight="normal" text-anchor="middle" color="#ffffff" transform="matrix(1,0,0,1,197.5,368)" display="none" style="fill: rgb(255, 255, 255);"><g ></g><g ></g><g ></g><g ></g></g><image  id="v-20"></image></g></g><!--z-index:24--><g   id="j_4"  transform="translate(891,180)" style=""><g  id="v-29" style="opacity: 1;"><rect  x="0" y="160" width="400" height="240" rx="70" id="v-31" stroke="#073b6f" stroke-width="2" pointer-events="visiblePainted" fill="#08427b" style="fill: rgb(8, 66, 123); stroke: rgb(7, 59, 111);"></rect><circle  cx="200" cy="88.88888888888889" r="88.88888888888889" id="v-30" stroke="#073b6f" stroke-width="2" pointer-events="visiblePainted" fill="#08427b" style="fill: rgb(8, 66, 123); stroke: rgb(7, 59, 111);"></circle><line  x1="80" y1="266.6666666666667" x2="80" y2="400" id="v-37" stroke="#073b6f" stroke-width="2" style="stroke: rgb(7, 59, 111);"></line><line  x1="320" y1="266.6666666666667" x2="320" y2="400" id="v-38" stroke="#073b6f" stroke-width="2" style="stroke: rgb(7, 59, 111);"></line><text  id="v-32" font-size="34" xml:space="preserve" y="0.8em" font-weight="bold" text-anchor="middle" pointer-events="visible" font-family="Open Sans" fill="#ffffff" transform="matrix(1,0,0,1,200,203.7)" style="fill: rgb(255, 255, 255);"><tspan dy="0" >IT Administrator</tspan></text><text  id="v-33" font-size="17" xml:space="preserve" y="0.8em" text-anchor="middle" font-family="Open Sans" fill="#ffffff" transform="matrix(1,0,0,1,200,244.5)" style="fill: rgb(255, 255, 255);"><tspan dy="0" >[Person]</tspan></text><text  id="v-34" font-size="24" xml:space="preserve" y="0.8em" text-anchor="middle" font-family="Open Sans" fill="#ffffff" transform="matrix(1,0,0,1,200,274.9)" style="fill: rgb(255, 255, 255);"><tspan dy="0" >Manages the infrastructure and</tspan><tspan dy="1.2em" x="0" >ensures secure access to the</tspan><tspan dy="1.2em" x="0" >EHR system.</tspan></text><g  id="v-35" font-weight="normal" text-anchor="middle" color="#ffffff" transform="matrix(1,0,0,1,197.5,368)" display="none" style="fill: rgb(255, 255, 255);"><g ></g><g ></g><g ></g><g ></g></g><image  id="v-36"></image></g></g><!--z-index:25--><g   id="j_5"  transform="translate(2676,180)" style=""><g  id="v-45" style="opacity: 1;"><rect  x="0" y="160" width="400" height="240" rx="70" id="v-47" stroke="#073b6f" stroke-width="2" pointer-events="visiblePainted" fill="#08427b" style="fill: rgb(8, 66, 123); stroke: rgb(7, 59, 111);"></rect><circle  cx="200" cy="88.88888888888889" r="88.88888888888889" id="v-46" stroke="#073b6f" stroke-width="2" pointer-events="visiblePainted" fill="#08427b" style="fill: rgb(8, 66, 123); stroke: rgb(7, 59, 111);"></circle><line  x1="80" y1="266.6666666666667" x2="80" y2="400" id="v-53" stroke="#073b6f" stroke-width="2" style="stroke: rgb(7, 59, 111);"></line><line  x1="320" y1="266.6666666666667" x2="320" y2="400" id="v-54" stroke="#073b6f" stroke-width="2" style="stroke: rgb(7, 59, 111);"></line><text  id="v-48" font-size="34" xml:space="preserve" y="0.8em" font-weight="bold" text-anchor="middle" pointer-events="visible" font-family="Open Sans" fill="#ffffff" transform="matrix(1,0,0,1,200,189.3)" style="fill: rgb(255, 255, 255);"><tspan dy="0" >External Auditor</tspan></text><text  id="v-49" font-size="17" xml:space="preserve" y="0.8em" text-anchor="middle" font-family="Open Sans" fill="#ffffff" transform="matrix(1,0,0,1,200,230.1)" style="fill: rgb(255, 255, 255);"><tspan dy="0" >[Person]</tspan></text><text  id="v-50" font-size="24" xml:space="preserve" y="0.8em" text-anchor="middle" font-family="Open Sans" fill="#ffffff" transform="matrix(1,0,0,1,200,260.5)" style="fill: rgb(255, 255, 255);"><tspan dy="0" >Performs audits on behalf of</tspan><tspan dy="1.2em" x="0" >regulatory bodies to ensure</tspan><tspan dy="1.2em" x="0" >compliance with HIPAA and</tspan><tspan dy="1.2em" x="0" >other regulations.</tspan></text><g  id="v-51" font-weight="normal" text-anchor="middle" color="#ffffff" transform="matrix(1,0,0,1,197.5,368)" display="none" style="fill: rgb(255, 255, 255);"><g ></g><g ></g><g ></g><g ></g></g><image  id="v-52"></image></g></g><!--z-index:26--><g   id="j_6"  transform="translate(1820,1750)" style=""><g  id="v-61" style="opacity: 1;"><rect  id="v-62" rx="20" ry="20" stroke="#0f5eaa" stroke-width="2" pointer-events="visiblePainted" fill="#1168bd" width="450" height="300" style="fill: rgb(17, 104, 189); stroke: rgb(15, 94, 170);"></rect><text  id="v-63" font-size="34" xml:space="preserve" y="0.8em" font-weight="bold" text-anchor="middle" pointer-events="visible" font-family="Open Sans" fill="#ffffff" transform="matrix(1,0,0,1,225,53.3)" style="fill: rgb(255, 255, 255);"><tspan dy="0" >Electronic Health</tspan><tspan dy="1.2em" x="0" >Records (EHR) System</tspan></text><text  id="v-64" font-size="17" xml:space="preserve" y="0.8em" text-anchor="middle" font-family="Open Sans" fill="#ffffff" transform="matrix(1,0,0,1,225,134.9)" style="fill: rgb(255, 255, 255);"><tspan dy="0" >[Software System]</tspan></text><text  id="v-65" font-size="24" xml:space="preserve" y="0.8em" text-anchor="middle" font-family="Open Sans" fill="#ffffff" transform="matrix(1,0,0,1,225,165.3)" style="fill: rgb(255, 255, 255);"><tspan dy="0" >System where patient health</tspan><tspan dy="1.2em" x="0" >records are stored and accessed by</tspan><tspan dy="1.2em" x="0" >healthcare providers.</tspan></text><g  id="v-66" color="#ffffff" transform="matrix(1,0,0,1,222.5,268)" display="none" style="fill: rgb(255, 255, 255);"><g ></g><g ></g><g ></g><g ></g></g><image  id="v-67"></image></g></g><!--z-index:27--><g   id="j_7"  transform="translate(1831,1120)" style=""><g  id="v-74" style="opacity: 1;"><rect  id="v-75" rx="20" ry="20" stroke="#0f5eaa" stroke-width="2" pointer-events="visiblePainted" fill="#1168bd" width="450" height="300" style="fill: rgb(17, 104, 189); stroke: rgb(15, 94, 170);"></rect><text  id="v-76" font-size="34" xml:space="preserve" y="0.8em" font-weight="bold" text-anchor="middle" pointer-events="visible" font-family="Open Sans" fill="#ffffff" transform="matrix(1,0,0,1,225,10.1)" style="fill: rgb(255, 255, 255);"><tspan dy="0" >Healthcare Data Access</tspan><tspan dy="1.2em" x="0" >Auditing System</tspan></text><text  id="v-77" font-size="17" xml:space="preserve" y="0.8em" text-anchor="middle" font-family="Open Sans" fill="#ffffff" transform="matrix(1,0,0,1,225,91.7)" style="fill: rgb(255, 255, 255);"><tspan dy="0" >[Software System]</tspan></text><text  id="v-78" font-size="24" xml:space="preserve" y="0.8em" text-anchor="middle" font-family="Open Sans" fill="#ffffff" transform="matrix(1,0,0,1,225,122.1)" style="fill: rgb(255, 255, 255);"><tspan dy="0" >Monitors and audits access to</tspan><tspan dy="1.2em" x="0" >electronic health records (EHRs) to</tspan><tspan dy="1.2em" x="0" >ensure compliance with HIPAA</tspan><tspan dy="1.2em" x="0" >regulations. Includes access</tspan><tspan dy="1.2em" x="0" >monitoring and compliance</tspan><tspan dy="1.2em" x="0" >checking features.</tspan></text><g  id="v-79" color="#ffffff" transform="matrix(1,0,0,1,222.5,268)" display="none" style="fill: rgb(255, 255, 255);"><g ></g><g ></g><g ></g><g ></g></g><image  id="v-80"></image></g></g><!--z-index:28--><g   id="j_8"  transform="translate(2690,1725)" style=""><g  id="v-87" style="opacity: 1;"><rect  id="v-88" rx="20" ry="20" stroke="#0f5eaa" stroke-width="2" pointer-events="visiblePainted" fill="#1168bd" width="450" height="300" style="fill: rgb(17, 104, 189); stroke: rgb(15, 94, 170);"></rect><text  id="v-89" font-size="34" xml:space="preserve" y="0.8em" font-weight="bold" text-anchor="middle" pointer-events="visible" font-family="Open Sans" fill="#ffffff" transform="matrix(1,0,0,1,225,32.9)" style="fill: rgb(255, 255, 255);"><tspan dy="0" >Security Information and</tspan><tspan dy="1.2em" x="0" >Event Management</tspan><tspan dy="1.2em" x="0" >(SIEM) System</tspan></text><text  id="v-90" font-size="17" xml:space="preserve" y="0.8em" text-anchor="middle" font-family="Open Sans" fill="#ffffff" transform="matrix(1,0,0,1,225,155.3)" style="fill: rgb(255, 255, 255);"><tspan dy="0" >[Software System]</tspan></text><text  id="v-91" font-size="24" xml:space="preserve" y="0.8em" text-anchor="middle" font-family="Open Sans" fill="#ffffff" transform="matrix(1,0,0,1,225,185.7)" style="fill: rgb(255, 255, 255);"><tspan dy="0" >Aggregates security-related data</tspan><tspan dy="1.2em" x="0" >from across the organization for</tspan><tspan dy="1.2em" x="0" >real-time analysis and reporting.</tspan></text><g  id="v-92" color="#ffffff" transform="matrix(1,0,0,1,222.5,268)" display="none" style="fill: rgb(255, 255, 255);"><g ></g><g ></g><g ></g><g ></g></g><image  id="v-93"></image></g></g><!--z-index:29--><g   id="j_9"  transform="translate(881,1160)" style=""><g  id="v-100" style="opacity: 1;"><rect  id="v-101" rx="20" ry="20" stroke="#0f5eaa" stroke-width="2" pointer-events="visiblePainted" fill="#1168bd" width="450" height="300" style="fill: rgb(17, 104, 189); stroke: rgb(15, 94, 170);"></rect><text  id="v-102" font-size="34" xml:space="preserve" y="0.8em" font-weight="bold" text-anchor="middle" pointer-events="visible" font-family="Open Sans" fill="#ffffff" transform="matrix(1,0,0,1,225,32.9)" style="fill: rgb(255, 255, 255);"><tspan dy="0" >Identity and Access</tspan><tspan dy="1.2em" x="0" >Management (IAM)</tspan><tspan dy="1.2em" x="0" >System</tspan></text><text  id="v-103" font-size="17" xml:space="preserve" y="0.8em" text-anchor="middle" font-family="Open Sans" fill="#ffffff" transform="matrix(1,0,0,1,225,155.3)" style="fill: rgb(255, 255, 255);"><tspan dy="0" >[Software System]</tspan></text><text  id="v-104" font-size="24" xml:space="preserve" y="0.8em" text-anchor="middle" font-family="Open Sans" fill="#ffffff" transform="matrix(1,0,0,1,225,185.7)" style="fill: rgb(255, 255, 255);"><tspan dy="0" >Manages user identities and access</tspan><tspan dy="1.2em" x="0" >controls across the healthcare</tspan><tspan dy="1.2em" x="0" >organization.</tspan></text><g  id="v-105" color="#ffffff" transform="matrix(1,0,0,1,222.5,268)" display="none" style="fill: rgb(255, 255, 255);"><g ></g><g ></g><g ></g><g ></g></g><image  id="v-106"></image></g></g><!--z-index:30--><g   id="j_10"  transform="translate(2660,1110)" style=""><g  id="v-113" style="opacity: 1;"><rect  id="v-114" rx="20" ry="20" stroke="#0f5eaa" stroke-width="2" pointer-events="visiblePainted" fill="#1168bd" width="450" height="300" style="fill: rgb(17, 104, 189); stroke: rgb(15, 94, 170);"></rect><text  id="v-115" font-size="34" xml:space="preserve" y="0.8em" font-weight="bold" text-anchor="middle" pointer-events="visible" font-family="Open Sans" fill="#ffffff" transform="matrix(1,0,0,1,225,53.3)" style="fill: rgb(255, 255, 255);"><tspan dy="0" >External Compliance</tspan><tspan dy="1.2em" x="0" >Reporting System</tspan></text><text  id="v-116" font-size="17" xml:space="preserve" y="0.8em" text-anchor="middle" font-family="Open Sans" fill="#ffffff" transform="matrix(1,0,0,1,225,134.9)" style="fill: rgb(255, 255, 255);"><tspan dy="0" >[Software System]</tspan></text><text  id="v-117" font-size="24" xml:space="preserve" y="0.8em" text-anchor="middle" font-family="Open Sans" fill="#ffffff" transform="matrix(1,0,0,1,225,165.3)" style="fill: rgb(255, 255, 255);"><tspan dy="0" >External service for submitting</tspan><tspan dy="1.2em" x="0" >compliance reports to regulatory</tspan><tspan dy="1.2em" x="0" >bodies.</tspan></text><g  id="v-118" color="#ffffff" transform="matrix(1,0,0,1,222.5,268)" display="none" style="fill: rgb(255, 255, 255);"><g ></g><g ></g><g ></g><g ></g></g><image  id="v-119"></image></g></g><!--z-index:31--><g   id="j_11" ><path  stroke="#707070" d="M 1978 1750 L 1935 1654 C 1932.3333333333333 1647.9999999999998 1932 1641.9999999999998 1934 1636 L 2006 1420" id="v-133" stroke-width="2" stroke-dasharray="30 30" fill="none" style="opacity: 1;"></path><path  fill="black" stroke="black" d="M 0 0 0 0" transform="matrix(-0.4081304745123242,-0.912923608947838,0.912923608947838,-0.4081304745123242,1977.941162109375,1750)"></path><path  fill="#707070" stroke="#707070" d="M 20 0 L 0 10 L 20 20 z" id="v-135" transform="matrix(-0.316227815015958,0.9486832817174724,-0.9486832817174724,-0.316227815015958,2015.4868795220218,1423.162261739235)" style="opacity: 1;"></path><path  d="M 1978 1750 L 1935 1654 C 1932.3333333333333 1647.9999999999998 1932 1641.9999999999998 1934 1636 L 2006 1420" id="v-134" fill="none" style="cursor: auto; pointer-events: visiblepainted;"></path><g ><g id="v-127"  label-idx="0" cursor="move" transform="matrix(1,0,0,1,1950.4478759765625,1586.6563720703125)" style="cursor: default; opacity: 1;"><rect joint-selector="rect" id="v-130" fill="#ffffff" rx="3" ry="3" pointer-events="none" width="197.50787353515625" height="61.1286563873291" transform="matrix(1,0,0,1,-98.8,-30.6)"></rect><text joint-selector="text" id="v-129" font-size="24px" xml:space="preserve" y="0.8em" fill="#707070" text-anchor="middle" pointer-events="none" font-family="Open Sans" font-weight="normal" transform="matrix(1,0,0,1,0,-23.9)"><tspan dy="0" >Sends access logs</tspan><tspan dy="1.2em" x="0" >for auditing</tspan></text></g><g id="v-128"  label-idx="1" cursor="move" transform="matrix(1,0,0,1,1940.4478759765625,1627.456298828125)" style="cursor: default; opacity: 1;"><rect joint-selector="rect" id="v-132" fill="#ffffff" rx="3" ry="3"  width="0" height="0" transform="matrix(1,0,0,1,0,0)" display="none"></rect><text joint-selector="text" id="v-131" fill="#000000" font-size="14" text-anchor="middle" pointer-events="none"></text></g></g><g  display="none" style="display: none;"><g  transform="translate(1931, 1645)" id="v-124"><circle  idx="0" r="10"></circle><path  idx="0" d="M16,5.333c-7.732,0-14,4.701-14,10.5c0,1.982,0.741,3.833,2.016,5.414L2,25.667l5.613-1.441c2.339,1.317,5.237,2.107,8.387,2.107c7.732,0,14-4.701,14-10.5C30,10.034,23.732,5.333,16,5.333z" transform="translate(5, -33)"></path><path  idx="0" transform="scale(.8) translate(9.5, -37)" d="M24.778,21.419 19.276,15.917 24.777,10.415 21.949,7.585 16.447,13.087 10.945,7.585 8.117,10.415 13.618,15.917 8.116,21.419 10.946,24.248 16.447,18.746 21.948,24.248z"><title>Remove vertex.</title></path></g></g><g  id="v-137" display="none"><g  id="v-125"><path  end="source" d="M 26 0 L 0 13 L 26 26 z"></path></g><g  id="v-126"><path  end="target" d="M 26 0 L 0 13 L 26 26 z"></path></g></g><g  id="v-136" display="none"><g  id="v-123" transform="translate(1961.6486830162376, 1713.494734175786) "><g  event="remove"><circle r="11"></circle><path transform="scale(.8) translate(-16, -16)" d="M24.778,21.419 19.276,15.917 24.777,10.415 21.949,7.585 16.447,13.087 10.945,7.585 8.117,10.415 13.618,15.917 8.116,21.419 10.946,24.248 16.447,18.746 21.948,24.248z"></path><title>Remove link.</title></g><g  event="link:options"><circle r="11" transform="translate(25)"></circle><path fill="white" transform="scale(.55) translate(29, -16)" d="M31.229,17.736c0.064-0.571,0.104-1.148,0.104-1.736s-0.04-1.166-0.104-1.737l-4.377-1.557c-0.218-0.716-0.504-1.401-0.851-2.05l1.993-4.192c-0.725-0.91-1.549-1.734-2.458-2.459l-4.193,1.994c-0.647-0.347-1.334-0.632-2.049-0.849l-1.558-4.378C17.165,0.708,16.588,0.667,16,0.667s-1.166,0.041-1.737,0.105L12.707,5.15c-0.716,0.217-1.401,0.502-2.05,0.849L6.464,4.005C5.554,4.73,4.73,5.554,4.005,6.464l1.994,4.192c-0.347,0.648-0.632,1.334-0.849,2.05l-4.378,1.557C0.708,14.834,0.667,15.412,0.667,16s0.041,1.165,0.105,1.736l4.378,1.558c0.217,0.715,0.502,1.401,0.849,2.049l-1.994,4.193c0.725,0.909,1.549,1.733,2.459,2.458l4.192-1.993c0.648,0.347,1.334,0.633,2.05,0.851l1.557,4.377c0.571,0.064,1.148,0.104,1.737,0.104c0.588,0,1.165-0.04,1.736-0.104l1.558-4.377c0.715-0.218,1.399-0.504,2.049-0.851l4.193,1.993c0.909-0.725,1.733-1.549,2.458-2.458l-1.993-4.193c0.347-0.647,0.633-1.334,0.851-2.049L31.229,17.736zM16,20.871c-2.69,0-4.872-2.182-4.872-4.871c0-2.69,2.182-4.872,4.872-4.872c2.689,0,4.871,2.182,4.871,4.872C20.871,18.689,18.689,20.871,16,20.871z"></path><title>Link options.</title></g></g></g></g><!--z-index:32--><g   id="j_12" ><path  stroke="#707070" d="M 2142 1420 L 2266 1636 C 2269.333333333333 1641.9999999999998 2268.6666666666665 1647.333333333333 2264 1652 L 2178 1750" id="v-151" stroke-width="2" stroke-dasharray="30 30" fill="none" style="opacity: 1;"></path><path  fill="black" stroke="black" d="M 0 0 0 0" transform="matrix(0.49738409629091535,0.8675304379425943,-0.8675304379425943,0.49738409629091535,2142,1420)"></path><path  fill="#707070" stroke="#707070" d="M 20 0 L 0 10 L 20 20 z" id="v-153" transform="matrix(0.6632700346607734,-0.7483801581556639,0.7483801581556639,0.6632700346607734,2170.4574726812107,1743.3673365865113)" style="opacity: 1;"></path><path  d="M 2142 1420 L 2266 1636 C 2269.333333333333 1641.9999999999998 2268.6666666666665 1647.333333333333 2264 1652 L 2178 1750" id="v-152" fill="none" style="cursor: auto; pointer-events: visiblepainted;"></path><g ><g id="v-145"  label-idx="0" cursor="move" transform="matrix(1,0,0,1,2240.82275390625,1592.14306640625)" style="cursor: default; opacity: 1;"><rect joint-selector="rect" id="v-148" fill="#ffffff" rx="3" ry="3" pointer-events="none" width="189.4312744140625" height="147.5286636352539" transform="matrix(1,0,0,1,-94.2,-73.8)"></rect><text joint-selector="text" id="v-147" font-size="24px" xml:space="preserve" y="0.8em" fill="#707070" text-anchor="middle" pointer-events="none" font-family="Open Sans" font-weight="normal" transform="matrix(1,0,0,1,0,-67.1)"><tspan dy="0" >Requests</tspan><tspan dy="1.2em" x="0" >additional data if</tspan><tspan dy="1.2em" x="0" >necessary for</tspan><tspan dy="1.2em" x="0" >compliance</tspan><tspan dy="1.2em" x="0" >checks</tspan></text></g><g id="v-146"  label-idx="1" cursor="move" transform="matrix(1,0,0,1,2230.82275390625,1676.14306640625)" style="cursor: default; opacity: 1;"><rect joint-selector="rect" id="v-150" fill="#ffffff" rx="3" ry="3"  width="0" height="0" transform="matrix(1,0,0,1,0,0)" display="none"></rect><text joint-selector="text" id="v-149" fill="#000000" font-size="14" text-anchor="middle" pointer-events="none"></text></g></g><g  display="none" style="display: none;"><g  transform="translate(2271, 1645)" id="v-142"><circle  idx="0" r="10"></circle><path  idx="0" d="M16,5.333c-7.732,0-14,4.701-14,10.5c0,1.982,0.741,3.833,2.016,5.414L2,25.667l5.613-1.441c2.339,1.317,5.237,2.107,8.387,2.107c7.732,0,14-4.701,14-10.5C30,10.034,23.732,5.333,16,5.333z" transform="translate(5, -33)"></path><path  idx="0" transform="scale(.8) translate(9.5, -37)" d="M24.778,21.419 19.276,15.917 24.777,10.415 21.949,7.585 16.447,13.087 10.945,7.585 8.117,10.415 13.618,15.917 8.116,21.419 10.946,24.248 16.447,18.746 21.948,24.248z"><title>Remove vertex.</title></path></g></g><g  id="v-155" display="none"><g  id="v-143"><path  end="source" d="M 26 0 L 0 13 L 26 26 z"></path></g><g  id="v-144"><path  end="target" d="M 26 0 L 0 13 L 26 26 z"></path></g></g><g  id="v-154" display="none"><g  id="v-141" transform="translate(2161.9147007421325, 1454.6901238733924) "><g  event="remove"><circle r="11"></circle><path transform="scale(.8) translate(-16, -16)" d="M24.778,21.419 19.276,15.917 24.777,10.415 21.949,7.585 16.447,13.087 10.945,7.585 8.117,10.415 13.618,15.917 8.116,21.419 10.946,24.248 16.447,18.746 21.948,24.248z"></path><title>Remove link.</title></g><g  event="link:options"><circle r="11" transform="translate(25)"></circle><path fill="white" transform="scale(.55) translate(29, -16)" d="M31.229,17.736c0.064-0.571,0.104-1.148,0.104-1.736s-0.04-1.166-0.104-1.737l-4.377-1.557c-0.218-0.716-0.504-1.401-0.851-2.05l1.993-4.192c-0.725-0.91-1.549-1.734-2.458-2.459l-4.193,1.994c-0.647-0.347-1.334-0.632-2.049-0.849l-1.558-4.378C17.165,0.708,16.588,0.667,16,0.667s-1.166,0.041-1.737,0.105L12.707,5.15c-0.716,0.217-1.401,0.502-2.05,0.849L6.464,4.005C5.554,4.73,4.73,5.554,4.005,6.464l1.994,4.192c-0.347,0.648-0.632,1.334-0.849,2.05l-4.378,1.557C0.708,14.834,0.667,15.412,0.667,16s0.041,1.165,0.105,1.736l4.378,1.558c0.217,0.715,0.502,1.401,0.849,2.049l-1.994,4.193c0.725,0.909,1.549,1.733,2.459,2.458l4.192-1.993c0.648,0.347,1.334,0.633,2.05,0.851l1.557,4.377c0.571,0.064,1.148,0.104,1.737,0.104c0.588,0,1.165-0.04,1.736-0.104l1.558-4.377c0.715-0.218,1.399-0.504,2.049-0.851l4.193,1.993c0.909-0.725,1.733-1.549,2.458-2.458l-1.993-4.193c0.347-0.647,0.633-1.334,0.851-2.049L31.229,17.736zM16,20.871c-2.69,0-4.872-2.182-4.872-4.871c0-2.69,2.182-4.872,4.872-4.872c2.689,0,4.871,2.182,4.871,4.872C20.871,18.689,18.689,20.871,16,20.871z"></path><title>Link options.</title></g></g></g></g><!--z-index:33--><g   id="j_13" ><path  stroke="#707070" d="M 2094 1120 L 2178 786 C 2179.333333333333 779.3333333333333 2178.6666666666665 772.9999999999999 2176 767 L 2097 570" id="v-169" stroke-width="2" stroke-dasharray="30 30" fill="none" style="opacity: 1;"></path><path  fill="black" stroke="black" d="M 0 0 0 0" transform="matrix(0.24345961986712503,-0.9699110338036964,0.9699110338036964,0.24345961986712503,2093.65185546875,1120)"></path><path  fill="#707070" stroke="#707070" d="M 20 0 L 0 10 L 20 20 z" id="v-171" transform="matrix(0.37453856484665654,0.9272113369899049,-0.9272113369899049,0.37453856484665654,2106.0601749870575,566.2545957081969)" style="opacity: 1;"></path><path  d="M 2094 1120 L 2178 786 C 2179.333333333333 779.3333333333333 2178.6666666666665 772.9999999999999 2176 767 L 2097 570" id="v-170" fill="none" style="cursor: auto; pointer-events: visiblepainted;"></path><g ><g id="v-163"  label-idx="0" cursor="move" transform="matrix(1,0,0,1,2164.251953125,840.6646728515625)" style="cursor: default; opacity: 1;"><rect joint-selector="rect" id="v-166" fill="#ffffff" rx="3" ry="3" pointer-events="none" width="131.1331024169922" height="118.72865676879883" transform="matrix(1,0,0,1,-65.6,-59.4)"></rect><text joint-selector="text" id="v-165" font-size="24px" xml:space="preserve" y="0.8em" fill="#707070" text-anchor="middle" pointer-events="none" font-family="Open Sans" font-weight="normal" transform="matrix(1,0,0,1,0,-52.7)"><tspan dy="0" >Provides</tspan><tspan dy="1.2em" x="0" >compliance</tspan><tspan dy="1.2em" x="0" >reports and</tspan><tspan dy="1.2em" x="0" >alerts</tspan></text></g><g id="v-164"  label-idx="1" cursor="move" transform="matrix(1,0,0,1,2154.251953125,910.2647094726562)" style="cursor: default; opacity: 1;"><rect joint-selector="rect" id="v-168" fill="#ffffff" rx="3" ry="3"  width="0" height="0" transform="matrix(1,0,0,1,0,0)" display="none"></rect><text joint-selector="text" id="v-167" fill="#000000" font-size="14" text-anchor="middle" pointer-events="none"></text></g></g><g  display="none" style="display: none;"><g  transform="translate(2180, 776)" id="v-160"><circle  idx="0" r="10"></circle><path  idx="0" d="M16,5.333c-7.732,0-14,4.701-14,10.5c0,1.982,0.741,3.833,2.016,5.414L2,25.667l5.613-1.441c2.339,1.317,5.237,2.107,8.387,2.107c7.732,0,14-4.701,14-10.5C30,10.034,23.732,5.333,16,5.333z" transform="translate(5, -33)"></path><path  idx="0" transform="scale(.8) translate(9.5, -37)" d="M24.778,21.419 19.276,15.917 24.777,10.415 21.949,7.585 16.447,13.087 10.945,7.585 8.117,10.415 13.618,15.917 8.116,21.419 10.946,24.248 16.447,18.746 21.948,24.248z"><title>Remove vertex.</title></path></g></g><g  id="v-173" display="none"><g  id="v-161"><path  end="source" d="M 26 0 L 0 13 L 26 26 z"></path></g><g  id="v-162"><path  end="target" d="M 26 0 L 0 13 L 26 26 z"></path></g></g><g  id="v-172" display="none"><g  id="v-159" transform="translate(2103.756071240237, 1081.2080024495333) "><g  event="remove"><circle r="11"></circle><path transform="scale(.8) translate(-16, -16)" d="M24.778,21.419 19.276,15.917 24.777,10.415 21.949,7.585 16.447,13.087 10.945,7.585 8.117,10.415 13.618,15.917 8.116,21.419 10.946,24.248 16.447,18.746 21.948,24.248z"></path><title>Remove link.</title></g><g  event="link:options"><circle r="11" transform="translate(25)"></circle><path fill="white" transform="scale(.55) translate(29, -16)" d="M31.229,17.736c0.064-0.571,0.104-1.148,0.104-1.736s-0.04-1.166-0.104-1.737l-4.377-1.557c-0.218-0.716-0.504-1.401-0.851-2.05l1.993-4.192c-0.725-0.91-1.549-1.734-2.458-2.459l-4.193,1.994c-0.647-0.347-1.334-0.632-2.049-0.849l-1.558-4.378C17.165,0.708,16.588,0.667,16,0.667s-1.166,0.041-1.737,0.105L12.707,5.15c-0.716,0.217-1.401,0.502-2.05,0.849L6.464,4.005C5.554,4.73,4.73,5.554,4.005,6.464l1.994,4.192c-0.347,0.648-0.632,1.334-0.849,2.05l-4.378,1.557C0.708,14.834,0.667,15.412,0.667,16s0.041,1.165,0.105,1.736l4.378,1.558c0.217,0.715,0.502,1.401,0.849,2.049l-1.994,4.193c0.725,0.909,1.549,1.733,2.459,2.458l4.192-1.993c0.648,0.347,1.334,0.633,2.05,0.851l1.557,4.377c0.571,0.064,1.148,0.104,1.737,0.104c0.588,0,1.165-0.04,1.736-0.104l1.558-4.377c0.715-0.218,1.399-0.504,2.049-0.851l4.193,1.993c0.909-0.725,1.733-1.549,2.458-2.458l-1.993-4.193c0.347-0.647,0.633-1.334,0.851-2.049L31.229,17.736zM16,20.871c-2.69,0-4.872-2.182-4.872-4.871c0-2.69,2.182-4.872,4.872-4.872c2.689,0,4.871,2.182,4.871,4.872C20.871,18.689,18.689,20.871,16,20.871z"></path><title>Link options.</title></g></g></g></g><!--z-index:34--><g   id="j_14" ><path  stroke="#707070" d="M 1893 1120 L 1291 564" id="v-186" stroke-width="2" stroke-dasharray="30 30" fill="none" style="opacity: 1;"></path><path  fill="black" stroke="black" d="M 0 0 0 0" transform="matrix(-0.7350953905939702,-0.6779636913047028,0.6779636913047028,-0.7350953905939702,1893.3594970703125,1120)"></path><path  fill="#707070" stroke="#707070" d="M 20 0 L 0 10 L 20 20 z" id="v-188" transform="matrix(0.7350954357321318,0.6779636423627652,-0.6779636423627652,0.7350954357321318,1297.7796342147437,557.105004922176)" style="opacity: 1;"></path><path  d="M 1893 1120 L 1291 564" id="v-187" fill="none" style="cursor: auto; pointer-events: visiblepainted;"></path><g ><g id="v-180"  label-idx="0" cursor="move" transform="matrix(1,0,0,1,1592,842)" style="cursor: default; opacity: 1;"><rect joint-selector="rect" id="v-183" fill="#ffffff" rx="3" ry="3" pointer-events="none" width="193.59307861328125" height="118.72865676879883" transform="matrix(1,0,0,1,-96.8,-59.4)"></rect><text joint-selector="text" id="v-182" font-size="24px" xml:space="preserve" y="0.8em" fill="#707070" text-anchor="middle" pointer-events="none" font-family="Open Sans" font-weight="normal" transform="matrix(1,0,0,1,0,-52.7)"><tspan dy="0" >Notifies about</tspan><tspan dy="1.2em" x="0" >potential security</tspan><tspan dy="1.2em" x="0" >or compliance</tspan><tspan dy="1.2em" x="0" >issues</tspan></text></g><g id="v-181"  label-idx="1" cursor="move" transform="matrix(1,0,0,1,1582,911.5999755859375)" style="cursor: default; opacity: 1;"><rect joint-selector="rect" id="v-185" fill="#ffffff" rx="3" ry="3"  width="0" height="0" transform="matrix(1,0,0,1,0,0)" display="none"></rect><text joint-selector="text" id="v-184" fill="#000000" font-size="14" text-anchor="middle" pointer-events="none"></text></g></g><g  display="none" style="display: none;"></g><g  id="v-190" display="none"><g  id="v-178"><path  end="source" d="M 26 0 L 0 13 L 26 26 z"></path></g><g  id="v-179"><path  end="target" d="M 26 0 L 0 13 L 26 26 z"></path></g></g><g  id="v-189" display="none"><g  id="v-177" transform="translate(1863.6153488358755, 1092.8606876291474) "><g  event="remove"><circle r="11"></circle><path transform="scale(.8) translate(-16, -16)" d="M24.778,21.419 19.276,15.917 24.777,10.415 21.949,7.585 16.447,13.087 10.945,7.585 8.117,10.415 13.618,15.917 8.116,21.419 10.946,24.248 16.447,18.746 21.948,24.248z"></path><title>Remove link.</title></g><g  event="link:options"><circle r="11" transform="translate(25)"></circle><path fill="white" transform="scale(.55) translate(29, -16)" d="M31.229,17.736c0.064-0.571,0.104-1.148,0.104-1.736s-0.04-1.166-0.104-1.737l-4.377-1.557c-0.218-0.716-0.504-1.401-0.851-2.05l1.993-4.192c-0.725-0.91-1.549-1.734-2.458-2.459l-4.193,1.994c-0.647-0.347-1.334-0.632-2.049-0.849l-1.558-4.378C17.165,0.708,16.588,0.667,16,0.667s-1.166,0.041-1.737,0.105L12.707,5.15c-0.716,0.217-1.401,0.502-2.05,0.849L6.464,4.005C5.554,4.73,4.73,5.554,4.005,6.464l1.994,4.192c-0.347,0.648-0.632,1.334-0.849,2.05l-4.378,1.557C0.708,14.834,0.667,15.412,0.667,16s0.041,1.165,0.105,1.736l4.378,1.558c0.217,0.715,0.502,1.401,0.849,2.049l-1.994,4.193c0.725,0.909,1.549,1.733,2.459,2.458l4.192-1.993c0.648,0.347,1.334,0.633,2.05,0.851l1.557,4.377c0.571,0.064,1.148,0.104,1.737,0.104c0.588,0,1.165-0.04,1.736-0.104l1.558-4.377c0.715-0.218,1.399-0.504,2.049-0.851l4.193,1.993c0.909-0.725,1.733-1.549,2.458-2.458l-1.993-4.193c0.347-0.647,0.633-1.334,0.851-2.049L31.229,17.736zM16,20.871c-2.69,0-4.872-2.182-4.872-4.871c0-2.69,2.182-4.872,4.872-4.872c2.689,0,4.871,2.182,4.871,4.872C20.871,18.689,18.689,20.871,16,20.871z"></path><title>Link options.</title></g></g></g></g><!--z-index:35--><g   id="j_15" ><path  stroke="#707070" d="M 2190 1120 L 2419 862 C 2423.6666666666665 857.3333333333333 2428.333333333333 852.6666666666666 2433 848 L 2687 580" id="v-204" stroke-width="2" stroke-dasharray="30 30" fill="none" style="opacity: 1;"></path><path  fill="black" stroke="black" d="M 0 0 0 0" transform="matrix(0.6654794266006829,-0.7464161927311239,0.7464161927311239,0.6654794266006829,2189.73486328125,1120)"></path><path  fill="#707070" stroke="#707070" d="M 20 0 L 0 10 L 20 20 z" id="v-206" transform="matrix(-0.6877446600830643,0.7259526723741915,-0.7259526723741915,-0.6877446600830643,2693.7858991058224,586.8774413614638)" style="opacity: 1;"></path><path  d="M 2190 1120 L 2419 862 C 2423.6666666666665 857.3333333333333 2428.333333333333 852.6666666666666 2433 848 L 2687 580" id="v-205" fill="none" style="cursor: auto; pointer-events: visiblepainted;"></path><g ><g id="v-198"  label-idx="0" cursor="move" transform="matrix(1,0,0,1,2434.538330078125,846.3768920898438)" style="cursor: default; opacity: 1;"><rect joint-selector="rect" id="v-201" fill="#ffffff" rx="3" ry="3" pointer-events="none" width="192.81011962890625" height="89.92865371704102" transform="matrix(1,0,0,1,-96.4,-45)"></rect><text joint-selector="text" id="v-200" font-size="24px" xml:space="preserve" y="0.8em" fill="#707070" text-anchor="middle" pointer-events="none" font-family="Open Sans" font-weight="normal" transform="matrix(1,0,0,1,0,-38.3)"><tspan dy="0" >Provides detailed</tspan><tspan dy="1.2em" x="0" >audit trails and</tspan><tspan dy="1.2em" x="0" >reports</tspan></text></g><g id="v-199"  label-idx="1" cursor="move" transform="matrix(1,0,0,1,2424.538330078125,901.576904296875)" style="cursor: default; opacity: 1;"><rect joint-selector="rect" id="v-203" fill="#ffffff" rx="3" ry="3"  width="0" height="0" transform="matrix(1,0,0,1,0,0)" display="none"></rect><text joint-selector="text" id="v-202" fill="#000000" font-size="14" text-anchor="middle" pointer-events="none"></text></g></g><g  display="none" style="display: none;"><g  transform="translate(2426, 855)" id="v-195"><circle  idx="0" r="10"></circle><path  idx="0" d="M16,5.333c-7.732,0-14,4.701-14,10.5c0,1.982,0.741,3.833,2.016,5.414L2,25.667l5.613-1.441c2.339,1.317,5.237,2.107,8.387,2.107c7.732,0,14-4.701,14-10.5C30,10.034,23.732,5.333,16,5.333z" transform="translate(5, -33)"></path><path  idx="0" transform="scale(.8) translate(9.5, -37)" d="M24.778,21.419 19.276,15.917 24.777,10.415 21.949,7.585 16.447,13.087 10.945,7.585 8.117,10.415 13.618,15.917 8.116,21.419 10.946,24.248 16.447,18.746 21.948,24.248z"><title>Remove vertex.</title></path></g></g><g  id="v-208" display="none"><g  id="v-196"><path  end="source" d="M 26 0 L 0 13 L 26 26 z"></path></g><g  id="v-197"><path  end="target" d="M 26 0 L 0 13 L 26 26 z"></path></g></g><g  id="v-207" display="none"><g  id="v-194" transform="translate(2216.55295560354, 1090.0844430318198) "><g  event="remove"><circle r="11"></circle><path transform="scale(.8) translate(-16, -16)" d="M24.778,21.419 19.276,15.917 24.777,10.415 21.949,7.585 16.447,13.087 10.945,7.585 8.117,10.415 13.618,15.917 8.116,21.419 10.946,24.248 16.447,18.746 21.948,24.248z"></path><title>Remove link.</title></g><g  event="link:options"><circle r="11" transform="translate(25)"></circle><path fill="white" transform="scale(.55) translate(29, -16)" d="M31.229,17.736c0.064-0.571,0.104-1.148,0.104-1.736s-0.04-1.166-0.104-1.737l-4.377-1.557c-0.218-0.716-0.504-1.401-0.851-2.05l1.993-4.192c-0.725-0.91-1.549-1.734-2.458-2.459l-4.193,1.994c-0.647-0.347-1.334-0.632-2.049-0.849l-1.558-4.378C17.165,0.708,16.588,0.667,16,0.667s-1.166,0.041-1.737,0.105L12.707,5.15c-0.716,0.217-1.401,0.502-2.05,0.849L6.464,4.005C5.554,4.73,4.73,5.554,4.005,6.464l1.994,4.192c-0.347,0.648-0.632,1.334-0.849,2.05l-4.378,1.557C0.708,14.834,0.667,15.412,0.667,16s0.041,1.165,0.105,1.736l4.378,1.558c0.217,0.715,0.502,1.401,0.849,2.049l-1.994,4.193c0.725,0.909,1.549,1.733,2.459,2.458l4.192-1.993c0.648,0.347,1.334,0.633,2.05,0.851l1.557,4.377c0.571,0.064,1.148,0.104,1.737,0.104c0.588,0,1.165-0.04,1.736-0.104l1.558-4.377c0.715-0.218,1.399-0.504,2.049-0.851l4.193,1.993c0.909-0.725,1.733-1.549,2.458-2.458l-1.993-4.193c0.347-0.647,0.633-1.334,0.851-2.049L31.229,17.736zM16,20.871c-2.69,0-4.872-2.182-4.872-4.871c0-2.69,2.182-4.872,4.872-4.872c2.689,0,4.871,2.182,4.871,4.872C20.871,18.689,18.689,20.871,16,20.871z"></path><title>Link options.</title></g></g></g></g><!--z-index:36--><g   id="j_16" ><path  stroke="#707070" d="M 2269 1420 L 2702 1725" id="v-221" stroke-width="2" stroke-dasharray="30 30" fill="none" style="opacity: 1;"></path><path  fill="black" stroke="black" d="M 0 0 0 0" transform="matrix(0.817574078719722,0.575823432838225,-0.575823432838225,0.817574078719722,2268.97509765625,1420)"></path><path  fill="#707070" stroke="#707070" d="M 20 0 L 0 10 L 20 20 z" id="v-223" transform="matrix(-0.8175740787197221,-0.5758234328382249,0.5758234328382249,-0.8175740787197221,2696.266627552565,1733.175796404642)" style="opacity: 1;"></path><path  d="M 2269 1420 L 2702 1725" id="v-222" fill="none" style="cursor: auto; pointer-events: visiblepainted;"></path><g ><g id="v-215"  label-idx="0" cursor="move" transform="matrix(1,0,0,1,2485.5,1572.5)" style="cursor: default; opacity: 1;"><rect joint-selector="rect" id="v-218" fill="#ffffff" rx="3" ry="3" pointer-events="none" width="174.62525939941406" height="89.92865371704102" transform="matrix(1,0,0,1,-87.3,-45)"></rect><text joint-selector="text" id="v-217" font-size="24px" xml:space="preserve" y="0.8em" fill="#707070" text-anchor="middle" pointer-events="none" font-family="Open Sans" font-weight="normal" transform="matrix(1,0,0,1,0,-38.3)"><tspan dy="0" >Sends</tspan><tspan dy="1.2em" x="0" >security-related</tspan><tspan dy="1.2em" x="0" >audit logs</tspan></text></g><g id="v-216"  label-idx="1" cursor="move" transform="matrix(1,0,0,1,2475.5,1627.699951171875)" style="cursor: default; opacity: 1;"><rect joint-selector="rect" id="v-220" fill="#ffffff" rx="3" ry="3"  width="0" height="0" transform="matrix(1,0,0,1,0,0)" display="none"></rect><text joint-selector="text" id="v-219" fill="#000000" font-size="14" text-anchor="middle" pointer-events="none"></text></g></g><g  display="none" style="display: none;"></g><g  id="v-225" display="none"><g  id="v-213"><path  end="source" d="M 26 0 L 0 13 L 26 26 z"></path></g><g  id="v-214"><path  end="target" d="M 26 0 L 0 13 L 26 26 z"></path></g></g><g  id="v-224" display="none"><g  id="v-212" transform="translate(2301.7017216161757, 1443.0346999836802) "><g  event="remove"><circle r="11"></circle><path transform="scale(.8) translate(-16, -16)" d="M24.778,21.419 19.276,15.917 24.777,10.415 21.949,7.585 16.447,13.087 10.945,7.585 8.117,10.415 13.618,15.917 8.116,21.419 10.946,24.248 16.447,18.746 21.948,24.248z"></path><title>Remove link.</title></g><g  event="link:options"><circle r="11" transform="translate(25)"></circle><path fill="white" transform="scale(.55) translate(29, -16)" d="M31.229,17.736c0.064-0.571,0.104-1.148,0.104-1.736s-0.04-1.166-0.104-1.737l-4.377-1.557c-0.218-0.716-0.504-1.401-0.851-2.05l1.993-4.192c-0.725-0.91-1.549-1.734-2.458-2.459l-4.193,1.994c-0.647-0.347-1.334-0.632-2.049-0.849l-1.558-4.378C17.165,0.708,16.588,0.667,16,0.667s-1.166,0.041-1.737,0.105L12.707,5.15c-0.716,0.217-1.401,0.502-2.05,0.849L6.464,4.005C5.554,4.73,4.73,5.554,4.005,6.464l1.994,4.192c-0.347,0.648-0.632,1.334-0.849,2.05l-4.378,1.557C0.708,14.834,0.667,15.412,0.667,16s0.041,1.165,0.105,1.736l4.378,1.558c0.217,0.715,0.502,1.401,0.849,2.049l-1.994,4.193c0.725,0.909,1.549,1.733,2.459,2.458l4.192-1.993c0.648,0.347,1.334,0.633,2.05,0.851l1.557,4.377c0.571,0.064,1.148,0.104,1.737,0.104c0.588,0,1.165-0.04,1.736-0.104l1.558-4.377c0.715-0.218,1.399-0.504,2.049-0.851l4.193,1.993c0.909-0.725,1.733-1.549,2.458-2.458l-1.993-4.193c0.347-0.647,0.633-1.334,0.851-2.049L31.229,17.736zM16,20.871c-2.69,0-4.872-2.182-4.872-4.871c0-2.69,2.182-4.872,4.872-4.872c2.689,0,4.871,2.182,4.871,4.872C20.871,18.689,18.689,20.871,16,20.871z"></path><title>Link options.</title></g></g></g></g><!--z-index:37--><g   id="j_17" ><path  stroke="#707070" d="M 2056 1270 L 1861 1289 C 1854.3333333333333 1289.6666666666665 1847.6666666666665 1290 1841 1290 L 1696 1295 C 1689.3333333333333 1295 1682.6666666666665 1295 1676 1295 L 1331 1304" id="v-240" stroke-width="2" stroke-dasharray="30 30" fill="none" style="opacity: 1;"></path><path  fill="black" stroke="black" d="M 0 0 0 0" transform="matrix(-0.9952746224254828,0.09710008216171977,-0.09710008216171977,-0.9952746224254828,2056,1270)"></path><path  fill="#707070" stroke="#707070" d="M 20 0 L 0 10 L 20 20 z" id="v-242" transform="matrix(0.9996657497101907,-0.025853217524368578,0.025853217524368578,0.9996657497101907,1330.741514429217,1294.1843600297043)" style="opacity: 1;"></path><path  d="M 2056 1270 L 1861 1289 C 1854.3333333333333 1289.6666666666665 1847.6666666666665 1290 1841 1290 L 1696 1295 C 1689.3333333333333 1295 1682.6666666666665 1295 1676 1295 L 1331 1304" id="v-241" fill="none" style="cursor: auto; pointer-events: visiblepainted;"></path><g ><g id="v-234"  label-idx="0" cursor="move" transform="matrix(1,0,0,1,1693.96875,1295)" style="cursor: default; opacity: 1;"><rect joint-selector="rect" id="v-237" fill="#ffffff" rx="3" ry="3" pointer-events="none" width="192.88589477539062" height="89.92865371704102" transform="matrix(1,0,0,1,-96.4,-45)"></rect><text joint-selector="text" id="v-236" font-size="24px" xml:space="preserve" y="0.8em" fill="#707070" text-anchor="middle" pointer-events="none" font-family="Open Sans" font-weight="normal" transform="matrix(1,0,0,1,0,-38.3)"><tspan dy="0" >Requests identity</tspan><tspan dy="1.2em" x="0" >and access</tspan><tspan dy="1.2em" x="0" >information</tspan></text></g><g id="v-235"  label-idx="1" cursor="move" transform="matrix(1,0,0,1,1683.96875,1350.199951171875)" style="cursor: default; opacity: 1;"><rect joint-selector="rect" id="v-239" fill="#ffffff" rx="3" ry="3"  width="0" height="0" transform="matrix(1,0,0,1,0,0)" display="none"></rect><text joint-selector="text" id="v-238" fill="#000000" font-size="14" text-anchor="middle" pointer-events="none"></text></g></g><g  display="none" style="display: none;"><g  transform="translate(1851, 1290)" id="v-230"><circle  idx="0" r="10"></circle><path  idx="0" d="M16,5.333c-7.732,0-14,4.701-14,10.5c0,1.982,0.741,3.833,2.016,5.414L2,25.667l5.613-1.441c2.339,1.317,5.237,2.107,8.387,2.107c7.732,0,14-4.701,14-10.5C30,10.034,23.732,5.333,16,5.333z" transform="translate(5, -33)"></path><path  idx="0" transform="scale(.8) translate(9.5, -37)" d="M24.778,21.419 19.276,15.917 24.777,10.415 21.949,7.585 16.447,13.087 10.945,7.585 8.117,10.415 13.618,15.917 8.116,21.419 10.946,24.248 16.447,18.746 21.948,24.248z"><title>Remove vertex.</title></path></g><g  transform="translate(1686, 1295)" id="v-231"><circle  idx="1" r="10"></circle><path  idx="1" d="M16,5.333c-7.732,0-14,4.701-14,10.5c0,1.982,0.741,3.833,2.016,5.414L2,25.667l5.613-1.441c2.339,1.317,5.237,2.107,8.387,2.107c7.732,0,14-4.701,14-10.5C30,10.034,23.732,5.333,16,5.333z" transform="translate(5, -33)"></path><path  idx="1" transform="scale(.8) translate(9.5, -37)" d="M24.778,21.419 19.276,15.917 24.777,10.415 21.949,7.585 16.447,13.087 10.945,7.585 8.117,10.415 13.618,15.917 8.116,21.419 10.946,24.248 16.447,18.746 21.948,24.248z"><title>Remove vertex.</title></path></g></g><g  id="v-244" display="none"><g  id="v-232"><path  end="source" d="M 26 0 L 0 13 L 26 26 z"></path></g><g  id="v-233"><path  end="target" d="M 26 0 L 0 13 L 26 26 z"></path></g></g><g  id="v-243" display="none"><g  id="v-229" transform="translate(2016.1885337196397, 1273.879065945266) "><g  event="remove"><circle r="11"></circle><path transform="scale(.8) translate(-16, -16)" d="M24.778,21.419 19.276,15.917 24.777,10.415 21.949,7.585 16.447,13.087 10.945,7.585 8.117,10.415 13.618,15.917 8.116,21.419 10.946,24.248 16.447,18.746 21.948,24.248z"></path><title>Remove link.</title></g><g  event="link:options"><circle r="11" transform="translate(25)"></circle><path fill="white" transform="scale(.55) translate(29, -16)" d="M31.229,17.736c0.064-0.571,0.104-1.148,0.104-1.736s-0.04-1.166-0.104-1.737l-4.377-1.557c-0.218-0.716-0.504-1.401-0.851-2.05l1.993-4.192c-0.725-0.91-1.549-1.734-2.458-2.459l-4.193,1.994c-0.647-0.347-1.334-0.632-2.049-0.849l-1.558-4.378C17.165,0.708,16.588,0.667,16,0.667s-1.166,0.041-1.737,0.105L12.707,5.15c-0.716,0.217-1.401,0.502-2.05,0.849L6.464,4.005C5.554,4.73,4.73,5.554,4.005,6.464l1.994,4.192c-0.347,0.648-0.632,1.334-0.849,2.05l-4.378,1.557C0.708,14.834,0.667,15.412,0.667,16s0.041,1.165,0.105,1.736l4.378,1.558c0.217,0.715,0.502,1.401,0.849,2.049l-1.994,4.193c0.725,0.909,1.549,1.733,2.459,2.458l4.192-1.993c0.648,0.347,1.334,0.633,2.05,0.851l1.557,4.377c0.571,0.064,1.148,0.104,1.737,0.104c0.588,0,1.165-0.04,1.736-0.104l1.558-4.377c0.715-0.218,1.399-0.504,2.049-0.851l4.193,1.993c0.909-0.725,1.733-1.549,2.458-2.458l-1.993-4.193c0.347-0.647,0.633-1.334,0.851-2.049L31.229,17.736zM16,20.871c-2.69,0-4.872-2.182-4.872-4.871c0-2.69,2.182-4.872,4.872-4.872c2.689,0,4.871,2.182,4.871,4.872C20.871,18.689,18.689,20.871,16,20.871z"></path><title>Link options.</title></g></g></g></g><!--z-index:38--><g   id="j_18" ><path  stroke="#707070" d="M 2281 1267 L 2660 1263" id="v-257" stroke-width="2" stroke-dasharray="30 30" fill="none" style="opacity: 1;"></path><path  fill="black" stroke="black" d="M 0 0 0 0" transform="matrix(0.9999272550901461,-0.012061696724995881,0.012061696724995881,0.9999272550901461,2281,1267.285888671875)"></path><path  fill="#707070" stroke="#707070" d="M 20 0 L 0 10 L 20 20 z" id="v-259" transform="matrix(-0.9999272518778866,0.012061963021731355,-0.012061963021731355,-0.9999272518778866,2660.1206245708713,1272.7133696854366)" style="opacity: 1;"></path><path  d="M 2281 1267 L 2660 1263" id="v-258" fill="none" style="cursor: auto; pointer-events: visiblepainted;"></path><g ><g id="v-251"  label-idx="0" cursor="move" transform="matrix(1,0,0,1,2470.5,1265)" style="cursor: default; opacity: 1;"><rect joint-selector="rect" id="v-254" fill="#ffffff" rx="3" ry="3" pointer-events="none" width="127.92549896240234" height="118.72865676879883" transform="matrix(1,0,0,1,-64,-59.4)"></rect><text joint-selector="text" id="v-253" font-size="24px" xml:space="preserve" y="0.8em" fill="#707070" text-anchor="middle" pointer-events="none" font-family="Open Sans" font-weight="normal" transform="matrix(1,0,0,1,0,-52.7)"><tspan dy="0" >Submits</tspan><tspan dy="1.2em" x="0" >regulatory</tspan><tspan dy="1.2em" x="0" >compliance</tspan><tspan dy="1.2em" x="0" >reports</tspan></text></g><g id="v-252"  label-idx="1" cursor="move" transform="matrix(1,0,0,1,2460.5,1334.5999755859375)" style="cursor: default; opacity: 1;"><rect joint-selector="rect" id="v-256" fill="#ffffff" rx="3" ry="3"  width="0" height="0" transform="matrix(1,0,0,1,0,0)" display="none"></rect><text joint-selector="text" id="v-255" fill="#000000" font-size="14" text-anchor="middle" pointer-events="none"></text></g></g><g  display="none" style="display: none;"></g><g  id="v-261" display="none"><g  id="v-249"><path  end="source" d="M 26 0 L 0 13 L 26 26 z"></path></g><g  id="v-250"><path  end="target" d="M 26 0 L 0 13 L 26 26 z"></path></g></g><g  id="v-260" display="none"><g  id="v-248" transform="translate(2320.9977724099026, 1266.5778599217952) "><g  event="remove"><circle r="11"></circle><path transform="scale(.8) translate(-16, -16)" d="M24.778,21.419 19.276,15.917 24.777,10.415 21.949,7.585 16.447,13.087 10.945,7.585 8.117,10.415 13.618,15.917 8.116,21.419 10.946,24.248 16.447,18.746 21.948,24.248z"></path><title>Remove link.</title></g><g  event="link:options"><circle r="11" transform="translate(25)"></circle><path fill="white" transform="scale(.55) translate(29, -16)" d="M31.229,17.736c0.064-0.571,0.104-1.148,0.104-1.736s-0.04-1.166-0.104-1.737l-4.377-1.557c-0.218-0.716-0.504-1.401-0.851-2.05l1.993-4.192c-0.725-0.91-1.549-1.734-2.458-2.459l-4.193,1.994c-0.647-0.347-1.334-0.632-2.049-0.849l-1.558-4.378C17.165,0.708,16.588,0.667,16,0.667s-1.166,0.041-1.737,0.105L12.707,5.15c-0.716,0.217-1.401,0.502-2.05,0.849L6.464,4.005C5.554,4.73,4.73,5.554,4.005,6.464l1.994,4.192c-0.347,0.648-0.632,1.334-0.849,2.05l-4.378,1.557C0.708,14.834,0.667,15.412,0.667,16s0.041,1.165,0.105,1.736l4.378,1.558c0.217,0.715,0.502,1.401,0.849,2.049l-1.994,4.193c0.725,0.909,1.549,1.733,2.459,2.458l4.192-1.993c0.648,0.347,1.334,0.633,2.05,0.851l1.557,4.377c0.571,0.064,1.148,0.104,1.737,0.104c0.588,0,1.165-0.04,1.736-0.104l1.558-4.377c0.715-0.218,1.399-0.504,2.049-0.851l4.193,1.993c0.909-0.725,1.733-1.549,2.458-2.458l-1.993-4.193c0.347-0.647,0.633-1.334,0.851-2.049L31.229,17.736zM16,20.871c-2.69,0-4.872-2.182-4.872-4.871c0-2.69,2.182-4.872,4.872-4.872c2.689,0,4.871,2.182,4.871,4.872C20.871,18.689,18.689,20.871,16,20.871z"></path><title>Link options.</title></g></g></g></g><!--z-index:39--><g   id="j_19" ><path  stroke="#707070" d="M 1951 570 L 1883 779 C 1881 785.6666666666666 1881 792 1883 798 L 2001 1120" id="v-275" stroke-width="2" stroke-dasharray="30 30" fill="none" style="opacity: 1;"></path><path  fill="black" stroke="black" d="M 0 0 0 0" transform="matrix(-0.30872671919279565,0.9511507834494238,-0.9511507834494238,-0.30872671919279565,1951.08349609375,570)"></path><path  fill="#707070" stroke="#707070" d="M 20 0 L 0 10 L 20 20 z" id="v-277" transform="matrix(-0.34362353045973293,-0.9391074854958771,0.9391074854958771,-0.34362353045973293,1991.7232610355761,1123.4361968783062)" style="opacity: 1;"></path><path  d="M 1951 570 L 1883 779 C 1881 785.6666666666666 1881 792 1883 798 L 2001 1120" id="v-276" fill="none" style="cursor: auto; pointer-events: visiblepainted;"></path><g ><g id="v-269"  label-idx="0" cursor="move" transform="matrix(1,0,0,1,1900.866455078125,846.7540893554688)" style="cursor: default; opacity: 1;"><rect joint-selector="rect" id="v-272" fill="#ffffff" rx="3" ry="3" pointer-events="none" width="189.17315673828125" height="118.72865676879883" transform="matrix(1,0,0,1,-94.6,-59.4)"></rect><text joint-selector="text" id="v-271" font-size="24px" xml:space="preserve" y="0.8em" fill="#707070" text-anchor="middle" pointer-events="none" font-family="Open Sans" font-weight="normal" transform="matrix(1,0,0,1,0,-52.7)"><tspan dy="0" >Monitors access</tspan><tspan dy="1.2em" x="0" >logs and ensures</tspan><tspan dy="1.2em" x="0" >HIPAA</tspan><tspan dy="1.2em" x="0" >compliance</tspan></text></g><g id="v-270"  label-idx="1" cursor="move" transform="matrix(1,0,0,1,1890.866455078125,916.3540649414062)" style="cursor: default; opacity: 1;"><rect joint-selector="rect" id="v-274" fill="#ffffff" rx="3" ry="3"  width="0" height="0" transform="matrix(1,0,0,1,0,0)" display="none"></rect><text joint-selector="text" id="v-273" fill="#000000" font-size="14" text-anchor="middle" pointer-events="none"></text></g></g><g  display="none" style="display: none;"><g  transform="translate(1880, 789)" id="v-266"><circle  idx="0" r="10"></circle><path  idx="0" d="M16,5.333c-7.732,0-14,4.701-14,10.5c0,1.982,0.741,3.833,2.016,5.414L2,25.667l5.613-1.441c2.339,1.317,5.237,2.107,8.387,2.107c7.732,0,14-4.701,14-10.5C30,10.034,23.732,5.333,16,5.333z" transform="translate(5, -33)"></path><path  idx="0" transform="scale(.8) translate(9.5, -37)" d="M24.778,21.419 19.276,15.917 24.777,10.415 21.949,7.585 16.447,13.087 10.945,7.585 8.117,10.415 13.618,15.917 8.116,21.419 10.946,24.248 16.447,18.746 21.948,24.248z"><title>Remove vertex.</title></path></g></g><g  id="v-279" display="none"><g  id="v-267"><path  end="source" d="M 26 0 L 0 13 L 26 26 z"></path></g><g  id="v-268"><path  end="target" d="M 26 0 L 0 13 L 26 26 z"></path></g></g><g  id="v-278" display="none"><g  id="v-265" transform="translate(1938.624212010902, 608.0373483782571) "><g  event="remove"><circle r="11"></circle><path transform="scale(.8) translate(-16, -16)" d="M24.778,21.419 19.276,15.917 24.777,10.415 21.949,7.585 16.447,13.087 10.945,7.585 8.117,10.415 13.618,15.917 8.116,21.419 10.946,24.248 16.447,18.746 21.948,24.248z"></path><title>Remove link.</title></g><g  event="link:options"><circle r="11" transform="translate(25)"></circle><path fill="white" transform="scale(.55) translate(29, -16)" d="M31.229,17.736c0.064-0.571,0.104-1.148,0.104-1.736s-0.04-1.166-0.104-1.737l-4.377-1.557c-0.218-0.716-0.504-1.401-0.851-2.05l1.993-4.192c-0.725-0.91-1.549-1.734-2.458-2.459l-4.193,1.994c-0.647-0.347-1.334-0.632-2.049-0.849l-1.558-4.378C17.165,0.708,16.588,0.667,16,0.667s-1.166,0.041-1.737,0.105L12.707,5.15c-0.716,0.217-1.401,0.502-2.05,0.849L6.464,4.005C5.554,4.73,4.73,5.554,4.005,6.464l1.994,4.192c-0.347,0.648-0.632,1.334-0.849,2.05l-4.378,1.557C0.708,14.834,0.667,15.412,0.667,16s0.041,1.165,0.105,1.736l4.378,1.558c0.217,0.715,0.502,1.401,0.849,2.049l-1.994,4.193c0.725,0.909,1.549,1.733,2.459,2.458l4.192-1.993c0.648,0.347,1.334,0.633,2.05,0.851l1.557,4.377c0.571,0.064,1.148,0.104,1.737,0.104c0.588,0,1.165-0.04,1.736-0.104l1.558-4.377c0.715-0.218,1.399-0.504,2.049-0.851l4.193,1.993c0.909-0.725,1.733-1.549,2.458-2.458l-1.993-4.193c0.347-0.647,0.633-1.334,0.851-2.049L31.229,17.736zM16,20.871c-2.69,0-4.872-2.182-4.872-4.871c0-2.69,2.182-4.872,4.872-4.872c2.689,0,4.871,2.182,4.871,4.872C20.871,18.689,18.689,20.871,16,20.871z"></path><title>Link options.</title></g></g></g></g><!--z-index:40--><g   id="j_20" ><path  stroke="#707070" d="M 1094 580 L 1104 1160" id="v-292" stroke-width="2" stroke-dasharray="30 30" fill="none" style="opacity: 1;"></path><path  fill="black" stroke="black" d="M 0 0 0 0" transform="matrix(0.016126871812107552,0.9998699535467379,-0.9998699535467379,0.016126871812107552,1094.225830078125,580)"></path><path  fill="#707070" stroke="#707070" d="M 20 0 L 0 10 L 20 20 z" id="v-294" transform="matrix(-0.0161268718121079,-0.9998699535467379,0.9998699535467379,-0.0161268718121079,1093.5820027764037,1160.161311027026)" style="opacity: 1;"></path><path  d="M 1094 580 L 1104 1160" id="v-293" fill="none" style="cursor: auto; pointer-events: visiblepainted;"></path><g ><g id="v-286"  label-idx="0" cursor="move" transform="matrix(1,0,0,1,1099,870)" style="cursor: default; opacity: 1;"><rect joint-selector="rect" id="v-289" fill="#ffffff" rx="3" ry="3" pointer-events="none" width="156.54141235351562" height="89.92865371704102" transform="matrix(1,0,0,1,-78.3,-45)"></rect><text joint-selector="text" id="v-288" font-size="24px" xml:space="preserve" y="0.8em" fill="#707070" text-anchor="middle" pointer-events="none" font-family="Open Sans" font-weight="normal" transform="matrix(1,0,0,1,0,-38.3)"><tspan dy="0" >Manages user</tspan><tspan dy="1.2em" x="0" >roles and</tspan><tspan dy="1.2em" x="0" >permissions</tspan></text></g><g id="v-287"  label-idx="1" cursor="move" transform="matrix(1,0,0,1,1089,925.2000122070312)" style="cursor: default; opacity: 1;"><rect joint-selector="rect" id="v-291" fill="#ffffff" rx="3" ry="3"  width="0" height="0" transform="matrix(1,0,0,1,0,0)" display="none"></rect><text joint-selector="text" id="v-290" fill="#000000" font-size="14" text-anchor="middle" pointer-events="none"></text></g></g><g  display="none" style="display: none;"></g><g  id="v-296" display="none"><g  id="v-284"><path  end="source" d="M 26 0 L 0 13 L 26 26 z"></path></g><g  id="v-285"><path  end="target" d="M 26 0 L 0 13 L 26 26 z"></path></g></g><g  id="v-295" display="none"><g  id="v-283" transform="translate(1094.689552690034, 619.99405602196) "><g  event="remove"><circle r="11"></circle><path transform="scale(.8) translate(-16, -16)" d="M24.778,21.419 19.276,15.917 24.777,10.415 21.949,7.585 16.447,13.087 10.945,7.585 8.117,10.415 13.618,15.917 8.116,21.419 10.946,24.248 16.447,18.746 21.948,24.248z"></path><title>Remove link.</title></g><g  event="link:options"><circle r="11" transform="translate(25)"></circle><path fill="white" transform="scale(.55) translate(29, -16)" d="M31.229,17.736c0.064-0.571,0.104-1.148,0.104-1.736s-0.04-1.166-0.104-1.737l-4.377-1.557c-0.218-0.716-0.504-1.401-0.851-2.05l1.993-4.192c-0.725-0.91-1.549-1.734-2.458-2.459l-4.193,1.994c-0.647-0.347-1.334-0.632-2.049-0.849l-1.558-4.378C17.165,0.708,16.588,0.667,16,0.667s-1.166,0.041-1.737,0.105L12.707,5.15c-0.716,0.217-1.401,0.502-2.05,0.849L6.464,4.005C5.554,4.73,4.73,5.554,4.005,6.464l1.994,4.192c-0.347,0.648-0.632,1.334-0.849,2.05l-4.378,1.557C0.708,14.834,0.667,15.412,0.667,16s0.041,1.165,0.105,1.736l4.378,1.558c0.217,0.715,0.502,1.401,0.849,2.049l-1.994,4.193c0.725,0.909,1.549,1.733,2.459,2.458l4.192-1.993c0.648,0.347,1.334,0.633,2.05,0.851l1.557,4.377c0.571,0.064,1.148,0.104,1.737,0.104c0.588,0,1.165-0.04,1.736-0.104l1.558-4.377c0.715-0.218,1.399-0.504,2.049-0.851l4.193,1.993c0.909-0.725,1.733-1.549,2.458-2.458l-1.993-4.193c0.347-0.647,0.633-1.334,0.851-2.049L31.229,17.736zM16,20.871c-2.69,0-4.872-2.182-4.872-4.871c0-2.69,2.182-4.872,4.872-4.872c2.689,0,4.871,2.182,4.871,4.872C20.871,18.689,18.689,20.871,16,20.871z"></path><title>Link options.</title></g></g></g></g><!--z-index:41--><g   id="j_21" ><path  stroke="#707070" d="M 2883 1110 L 2878 580" id="v-309" stroke-width="2" stroke-dasharray="30 30" fill="none" style="opacity: 1;"></path><path  fill="black" stroke="black" d="M 0 0 0 0" transform="matrix(-0.010226892939069407,-0.9999477039629686,0.9999477039629686,-0.010226892939069407,2883.4658203125,1110)"></path><path  fill="#707070" stroke="#707070" d="M 20 0 L 0 10 L 20 20 z" id="v-311" transform="matrix(0.010226759787978029,0.999947705324753,-0.999947705324753,0.010226759787978029,2888.044914533493,579.8977060324664)" style="opacity: 1;"></path><path  d="M 2883 1110 L 2878 580" id="v-310" fill="none" style="cursor: auto; pointer-events: visiblepainted;"></path><g ><g id="v-303"  label-idx="0" cursor="move" transform="matrix(1,0,0,1,2880.5,845)" style="cursor: default; opacity: 1;"><rect joint-selector="rect" id="v-306" fill="#ffffff" rx="3" ry="3" pointer-events="none" width="184.0460205078125" height="89.92865371704102" transform="matrix(1,0,0,1,-92,-45)"></rect><text joint-selector="text" id="v-305" font-size="24px" xml:space="preserve" y="0.8em" fill="#707070" text-anchor="middle" pointer-events="none" font-family="Open Sans" font-weight="normal" transform="matrix(1,0,0,1,0,-38.3)"><tspan dy="0" >Submits</tspan><tspan dy="1.2em" x="0" >compliance data</tspan><tspan dy="1.2em" x="0" >for review</tspan></text></g><g id="v-304"  label-idx="1" cursor="move" transform="matrix(1,0,0,1,2870.5,900.2000122070312)" style="cursor: default; opacity: 1;"><rect joint-selector="rect" id="v-308" fill="#ffffff" rx="3" ry="3"  width="0" height="0" transform="matrix(1,0,0,1,0,0)" display="none"></rect><text joint-selector="text" id="v-307" fill="#000000" font-size="14" text-anchor="middle" pointer-events="none"></text></g></g><g  display="none" style="display: none;"></g><g  id="v-313" display="none"><g  id="v-301"><path  end="source" d="M 26 0 L 0 13 L 26 26 z"></path></g><g  id="v-302"><path  end="target" d="M 26 0 L 0 13 L 26 26 z"></path></g></g><g  id="v-312" display="none"><g  id="v-300" transform="translate(2882.6226583006987, 1070.0017798740746) "><g  event="remove"><circle r="11"></circle><path transform="scale(.8) translate(-16, -16)" d="M24.778,21.419 19.276,15.917 24.777,10.415 21.949,7.585 16.447,13.087 10.945,7.585 8.117,10.415 13.618,15.917 8.116,21.419 10.946,24.248 16.447,18.746 21.948,24.248z"></path><title>Remove link.</title></g><g  event="link:options"><circle r="11" transform="translate(25)"></circle><path fill="white" transform="scale(.55) translate(29, -16)" d="M31.229,17.736c0.064-0.571,0.104-1.148,0.104-1.736s-0.04-1.166-0.104-1.737l-4.377-1.557c-0.218-0.716-0.504-1.401-0.851-2.05l1.993-4.192c-0.725-0.91-1.549-1.734-2.458-2.459l-4.193,1.994c-0.647-0.347-1.334-0.632-2.049-0.849l-1.558-4.378C17.165,0.708,16.588,0.667,16,0.667s-1.166,0.041-1.737,0.105L12.707,5.15c-0.716,0.217-1.401,0.502-2.05,0.849L6.464,4.005C5.554,4.73,4.73,5.554,4.005,6.464l1.994,4.192c-0.347,0.648-0.632,1.334-0.849,2.05l-4.378,1.557C0.708,14.834,0.667,15.412,0.667,16s0.041,1.165,0.105,1.736l4.378,1.558c0.217,0.715,0.502,1.401,0.849,2.049l-1.994,4.193c0.725,0.909,1.549,1.733,2.459,2.458l4.192-1.993c0.648,0.347,1.334,0.633,2.05,0.851l1.557,4.377c0.571,0.064,1.148,0.104,1.737,0.104c0.588,0,1.165-0.04,1.736-0.104l1.558-4.377c0.715-0.218,1.399-0.504,2.049-0.851l4.193,1.993c0.909-0.725,1.733-1.549,2.458-2.458l-1.993-4.193c0.347-0.647,0.633-1.334,0.851-2.049L31.229,17.736zM16,20.871c-2.69,0-4.872-2.182-4.872-4.871c0-2.69,2.182-4.872,4.872-4.872c2.689,0,4.871,2.182,4.871,4.872C20.871,18.689,18.689,20.871,16,20.871z"></path><title>Link options.</title></g></g></g></g><!--z-index:42--></g><g ></g><g ></g><g ></g></g></svg>