<svg xmlns="http://www.w3.org/2000/svg" xmlns:xlink="http://www.w3.org/1999/xlink" version="1.1" viewBox="0 0 4459 2500" style="background: #ffffff"><defs><style>@import url(https://fonts.googleapis.com/css?family=Open+Sans:400,700);</style></defs><defs joint-selector="defs"></defs><g joint-selector="layers"  transform="matrix(1,0,0,1,0,0)"><g ></g><g ><!--z-index:1--><!--z-index:2--><!--z-index:3--><!--z-index:4--><!--z-index:5--><!--z-index:6--><!--z-index:7--><!--z-index:8--><!--z-index:9--><!--z-index:10--><!--z-index:11--><!--z-index:12--><!--z-index:13--><!--z-index:14--><!--z-index:15--><!--z-index:16--><!--z-index:17--><!--z-index:18--><!--z-index:19--><!--z-index:20--><!--z-index:21--><!--z-index:22--><!--z-index:23--><!--z-index:24--><!--z-index:25--><!--z-index:26--><!--z-index:27--><!--z-index:28--><!--z-index:29--><!--z-index:30--><!--z-index:31--><g   id="j_2"  transform="translate(20,2463.6)"><g id="v-5"><text  id="v-6" font-size="22px" xml:space="preserve" y="0.8em" font-weight="normal" text-anchor="start" fill="#aaaaaa" pointer-events="none" display="block" font-family="Open Sans"><tspan dy="0"  display="none">Monday, August 19, 2024 at 10:24 PM Eastern Daylight Time</tspan></text></g></g><!--z-index:32--><g   id="j_1"  transform="translate(20,2420.4)"><g id="v-3"><text  id="v-4" font-size="36px" xml:space="preserve" y="0.8em" font-weight="normal" text-anchor="start" fill="#000000" pointer-events="none" display="block" font-family="Open Sans"><tspan dy="0"  display="none">[System Context] Compliance Monitoring System</tspan></text></g></g><!--z-index:33--><g   id="j_3"  transform="translate(550,115)" style=""><g  id="v-13" style="opacity: 1;"><rect  x="0" y="160" width="400" height="240" rx="70" id="v-15" stroke="#073b6f" stroke-width="2" pointer-events="visiblePainted" fill="#08427b" style="fill: rgb(8, 66, 123); stroke: rgb(7, 59, 111);"></rect><circle  cx="200" cy="88.88888888888889" r="88.88888888888889" id="v-14" stroke="#073b6f" stroke-width="2" pointer-events="visiblePainted" fill="#08427b" style="fill: rgb(8, 66, 123); stroke: rgb(7, 59, 111);"></circle><line  x1="80" y1="266.6666666666667" x2="80" y2="400" id="v-21" stroke="#073b6f" stroke-width="2" style="stroke: rgb(7, 59, 111);"></line><line  x1="320" y1="266.6666666666667" x2="320" y2="400" id="v-22" stroke="#073b6f" stroke-width="2" style="stroke: rgb(7, 59, 111);"></line><text  id="v-16" font-size="34" xml:space="preserve" y="0.8em" font-weight="bold" text-anchor="middle" pointer-events="visible" font-family="Open Sans" fill="#ffffff" transform="matrix(1,0,0,1,200,174.9)" style="fill: rgb(255, 255, 255);"><tspan dy="0" >Compliance Officer</tspan></text><text  id="v-17" font-size="17" xml:space="preserve" y="0.8em" text-anchor="middle" font-family="Open Sans" fill="#ffffff" transform="matrix(1,0,0,1,200,215.7)" style="fill: rgb(255, 255, 255);"><tspan dy="0" >[Person]</tspan></text><text  id="v-18" font-size="24" xml:space="preserve" y="0.8em" text-anchor="middle" font-family="Open Sans" fill="#ffffff" transform="matrix(1,0,0,1,200,246.1)" style="fill: rgb(255, 255, 255);"><tspan dy="0" >Responsible for ensuring that</tspan><tspan dy="1.2em" x="0" >financial transactions and</tspan><tspan dy="1.2em" x="0" >account activities comply with</tspan><tspan dy="1.2em" x="0" >regulations such as SOX and</tspan><tspan dy="1.2em" x="0" >AML.</tspan></text><g  id="v-19" font-weight="normal" text-anchor="middle" color="#ffffff" transform="matrix(1,0,0,1,197.5,368)" display="none" style="fill: rgb(255, 255, 255);"><g ></g><g ></g><g ></g><g ></g></g><image  id="v-20"></image></g></g><!--z-index:34--><g   id="j_4"  transform="translate(175,600)" style=""><g  id="v-26" style="opacity: 1;"><rect  x="0" y="160" width="400" height="240" rx="70" id="v-28" stroke="#073b6f" stroke-width="2" pointer-events="visiblePainted" fill="#08427b" style="fill: rgb(8, 66, 123); stroke: rgb(7, 59, 111);"></rect><circle  cx="200" cy="88.88888888888889" r="88.88888888888889" id="v-27" stroke="#073b6f" stroke-width="2" pointer-events="visiblePainted" fill="#08427b" style="fill: rgb(8, 66, 123); stroke: rgb(7, 59, 111);"></circle><line  x1="80" y1="266.6666666666667" x2="80" y2="400" id="v-34" stroke="#073b6f" stroke-width="2" style="stroke: rgb(7, 59, 111);"></line><line  x1="320" y1="266.6666666666667" x2="320" y2="400" id="v-35" stroke="#073b6f" stroke-width="2" style="stroke: rgb(7, 59, 111);"></line><text  id="v-29" font-size="34" xml:space="preserve" y="0.8em" font-weight="bold" text-anchor="middle" pointer-events="visible" font-family="Open Sans" fill="#ffffff" transform="matrix(1,0,0,1,200,189.3)" style="fill: rgb(255, 255, 255);"><tspan dy="0" >Risk Manager</tspan></text><text  id="v-30" font-size="17" xml:space="preserve" y="0.8em" text-anchor="middle" font-family="Open Sans" fill="#ffffff" transform="matrix(1,0,0,1,200,230.1)" style="fill: rgb(255, 255, 255);"><tspan dy="0" >[Person]</tspan></text><text  id="v-31" font-size="24" xml:space="preserve" y="0.8em" text-anchor="middle" font-family="Open Sans" fill="#ffffff" transform="matrix(1,0,0,1,200,260.5)" style="fill: rgb(255, 255, 255);"><tspan dy="0" >Monitors and manages risks</tspan><tspan dy="1.2em" x="0" >related to financial transactions</tspan><tspan dy="1.2em" x="0" >and ensures appropriate</tspan><tspan dy="1.2em" x="0" >mitigation strategies.</tspan></text><g  id="v-32" font-weight="normal" text-anchor="middle" color="#ffffff" transform="matrix(1,0,0,1,197.5,368)" display="none" style="fill: rgb(255, 255, 255);"><g ></g><g ></g><g ></g><g ></g></g><image  id="v-33"></image></g></g><!--z-index:35--><g   id="j_5"  transform="translate(1710,1615)" style=""><g  id="v-42" style="opacity: 1;"><rect  x="0" y="160" width="400" height="240" rx="70" id="v-44" stroke="#073b6f" stroke-width="2" pointer-events="visiblePainted" fill="#08427b" style="fill: rgb(8, 66, 123); stroke: rgb(7, 59, 111);"></rect><circle  cx="200" cy="88.88888888888889" r="88.88888888888889" id="v-43" stroke="#073b6f" stroke-width="2" pointer-events="visiblePainted" fill="#08427b" style="fill: rgb(8, 66, 123); stroke: rgb(7, 59, 111);"></circle><line  x1="80" y1="266.6666666666667" x2="80" y2="400" id="v-50" stroke="#073b6f" stroke-width="2" style="stroke: rgb(7, 59, 111);"></line><line  x1="320" y1="266.6666666666667" x2="320" y2="400" id="v-51" stroke="#073b6f" stroke-width="2" style="stroke: rgb(7, 59, 111);"></line><text  id="v-45" font-size="34" xml:space="preserve" y="0.8em" font-weight="bold" text-anchor="middle" pointer-events="visible" font-family="Open Sans" fill="#ffffff" transform="matrix(1,0,0,1,200,203.7)" style="fill: rgb(255, 255, 255);"><tspan dy="0" >Financial Analyst</tspan></text><text  id="v-46" font-size="17" xml:space="preserve" y="0.8em" text-anchor="middle" font-family="Open Sans" fill="#ffffff" transform="matrix(1,0,0,1,200,244.5)" style="fill: rgb(255, 255, 255);"><tspan dy="0" >[Person]</tspan></text><text  id="v-47" font-size="24" xml:space="preserve" y="0.8em" text-anchor="middle" font-family="Open Sans" fill="#ffffff" transform="matrix(1,0,0,1,200,274.9)" style="fill: rgb(255, 255, 255);"><tspan dy="0" >Analyzes transaction data to</tspan><tspan dy="1.2em" x="0" >identify trends, anomalies, and</tspan><tspan dy="1.2em" x="0" >potential compliance issues.</tspan></text><g  id="v-48" font-weight="normal" text-anchor="middle" color="#ffffff" transform="matrix(1,0,0,1,197.5,368)" display="none" style="fill: rgb(255, 255, 255);"><g ></g><g ></g><g ></g><g ></g></g><image  id="v-49"></image></g></g><!--z-index:36--><g   id="j_6"  transform="translate(2975,450)" style=""><g  id="v-58" style="opacity: 1;"><rect  x="0" y="160" width="400" height="240" rx="70" id="v-60" stroke="#073b6f" stroke-width="2" pointer-events="visiblePainted" fill="#08427b" style="fill: rgb(8, 66, 123); stroke: rgb(7, 59, 111);"></rect><circle  cx="200" cy="88.88888888888889" r="88.88888888888889" id="v-59" stroke="#073b6f" stroke-width="2" pointer-events="visiblePainted" fill="#08427b" style="fill: rgb(8, 66, 123); stroke: rgb(7, 59, 111);"></circle><line  x1="80" y1="266.6666666666667" x2="80" y2="400" id="v-66" stroke="#073b6f" stroke-width="2" style="stroke: rgb(7, 59, 111);"></line><line  x1="320" y1="266.6666666666667" x2="320" y2="400" id="v-67" stroke="#073b6f" stroke-width="2" style="stroke: rgb(7, 59, 111);"></line><text  id="v-61" font-size="34" xml:space="preserve" y="0.8em" font-weight="bold" text-anchor="middle" pointer-events="visible" font-family="Open Sans" fill="#ffffff" transform="matrix(1,0,0,1,200,189.3)" style="fill: rgb(255, 255, 255);"><tspan dy="0" >IT Administrator</tspan></text><text  id="v-62" font-size="17" xml:space="preserve" y="0.8em" text-anchor="middle" font-family="Open Sans" fill="#ffffff" transform="matrix(1,0,0,1,200,230.1)" style="fill: rgb(255, 255, 255);"><tspan dy="0" >[Person]</tspan></text><text  id="v-63" font-size="24" xml:space="preserve" y="0.8em" text-anchor="middle" font-family="Open Sans" fill="#ffffff" transform="matrix(1,0,0,1,200,260.5)" style="fill: rgb(255, 255, 255);"><tspan dy="0" >Manages IT infrastructure,</tspan><tspan dy="1.2em" x="0" >including security</tspan><tspan dy="1.2em" x="0" >configurations, access controls,</tspan><tspan dy="1.2em" x="0" >and system maintenance.</tspan></text><g  id="v-64" font-weight="normal" text-anchor="middle" color="#ffffff" transform="matrix(1,0,0,1,197.5,368)" display="none" style="fill: rgb(255, 255, 255);"><g ></g><g ></g><g ></g><g ></g></g><image  id="v-65"></image></g></g><!--z-index:37--><g   id="j_7"  transform="translate(205,1215)" style=""><g  id="v-71" style="opacity: 1;"><rect  x="0" y="160" width="400" height="240" rx="70" id="v-73" stroke="#073b6f" stroke-width="2" pointer-events="visiblePainted" fill="#08427b" style="fill: rgb(8, 66, 123); stroke: rgb(7, 59, 111);"></rect><circle  cx="200" cy="88.88888888888889" r="88.88888888888889" id="v-72" stroke="#073b6f" stroke-width="2" pointer-events="visiblePainted" fill="#08427b" style="fill: rgb(8, 66, 123); stroke: rgb(7, 59, 111);"></circle><line  x1="80" y1="266.6666666666667" x2="80" y2="400" id="v-79" stroke="#073b6f" stroke-width="2" style="stroke: rgb(7, 59, 111);"></line><line  x1="320" y1="266.6666666666667" x2="320" y2="400" id="v-80" stroke="#073b6f" stroke-width="2" style="stroke: rgb(7, 59, 111);"></line><text  id="v-74" font-size="34" xml:space="preserve" y="0.8em" font-weight="bold" text-anchor="middle" pointer-events="visible" font-family="Open Sans" fill="#ffffff" transform="matrix(1,0,0,1,200,189.3)" style="fill: rgb(255, 255, 255);"><tspan dy="0" >Auditor</tspan></text><text  id="v-75" font-size="17" xml:space="preserve" y="0.8em" text-anchor="middle" font-family="Open Sans" fill="#ffffff" transform="matrix(1,0,0,1,200,230.1)" style="fill: rgb(255, 255, 255);"><tspan dy="0" >[Person]</tspan></text><text  id="v-76" font-size="24" xml:space="preserve" y="0.8em" text-anchor="middle" font-family="Open Sans" fill="#ffffff" transform="matrix(1,0,0,1,200,260.5)" style="fill: rgb(255, 255, 255);"><tspan dy="0" >Conducts independent audits of</tspan><tspan dy="1.2em" x="0" >financial transactions and</tspan><tspan dy="1.2em" x="0" >compliance with regulations like</tspan><tspan dy="1.2em" x="0" >SOX and AML.</tspan></text><g  id="v-77" font-weight="normal" text-anchor="middle" color="#ffffff" transform="matrix(1,0,0,1,197.5,368)" display="none" style="fill: rgb(255, 255, 255);"><g ></g><g ></g><g ></g><g ></g></g><image  id="v-78"></image></g></g><!--z-index:38--><g   id="j_8"  transform="translate(2610,1645)" style=""><g  id="v-87" style="opacity: 1;"><rect  id="v-88" rx="20" ry="20" stroke="#0f5eaa" stroke-width="2" pointer-events="visiblePainted" fill="#1168bd" width="450" height="300" style="fill: rgb(17, 104, 189); stroke: rgb(15, 94, 170);"></rect><text  id="v-89" font-size="34" xml:space="preserve" y="0.8em" font-weight="bold" text-anchor="middle" pointer-events="visible" font-family="Open Sans" fill="#ffffff" transform="matrix(1,0,0,1,225,67.7)" style="fill: rgb(255, 255, 255);"><tspan dy="0" >Transaction Processing</tspan><tspan dy="1.2em" x="0" >System</tspan></text><text  id="v-90" font-size="17" xml:space="preserve" y="0.8em" text-anchor="middle" font-family="Open Sans" fill="#ffffff" transform="matrix(1,0,0,1,225,149.3)" style="fill: rgb(255, 255, 255);"><tspan dy="0" >[Software System]</tspan></text><text  id="v-91" font-size="24" xml:space="preserve" y="0.8em" text-anchor="middle" font-family="Open Sans" fill="#ffffff" transform="matrix(1,0,0,1,225,179.7)" style="fill: rgb(255, 255, 255);"><tspan dy="0" >System where financial transactions</tspan><tspan dy="1.2em" x="0" >are recorded and processed.</tspan></text><g  id="v-92" color="#ffffff" transform="matrix(1,0,0,1,222.5,268)" display="none" style="fill: rgb(255, 255, 255);"><g ></g><g ></g><g ></g><g ></g></g><image  id="v-93"></image></g></g><!--z-index:39--><g   id="j_9"  transform="translate(1621,800)" style=""><g  id="v-100" style="opacity: 1;"><rect  id="v-101" rx="20" ry="20" stroke="#0f5eaa" stroke-width="2" pointer-events="visiblePainted" fill="#1168bd" width="450" height="300" style="fill: rgb(17, 104, 189); stroke: rgb(15, 94, 170);"></rect><text  id="v-102" font-size="34" xml:space="preserve" y="0.8em" font-weight="bold" text-anchor="middle" pointer-events="visible" font-family="Open Sans" fill="#ffffff" transform="matrix(1,0,0,1,225,10.1)" style="fill: rgb(255, 255, 255);"><tspan dy="0" >Compliance Monitoring</tspan><tspan dy="1.2em" x="0" >System</tspan></text><text  id="v-103" font-size="17" xml:space="preserve" y="0.8em" text-anchor="middle" font-family="Open Sans" fill="#ffffff" transform="matrix(1,0,0,1,225,91.7)" style="fill: rgb(255, 255, 255);"><tspan dy="0" >[Software System]</tspan></text><text  id="v-104" font-size="24" xml:space="preserve" y="0.8em" text-anchor="middle" font-family="Open Sans" fill="#ffffff" transform="matrix(1,0,0,1,225,122.1)" style="fill: rgb(255, 255, 255);"><tspan dy="0" >Monitors financial transactions and</tspan><tspan dy="1.2em" x="0" >account activities to ensure</tspan><tspan dy="1.2em" x="0" >compliance with regulations such as</tspan><tspan dy="1.2em" x="0" >SOX and AML. Includes transaction</tspan><tspan dy="1.2em" x="0" >logging, real-time alerts, and</tspan><tspan dy="1.2em" x="0" >compliance reporting features.</tspan></text><g  id="v-105" color="#ffffff" transform="matrix(1,0,0,1,222.5,268)" display="none" style="fill: rgb(255, 255, 255);"><g ></g><g ></g><g ></g><g ></g></g><image  id="v-106"></image></g></g><!--z-index:40--><g   id="j_10"  transform="translate(2925,1155)" style=""><g  id="v-113" style="opacity: 1;"><rect  id="v-114" rx="20" ry="20" stroke="#0f5eaa" stroke-width="2" pointer-events="visiblePainted" fill="#1168bd" width="450" height="300" style="fill: rgb(17, 104, 189); stroke: rgb(15, 94, 170);"></rect><text  id="v-115" font-size="34" xml:space="preserve" y="0.8em" font-weight="bold" text-anchor="middle" pointer-events="visible" font-family="Open Sans" fill="#ffffff" transform="matrix(1,0,0,1,225,18.5)" style="fill: rgb(255, 255, 255);"><tspan dy="0" >Security Information and</tspan><tspan dy="1.2em" x="0" >Event Management</tspan><tspan dy="1.2em" x="0" >(SIEM) System</tspan></text><text  id="v-116" font-size="17" xml:space="preserve" y="0.8em" text-anchor="middle" font-family="Open Sans" fill="#ffffff" transform="matrix(1,0,0,1,225,140.9)" style="fill: rgb(255, 255, 255);"><tspan dy="0" >[Software System]</tspan></text><text  id="v-117" font-size="24" xml:space="preserve" y="0.8em" text-anchor="middle" font-family="Open Sans" fill="#ffffff" transform="matrix(1,0,0,1,225,171.3)" style="fill: rgb(255, 255, 255);"><tspan dy="0" >Aggregates and analyzes</tspan><tspan dy="1.2em" x="0" >security-related data from across</tspan><tspan dy="1.2em" x="0" >the organization for real-time alerts</tspan><tspan dy="1.2em" x="0" >and reporting.</tspan></text><g  id="v-118" color="#ffffff" transform="matrix(1,0,0,1,222.5,268)" display="none" style="fill: rgb(255, 255, 255);"><g ></g><g ></g><g ></g><g ></g></g><image  id="v-119"></image></g></g><!--z-index:41--><g   id="j_11"  transform="translate(2235,125)" style=""><g  id="v-126" style="opacity: 1;"><rect  id="v-127" rx="20" ry="20" stroke="#0f5eaa" stroke-width="2" pointer-events="visiblePainted" fill="#1168bd" width="450" height="300" style="fill: rgb(17, 104, 189); stroke: rgb(15, 94, 170);"></rect><text  id="v-128" font-size="34" xml:space="preserve" y="0.8em" font-weight="bold" text-anchor="middle" pointer-events="visible" font-family="Open Sans" fill="#ffffff" transform="matrix(1,0,0,1,225,32.9)" style="fill: rgb(255, 255, 255);"><tspan dy="0" >Identity and Access</tspan><tspan dy="1.2em" x="0" >Management (IAM)</tspan><tspan dy="1.2em" x="0" >System</tspan></text><text  id="v-129" font-size="17" xml:space="preserve" y="0.8em" text-anchor="middle" font-family="Open Sans" fill="#ffffff" transform="matrix(1,0,0,1,225,155.3)" style="fill: rgb(255, 255, 255);"><tspan dy="0" >[Software System]</tspan></text><text  id="v-130" font-size="24" xml:space="preserve" y="0.8em" text-anchor="middle" font-family="Open Sans" fill="#ffffff" transform="matrix(1,0,0,1,225,185.7)" style="fill: rgb(255, 255, 255);"><tspan dy="0" >Manages user identities and access</tspan><tspan dy="1.2em" x="0" >controls across the financial</tspan><tspan dy="1.2em" x="0" >organization.</tspan></text><g  id="v-131" color="#ffffff" transform="matrix(1,0,0,1,222.5,268)" display="none" style="fill: rgb(255, 255, 255);"><g ></g><g ></g><g ></g><g ></g></g><image  id="v-132"></image></g></g><!--z-index:42--><g   id="j_12"  transform="translate(1025,1695)" style=""><g  id="v-139" style="opacity: 1;"><rect  id="v-140" rx="20" ry="20" stroke="#0f5eaa" stroke-width="2" pointer-events="visiblePainted" fill="#1168bd" width="450" height="300" style="fill: rgb(17, 104, 189); stroke: rgb(15, 94, 170);"></rect><text  id="v-141" font-size="34" xml:space="preserve" y="0.8em" font-weight="bold" text-anchor="middle" pointer-events="visible" font-family="Open Sans" fill="#ffffff" transform="matrix(1,0,0,1,225,53.3)" style="fill: rgb(255, 255, 255);"><tspan dy="0" >Regulatory Reporting</tspan><tspan dy="1.2em" x="0" >System</tspan></text><text  id="v-142" font-size="17" xml:space="preserve" y="0.8em" text-anchor="middle" font-family="Open Sans" fill="#ffffff" transform="matrix(1,0,0,1,225,134.9)" style="fill: rgb(255, 255, 255);"><tspan dy="0" >[Software System]</tspan></text><text  id="v-143" font-size="24" xml:space="preserve" y="0.8em" text-anchor="middle" font-family="Open Sans" fill="#ffffff" transform="matrix(1,0,0,1,225,165.3)" style="fill: rgb(255, 255, 255);"><tspan dy="0" >Generates and submits regulatory</tspan><tspan dy="1.2em" x="0" >compliance reports to external</tspan><tspan dy="1.2em" x="0" >regulatory bodies.</tspan></text><g  id="v-144" color="#ffffff" transform="matrix(1,0,0,1,222.5,268)" display="none" style="fill: rgb(255, 255, 255);"><g ></g><g ></g><g ></g><g ></g></g><image  id="v-145"></image></g></g><!--z-index:43--><g   id="j_13"  transform="translate(1585,120)" style=""><g  id="v-152" style="opacity: 1;"><rect  id="v-153" rx="20" ry="20" stroke="#0f5eaa" stroke-width="2" pointer-events="visiblePainted" fill="#1168bd" width="450" height="300" style="fill: rgb(17, 104, 189); stroke: rgb(15, 94, 170);"></rect><text  id="v-154" font-size="34" xml:space="preserve" y="0.8em" font-weight="bold" text-anchor="middle" pointer-events="visible" font-family="Open Sans" fill="#ffffff" transform="matrix(1,0,0,1,225,59.3)" style="fill: rgb(255, 255, 255);"><tspan dy="0" >Fraud Detection System</tspan></text><text  id="v-155" font-size="17" xml:space="preserve" y="0.8em" text-anchor="middle" font-family="Open Sans" fill="#ffffff" transform="matrix(1,0,0,1,225,100.1)" style="fill: rgb(255, 255, 255);"><tspan dy="0" >[Software System]</tspan></text><text  id="v-156" font-size="24" xml:space="preserve" y="0.8em" text-anchor="middle" font-family="Open Sans" fill="#ffffff" transform="matrix(1,0,0,1,225,130.5)" style="fill: rgb(255, 255, 255);"><tspan dy="0" >Monitors transaction patterns for</tspan><tspan dy="1.2em" x="0" >signs of fraudulent activity and</tspan><tspan dy="1.2em" x="0" >generates alerts for suspicious</tspan><tspan dy="1.2em" x="0" >transactions.</tspan></text><g  id="v-157" color="#ffffff" transform="matrix(1,0,0,1,222.5,268)" display="none" style="fill: rgb(255, 255, 255);"><g ></g><g ></g><g ></g><g ></g></g><image  id="v-158"></image></g></g><!--z-index:44--><g   id="j_14" ><path  stroke="#707070" d="M 2110 1811 L 2610 1800" id="v-171" stroke-width="2" stroke-dasharray="30 30" fill="none" style="opacity: 1;"></path><path  fill="black" stroke="black" d="M 0 0 0 0" transform="matrix(0.9997663298385276,-0.02161679257429893,0.02161679257429893,0.9997663298385276,2110,1810.6756591796875)"></path><path  fill="#707070" stroke="#707070" d="M 20 0 L 0 10 L 20 20 z" id="v-173" transform="matrix(-0.9997663355953923,0.02161652632041945,-0.02161652632041945,-0.9997663355953923,2610.216270025408,1809.8625527802496)" style="opacity: 1;"></path><path  d="M 2110 1811 L 2610 1800" id="v-172" fill="none" style="cursor: auto; pointer-events: visiblepainted;"></path><g ><g id="v-165"  label-idx="0" cursor="move" transform="matrix(1,0,0,1,2360,1805.5)" style="cursor: default; opacity: 1;"><rect joint-selector="rect" id="v-168" fill="#ffffff" rx="3" ry="3" pointer-events="none" width="182.48724365234375" height="89.76913833618164" transform="matrix(1,0,0,1,-91.2,-44.9)"></rect><text joint-selector="text" id="v-167" font-size="24px" xml:space="preserve" y="0.8em" fill="#707070" text-anchor="middle" pointer-events="none" font-family="Open Sans" font-weight="normal" transform="matrix(1,0,0,1,0,-39.1)"><tspan dy="0" >Accesses</tspan><tspan dy="1.2em" x="0" >transaction data</tspan><tspan dy="1.2em" x="0" >for analysis</tspan></text></g><g id="v-166"  label-idx="1" cursor="move" transform="matrix(1,0,0,1,2350,1860.699951171875)" style="cursor: default; opacity: 1;"><rect joint-selector="rect" id="v-170" fill="#ffffff" rx="3" ry="3"  width="0" height="0" transform="matrix(1,0,0,1,0,0)" display="none"></rect><text joint-selector="text" id="v-169" fill="#000000" font-size="14" text-anchor="middle" pointer-events="none"></text></g></g><g  display="none" style="display: none;"></g><g  id="v-175" display="none"><g  id="v-163"><path  end="source" d="M 26 0 L 0 13 L 26 26 z"></path></g><g  id="v-164"><path  end="target" d="M 26 0 L 0 13 L 26 26 z"></path></g></g><g  id="v-174" display="none"><g  id="v-162" transform="translate(2149.9903235124234, 1810.1202128827267) "><g  event="remove"><circle r="11"></circle><path transform="scale(.8) translate(-16, -16)" d="M24.778,21.419 19.276,15.917 24.777,10.415 21.949,7.585 16.447,13.087 10.945,7.585 8.117,10.415 13.618,15.917 8.116,21.419 10.946,24.248 16.447,18.746 21.948,24.248z"></path><title>Remove link.</title></g><g  event="link:options"><circle r="11" transform="translate(25)"></circle><path fill="white" transform="scale(.55) translate(29, -16)" d="M31.229,17.736c0.064-0.571,0.104-1.148,0.104-1.736s-0.04-1.166-0.104-1.737l-4.377-1.557c-0.218-0.716-0.504-1.401-0.851-2.05l1.993-4.192c-0.725-0.91-1.549-1.734-2.458-2.459l-4.193,1.994c-0.647-0.347-1.334-0.632-2.049-0.849l-1.558-4.378C17.165,0.708,16.588,0.667,16,0.667s-1.166,0.041-1.737,0.105L12.707,5.15c-0.716,0.217-1.401,0.502-2.05,0.849L6.464,4.005C5.554,4.73,4.73,5.554,4.005,6.464l1.994,4.192c-0.347,0.648-0.632,1.334-0.849,2.05l-4.378,1.557C0.708,14.834,0.667,15.412,0.667,16s0.041,1.165,0.105,1.736l4.378,1.558c0.217,0.715,0.502,1.401,0.849,2.049l-1.994,4.193c0.725,0.909,1.549,1.733,2.459,2.458l4.192-1.993c0.648,0.347,1.334,0.633,2.05,0.851l1.557,4.377c0.571,0.064,1.148,0.104,1.737,0.104c0.588,0,1.165-0.04,1.736-0.104l1.558-4.377c0.715-0.218,1.399-0.504,2.049-0.851l4.193,1.993c0.909-0.725,1.733-1.549,2.458-2.458l-1.993-4.193c0.347-0.647,0.633-1.334,0.851-2.049L31.229,17.736zM16,20.871c-2.69,0-4.872-2.182-4.872-4.871c0-2.69,2.182-4.872,4.872-4.872c2.689,0,4.871,2.182,4.871,4.872C20.871,18.689,18.689,20.871,16,20.871z"></path><title>Link options.</title></g></g></g></g><!--z-index:45--><g   id="j_15" ><path  stroke="#707070" d="M 2670 1645 L 2297 1307 C 2292.333333333333 1302.3333333333333 2287.333333333333 1298 2282 1294 L 2036 1100" id="v-189" stroke-width="2" stroke-dasharray="30 30" fill="none" style="opacity: 1;"></path><path  fill="black" stroke="black" d="M 0 0 0 0" transform="matrix(-0.7402473139136474,-0.6723346742832991,0.6723346742832991,-0.7402473139136474,2669.848388671875,1645)"></path><path  fill="#707070" stroke="#707070" d="M 20 0 L 0 10 L 20 20 z" id="v-191" transform="matrix(0.7853353140626398,0.6190706296426401,-0.6190706296426401,0.7853353140626398,2042.4763912417375,1092.1466143910723)" style="opacity: 1;"></path><path  d="M 2670 1645 L 2297 1307 C 2292.333333333333 1302.3333333333333 2287.333333333333 1298 2282 1294 L 2036 1100" id="v-190" fill="none" style="cursor: auto; pointer-events: visiblepainted;"></path><g ><g id="v-183"  label-idx="0" cursor="move" transform="matrix(1,0,0,1,2360.062255859375,1364.1448974609375)" style="cursor: default; opacity: 1;"><rect joint-selector="rect" id="v-186" fill="#ffffff" rx="3" ry="3" pointer-events="none" width="177.54458618164062" height="118.56913375854492" transform="matrix(1,0,0,1,-88.8,-59.3)"></rect><text joint-selector="text" id="v-185" font-size="24px" xml:space="preserve" y="0.8em" fill="#707070" text-anchor="middle" pointer-events="none" font-family="Open Sans" font-weight="normal" transform="matrix(1,0,0,1,0,-53.5)"><tspan dy="0" >Sends</tspan><tspan dy="1.2em" x="0" >transaction logs</tspan><tspan dy="1.2em" x="0" >for compliance</tspan><tspan dy="1.2em" x="0" >checking</tspan></text></g><g id="v-184"  label-idx="1" cursor="move" transform="matrix(1,0,0,1,2350.062255859375,1433.744873046875)" style="cursor: default; opacity: 1;"><rect joint-selector="rect" id="v-188" fill="#ffffff" rx="3" ry="3"  width="0" height="0" transform="matrix(1,0,0,1,0,0)" display="none"></rect><text joint-selector="text" id="v-187" fill="#000000" font-size="14" text-anchor="middle" pointer-events="none"></text></g></g><g  display="none" style="display: none;"><g  transform="translate(2290, 1300)" id="v-180"><circle  idx="0" r="10"></circle><path  idx="0" d="M16,5.333c-7.732,0-14,4.701-14,10.5c0,1.982,0.741,3.833,2.016,5.414L2,25.667l5.613-1.441c2.339,1.317,5.237,2.107,8.387,2.107c7.732,0,14-4.701,14-10.5C30,10.034,23.732,5.333,16,5.333z" transform="translate(5, -33)"></path><path  idx="0" transform="scale(.8) translate(9.5, -37)" d="M24.778,21.419 19.276,15.917 24.777,10.415 21.949,7.585 16.447,13.087 10.945,7.585 8.117,10.415 13.618,15.917 8.116,21.419 10.946,24.248 16.447,18.746 21.948,24.248z"><title>Remove vertex.</title></path></g></g><g  id="v-193" display="none"><g  id="v-181"><path  end="source" d="M 26 0 L 0 13 L 26 26 z"></path></g><g  id="v-182"><path  end="target" d="M 26 0 L 0 13 L 26 26 z"></path></g></g><g  id="v-192" display="none"><g  id="v-179" transform="translate(2640.359286313928, 1618.1405865257577) "><g  event="remove"><circle r="11"></circle><path transform="scale(.8) translate(-16, -16)" d="M24.778,21.419 19.276,15.917 24.777,10.415 21.949,7.585 16.447,13.087 10.945,7.585 8.117,10.415 13.618,15.917 8.116,21.419 10.946,24.248 16.447,18.746 21.948,24.248z"></path><title>Remove link.</title></g><g  event="link:options"><circle r="11" transform="translate(25)"></circle><path fill="white" transform="scale(.55) translate(29, -16)" d="M31.229,17.736c0.064-0.571,0.104-1.148,0.104-1.736s-0.04-1.166-0.104-1.737l-4.377-1.557c-0.218-0.716-0.504-1.401-0.851-2.05l1.993-4.192c-0.725-0.91-1.549-1.734-2.458-2.459l-4.193,1.994c-0.647-0.347-1.334-0.632-2.049-0.849l-1.558-4.378C17.165,0.708,16.588,0.667,16,0.667s-1.166,0.041-1.737,0.105L12.707,5.15c-0.716,0.217-1.401,0.502-2.05,0.849L6.464,4.005C5.554,4.73,4.73,5.554,4.005,6.464l1.994,4.192c-0.347,0.648-0.632,1.334-0.849,2.05l-4.378,1.557C0.708,14.834,0.667,15.412,0.667,16s0.041,1.165,0.105,1.736l4.378,1.558c0.217,0.715,0.502,1.401,0.849,2.049l-1.994,4.193c0.725,0.909,1.549,1.733,2.459,2.458l4.192-1.993c0.648,0.347,1.334,0.633,2.05,0.851l1.557,4.377c0.571,0.064,1.148,0.104,1.737,0.104c0.588,0,1.165-0.04,1.736-0.104l1.558-4.377c0.715-0.218,1.399-0.504,2.049-0.851l4.193,1.993c0.909-0.725,1.733-1.549,2.458-2.458l-1.993-4.193c0.347-0.647,0.633-1.334,0.851-2.049L31.229,17.736zM16,20.871c-2.69,0-4.872-2.182-4.872-4.871c0-2.69,2.182-4.872,4.872-4.872c2.689,0,4.871,2.182,4.871,4.872C20.871,18.689,18.689,20.871,16,20.871z"></path><title>Link options.</title></g></g></g></g><!--z-index:46--><g   id="j_16" ><path  stroke="#707070" d="M 1936 1100 L 2245 1611 C 2248.333333333333 1617 2253.333333333333 1621 2260 1623 L 2610 1728" id="v-207" stroke-width="2" stroke-dasharray="30 30" fill="none" style="opacity: 1;"></path><path  fill="black" stroke="black" d="M 0 0 0 0" transform="matrix(0.5163741838254196,0.8563630668581124,-0.8563630668581124,0.5163741838254196,1936.44775390625,1100)"></path><path  fill="#707070" stroke="#707070" d="M 20 0 L 0 10 L 20 20 z" id="v-209" transform="matrix(-0.958051332643982,-0.2865966573759891,0.2865966573759891,-0.958051332643982,2607.13398034643,1737.2727738455121)" style="opacity: 1;"></path><path  d="M 1936 1100 L 2245 1611 C 2248.333333333333 1617 2253.333333333333 1621 2260 1623 L 2610 1728" id="v-208" fill="none" style="cursor: auto; pointer-events: visiblepainted;"></path><g ><g id="v-201"  label-idx="0" cursor="move" transform="matrix(1,0,0,1,2190.1435546875,1520.2828369140625)" style="cursor: default; opacity: 1;"><rect joint-selector="rect" id="v-204" fill="#ffffff" rx="3" ry="3" pointer-events="none" width="184.60951232910156" height="118.56913375854492" transform="matrix(1,0,0,1,-92.3,-59.3)"></rect><text joint-selector="text" id="v-203" font-size="24px" xml:space="preserve" y="0.8em" fill="#707070" text-anchor="middle" pointer-events="none" font-family="Open Sans" font-weight="normal" transform="matrix(1,0,0,1,0,-53.5)"><tspan dy="0" >Requests</tspan><tspan dy="1.2em" x="0" >additional</tspan><tspan dy="1.2em" x="0" >transaction</tspan><tspan dy="1.2em" x="0" >details if needed</tspan></text></g><g id="v-202"  label-idx="1" cursor="move" transform="matrix(1,0,0,1,2180.1435546875,1589.8828125)" style="cursor: default; opacity: 1;"><rect joint-selector="rect" id="v-206" fill="#ffffff" rx="3" ry="3"  width="0" height="0" transform="matrix(1,0,0,1,0,0)" display="none"></rect><text joint-selector="text" id="v-205" fill="#000000" font-size="14" text-anchor="middle" pointer-events="none"></text></g></g><g  display="none" style="display: none;"><g  transform="translate(2250, 1620)" id="v-198"><circle  idx="0" r="10"></circle><path  idx="0" d="M16,5.333c-7.732,0-14,4.701-14,10.5c0,1.982,0.741,3.833,2.016,5.414L2,25.667l5.613-1.441c2.339,1.317,5.237,2.107,8.387,2.107c7.732,0,14-4.701,14-10.5C30,10.034,23.732,5.333,16,5.333z" transform="translate(5, -33)"></path><path  idx="0" transform="scale(.8) translate(9.5, -37)" d="M24.778,21.419 19.276,15.917 24.777,10.415 21.949,7.585 16.447,13.087 10.945,7.585 8.117,10.415 13.618,15.917 8.116,21.419 10.946,24.248 16.447,18.746 21.948,24.248z"><title>Remove vertex.</title></path></g></g><g  id="v-211" display="none"><g  id="v-199"><path  end="source" d="M 26 0 L 0 13 L 26 26 z"></path></g><g  id="v-200"><path  end="target" d="M 26 0 L 0 13 L 26 26 z"></path></g></g><g  id="v-210" display="none"><g  id="v-197" transform="translate(1956.6979142546868, 1134.228589592702) "><g  event="remove"><circle r="11"></circle><path transform="scale(.8) translate(-16, -16)" d="M24.778,21.419 19.276,15.917 24.777,10.415 21.949,7.585 16.447,13.087 10.945,7.585 8.117,10.415 13.618,15.917 8.116,21.419 10.946,24.248 16.447,18.746 21.948,24.248z"></path><title>Remove link.</title></g><g  event="link:options"><circle r="11" transform="translate(25)"></circle><path fill="white" transform="scale(.55) translate(29, -16)" d="M31.229,17.736c0.064-0.571,0.104-1.148,0.104-1.736s-0.04-1.166-0.104-1.737l-4.377-1.557c-0.218-0.716-0.504-1.401-0.851-2.05l1.993-4.192c-0.725-0.91-1.549-1.734-2.458-2.459l-4.193,1.994c-0.647-0.347-1.334-0.632-2.049-0.849l-1.558-4.378C17.165,0.708,16.588,0.667,16,0.667s-1.166,0.041-1.737,0.105L12.707,5.15c-0.716,0.217-1.401,0.502-2.05,0.849L6.464,4.005C5.554,4.73,4.73,5.554,4.005,6.464l1.994,4.192c-0.347,0.648-0.632,1.334-0.849,2.05l-4.378,1.557C0.708,14.834,0.667,15.412,0.667,16s0.041,1.165,0.105,1.736l4.378,1.558c0.217,0.715,0.502,1.401,0.849,2.049l-1.994,4.193c0.725,0.909,1.549,1.733,2.459,2.458l4.192-1.993c0.648,0.347,1.334,0.633,2.05,0.851l1.557,4.377c0.571,0.064,1.148,0.104,1.737,0.104c0.588,0,1.165-0.04,1.736-0.104l1.558-4.377c0.715-0.218,1.399-0.504,2.049-0.851l4.193,1.993c0.909-0.725,1.733-1.549,2.458-2.458l-1.993-4.193c0.347-0.647,0.633-1.334,0.851-2.049L31.229,17.736zM16,20.871c-2.69,0-4.872-2.182-4.872-4.871c0-2.69,2.182-4.872,4.872-4.872c2.689,0,4.871,2.182,4.871,4.872C20.871,18.689,18.689,20.871,16,20.871z"></path><title>Link options.</title></g></g></g></g><!--z-index:47--><g   id="j_17" ><path  stroke="#707070" d="M 1732 800 L 1496 488 C 1492 482.66666666666663 1486.6666666666665 479.3333333333333 1480 478 L 950 360" id="v-225" stroke-width="2" stroke-dasharray="30 30" fill="none" style="opacity: 1;"></path><path  fill="black" stroke="black" d="M 0 0 0 0" transform="matrix(-0.6037924614068265,-0.7971415580361407,0.7971415580361407,-0.6037924614068265,1732.3829345703125,800)"></path><path  fill="#707070" stroke="#707070" d="M 20 0 L 0 10 L 20 20 z" id="v-227" transform="matrix(0.976031638534728,0.21762867591200868,-0.21762867591200868,0.976031638534728,952.176285315179,349.83427087897013)" style="opacity: 1;"></path><path  d="M 1732 800 L 1496 488 C 1492 482.66666666666663 1486.6666666666665 479.3333333333333 1480 478 L 950 360" id="v-226" fill="none" style="cursor: auto; pointer-events: visiblepainted;"></path><g ><g id="v-219"  label-idx="0" cursor="move" transform="matrix(1,0,0,1,1415.3538818359375,463.6070861816406)" style="cursor: default; opacity: 1;"><rect joint-selector="rect" id="v-222" fill="#ffffff" rx="3" ry="3" pointer-events="none" width="131.10598754882812" height="118.56913375854492" transform="matrix(1,0,0,1,-65.6,-59.3)"></rect><text joint-selector="text" id="v-221" font-size="24px" xml:space="preserve" y="0.8em" fill="#707070" text-anchor="middle" pointer-events="none" font-family="Open Sans" font-weight="normal" transform="matrix(1,0,0,1,0,-53.5)"><tspan dy="0" >Provides</tspan><tspan dy="1.2em" x="0" >compliance</tspan><tspan dy="1.2em" x="0" >reports and</tspan><tspan dy="1.2em" x="0" >alerts</tspan></text></g><g id="v-220"  label-idx="1" cursor="move" transform="matrix(1,0,0,1,1405.3538818359375,533.2070922851562)" style="cursor: default; opacity: 1;"><rect joint-selector="rect" id="v-224" fill="#ffffff" rx="3" ry="3"  width="0" height="0" transform="matrix(1,0,0,1,0,0)" display="none"></rect><text joint-selector="text" id="v-223" fill="#000000" font-size="14" text-anchor="middle" pointer-events="none"></text></g></g><g  display="none" style="display: none;"><g  transform="translate(1490, 480)" id="v-216"><circle  idx="0" r="10"></circle><path  idx="0" d="M16,5.333c-7.732,0-14,4.701-14,10.5c0,1.982,0.741,3.833,2.016,5.414L2,25.667l5.613-1.441c2.339,1.317,5.237,2.107,8.387,2.107c7.732,0,14-4.701,14-10.5C30,10.034,23.732,5.333,16,5.333z" transform="translate(5, -33)"></path><path  idx="0" transform="scale(.8) translate(9.5, -37)" d="M24.778,21.419 19.276,15.917 24.777,10.415 21.949,7.585 16.447,13.087 10.945,7.585 8.117,10.415 13.618,15.917 8.116,21.419 10.946,24.248 16.447,18.746 21.948,24.248z"><title>Remove vertex.</title></path></g></g><g  id="v-229" display="none"><g  id="v-217"><path  end="source" d="M 26 0 L 0 13 L 26 26 z"></path></g><g  id="v-218"><path  end="target" d="M 26 0 L 0 13 L 26 26 z"></path></g></g><g  id="v-228" display="none"><g  id="v-215" transform="translate(1707.869322481728, 768.0984263317757) "><g  event="remove"><circle r="11"></circle><path transform="scale(.8) translate(-16, -16)" d="M24.778,21.419 19.276,15.917 24.777,10.415 21.949,7.585 16.447,13.087 10.945,7.585 8.117,10.415 13.618,15.917 8.116,21.419 10.946,24.248 16.447,18.746 21.948,24.248z"></path><title>Remove link.</title></g><g  event="link:options"><circle r="11" transform="translate(25)"></circle><path fill="white" transform="scale(.55) translate(29, -16)" d="M31.229,17.736c0.064-0.571,0.104-1.148,0.104-1.736s-0.04-1.166-0.104-1.737l-4.377-1.557c-0.218-0.716-0.504-1.401-0.851-2.05l1.993-4.192c-0.725-0.91-1.549-1.734-2.458-2.459l-4.193,1.994c-0.647-0.347-1.334-0.632-2.049-0.849l-1.558-4.378C17.165,0.708,16.588,0.667,16,0.667s-1.166,0.041-1.737,0.105L12.707,5.15c-0.716,0.217-1.401,0.502-2.05,0.849L6.464,4.005C5.554,4.73,4.73,5.554,4.005,6.464l1.994,4.192c-0.347,0.648-0.632,1.334-0.849,2.05l-4.378,1.557C0.708,14.834,0.667,15.412,0.667,16s0.041,1.165,0.105,1.736l4.378,1.558c0.217,0.715,0.502,1.401,0.849,2.049l-1.994,4.193c0.725,0.909,1.549,1.733,2.459,2.458l4.192-1.993c0.648,0.347,1.334,0.633,2.05,0.851l1.557,4.377c0.571,0.064,1.148,0.104,1.737,0.104c0.588,0,1.165-0.04,1.736-0.104l1.558-4.377c0.715-0.218,1.399-0.504,2.049-0.851l4.193,1.993c0.909-0.725,1.733-1.549,2.458-2.458l-1.993-4.193c0.347-0.647,0.633-1.334,0.851-2.049L31.229,17.736zM16,20.871c-2.69,0-4.872-2.182-4.872-4.871c0-2.69,2.182-4.872,4.872-4.872c2.689,0,4.871,2.182,4.871,4.872C20.871,18.689,18.689,20.871,16,20.871z"></path><title>Link options.</title></g></g></g></g><!--z-index:48--><g   id="j_18" ><path  stroke="#707070" d="M 1621 912 L 960 802 C 953.3333333333333 800.6666666666665 946.6666666666665 799.9999999999999 940 800 L 575 800" id="v-243" stroke-width="2" stroke-dasharray="30 30" fill="none" style="opacity: 1;"></path><path  fill="black" stroke="black" d="M 0 0 0 0" transform="matrix(-0.986274654614493,-0.16511300876994067,0.16511300876994067,-0.986274654614493,1621,912.3325805664062)"></path><path  fill="#707070" stroke="#707070" d="M 20 0 L 0 10 L 20 20 z" id="v-245" transform="matrix(1,0,0,1,575,790)" style="opacity: 1;"></path><path  d="M 1621 912 L 960 802 C 953.3333333333333 800.6666666666665 946.6666666666665 799.9999999999999 940 800 L 575 800" id="v-244" fill="none" style="cursor: auto; pointer-events: visiblepainted;"></path><g ><g id="v-237"  label-idx="0" cursor="move" transform="matrix(1,0,0,1,1100.5469970703125,825.3890991210938)" style="cursor: default; opacity: 1;"><rect joint-selector="rect" id="v-240" fill="#ffffff" rx="3" ry="3" pointer-events="none" width="134.9037322998047" height="118.56913375854492" transform="matrix(1,0,0,1,-67.5,-59.3)"></rect><text joint-selector="text" id="v-239" font-size="24px" xml:space="preserve" y="0.8em" fill="#707070" text-anchor="middle" pointer-events="none" font-family="Open Sans" font-weight="normal" transform="matrix(1,0,0,1,0,-53.5)"><tspan dy="0" >Provides</tspan><tspan dy="1.2em" x="0" >risk-related</tspan><tspan dy="1.2em" x="0" >insights and</tspan><tspan dy="1.2em" x="0" >alerts</tspan></text></g><g id="v-238"  label-idx="1" cursor="move" transform="matrix(1,0,0,1,1090.5469970703125,894.9890747070312)" style="cursor: default; opacity: 1;"><rect joint-selector="rect" id="v-242" fill="#ffffff" rx="3" ry="3"  width="0" height="0" transform="matrix(1,0,0,1,0,0)" display="none"></rect><text joint-selector="text" id="v-241" fill="#000000" font-size="14" text-anchor="middle" pointer-events="none"></text></g></g><g  display="none" style="display: none;"><g  transform="translate(950, 800)" id="v-234"><circle  idx="0" r="10"></circle><path  idx="0" d="M16,5.333c-7.732,0-14,4.701-14,10.5c0,1.982,0.741,3.833,2.016,5.414L2,25.667l5.613-1.441c2.339,1.317,5.237,2.107,8.387,2.107c7.732,0,14-4.701,14-10.5C30,10.034,23.732,5.333,16,5.333z" transform="translate(5, -33)"></path><path  idx="0" transform="scale(.8) translate(9.5, -37)" d="M24.778,21.419 19.276,15.917 24.777,10.415 21.949,7.585 16.447,13.087 10.945,7.585 8.117,10.415 13.618,15.917 8.116,21.419 10.946,24.248 16.447,18.746 21.948,24.248z"><title>Remove vertex.</title></path></g></g><g  id="v-247" display="none"><g  id="v-235"><path  end="source" d="M 26 0 L 0 13 L 26 26 z"></path></g><g  id="v-236"><path  end="target" d="M 26 0 L 0 13 L 26 26 z"></path></g></g><g  id="v-246" display="none"><g  id="v-233" transform="translate(1581.5426308977237, 905.4337207242809) "><g  event="remove"><circle r="11"></circle><path transform="scale(.8) translate(-16, -16)" d="M24.778,21.419 19.276,15.917 24.777,10.415 21.949,7.585 16.447,13.087 10.945,7.585 8.117,10.415 13.618,15.917 8.116,21.419 10.946,24.248 16.447,18.746 21.948,24.248z"></path><title>Remove link.</title></g><g  event="link:options"><circle r="11" transform="translate(25)"></circle><path fill="white" transform="scale(.55) translate(29, -16)" d="M31.229,17.736c0.064-0.571,0.104-1.148,0.104-1.736s-0.04-1.166-0.104-1.737l-4.377-1.557c-0.218-0.716-0.504-1.401-0.851-2.05l1.993-4.192c-0.725-0.91-1.549-1.734-2.458-2.459l-4.193,1.994c-0.647-0.347-1.334-0.632-2.049-0.849l-1.558-4.378C17.165,0.708,16.588,0.667,16,0.667s-1.166,0.041-1.737,0.105L12.707,5.15c-0.716,0.217-1.401,0.502-2.05,0.849L6.464,4.005C5.554,4.73,4.73,5.554,4.005,6.464l1.994,4.192c-0.347,0.648-0.632,1.334-0.849,2.05l-4.378,1.557C0.708,14.834,0.667,15.412,0.667,16s0.041,1.165,0.105,1.736l4.378,1.558c0.217,0.715,0.502,1.401,0.849,2.049l-1.994,4.193c0.725,0.909,1.549,1.733,2.459,2.458l4.192-1.993c0.648,0.347,1.334,0.633,2.05,0.851l1.557,4.377c0.571,0.064,1.148,0.104,1.737,0.104c0.588,0,1.165-0.04,1.736-0.104l1.558-4.377c0.715-0.218,1.399-0.504,2.049-0.851l4.193,1.993c0.909-0.725,1.733-1.549,2.458-2.458l-1.993-4.193c0.347-0.647,0.633-1.334,0.851-2.049L31.229,17.736zM16,20.871c-2.69,0-4.872-2.182-4.872-4.871c0-2.69,2.182-4.872,4.872-4.872c2.689,0,4.871,2.182,4.871,4.872C20.871,18.689,18.689,20.871,16,20.871z"></path><title>Link options.</title></g></g></g></g><!--z-index:49--><g   id="j_19" ><path  stroke="#707070" d="M 1621 1057 L 1404 1161 C 1398 1163.6666666666665 1391.6666666666665 1165.6666666666665 1385 1167 L 605 1364" id="v-261" stroke-width="2" stroke-dasharray="30 30" fill="none" style="opacity: 1;"></path><path  fill="black" stroke="black" d="M 0 0 0 0" transform="matrix(-0.9026754956803111,0.4303219138021031,-0.4303219138021031,-0.9026754956803111,1621,1057.2615966796875)"></path><path  fill="#707070" stroke="#707070" d="M 20 0 L 0 10 L 20 20 z" id="v-263" transform="matrix(0.9695636919664113,-0.244839227291016,0.244839227291016,0.9695636919664113,602.551588483207,1354.7992641423086)" style="opacity: 1;"></path><path  d="M 1621 1057 L 1404 1161 C 1398 1163.6666666666665 1391.6666666666665 1165.6666666666665 1385 1167 L 605 1364" id="v-262" fill="none" style="cursor: auto; pointer-events: visiblepainted;"></path><g ><g id="v-255"  label-idx="0" cursor="move" transform="matrix(1,0,0,1,1121.331787109375,1233.5931396484375)" style="cursor: default; opacity: 1;"><rect joint-selector="rect" id="v-258" fill="#ffffff" rx="3" ry="3" pointer-events="none" width="192.76348876953125" height="118.56913375854492" transform="matrix(1,0,0,1,-96.4,-59.3)"></rect><text joint-selector="text" id="v-257" font-size="24px" xml:space="preserve" y="0.8em" fill="#707070" text-anchor="middle" pointer-events="none" font-family="Open Sans" font-weight="normal" transform="matrix(1,0,0,1,0,-53.5)"><tspan dy="0" >Provides detailed</tspan><tspan dy="1.2em" x="0" >transaction logs</tspan><tspan dy="1.2em" x="0" >and compliance</tspan><tspan dy="1.2em" x="0" >reports</tspan></text></g><g id="v-256"  label-idx="1" cursor="move" transform="matrix(1,0,0,1,1111.331787109375,1303.193115234375)" style="cursor: default; opacity: 1;"><rect joint-selector="rect" id="v-260" fill="#ffffff" rx="3" ry="3"  width="0" height="0" transform="matrix(1,0,0,1,0,0)" display="none"></rect><text joint-selector="text" id="v-259" fill="#000000" font-size="14" text-anchor="middle" pointer-events="none"></text></g></g><g  display="none" style="display: none;"><g  transform="translate(1395, 1165)" id="v-252"><circle  idx="0" r="10"></circle><path  idx="0" d="M16,5.333c-7.732,0-14,4.701-14,10.5c0,1.982,0.741,3.833,2.016,5.414L2,25.667l5.613-1.441c2.339,1.317,5.237,2.107,8.387,2.107c7.732,0,14-4.701,14-10.5C30,10.034,23.732,5.333,16,5.333z" transform="translate(5, -33)"></path><path  idx="0" transform="scale(.8) translate(9.5, -37)" d="M24.778,21.419 19.276,15.917 24.777,10.415 21.949,7.585 16.447,13.087 10.945,7.585 8.117,10.415 13.618,15.917 8.116,21.419 10.946,24.248 16.447,18.746 21.948,24.248z"><title>Remove vertex.</title></path></g></g><g  id="v-265" display="none"><g  id="v-253"><path  end="source" d="M 26 0 L 0 13 L 26 26 z"></path></g><g  id="v-254"><path  end="target" d="M 26 0 L 0 13 L 26 26 z"></path></g></g><g  id="v-264" display="none"><g  id="v-251" transform="translate(1584.9287084930645, 1074.287623579361) "><g  event="remove"><circle r="11"></circle><path transform="scale(.8) translate(-16, -16)" d="M24.778,21.419 19.276,15.917 24.777,10.415 21.949,7.585 16.447,13.087 10.945,7.585 8.117,10.415 13.618,15.917 8.116,21.419 10.946,24.248 16.447,18.746 21.948,24.248z"></path><title>Remove link.</title></g><g  event="link:options"><circle r="11" transform="translate(25)"></circle><path fill="white" transform="scale(.55) translate(29, -16)" d="M31.229,17.736c0.064-0.571,0.104-1.148,0.104-1.736s-0.04-1.166-0.104-1.737l-4.377-1.557c-0.218-0.716-0.504-1.401-0.851-2.05l1.993-4.192c-0.725-0.91-1.549-1.734-2.458-2.459l-4.193,1.994c-0.647-0.347-1.334-0.632-2.049-0.849l-1.558-4.378C17.165,0.708,16.588,0.667,16,0.667s-1.166,0.041-1.737,0.105L12.707,5.15c-0.716,0.217-1.401,0.502-2.05,0.849L6.464,4.005C5.554,4.73,4.73,5.554,4.005,6.464l1.994,4.192c-0.347,0.648-0.632,1.334-0.849,2.05l-4.378,1.557C0.708,14.834,0.667,15.412,0.667,16s0.041,1.165,0.105,1.736l4.378,1.558c0.217,0.715,0.502,1.401,0.849,2.049l-1.994,4.193c0.725,0.909,1.549,1.733,2.459,2.458l4.192-1.993c0.648,0.347,1.334,0.633,2.05,0.851l1.557,4.377c0.571,0.064,1.148,0.104,1.737,0.104c0.588,0,1.165-0.04,1.736-0.104l1.558-4.377c0.715-0.218,1.399-0.504,2.049-0.851l4.193,1.993c0.909-0.725,1.733-1.549,2.458-2.458l-1.993-4.193c0.347-0.647,0.633-1.334,0.851-2.049L31.229,17.736zM16,20.871c-2.69,0-4.872-2.182-4.872-4.871c0-2.69,2.182-4.872,4.872-4.872c2.689,0,4.871,2.182,4.871,4.872C20.871,18.689,18.689,20.871,16,20.871z"></path><title>Link options.</title></g></g></g></g><!--z-index:50--><g   id="j_20" ><path  stroke="#707070" d="M 2071 1008 L 2595 1143 C 2601.6666666666665 1144.3333333333333 2608.333333333333 1146 2615 1148 L 2734 1182 C 2740.6666666666665 1184 2747.333333333333 1186 2754 1188 L 2925 1238" id="v-280" stroke-width="2" stroke-dasharray="30 30" fill="none" style="opacity: 1;"></path><path  fill="black" stroke="black" d="M 0 0 0 0" transform="matrix(0.9685456738158522,0.24883584495123834,-0.24883584495123834,0.9685456738158522,2071,1007.8063354492188)"></path><path  fill="#707070" stroke="#707070" d="M 20 0 L 0 10 L 20 20 z" id="v-282" transform="matrix(-0.9589885401461591,-0.2834448444906674,0.2834448444906674,-0.9589885401461591,2922.165593206555,1248.0874197838682)" style="opacity: 1;"></path><path  d="M 2071 1008 L 2595 1143 C 2601.6666666666665 1144.3333333333333 2608.333333333333 1146 2615 1148 L 2734 1182 C 2740.6666666666665 1184 2747.333333333333 1186 2754 1188 L 2925 1238" id="v-281" fill="none" style="cursor: auto; pointer-events: visiblepainted;"></path><g ><g id="v-274"  label-idx="0" cursor="move" transform="matrix(1,0,0,1,2499.28271484375,1118.3399658203125)" style="cursor: default; opacity: 1;"><rect joint-selector="rect" id="v-277" fill="#ffffff" rx="3" ry="3" pointer-events="none" width="174.58457946777344" height="89.76913833618164" transform="matrix(1,0,0,1,-87.3,-44.9)"></rect><text joint-selector="text" id="v-276" font-size="24px" xml:space="preserve" y="0.8em" fill="#707070" text-anchor="middle" pointer-events="none" font-family="Open Sans" font-weight="normal" transform="matrix(1,0,0,1,0,-39.1)"><tspan dy="0" >Sends</tspan><tspan dy="1.2em" x="0" >security-related</tspan><tspan dy="1.2em" x="0" >audit logs</tspan></text></g><g id="v-275"  label-idx="1" cursor="move" transform="matrix(1,0,0,1,2489.28271484375,1173.5400390625)" style="cursor: default; opacity: 1;"><rect joint-selector="rect" id="v-279" fill="#ffffff" rx="3" ry="3"  width="0" height="0" transform="matrix(1,0,0,1,0,0)" display="none"></rect><text joint-selector="text" id="v-278" fill="#000000" font-size="14" text-anchor="middle" pointer-events="none"></text></g></g><g  display="none" style="display: none;"><g  transform="translate(2605, 1145)" id="v-270"><circle  idx="0" r="10"></circle><path  idx="0" d="M16,5.333c-7.732,0-14,4.701-14,10.5c0,1.982,0.741,3.833,2.016,5.414L2,25.667l5.613-1.441c2.339,1.317,5.237,2.107,8.387,2.107c7.732,0,14-4.701,14-10.5C30,10.034,23.732,5.333,16,5.333z" transform="translate(5, -33)"></path><path  idx="0" transform="scale(.8) translate(9.5, -37)" d="M24.778,21.419 19.276,15.917 24.777,10.415 21.949,7.585 16.447,13.087 10.945,7.585 8.117,10.415 13.618,15.917 8.116,21.419 10.946,24.248 16.447,18.746 21.948,24.248z"><title>Remove vertex.</title></path></g><g  transform="translate(2744, 1185)" id="v-271"><circle  idx="1" r="10"></circle><path  idx="1" d="M16,5.333c-7.732,0-14,4.701-14,10.5c0,1.982,0.741,3.833,2.016,5.414L2,25.667l5.613-1.441c2.339,1.317,5.237,2.107,8.387,2.107c7.732,0,14-4.701,14-10.5C30,10.034,23.732,5.333,16,5.333z" transform="translate(5, -33)"></path><path  idx="1" transform="scale(.8) translate(9.5, -37)" d="M24.778,21.419 19.276,15.917 24.777,10.415 21.949,7.585 16.447,13.087 10.945,7.585 8.117,10.415 13.618,15.917 8.116,21.419 10.946,24.248 16.447,18.746 21.948,24.248z"><title>Remove vertex.</title></path></g></g><g  id="v-284" display="none"><g  id="v-272"><path  end="source" d="M 26 0 L 0 13 L 26 26 z"></path></g><g  id="v-273"><path  end="target" d="M 26 0 L 0 13 L 26 26 z"></path></g></g><g  id="v-283" display="none"><g  id="v-269" transform="translate(2109.735128452023, 1017.9794701164564) "><g  event="remove"><circle r="11"></circle><path transform="scale(.8) translate(-16, -16)" d="M24.778,21.419 19.276,15.917 24.777,10.415 21.949,7.585 16.447,13.087 10.945,7.585 8.117,10.415 13.618,15.917 8.116,21.419 10.946,24.248 16.447,18.746 21.948,24.248z"></path><title>Remove link.</title></g><g  event="link:options"><circle r="11" transform="translate(25)"></circle><path fill="white" transform="scale(.55) translate(29, -16)" d="M31.229,17.736c0.064-0.571,0.104-1.148,0.104-1.736s-0.04-1.166-0.104-1.737l-4.377-1.557c-0.218-0.716-0.504-1.401-0.851-2.05l1.993-4.192c-0.725-0.91-1.549-1.734-2.458-2.459l-4.193,1.994c-0.647-0.347-1.334-0.632-2.049-0.849l-1.558-4.378C17.165,0.708,16.588,0.667,16,0.667s-1.166,0.041-1.737,0.105L12.707,5.15c-0.716,0.217-1.401,0.502-2.05,0.849L6.464,4.005C5.554,4.73,4.73,5.554,4.005,6.464l1.994,4.192c-0.347,0.648-0.632,1.334-0.849,2.05l-4.378,1.557C0.708,14.834,0.667,15.412,0.667,16s0.041,1.165,0.105,1.736l4.378,1.558c0.217,0.715,0.502,1.401,0.849,2.049l-1.994,4.193c0.725,0.909,1.549,1.733,2.459,2.458l4.192-1.993c0.648,0.347,1.334,0.633,2.05,0.851l1.557,4.377c0.571,0.064,1.148,0.104,1.737,0.104c0.588,0,1.165-0.04,1.736-0.104l1.558-4.377c0.715-0.218,1.399-0.504,2.049-0.851l4.193,1.993c0.909-0.725,1.733-1.549,2.458-2.458l-1.993-4.193c0.347-0.647,0.633-1.334,0.851-2.049L31.229,17.736zM16,20.871c-2.69,0-4.872-2.182-4.872-4.871c0-2.69,2.182-4.872,4.872-4.872c2.689,0,4.871,2.182,4.871,4.872C20.871,18.689,18.689,20.871,16,20.871z"></path><title>Link options.</title></g></g></g></g><!--z-index:51--><g   id="j_21" ><path  stroke="#707070" d="M 1989 800 L 2163 617 C 2167.6666666666665 612.3333333333333 2172.333333333333 607.3333333333333 2177 602 L 2330 425" id="v-298" stroke-width="2" stroke-dasharray="30 30" fill="none" style="opacity: 1;"></path><path  fill="black" stroke="black" d="M 0 0 0 0" transform="matrix(0.6898679821974563,-0.7239351953999821,0.7239351953999821,0.6898679821974563,1988.941162109375,800)"></path><path  fill="#707070" stroke="#707070" d="M 20 0 L 0 10 L 20 20 z" id="v-300" transform="matrix(-0.6545007554122789,0.7560613474875939,-0.7560613474875939,-0.6545007554122789,2337.709869075874,431.5450019894031)" style="opacity: 1;"></path><path  d="M 1989 800 L 2163 617 C 2167.6666666666665 612.3333333333333 2172.333333333333 607.3333333333333 2177 602 L 2330 425" id="v-299" fill="none" style="cursor: auto; pointer-events: visiblepainted;"></path><g ><g id="v-292"  label-idx="0" cursor="move" transform="matrix(1,0,0,1,2163.68359375,616.3140258789062)" style="cursor: default; opacity: 1;"><rect joint-selector="rect" id="v-295" fill="#ffffff" rx="3" ry="3" pointer-events="none" width="192.84727478027344" height="147.369140625" transform="matrix(1,0,0,1,-96.4,-73.7)"></rect><text joint-selector="text" id="v-294" font-size="24px" xml:space="preserve" y="0.8em" fill="#707070" text-anchor="middle" pointer-events="none" font-family="Open Sans" font-weight="normal" transform="matrix(1,0,0,1,0,-67.9)"><tspan dy="0" >Requests identity</tspan><tspan dy="1.2em" x="0" >and access</tspan><tspan dy="1.2em" x="0" >information for</tspan><tspan dy="1.2em" x="0" >compliance</tspan><tspan dy="1.2em" x="0" >checks</tspan></text></g><g id="v-293"  label-idx="1" cursor="move" transform="matrix(1,0,0,1,2153.68359375,700.3140258789062)" style="cursor: default; opacity: 1;"><rect joint-selector="rect" id="v-297" fill="#ffffff" rx="3" ry="3"  width="0" height="0" transform="matrix(1,0,0,1,0,0)" display="none"></rect><text joint-selector="text" id="v-296" fill="#000000" font-size="14" text-anchor="middle" pointer-events="none"></text></g></g><g  display="none" style="display: none;"><g  transform="translate(2170, 610)" id="v-289"><circle  idx="0" r="10"></circle><path  idx="0" d="M16,5.333c-7.732,0-14,4.701-14,10.5c0,1.982,0.741,3.833,2.016,5.414L2,25.667l5.613-1.441c2.339,1.317,5.237,2.107,8.387,2.107c7.732,0,14-4.701,14-10.5C30,10.034,23.732,5.333,16,5.333z" transform="translate(5, -33)"></path><path  idx="0" transform="scale(.8) translate(9.5, -37)" d="M24.778,21.419 19.276,15.917 24.777,10.415 21.949,7.585 16.447,13.087 10.945,7.585 8.117,10.415 13.618,15.917 8.116,21.419 10.946,24.248 16.447,18.746 21.948,24.248z"><title>Remove vertex.</title></path></g></g><g  id="v-302" display="none"><g  id="v-290"><path  end="source" d="M 26 0 L 0 13 L 26 26 z"></path></g><g  id="v-291"><path  end="target" d="M 26 0 L 0 13 L 26 26 z"></path></g></g><g  id="v-301" display="none"><g  id="v-288" transform="translate(2016.5624651442338, 771.0118901069267) "><g  event="remove"><circle r="11"></circle><path transform="scale(.8) translate(-16, -16)" d="M24.778,21.419 19.276,15.917 24.777,10.415 21.949,7.585 16.447,13.087 10.945,7.585 8.117,10.415 13.618,15.917 8.116,21.419 10.946,24.248 16.447,18.746 21.948,24.248z"></path><title>Remove link.</title></g><g  event="link:options"><circle r="11" transform="translate(25)"></circle><path fill="white" transform="scale(.55) translate(29, -16)" d="M31.229,17.736c0.064-0.571,0.104-1.148,0.104-1.736s-0.04-1.166-0.104-1.737l-4.377-1.557c-0.218-0.716-0.504-1.401-0.851-2.05l1.993-4.192c-0.725-0.91-1.549-1.734-2.458-2.459l-4.193,1.994c-0.647-0.347-1.334-0.632-2.049-0.849l-1.558-4.378C17.165,0.708,16.588,0.667,16,0.667s-1.166,0.041-1.737,0.105L12.707,5.15c-0.716,0.217-1.401,0.502-2.05,0.849L6.464,4.005C5.554,4.73,4.73,5.554,4.005,6.464l1.994,4.192c-0.347,0.648-0.632,1.334-0.849,2.05l-4.378,1.557C0.708,14.834,0.667,15.412,0.667,16s0.041,1.165,0.105,1.736l4.378,1.558c0.217,0.715,0.502,1.401,0.849,2.049l-1.994,4.193c0.725,0.909,1.549,1.733,2.459,2.458l4.192-1.993c0.648,0.347,1.334,0.633,2.05,0.851l1.557,4.377c0.571,0.064,1.148,0.104,1.737,0.104c0.588,0,1.165-0.04,1.736-0.104l1.558-4.377c0.715-0.218,1.399-0.504,2.049-0.851l4.193,1.993c0.909-0.725,1.733-1.549,2.458-2.458l-1.993-4.193c0.347-0.647,0.633-1.334,0.851-2.049L31.229,17.736zM16,20.871c-2.69,0-4.872-2.182-4.872-4.871c0-2.69,2.182-4.872,4.872-4.872c2.689,0,4.871,2.182,4.871,4.872C20.871,18.689,18.689,20.871,16,20.871z"></path><title>Link options.</title></g></g></g></g><!--z-index:52--><g   id="j_22" ><path  stroke="#707070" d="M 1746 1100 L 1350 1695" id="v-315" stroke-width="2" stroke-dasharray="30 30" fill="none" style="opacity: 1;"></path><path  fill="black" stroke="black" d="M 0 0 0 0" transform="matrix(-0.5542708468891409,0.8323363672751507,-0.8323363672751507,-0.5542708468891409,1746.1116943359375,1100)"></path><path  fill="#707070" stroke="#707070" d="M 20 0 L 0 10 L 20 20 z" id="v-317" transform="matrix(0.554271068553704,-0.8323362196638658,0.8323362196638658,0.554271068553704,1341.5649573912617,1689.4572872532892)" style="opacity: 1;"></path><path  d="M 1746 1100 L 1350 1695" id="v-316" fill="none" style="cursor: auto; pointer-events: visiblepainted;"></path><g ><g id="v-309"  label-idx="0" cursor="move" transform="matrix(1,0,0,1,1548,1397.5)" style="cursor: default; opacity: 1;"><rect joint-selector="rect" id="v-312" fill="#ffffff" rx="3" ry="3" pointer-events="none" width="196.14236450195312" height="118.56913375854492" transform="matrix(1,0,0,1,-98.1,-59.3)"></rect><text joint-selector="text" id="v-311" font-size="24px" xml:space="preserve" y="0.8em" fill="#707070" text-anchor="middle" pointer-events="none" font-family="Open Sans" font-weight="normal" transform="matrix(1,0,0,1,0,-53.5)"><tspan dy="0" >Submits</tspan><tspan dy="1.2em" x="0" >compliance</tspan><tspan dy="1.2em" x="0" >reports to</tspan><tspan dy="1.2em" x="0" >regulatory bodies</tspan></text></g><g id="v-310"  label-idx="1" cursor="move" transform="matrix(1,0,0,1,1538,1467.0999755859375)" style="cursor: default; opacity: 1;"><rect joint-selector="rect" id="v-314" fill="#ffffff" rx="3" ry="3"  width="0" height="0" transform="matrix(1,0,0,1,0,0)" display="none"></rect><text joint-selector="text" id="v-313" fill="#000000" font-size="14" text-anchor="middle" pointer-events="none"></text></g></g><g  display="none" style="display: none;"></g><g  id="v-319" display="none"><g  id="v-307"><path  end="source" d="M 26 0 L 0 13 L 26 26 z"></path></g><g  id="v-308"><path  end="target" d="M 26 0 L 0 13 L 26 26 z"></path></g></g><g  id="v-318" display="none"><g  id="v-306" transform="translate(1723.8378288694705, 1133.2992217744068) "><g  event="remove"><circle r="11"></circle><path transform="scale(.8) translate(-16, -16)" d="M24.778,21.419 19.276,15.917 24.777,10.415 21.949,7.585 16.447,13.087 10.945,7.585 8.117,10.415 13.618,15.917 8.116,21.419 10.946,24.248 16.447,18.746 21.948,24.248z"></path><title>Remove link.</title></g><g  event="link:options"><circle r="11" transform="translate(25)"></circle><path fill="white" transform="scale(.55) translate(29, -16)" d="M31.229,17.736c0.064-0.571,0.104-1.148,0.104-1.736s-0.04-1.166-0.104-1.737l-4.377-1.557c-0.218-0.716-0.504-1.401-0.851-2.05l1.993-4.192c-0.725-0.91-1.549-1.734-2.458-2.459l-4.193,1.994c-0.647-0.347-1.334-0.632-2.049-0.849l-1.558-4.378C17.165,0.708,16.588,0.667,16,0.667s-1.166,0.041-1.737,0.105L12.707,5.15c-0.716,0.217-1.401,0.502-2.05,0.849L6.464,4.005C5.554,4.73,4.73,5.554,4.005,6.464l1.994,4.192c-0.347,0.648-0.632,1.334-0.849,2.05l-4.378,1.557C0.708,14.834,0.667,15.412,0.667,16s0.041,1.165,0.105,1.736l4.378,1.558c0.217,0.715,0.502,1.401,0.849,2.049l-1.994,4.193c0.725,0.909,1.549,1.733,2.459,2.458l4.192-1.993c0.648,0.347,1.334,0.633,2.05,0.851l1.557,4.377c0.571,0.064,1.148,0.104,1.737,0.104c0.588,0,1.165-0.04,1.736-0.104l1.558-4.377c0.715-0.218,1.399-0.504,2.049-0.851l4.193,1.993c0.909-0.725,1.733-1.549,2.458-2.458l-1.993-4.193c0.347-0.647,0.633-1.334,0.851-2.049L31.229,17.736zM16,20.871c-2.69,0-4.872-2.182-4.872-4.871c0-2.69,2.182-4.872,4.872-4.872c2.689,0,4.871,2.182,4.871,4.872C20.871,18.689,18.689,20.871,16,20.871z"></path><title>Link options.</title></g></g></g></g><!--z-index:53--><g   id="j_23" ><path  stroke="#707070" d="M 1818 420 L 1838 800" id="v-332" stroke-width="2" stroke-dasharray="30 30" fill="none" style="opacity: 1;"></path><path  fill="black" stroke="black" d="M 0 0 0 0" transform="matrix(0.05286718619889962,0.9986015524839779,-0.9986015524839779,0.05286718619889962,1817.941162109375,420)"></path><path  fill="#707070" stroke="#707070" d="M 20 0 L 0 10 L 20 20 z" id="v-334" transform="matrix(-0.05286731917073886,-0.9986015454442774,0.9986015454442774,-0.05286731917073886,1828.072809104452,800.5286656969314)" style="opacity: 1;"></path><path  d="M 1818 420 L 1838 800" id="v-333" fill="none" style="cursor: auto; pointer-events: visiblepainted;"></path><g ><g id="v-326"  label-idx="0" cursor="move" transform="matrix(1,0,0,1,1828,610)" style="cursor: default; opacity: 1;"><rect joint-selector="rect" id="v-329" fill="#ffffff" rx="3" ry="3" pointer-events="none" width="174.24948120117188" height="89.76913833618164" transform="matrix(1,0,0,1,-87.1,-44.9)"></rect><text joint-selector="text" id="v-328" font-size="24px" xml:space="preserve" y="0.8em" fill="#707070" text-anchor="middle" pointer-events="none" font-family="Open Sans" font-weight="normal" transform="matrix(1,0,0,1,0,-39.1)"><tspan dy="0" >Provides fraud</tspan><tspan dy="1.2em" x="0" >detection alerts</tspan><tspan dy="1.2em" x="0" >and data</tspan></text></g><g id="v-327"  label-idx="1" cursor="move" transform="matrix(1,0,0,1,1818,665.2000122070312)" style="cursor: default; opacity: 1;"><rect joint-selector="rect" id="v-331" fill="#ffffff" rx="3" ry="3"  width="0" height="0" transform="matrix(1,0,0,1,0,0)" display="none"></rect><text joint-selector="text" id="v-330" fill="#000000" font-size="14" text-anchor="middle" pointer-events="none"></text></g></g><g  display="none" style="display: none;"></g><g  id="v-336" display="none"><g  id="v-324"><path  end="source" d="M 26 0 L 0 13 L 26 26 z"></path></g><g  id="v-325"><path  end="target" d="M 26 0 L 0 13 L 26 26 z"></path></g></g><g  id="v-335" display="none"><g  id="v-323" transform="translate(1820.1023533249106, 459.9447131733004) "><g  event="remove"><circle r="11"></circle><path transform="scale(.8) translate(-16, -16)" d="M24.778,21.419 19.276,15.917 24.777,10.415 21.949,7.585 16.447,13.087 10.945,7.585 8.117,10.415 13.618,15.917 8.116,21.419 10.946,24.248 16.447,18.746 21.948,24.248z"></path><title>Remove link.</title></g><g  event="link:options"><circle r="11" transform="translate(25)"></circle><path fill="white" transform="scale(.55) translate(29, -16)" d="M31.229,17.736c0.064-0.571,0.104-1.148,0.104-1.736s-0.04-1.166-0.104-1.737l-4.377-1.557c-0.218-0.716-0.504-1.401-0.851-2.05l1.993-4.192c-0.725-0.91-1.549-1.734-2.458-2.459l-4.193,1.994c-0.647-0.347-1.334-0.632-2.049-0.849l-1.558-4.378C17.165,0.708,16.588,0.667,16,0.667s-1.166,0.041-1.737,0.105L12.707,5.15c-0.716,0.217-1.401,0.502-2.05,0.849L6.464,4.005C5.554,4.73,4.73,5.554,4.005,6.464l1.994,4.192c-0.347,0.648-0.632,1.334-0.849,2.05l-4.378,1.557C0.708,14.834,0.667,15.412,0.667,16s0.041,1.165,0.105,1.736l4.378,1.558c0.217,0.715,0.502,1.401,0.849,2.049l-1.994,4.193c0.725,0.909,1.549,1.733,2.459,2.458l4.192-1.993c0.648,0.347,1.334,0.633,2.05,0.851l1.557,4.377c0.571,0.064,1.148,0.104,1.737,0.104c0.588,0,1.165-0.04,1.736-0.104l1.558-4.377c0.715-0.218,1.399-0.504,2.049-0.851l4.193,1.993c0.909-0.725,1.733-1.549,2.458-2.458l-1.993-4.193c0.347-0.647,0.633-1.334,0.851-2.049L31.229,17.736zM16,20.871c-2.69,0-4.872-2.182-4.872-4.871c0-2.69,2.182-4.872,4.872-4.872c2.689,0,4.871,2.182,4.871,4.872C20.871,18.689,18.689,20.871,16,20.871z"></path><title>Link options.</title></g></g></g></g><!--z-index:54--><g   id="j_24" ><path  stroke="#707070" d="M 2975 545 L 2685 393" id="v-349" stroke-width="2" stroke-dasharray="30 30" fill="none" style="opacity: 1;"></path><path  fill="black" stroke="black" d="M 0 0 0 0" transform="matrix(-0.8855890443916046,-0.4644696378166873,0.4644696378166873,-0.8855890443916046,2975,545.1049194335938)"></path><path  fill="#707070" stroke="#707070" d="M 20 0 L 0 10 L 20 20 z" id="v-351" transform="matrix(0.8855889825437233,0.46446975573999744,-0.46446975573999744,0.8855889825437233,2689.6447647632126,384.1511154980222)" style="opacity: 1;"></path><path  d="M 2975 545 L 2685 393" id="v-350" fill="none" style="cursor: auto; pointer-events: visiblepainted;"></path><g ><g id="v-343"  label-idx="0" cursor="move" transform="matrix(1,0,0,1,2830,469)" style="cursor: default; opacity: 1;"><rect joint-selector="rect" id="v-346" fill="#ffffff" rx="3" ry="3" pointer-events="none" width="156.51736450195312" height="89.76913833618164" transform="matrix(1,0,0,1,-78.3,-44.9)"></rect><text joint-selector="text" id="v-345" font-size="24px" xml:space="preserve" y="0.8em" fill="#707070" text-anchor="middle" pointer-events="none" font-family="Open Sans" font-weight="normal" transform="matrix(1,0,0,1,0,-39.1)"><tspan dy="0" >Manages user</tspan><tspan dy="1.2em" x="0" >roles and</tspan><tspan dy="1.2em" x="0" >permissions</tspan></text></g><g id="v-344"  label-idx="1" cursor="move" transform="matrix(1,0,0,1,2820,524.2000122070312)" style="cursor: default; opacity: 1;"><rect joint-selector="rect" id="v-348" fill="#ffffff" rx="3" ry="3"  width="0" height="0" transform="matrix(1,0,0,1,0,0)" display="none"></rect><text joint-selector="text" id="v-347" fill="#000000" font-size="14" text-anchor="middle" pointer-events="none"></text></g></g><g  display="none" style="display: none;"></g><g  id="v-353" display="none"><g  id="v-341"><path  end="source" d="M 26 0 L 0 13 L 26 26 z"></path></g><g  id="v-342"><path  end="target" d="M 26 0 L 0 13 L 26 26 z"></path></g></g><g  id="v-352" display="none"><g  id="v-340" transform="translate(2939.5715221095707, 526.4305908988097) "><g  event="remove"><circle r="11"></circle><path transform="scale(.8) translate(-16, -16)" d="M24.778,21.419 19.276,15.917 24.777,10.415 21.949,7.585 16.447,13.087 10.945,7.585 8.117,10.415 13.618,15.917 8.116,21.419 10.946,24.248 16.447,18.746 21.948,24.248z"></path><title>Remove link.</title></g><g  event="link:options"><circle r="11" transform="translate(25)"></circle><path fill="white" transform="scale(.55) translate(29, -16)" d="M31.229,17.736c0.064-0.571,0.104-1.148,0.104-1.736s-0.04-1.166-0.104-1.737l-4.377-1.557c-0.218-0.716-0.504-1.401-0.851-2.05l1.993-4.192c-0.725-0.91-1.549-1.734-2.458-2.459l-4.193,1.994c-0.647-0.347-1.334-0.632-2.049-0.849l-1.558-4.378C17.165,0.708,16.588,0.667,16,0.667s-1.166,0.041-1.737,0.105L12.707,5.15c-0.716,0.217-1.401,0.502-2.05,0.849L6.464,4.005C5.554,4.73,4.73,5.554,4.005,6.464l1.994,4.192c-0.347,0.648-0.632,1.334-0.849,2.05l-4.378,1.557C0.708,14.834,0.667,15.412,0.667,16s0.041,1.165,0.105,1.736l4.378,1.558c0.217,0.715,0.502,1.401,0.849,2.049l-1.994,4.193c0.725,0.909,1.549,1.733,2.459,2.458l4.192-1.993c0.648,0.347,1.334,0.633,2.05,0.851l1.557,4.377c0.571,0.064,1.148,0.104,1.737,0.104c0.588,0,1.165-0.04,1.736-0.104l1.558-4.377c0.715-0.218,1.399-0.504,2.049-0.851l4.193,1.993c0.909-0.725,1.733-1.549,2.458-2.458l-1.993-4.193c0.347-0.647,0.633-1.334,0.851-2.049L31.229,17.736zM16,20.871c-2.69,0-4.872-2.182-4.872-4.871c0-2.69,2.182-4.872,4.872-4.872c2.689,0,4.871,2.182,4.871,4.872C20.871,18.689,18.689,20.871,16,20.871z"></path><title>Link options.</title></g></g></g></g><!--z-index:55--><g   id="j_25" ><path  stroke="#707070" d="M 3167 850 L 3156 1155" id="v-366" stroke-width="2" stroke-dasharray="30 30" fill="none" style="opacity: 1;"></path><path  fill="black" stroke="black" d="M 0 0 0 0" transform="matrix(-0.03814013020206423,0.999272400533593,-0.999272400533593,-0.03814013020206423,3167.366455078125,850)"></path><path  fill="#707070" stroke="#707070" d="M 20 0 L 0 10 L 20 20 z" id="v-368" transform="matrix(0.03813999714089514,-0.9992724056122497,0.9992724056122497,0.03813999714089514,3145.7325654255937,1154.6186483034635)" style="opacity: 1;"></path><path  d="M 3167 850 L 3156 1155" id="v-367" fill="none" style="cursor: auto; pointer-events: visiblepainted;"></path><g ><g id="v-360"  label-idx="0" cursor="move" transform="matrix(1,0,0,1,3161.5,1002.5)" style="cursor: default; opacity: 1;"><rect joint-selector="rect" id="v-363" fill="#ffffff" rx="3" ry="3" pointer-events="none" width="194.7182159423828" height="89.76913833618164" transform="matrix(1,0,0,1,-97.4,-44.9)"></rect><text joint-selector="text" id="v-362" font-size="24px" xml:space="preserve" y="0.8em" fill="#707070" text-anchor="middle" pointer-events="none" font-family="Open Sans" font-weight="normal" transform="matrix(1,0,0,1,0,-39.1)"><tspan dy="0" >Monitors security</tspan><tspan dy="1.2em" x="0" >alerts and</tspan><tspan dy="1.2em" x="0" >incidents</tspan></text></g><g id="v-361"  label-idx="1" cursor="move" transform="matrix(1,0,0,1,3151.5,1057.699951171875)" style="cursor: default; opacity: 1;"><rect joint-selector="rect" id="v-365" fill="#ffffff" rx="3" ry="3"  width="0" height="0" transform="matrix(1,0,0,1,0,0)" display="none"></rect><text joint-selector="text" id="v-364" fill="#000000" font-size="14" text-anchor="middle" pointer-events="none"></text></g></g><g  display="none" style="display: none;"></g><g  id="v-370" display="none"><g  id="v-358"><path  end="source" d="M 26 0 L 0 13 L 26 26 z"></path></g><g  id="v-359"><path  end="target" d="M 26 0 L 0 13 L 26 26 z"></path></g></g><g  id="v-369" display="none"><g  id="v-357" transform="translate(3165.5583143631984, 889.9740108386017) "><g  event="remove"><circle r="11"></circle><path transform="scale(.8) translate(-16, -16)" d="M24.778,21.419 19.276,15.917 24.777,10.415 21.949,7.585 16.447,13.087 10.945,7.585 8.117,10.415 13.618,15.917 8.116,21.419 10.946,24.248 16.447,18.746 21.948,24.248z"></path><title>Remove link.</title></g><g  event="link:options"><circle r="11" transform="translate(25)"></circle><path fill="white" transform="scale(.55) translate(29, -16)" d="M31.229,17.736c0.064-0.571,0.104-1.148,0.104-1.736s-0.04-1.166-0.104-1.737l-4.377-1.557c-0.218-0.716-0.504-1.401-0.851-2.05l1.993-4.192c-0.725-0.91-1.549-1.734-2.458-2.459l-4.193,1.994c-0.647-0.347-1.334-0.632-2.049-0.849l-1.558-4.378C17.165,0.708,16.588,0.667,16,0.667s-1.166,0.041-1.737,0.105L12.707,5.15c-0.716,0.217-1.401,0.502-2.05,0.849L6.464,4.005C5.554,4.73,4.73,5.554,4.005,6.464l1.994,4.192c-0.347,0.648-0.632,1.334-0.849,2.05l-4.378,1.557C0.708,14.834,0.667,15.412,0.667,16s0.041,1.165,0.105,1.736l4.378,1.558c0.217,0.715,0.502,1.401,0.849,2.049l-1.994,4.193c0.725,0.909,1.549,1.733,2.459,2.458l4.192-1.993c0.648,0.347,1.334,0.633,2.05,0.851l1.557,4.377c0.571,0.064,1.148,0.104,1.737,0.104c0.588,0,1.165-0.04,1.736-0.104l1.558-4.377c0.715-0.218,1.399-0.504,2.049-0.851l4.193,1.993c0.909-0.725,1.733-1.549,2.458-2.458l-1.993-4.193c0.347-0.647,0.633-1.334,0.851-2.049L31.229,17.736zM16,20.871c-2.69,0-4.872-2.182-4.872-4.871c0-2.69,2.182-4.872,4.872-4.872c2.689,0,4.871,2.182,4.871,4.872C20.871,18.689,18.689,20.871,16,20.871z"></path><title>Link options.</title></g></g></g></g><!--z-index:56--><g   id="j_26" ><path  stroke="#707070" d="M 605 1517 L 1025 1731" id="v-383" stroke-width="2" stroke-dasharray="30 30" fill="none" style="opacity: 1;"></path><path  fill="black" stroke="black" d="M 0 0 0 0" transform="matrix(0.8912406287755605,0.4535307504676429,-0.4535307504676429,0.8912406287755605,605,1516.775146484375)"></path><path  fill="#707070" stroke="#707070" d="M 20 0 L 0 10 L 20 20 z" id="v-385" transform="matrix(-0.8912405985799224,-0.45353080980557603,0.45353080980557603,-0.8912405985799224,1020.4646833369623,1739.4153654510426)" style="opacity: 1;"></path><path  d="M 605 1517 L 1025 1731" id="v-384" fill="none" style="cursor: auto; pointer-events: visiblepainted;"></path><g ><g id="v-377"  label-idx="0" cursor="move" transform="matrix(1,0,0,1,815,1624)" style="cursor: default; opacity: 1;"><rect joint-selector="rect" id="v-380" fill="#ffffff" rx="3" ry="3" pointer-events="none" width="138.72940063476562" height="147.369140625" transform="matrix(1,0,0,1,-69.4,-73.7)"></rect><text joint-selector="text" id="v-379" font-size="24px" xml:space="preserve" y="0.8em" fill="#707070" text-anchor="middle" pointer-events="none" font-family="Open Sans" font-weight="normal" transform="matrix(1,0,0,1,0,-67.9)"><tspan dy="0" >Reviews and</tspan><tspan dy="1.2em" x="0" >verifies</tspan><tspan dy="1.2em" x="0" >submitted</tspan><tspan dy="1.2em" x="0" >compliance</tspan><tspan dy="1.2em" x="0" >reports</tspan></text></g><g id="v-378"  label-idx="1" cursor="move" transform="matrix(1,0,0,1,805,1708)" style="cursor: default; opacity: 1;"><rect joint-selector="rect" id="v-382" fill="#ffffff" rx="3" ry="3"  width="0" height="0" transform="matrix(1,0,0,1,0,0)" display="none"></rect><text joint-selector="text" id="v-381" fill="#000000" font-size="14" text-anchor="middle" pointer-events="none"></text></g></g><g  display="none" style="display: none;"></g><g  id="v-387" display="none"><g  id="v-375"><path  end="source" d="M 26 0 L 0 13 L 26 26 z"></path></g><g  id="v-376"><path  end="target" d="M 26 0 L 0 13 L 26 26 z"></path></g></g><g  id="v-386" display="none"><g  id="v-374" transform="translate(640.6402846106296, 1535.1595735873207) "><g  event="remove"><circle r="11"></circle><path transform="scale(.8) translate(-16, -16)" d="M24.778,21.419 19.276,15.917 24.777,10.415 21.949,7.585 16.447,13.087 10.945,7.585 8.117,10.415 13.618,15.917 8.116,21.419 10.946,24.248 16.447,18.746 21.948,24.248z"></path><title>Remove link.</title></g><g  event="link:options"><circle r="11" transform="translate(25)"></circle><path fill="white" transform="scale(.55) translate(29, -16)" d="M31.229,17.736c0.064-0.571,0.104-1.148,0.104-1.736s-0.04-1.166-0.104-1.737l-4.377-1.557c-0.218-0.716-0.504-1.401-0.851-2.05l1.993-4.192c-0.725-0.91-1.549-1.734-2.458-2.459l-4.193,1.994c-0.647-0.347-1.334-0.632-2.049-0.849l-1.558-4.378C17.165,0.708,16.588,0.667,16,0.667s-1.166,0.041-1.737,0.105L12.707,5.15c-0.716,0.217-1.401,0.502-2.05,0.849L6.464,4.005C5.554,4.73,4.73,5.554,4.005,6.464l1.994,4.192c-0.347,0.648-0.632,1.334-0.849,2.05l-4.378,1.557C0.708,14.834,0.667,15.412,0.667,16s0.041,1.165,0.105,1.736l4.378,1.558c0.217,0.715,0.502,1.401,0.849,2.049l-1.994,4.193c0.725,0.909,1.549,1.733,2.459,2.458l4.192-1.993c0.648,0.347,1.334,0.633,2.05,0.851l1.557,4.377c0.571,0.064,1.148,0.104,1.737,0.104c0.588,0,1.165-0.04,1.736-0.104l1.558-4.377c0.715-0.218,1.399-0.504,2.049-0.851l4.193,1.993c0.909-0.725,1.733-1.549,2.458-2.458l-1.993-4.193c0.347-0.647,0.633-1.334,0.851-2.049L31.229,17.736zM16,20.871c-2.69,0-4.872-2.182-4.872-4.871c0-2.69,2.182-4.872,4.872-4.872c2.689,0,4.871,2.182,4.871,4.872C20.871,18.689,18.689,20.871,16,20.871z"></path><title>Link options.</title></g></g></g></g><!--z-index:57--><g   id="j_27" ><path  stroke="#707070" d="M 575 866 L 1005 1007 C 1011.6666666666666 1008.9999999999999 1018.3333333333333 1009.6666666666665 1025 1009 L 1621 966" id="v-401" stroke-width="2" stroke-dasharray="30 30" fill="none" style="opacity: 1;"></path><path  fill="black" stroke="black" d="M 0 0 0 0" transform="matrix(0.950157464242307,0.3117704173660952,-0.3117704173660952,0.950157464242307,575,865.625)"></path><path  fill="#707070" stroke="#707070" d="M 20 0 L 0 10 L 20 20 z" id="v-403" transform="matrix(-0.9974035685014614,0.0720147314134451,-0.0720147314134451,-0.9974035685014614,1621.7201839757115,976.2195255779114)" style="opacity: 1;"></path><path  d="M 575 866 L 1005 1007 C 1011.6666666666666 1008.9999999999999 1018.3333333333333 1009.6666666666665 1025 1009 L 1621 966" id="v-402" fill="none" style="cursor: auto; pointer-events: visiblepainted;"></path><g ><g id="v-395"  label-idx="0" cursor="move" transform="matrix(1,0,0,1,1087.2349853515625,1004.5098876953125)" style="cursor: default; opacity: 1;"><rect joint-selector="rect" id="v-398" fill="#ffffff" rx="3" ry="3" pointer-events="none" width="135.9090118408203" height="118.56913375854492" transform="matrix(1,0,0,1,-68,-59.3)"></rect><text joint-selector="text" id="v-397" font-size="24px" xml:space="preserve" y="0.8em" fill="#707070" text-anchor="middle" pointer-events="none" font-family="Open Sans" font-weight="normal" transform="matrix(1,0,0,1,0,-53.5)"><tspan dy="0" >Reviews risk</tspan><tspan dy="1.2em" x="0" >insights and</tspan><tspan dy="1.2em" x="0" >compliance</tspan><tspan dy="1.2em" x="0" >status</tspan></text></g><g id="v-396"  label-idx="1" cursor="move" transform="matrix(1,0,0,1,1077.2349853515625,1074.10986328125)" style="cursor: default; opacity: 1;"><rect joint-selector="rect" id="v-400" fill="#ffffff" rx="3" ry="3"  width="0" height="0" transform="matrix(1,0,0,1,0,0)" display="none"></rect><text joint-selector="text" id="v-399" fill="#000000" font-size="14" text-anchor="middle" pointer-events="none"></text></g></g><g  display="none" style="display: none;"><g  transform="translate(1015, 1010)" id="v-392"><circle  idx="0" r="10"></circle><path  idx="0" d="M16,5.333c-7.732,0-14,4.701-14,10.5c0,1.982,0.741,3.833,2.016,5.414L2,25.667l5.613-1.441c2.339,1.317,5.237,2.107,8.387,2.107c7.732,0,14-4.701,14-10.5C30,10.034,23.732,5.333,16,5.333z" transform="translate(5, -33)"></path><path  idx="0" transform="scale(.8) translate(9.5, -37)" d="M24.778,21.419 19.276,15.917 24.777,10.415 21.949,7.585 16.447,13.087 10.945,7.585 8.117,10.415 13.618,15.917 8.116,21.419 10.946,24.248 16.447,18.746 21.948,24.248z"><title>Remove vertex.</title></path></g></g><g  id="v-405" display="none"><g  id="v-393"><path  end="source" d="M 26 0 L 0 13 L 26 26 z"></path></g><g  id="v-394"><path  end="target" d="M 26 0 L 0 13 L 26 26 z"></path></g></g><g  id="v-404" display="none"><g  id="v-391" transform="translate(613.0087526309894, 878.4633351650454) "><g  event="remove"><circle r="11"></circle><path transform="scale(.8) translate(-16, -16)" d="M24.778,21.419 19.276,15.917 24.777,10.415 21.949,7.585 16.447,13.087 10.945,7.585 8.117,10.415 13.618,15.917 8.116,21.419 10.946,24.248 16.447,18.746 21.948,24.248z"></path><title>Remove link.</title></g><g  event="link:options"><circle r="11" transform="translate(25)"></circle><path fill="white" transform="scale(.55) translate(29, -16)" d="M31.229,17.736c0.064-0.571,0.104-1.148,0.104-1.736s-0.04-1.166-0.104-1.737l-4.377-1.557c-0.218-0.716-0.504-1.401-0.851-2.05l1.993-4.192c-0.725-0.91-1.549-1.734-2.458-2.459l-4.193,1.994c-0.647-0.347-1.334-0.632-2.049-0.849l-1.558-4.378C17.165,0.708,16.588,0.667,16,0.667s-1.166,0.041-1.737,0.105L12.707,5.15c-0.716,0.217-1.401,0.502-2.05,0.849L6.464,4.005C5.554,4.73,4.73,5.554,4.005,6.464l1.994,4.192c-0.347,0.648-0.632,1.334-0.849,2.05l-4.378,1.557C0.708,14.834,0.667,15.412,0.667,16s0.041,1.165,0.105,1.736l4.378,1.558c0.217,0.715,0.502,1.401,0.849,2.049l-1.994,4.193c0.725,0.909,1.549,1.733,2.459,2.458l4.192-1.993c0.648,0.347,1.334,0.633,2.05,0.851l1.557,4.377c0.571,0.064,1.148,0.104,1.737,0.104c0.588,0,1.165-0.04,1.736-0.104l1.558-4.377c0.715-0.218,1.399-0.504,2.049-0.851l4.193,1.993c0.909-0.725,1.733-1.549,2.458-2.458l-1.993-4.193c0.347-0.647,0.633-1.334,0.851-2.049L31.229,17.736zM16,20.871c-2.69,0-4.872-2.182-4.872-4.871c0-2.69,2.182-4.872,4.872-4.872c2.689,0,4.871,2.182,4.871,4.872C20.871,18.689,18.689,20.871,16,20.871z"></path><title>Link options.</title></g></g></g></g><!--z-index:58--><g   id="j_28" ><path  stroke="#707070" d="M 950 478 L 1222 699 C 1227.3333333333333 703 1233 706.3333333333333 1239 709 L 1621 861" id="v-419" stroke-width="2" stroke-dasharray="30 30" fill="none" style="opacity: 1;"></path><path  fill="black" stroke="black" d="M 0 0 0 0" transform="matrix(0.7761139809660654,0.6305926486639419,-0.6305926486639419,0.7761139809660654,950,477.5)"></path><path  fill="#707070" stroke="#707070" d="M 20 0 L 0 10 L 20 20 z" id="v-421" transform="matrix(-0.9292030785012634,-0.3695695318932217,0.3695695318932217,-0.9292030785012634,1617.3043432785805,869.8033999320699)" style="opacity: 1;"></path><path  d="M 950 478 L 1222 699 C 1227.3333333333333 703 1233 706.3333333333333 1239 709 L 1621 861" id="v-420" fill="none" style="cursor: auto; pointer-events: visiblepainted;"></path><g ><g id="v-413"  label-idx="0" cursor="move" transform="matrix(1,0,0,1,1258.0028076171875,716.5613403320312)" style="cursor: default; opacity: 1;"><rect joint-selector="rect" id="v-416" fill="#ffffff" rx="3" ry="3" pointer-events="none" width="176.8464813232422" height="89.76913833618164" transform="matrix(1,0,0,1,-88.4,-44.9)"></rect><text joint-selector="text" id="v-415" font-size="24px" xml:space="preserve" y="0.8em" fill="#707070" text-anchor="middle" pointer-events="none" font-family="Open Sans" font-weight="normal" transform="matrix(1,0,0,1,0,-39.1)"><tspan dy="0" >Monitors</tspan><tspan dy="1.2em" x="0" >compliance and</tspan><tspan dy="1.2em" x="0" >reviews alerts</tspan></text></g><g id="v-414"  label-idx="1" cursor="move" transform="matrix(1,0,0,1,1248.0028076171875,771.7612915039062)" style="cursor: default; opacity: 1;"><rect joint-selector="rect" id="v-418" fill="#ffffff" rx="3" ry="3"  width="0" height="0" transform="matrix(1,0,0,1,0,0)" display="none"></rect><text joint-selector="text" id="v-417" fill="#000000" font-size="14" text-anchor="middle" pointer-events="none"></text></g></g><g  display="none" style="display: none;"><g  transform="translate(1230, 705)" id="v-410"><circle  idx="0" r="10"></circle><path  idx="0" d="M16,5.333c-7.732,0-14,4.701-14,10.5c0,1.982,0.741,3.833,2.016,5.414L2,25.667l5.613-1.441c2.339,1.317,5.237,2.107,8.387,2.107c7.732,0,14-4.701,14-10.5C30,10.034,23.732,5.333,16,5.333z" transform="translate(5, -33)"></path><path  idx="0" transform="scale(.8) translate(9.5, -37)" d="M24.778,21.419 19.276,15.917 24.777,10.415 21.949,7.585 16.447,13.087 10.945,7.585 8.117,10.415 13.618,15.917 8.116,21.419 10.946,24.248 16.447,18.746 21.948,24.248z"><title>Remove vertex.</title></path></g></g><g  id="v-423" display="none"><g  id="v-411"><path  end="source" d="M 26 0 L 0 13 L 26 26 z"></path></g><g  id="v-412"><path  end="target" d="M 26 0 L 0 13 L 26 26 z"></path></g></g><g  id="v-422" display="none"><g  id="v-409" transform="translate(981.0445600046507, 503.2237050037786) "><g  event="remove"><circle r="11"></circle><path transform="scale(.8) translate(-16, -16)" d="M24.778,21.419 19.276,15.917 24.777,10.415 21.949,7.585 16.447,13.087 10.945,7.585 8.117,10.415 13.618,15.917 8.116,21.419 10.946,24.248 16.447,18.746 21.948,24.248z"></path><title>Remove link.</title></g><g  event="link:options"><circle r="11" transform="translate(25)"></circle><path fill="white" transform="scale(.55) translate(29, -16)" d="M31.229,17.736c0.064-0.571,0.104-1.148,0.104-1.736s-0.04-1.166-0.104-1.737l-4.377-1.557c-0.218-0.716-0.504-1.401-0.851-2.05l1.993-4.192c-0.725-0.91-1.549-1.734-2.458-2.459l-4.193,1.994c-0.647-0.347-1.334-0.632-2.049-0.849l-1.558-4.378C17.165,0.708,16.588,0.667,16,0.667s-1.166,0.041-1.737,0.105L12.707,5.15c-0.716,0.217-1.401,0.502-2.05,0.849L6.464,4.005C5.554,4.73,4.73,5.554,4.005,6.464l1.994,4.192c-0.347,0.648-0.632,1.334-0.849,2.05l-4.378,1.557C0.708,14.834,0.667,15.412,0.667,16s0.041,1.165,0.105,1.736l4.378,1.558c0.217,0.715,0.502,1.401,0.849,2.049l-1.994,4.193c0.725,0.909,1.549,1.733,2.459,2.458l4.192-1.993c0.648,0.347,1.334,0.633,2.05,0.851l1.557,4.377c0.571,0.064,1.148,0.104,1.737,0.104c0.588,0,1.165-0.04,1.736-0.104l1.558-4.377c0.715-0.218,1.399-0.504,2.049-0.851l4.193,1.993c0.909-0.725,1.733-1.549,2.458-2.458l-1.993-4.193c0.347-0.647,0.633-1.334,0.851-2.049L31.229,17.736zM16,20.871c-2.69,0-4.872-2.182-4.872-4.871c0-2.69,2.182-4.872,4.872-4.872c2.689,0,4.871,2.182,4.871,4.872C20.871,18.689,18.689,20.871,16,20.871z"></path><title>Link options.</title></g></g></g></g><!--z-index:59--><g   id="j_29" ><path  stroke="#707070" d="M 1903 1615 L 1857 1100" id="v-437" stroke-width="2" stroke-dasharray="30 30" fill="none" style="opacity: 1;"></path><path  fill="black" stroke="black" d="M 0 0 0 0" transform="matrix(-0.08776910602060661,-0.9961408454773569,0.9961408454773569,-0.08776910602060661,1902.5020751953125,1615.312744140625)"></path><path  fill="#707070" stroke="#707070" d="M 20 0 L 0 10 L 20 20 z" id="v-439" transform="matrix(0.0877692386647828,0.9961408337901847,-0.9961408337901847,0.0877692386647828,1867.0596680996914,1099.1223250567002)" style="opacity: 1;"></path><path  d="M 1903 1615 L 1857 1100" id="v-438" fill="none" style="cursor: auto; pointer-events: visiblepainted;"></path><g ><g id="v-430"  label-idx="0" cursor="move" transform="matrix(1,0,0,1,1880,1357.5)" style="cursor: default; opacity: 1;"><rect joint-selector="rect" id="v-433" fill="#ffffff" rx="3" ry="3" pointer-events="none" width="196.5612335205078" height="118.56913375854492" transform="matrix(1,0,0,1,-98.3,-59.3)"></rect><text joint-selector="text" id="v-432" font-size="24px" xml:space="preserve" y="0.8em" fill="#707070" text-anchor="middle" pointer-events="none" font-family="Open Sans" font-weight="normal" transform="matrix(1,0,0,1,0,-53.5)"><tspan dy="0" >Provides input on</tspan><tspan dy="1.2em" x="0" >transaction</tspan><tspan dy="1.2em" x="0" >patterns and</tspan><tspan dy="1.2em" x="0" >anomalies</tspan></text></g><g id="v-431"  label-idx="1" cursor="move" transform="matrix(1,0,0,1,1870,1427.0999755859375)" style="cursor: default; opacity: 1;"><rect joint-selector="rect" id="v-435" fill="#ffffff" rx="3" ry="3"  width="0" height="0" transform="matrix(1,0,0,1,0,0)" display="none"></rect><text joint-selector="text" id="v-434" fill="#000000" font-size="14" text-anchor="middle" pointer-events="none"></text></g></g><g  display="none" style="display: none;"></g><g  id="v-441" display="none"><g  id="v-428"><path  end="source" d="M 26 0 L 0 13 L 26 26 z"></path></g><g  id="v-429"><path  end="target" d="M 26 0 L 0 13 L 26 26 z"></path></g></g><g  id="v-440" display="none"><g  id="v-427" transform="translate(1899.441351946207, 1575.158614180362) "><g  event="remove"><circle r="11"></circle><path transform="scale(.8) translate(-16, -16)" d="M24.778,21.419 19.276,15.917 24.777,10.415 21.949,7.585 16.447,13.087 10.945,7.585 8.117,10.415 13.618,15.917 8.116,21.419 10.946,24.248 16.447,18.746 21.948,24.248z"></path><title>Remove link.</title></g><g  event="link:options"><circle r="11" transform="translate(25)"></circle><path fill="white" transform="scale(.55) translate(29, -16)" d="M31.229,17.736c0.064-0.571,0.104-1.148,0.104-1.736s-0.04-1.166-0.104-1.737l-4.377-1.557c-0.218-0.716-0.504-1.401-0.851-2.05l1.993-4.192c-0.725-0.91-1.549-1.734-2.458-2.459l-4.193,1.994c-0.647-0.347-1.334-0.632-2.049-0.849l-1.558-4.378C17.165,0.708,16.588,0.667,16,0.667s-1.166,0.041-1.737,0.105L12.707,5.15c-0.716,0.217-1.401,0.502-2.05,0.849L6.464,4.005C5.554,4.73,4.73,5.554,4.005,6.464l1.994,4.192c-0.347,0.648-0.632,1.334-0.849,2.05l-4.378,1.557C0.708,14.834,0.667,15.412,0.667,16s0.041,1.165,0.105,1.736l4.378,1.558c0.217,0.715,0.502,1.401,0.849,2.049l-1.994,4.193c0.725,0.909,1.549,1.733,2.459,2.458l4.192-1.993c0.648,0.347,1.334,0.633,2.05,0.851l1.557,4.377c0.571,0.064,1.148,0.104,1.737,0.104c0.588,0,1.165-0.04,1.736-0.104l1.558-4.377c0.715-0.218,1.399-0.504,2.049-0.851l4.193,1.993c0.909-0.725,1.733-1.549,2.458-2.458l-1.993-4.193c0.347-0.647,0.633-1.334,0.851-2.049L31.229,17.736zM16,20.871c-2.69,0-4.872-2.182-4.872-4.871c0-2.69,2.182-4.872,4.872-4.872c2.689,0,4.871,2.182,4.871,4.872C20.871,18.689,18.689,20.871,16,20.871z"></path><title>Link options.</title></g></g></g></g><!--z-index:60--><g   id="j_30" ><path  stroke="#707070" d="M 2975 695 L 2071 899" id="v-454" stroke-width="2" stroke-dasharray="30 30" fill="none" style="opacity: 1;"></path><path  fill="black" stroke="black" d="M 0 0 0 0" transform="matrix(-0.9754562730175316,0.22019323202756902,-0.22019323202756902,-0.9754562730175316,2975,695.146728515625)"></path><path  fill="#707070" stroke="#707070" d="M 20 0 L 0 10 L 20 20 z" id="v-456" transform="matrix(0.9754562143764922,-0.22019349180728018,0.22019349180728018,0.9754562143764922,2068.7981416100374,889.4553683797766)" style="opacity: 1;"></path><path  d="M 2975 695 L 2071 899" id="v-455" fill="none" style="cursor: auto; pointer-events: visiblepainted;"></path><g ><g id="v-448"  label-idx="0" cursor="move" transform="matrix(1,0,0,1,2523,797)" style="cursor: default; opacity: 1;"><rect joint-selector="rect" id="v-451" fill="#ffffff" rx="3" ry="3" pointer-events="none" width="198.29257202148438" height="176.16912841796875" transform="matrix(1,0,0,1,-99.1,-88.1)"></rect><text joint-selector="text" id="v-450" font-size="24px" xml:space="preserve" y="0.8em" fill="#707070" text-anchor="middle" pointer-events="none" font-family="Open Sans" font-weight="normal" transform="matrix(1,0,0,1,0,-82.3)"><tspan dy="0" >Ensures proper</tspan><tspan dy="1.2em" x="0" >configuration and</tspan><tspan dy="1.2em" x="0" >security of</tspan><tspan dy="1.2em" x="0" >compliance</tspan><tspan dy="1.2em" x="0" >monitoring</tspan><tspan dy="1.2em" x="0" >systems</tspan></text></g><g id="v-449"  label-idx="1" cursor="move" transform="matrix(1,0,0,1,2513,895.4000244140625)" style="cursor: default; opacity: 1;"><rect joint-selector="rect" id="v-453" fill="#ffffff" rx="3" ry="3"  width="0" height="0" transform="matrix(1,0,0,1,0,0)" display="none"></rect><text joint-selector="text" id="v-452" fill="#000000" font-size="14" text-anchor="middle" pointer-events="none"></text></g></g><g  display="none" style="display: none;"></g><g  id="v-458" display="none"><g  id="v-446"><path  end="source" d="M 26 0 L 0 13 L 26 26 z"></path></g><g  id="v-447"><path  end="target" d="M 26 0 L 0 13 L 26 26 z"></path></g></g><g  id="v-457" display="none"><g  id="v-445" transform="translate(2935.9811636949366, 703.8051356263638) "><g  event="remove"><circle r="11"></circle><path transform="scale(.8) translate(-16, -16)" d="M24.778,21.419 19.276,15.917 24.777,10.415 21.949,7.585 16.447,13.087 10.945,7.585 8.117,10.415 13.618,15.917 8.116,21.419 10.946,24.248 16.447,18.746 21.948,24.248z"></path><title>Remove link.</title></g><g  event="link:options"><circle r="11" transform="translate(25)"></circle><path fill="white" transform="scale(.55) translate(29, -16)" d="M31.229,17.736c0.064-0.571,0.104-1.148,0.104-1.736s-0.04-1.166-0.104-1.737l-4.377-1.557c-0.218-0.716-0.504-1.401-0.851-2.05l1.993-4.192c-0.725-0.91-1.549-1.734-2.458-2.459l-4.193,1.994c-0.647-0.347-1.334-0.632-2.049-0.849l-1.558-4.378C17.165,0.708,16.588,0.667,16,0.667s-1.166,0.041-1.737,0.105L12.707,5.15c-0.716,0.217-1.401,0.502-2.05,0.849L6.464,4.005C5.554,4.73,4.73,5.554,4.005,6.464l1.994,4.192c-0.347,0.648-0.632,1.334-0.849,2.05l-4.378,1.557C0.708,14.834,0.667,15.412,0.667,16s0.041,1.165,0.105,1.736l4.378,1.558c0.217,0.715,0.502,1.401,0.849,2.049l-1.994,4.193c0.725,0.909,1.549,1.733,2.459,2.458l4.192-1.993c0.648,0.347,1.334,0.633,2.05,0.851l1.557,4.377c0.571,0.064,1.148,0.104,1.737,0.104c0.588,0,1.165-0.04,1.736-0.104l1.558-4.377c0.715-0.218,1.399-0.504,2.049-0.851l4.193,1.993c0.909-0.725,1.733-1.549,2.458-2.458l-1.993-4.193c0.347-0.647,0.633-1.334,0.851-2.049L31.229,17.736zM16,20.871c-2.69,0-4.872-2.182-4.872-4.871c0-2.69,2.182-4.872,4.872-4.872c2.689,0,4.871,2.182,4.871,4.872C20.871,18.689,18.689,20.871,16,20.871z"></path><title>Link options.</title></g></g></g></g><!--z-index:61--><g   id="j_31" ><path  stroke="#707070" d="M 605 1436 L 1175 1494 C 1181.6666666666665 1494.6666666666665 1187.6666666666665 1493 1193 1489 L 1664 1100" id="v-472" stroke-width="2" stroke-dasharray="30 30" fill="none" style="opacity: 1;"></path><path  fill="black" stroke="black" d="M 0 0 0 0" transform="matrix(0.9947814382737039,0.10202886878771662,-0.10202886878771662,0.9947814382737039,605,1435.5128173828125)"></path><path  fill="#707070" stroke="#707070" d="M 20 0 L 0 10 L 20 20 z" id="v-474" transform="matrix(-0.7715595305682945,0.6361571274372653,-0.6361571274372653,-0.7715595305682945,1670.434954665993,1107.7155962969352)" style="opacity: 1;"></path><path  d="M 605 1436 L 1175 1494 C 1181.6666666666665 1494.6666666666665 1187.6666666666665 1493 1193 1489 L 1664 1100" id="v-473" fill="none" style="cursor: auto; pointer-events: visiblepainted;"></path><g ><g id="v-466"  label-idx="0" cursor="move" transform="matrix(1,0,0,1,1200.2415771484375,1483.0191650390625)" style="cursor: default; opacity: 1;"><rect joint-selector="rect" id="v-469" fill="#ffffff" rx="3" ry="3" pointer-events="none" width="180.08572387695312" height="118.56913375854492" transform="matrix(1,0,0,1,-90,-59.3)"></rect><text joint-selector="text" id="v-468" font-size="24px" xml:space="preserve" y="0.8em" fill="#707070" text-anchor="middle" pointer-events="none" font-family="Open Sans" font-weight="normal" transform="matrix(1,0,0,1,0,-53.5)"><tspan dy="0" >Conducts audits</tspan><tspan dy="1.2em" x="0" >and reviews</tspan><tspan dy="1.2em" x="0" >compliance</tspan><tspan dy="1.2em" x="0" >reports</tspan></text></g><g id="v-467"  label-idx="1" cursor="move" transform="matrix(1,0,0,1,1190.2415771484375,1552.619140625)" style="cursor: default; opacity: 1;"><rect joint-selector="rect" id="v-471" fill="#ffffff" rx="3" ry="3"  width="0" height="0" transform="matrix(1,0,0,1,0,0)" display="none"></rect><text joint-selector="text" id="v-470" fill="#000000" font-size="14" text-anchor="middle" pointer-events="none"></text></g></g><g  display="none" style="display: none;"><g  transform="translate(1185, 1495)" id="v-463"><circle  idx="0" r="10"></circle><path  idx="0" d="M16,5.333c-7.732,0-14,4.701-14,10.5c0,1.982,0.741,3.833,2.016,5.414L2,25.667l5.613-1.441c2.339,1.317,5.237,2.107,8.387,2.107c7.732,0,14-4.701,14-10.5C30,10.034,23.732,5.333,16,5.333z" transform="translate(5, -33)"></path><path  idx="0" transform="scale(.8) translate(9.5, -37)" d="M24.778,21.419 19.276,15.917 24.777,10.415 21.949,7.585 16.447,13.087 10.945,7.585 8.117,10.415 13.618,15.917 8.116,21.419 10.946,24.248 16.447,18.746 21.948,24.248z"><title>Remove vertex.</title></path></g></g><g  id="v-476" display="none"><g  id="v-464"><path  end="source" d="M 26 0 L 0 13 L 26 26 z"></path></g><g  id="v-465"><path  end="target" d="M 26 0 L 0 13 L 26 26 z"></path></g></g><g  id="v-475" display="none"><g  id="v-462" transform="translate(644.7945152141943, 1440.0492664603917) "><g  event="remove"><circle r="11"></circle><path transform="scale(.8) translate(-16, -16)" d="M24.778,21.419 19.276,15.917 24.777,10.415 21.949,7.585 16.447,13.087 10.945,7.585 8.117,10.415 13.618,15.917 8.116,21.419 10.946,24.248 16.447,18.746 21.948,24.248z"></path><title>Remove link.</title></g><g  event="link:options"><circle r="11" transform="translate(25)"></circle><path fill="white" transform="scale(.55) translate(29, -16)" d="M31.229,17.736c0.064-0.571,0.104-1.148,0.104-1.736s-0.04-1.166-0.104-1.737l-4.377-1.557c-0.218-0.716-0.504-1.401-0.851-2.05l1.993-4.192c-0.725-0.91-1.549-1.734-2.458-2.459l-4.193,1.994c-0.647-0.347-1.334-0.632-2.049-0.849l-1.558-4.378C17.165,0.708,16.588,0.667,16,0.667s-1.166,0.041-1.737,0.105L12.707,5.15c-0.716,0.217-1.401,0.502-2.05,0.849L6.464,4.005C5.554,4.73,4.73,5.554,4.005,6.464l1.994,4.192c-0.347,0.648-0.632,1.334-0.849,2.05l-4.378,1.557C0.708,14.834,0.667,15.412,0.667,16s0.041,1.165,0.105,1.736l4.378,1.558c0.217,0.715,0.502,1.401,0.849,2.049l-1.994,4.193c0.725,0.909,1.549,1.733,2.459,2.458l4.192-1.993c0.648,0.347,1.334,0.633,2.05,0.851l1.557,4.377c0.571,0.064,1.148,0.104,1.737,0.104c0.588,0,1.165-0.04,1.736-0.104l1.558-4.377c0.715-0.218,1.399-0.504,2.049-0.851l4.193,1.993c0.909-0.725,1.733-1.549,2.458-2.458l-1.993-4.193c0.347-0.647,0.633-1.334,0.851-2.049L31.229,17.736zM16,20.871c-2.69,0-4.872-2.182-4.872-4.871c0-2.69,2.182-4.872,4.872-4.872c2.689,0,4.871,2.182,4.871,4.872C20.871,18.689,18.689,20.871,16,20.871z"></path><title>Link options.</title></g></g></g></g><!--z-index:62--></g><g ></g><g ></g><g ></g></g></svg>