<svg xmlns="http://www.w3.org/2000/svg" xmlns:xlink="http://www.w3.org/1999/xlink" version="1.1" viewBox="0 0 4640 2011" style="background: #ffffff"><defs><style>@import url(https://fonts.googleapis.com/css?family=Open+Sans:400,700);</style></defs><defs joint-selector="defs"></defs><g joint-selector="layers"  transform="matrix(1,0,0,1,0,0)"><g ></g><g ><!--z-index:1--><!--z-index:2--><!--z-index:3--><!--z-index:4--><!--z-index:5--><!--z-index:6--><!--z-index:7--><!--z-index:8--><!--z-index:9--><!--z-index:10--><!--z-index:11--><!--z-index:12--><!--z-index:13--><!--z-index:14--><!--z-index:15--><!--z-index:16--><!--z-index:17--><!--z-index:18--><!--z-index:19--><!--z-index:20--><!--z-index:21--><g   id="j_2"  transform="translate(20,1974.6)"><g id="v-5"><text  id="v-6" font-size="22px" xml:space="preserve" y="0.8em" font-weight="normal" text-anchor="start" fill="#aaaaaa" pointer-events="none" display="block" font-family="Open Sans"><tspan dy="0"  display="block">Tuesday, August 13, 2024 at 8:51 AM Eastern Daylight Time</tspan></text></g></g><!--z-index:22--><g   id="j_1"  transform="translate(20,1931.3999999999999)"><g id="v-3"><text  id="v-4" font-size="36px" xml:space="preserve" y="0.8em" font-weight="normal" text-anchor="start" fill="#000000" pointer-events="none" display="block" font-family="Open Sans"><tspan dy="0"  display="block">[Container] Document Management System</tspan></text></g></g><!--z-index:23--><g   id="j_4"  transform="translate(199,200)" style=""><g id="v-17"><rect  id="v-18" width="4240" height="1611" rx="0" ry="0" fill="#ffffff" stroke="#0f5eaa" stroke-width="1" stroke-dasharray="20,20" pointer-events="none"></rect><text  id="v-19" font-size="24px" xml:space="preserve" y="1572" font-weight="normal" fill="#0f5eaa" text-anchor="start" pointer-events="visible" font-family="Open Sans" transform="matrix(1,0,0,1,15,0)"><tspan dy="0" >Document Management System</tspan></text><text  id="v-20" font-size="17px" xml:space="preserve" y="1596" font-weight="normal" fill="#0f5eaa" text-anchor="start" pointer-events="visible" font-family="Open Sans" transform="matrix(1,0,0,1,15,0)"><tspan dy="0" >[Software System]</tspan></text><image  id="v-21" pointer-events="visible"></image></g></g><!--z-index:24--><g   id="j_3"  transform="translate(969,820)" style=""><g  id="v-10" style="opacity: 1;"><rect  id="v-11" rx="20" ry="20" stroke="#3c7fc0" stroke-width="2" pointer-events="visiblePainted" fill="#438dd5" width="450" height="300" style="fill: rgb(67, 141, 213); stroke: rgb(60, 127, 192);"></rect><text  id="v-12" font-size="34" xml:space="preserve" y="0.8em" font-weight="bold" text-anchor="middle" pointer-events="visible" font-family="Open Sans" fill="#ffffff" transform="matrix(1,0,0,1,225,73.7)" style="fill: rgb(255, 255, 255);"><tspan dy="0" >API Gateway</tspan></text><text  id="v-13" font-size="17" xml:space="preserve" y="0.8em" text-anchor="middle" font-family="Open Sans" fill="#ffffff" transform="matrix(1,0,0,1,225,114.5)" style="fill: rgb(255, 255, 255);"><tspan dy="0" >[Container: AWS API Gateway]</tspan></text><text  id="v-14" font-size="24" xml:space="preserve" y="0.8em" text-anchor="middle" font-family="Open Sans" fill="#ffffff" transform="matrix(1,0,0,1,225,144.9)" style="fill: rgb(255, 255, 255);"><tspan dy="0" >Handles incoming API requests and</tspan><tspan dy="1.2em" x="0" >routes them to the appropriate</tspan><tspan dy="1.2em" x="0" >services.</tspan></text><g  id="v-15" color="#ffffff" transform="matrix(1,0,0,1,222.5,268)" display="none" style="fill: rgb(255, 255, 255);"><g ></g><g ></g><g ></g><g ></g></g><image  id="v-16"></image></g></g><!--z-index:25--><g   id="j_5"  transform="translate(3219,1420)" style=""><g  id="v-28" style="opacity: 1;"><rect  id="v-29" rx="20" ry="20" stroke="#3c7fc0" stroke-width="2" pointer-events="visiblePainted" fill="#438dd5" width="450" height="300" style="fill: rgb(67, 141, 213); stroke: rgb(60, 127, 192);"></rect><text  id="v-30" font-size="34" xml:space="preserve" y="0.8em" font-weight="bold" text-anchor="middle" pointer-events="visible" font-family="Open Sans" fill="#ffffff" transform="matrix(1,0,0,1,225,88.1)" style="fill: rgb(255, 255, 255);"><tspan dy="0" >Document Storage</tspan></text><text  id="v-31" font-size="17" xml:space="preserve" y="0.8em" text-anchor="middle" font-family="Open Sans" fill="#ffffff" transform="matrix(1,0,0,1,225,128.9)" style="fill: rgb(255, 255, 255);"><tspan dy="0" >[Container: AWS S3]</tspan></text><text  id="v-32" font-size="24" xml:space="preserve" y="0.8em" text-anchor="middle" font-family="Open Sans" fill="#ffffff" transform="matrix(1,0,0,1,225,159.3)" style="fill: rgb(255, 255, 255);"><tspan dy="0" >Stores and manages document files</tspan><tspan dy="1.2em" x="0" >securely.</tspan></text><g  id="v-33" color="#ffffff" transform="matrix(1,0,0,1,222.5,268)" display="none" style="fill: rgb(255, 255, 255);"><g ></g><g ></g><g ></g><g ></g></g><image  id="v-34"></image></g></g><!--z-index:26--><g   id="j_6"  transform="translate(3219,820)" style=""><g  id="v-41" style="opacity: 1;"><rect  id="v-42" rx="20" ry="20" stroke="#3c7fc0" stroke-width="2" pointer-events="visiblePainted" fill="#438dd5" width="450" height="300" style="fill: rgb(67, 141, 213); stroke: rgb(60, 127, 192);"></rect><text  id="v-43" font-size="34" xml:space="preserve" y="0.8em" font-weight="bold" text-anchor="middle" pointer-events="visible" font-family="Open Sans" fill="#ffffff" transform="matrix(1,0,0,1,225,73.7)" style="fill: rgb(255, 255, 255);"><tspan dy="0" >Metadata Database</tspan></text><text  id="v-44" font-size="17" xml:space="preserve" y="0.8em" text-anchor="middle" font-family="Open Sans" fill="#ffffff" transform="matrix(1,0,0,1,225,114.5)" style="fill: rgb(255, 255, 255);"><tspan dy="0" >[Container: AWS DynamoDB]</tspan></text><text  id="v-45" font-size="24" xml:space="preserve" y="0.8em" text-anchor="middle" font-family="Open Sans" fill="#ffffff" transform="matrix(1,0,0,1,225,144.9)" style="fill: rgb(255, 255, 255);"><tspan dy="0" >Stores metadata associated with</tspan><tspan dy="1.2em" x="0" >each document for easy retrieval</tspan><tspan dy="1.2em" x="0" >and management.</tspan></text><g  id="v-46" color="#ffffff" transform="matrix(1,0,0,1,222.5,268)" display="none" style="fill: rgb(255, 255, 255);"><g ></g><g ></g><g ></g><g ></g></g><image  id="v-47"></image></g></g><!--z-index:27--><g   id="j_7"  transform="translate(1719,820)" style=""><g  id="v-51" style="opacity: 1;"><rect  id="v-52" rx="20" ry="20" stroke="#3c7fc0" stroke-width="2" pointer-events="visiblePainted" fill="#438dd5" width="450" height="300" style="fill: rgb(67, 141, 213); stroke: rgb(60, 127, 192);"></rect><text  id="v-53" font-size="34" xml:space="preserve" y="0.8em" font-weight="bold" text-anchor="middle" pointer-events="visible" font-family="Open Sans" fill="#ffffff" transform="matrix(1,0,0,1,225,88.1)" style="fill: rgb(255, 255, 255);"><tspan dy="0" >Step Functions</tspan></text><text  id="v-54" font-size="17" xml:space="preserve" y="0.8em" text-anchor="middle" font-family="Open Sans" fill="#ffffff" transform="matrix(1,0,0,1,225,128.9)" style="fill: rgb(255, 255, 255);"><tspan dy="0" >[Container: AWS Step Functions]</tspan></text><text  id="v-55" font-size="24" xml:space="preserve" y="0.8em" text-anchor="middle" font-family="Open Sans" fill="#ffffff" transform="matrix(1,0,0,1,225,159.3)" style="fill: rgb(255, 255, 255);"><tspan dy="0" >Orchestrates complex workflows for</tspan><tspan dy="1.2em" x="0" >document processing.</tspan></text><g  id="v-56" color="#ffffff" transform="matrix(1,0,0,1,222.5,268)" display="none" style="fill: rgb(255, 255, 255);"><g ></g><g ></g><g ></g><g ></g></g><image  id="v-57"></image></g></g><!--z-index:28--><g   id="j_8"  transform="translate(2469,820)" style=""><g  id="v-64" style="opacity: 1;"><rect  id="v-65" rx="20" ry="20" stroke="#3c7fc0" stroke-width="2" pointer-events="visiblePainted" fill="#438dd5" width="450" height="300" style="fill: rgb(67, 141, 213); stroke: rgb(60, 127, 192);"></rect><text  id="v-66" font-size="34" xml:space="preserve" y="0.8em" font-weight="bold" text-anchor="middle" pointer-events="visible" font-family="Open Sans" fill="#ffffff" transform="matrix(1,0,0,1,225,88.1)" style="fill: rgb(255, 255, 255);"><tspan dy="0" >Lambda Functions</tspan></text><text  id="v-67" font-size="17" xml:space="preserve" y="0.8em" text-anchor="middle" font-family="Open Sans" fill="#ffffff" transform="matrix(1,0,0,1,225,128.9)" style="fill: rgb(255, 255, 255);"><tspan dy="0" >[Container: AWS Lambda]</tspan></text><text  id="v-68" font-size="24" xml:space="preserve" y="0.8em" text-anchor="middle" font-family="Open Sans" fill="#ffffff" transform="matrix(1,0,0,1,225,159.3)" style="fill: rgb(255, 255, 255);"><tspan dy="0" >Executes serverless functions for</tspan><tspan dy="1.2em" x="0" >document processing tasks.</tspan></text><g  id="v-69" color="#ffffff" transform="matrix(1,0,0,1,222.5,268)" display="none" style="fill: rgb(255, 255, 255);"><g ></g><g ></g><g ></g><g ></g></g><image  id="v-70"></image></g></g><!--z-index:29--><g   id="j_9"  transform="translate(3219,220)" style=""><g  id="v-74" style="opacity: 1;"><rect  id="v-75" rx="20" ry="20" stroke="#3c7fc0" stroke-width="2" pointer-events="visiblePainted" fill="#438dd5" width="450" height="300" style="fill: rgb(67, 141, 213); stroke: rgb(60, 127, 192);"></rect><text  id="v-76" font-size="34" xml:space="preserve" y="0.8em" font-weight="bold" text-anchor="middle" pointer-events="visible" font-family="Open Sans" fill="#ffffff" transform="matrix(1,0,0,1,225,88.1)" style="fill: rgb(255, 255, 255);"><tspan dy="0" >CloudWatch</tspan></text><text  id="v-77" font-size="17" xml:space="preserve" y="0.8em" text-anchor="middle" font-family="Open Sans" fill="#ffffff" transform="matrix(1,0,0,1,225,128.9)" style="fill: rgb(255, 255, 255);"><tspan dy="0" >[Container: AWS CloudWatch]</tspan></text><text  id="v-78" font-size="24" xml:space="preserve" y="0.8em" text-anchor="middle" font-family="Open Sans" fill="#ffffff" transform="matrix(1,0,0,1,225,159.3)" style="fill: rgb(255, 255, 255);"><tspan dy="0" >Monitors and logs events within the</tspan><tspan dy="1.2em" x="0" >system.</tspan></text><g  id="v-79" color="#ffffff" transform="matrix(1,0,0,1,222.5,268)" display="none" style="fill: rgb(255, 255, 255);"><g ></g><g ></g><g ></g><g ></g></g><image  id="v-80"></image></g></g><!--z-index:30--><g   id="j_10"  transform="translate(3969,1120)" style=""><g  id="v-87" style="opacity: 1;"><rect  id="v-88" rx="20" ry="20" stroke="#3c7fc0" stroke-width="2" pointer-events="visiblePainted" fill="#438dd5" width="450" height="300" style="fill: rgb(67, 141, 213); stroke: rgb(60, 127, 192);"></rect><text  id="v-89" font-size="34" xml:space="preserve" y="0.8em" font-weight="bold" text-anchor="middle" pointer-events="visible" font-family="Open Sans" fill="#ffffff" transform="matrix(1,0,0,1,225,67.7)" style="fill: rgb(255, 255, 255);"><tspan dy="0" >KMS (Key Management</tspan><tspan dy="1.2em" x="0" >Service)</tspan></text><text  id="v-90" font-size="17" xml:space="preserve" y="0.8em" text-anchor="middle" font-family="Open Sans" fill="#ffffff" transform="matrix(1,0,0,1,225,149.3)" style="fill: rgb(255, 255, 255);"><tspan dy="0" >[Container: AWS KMS]</tspan></text><text  id="v-91" font-size="24" xml:space="preserve" y="0.8em" text-anchor="middle" font-family="Open Sans" fill="#ffffff" transform="matrix(1,0,0,1,225,179.7)" style="fill: rgb(255, 255, 255);"><tspan dy="0" >Handles encryption keys for</tspan><tspan dy="1.2em" x="0" >securing document data.</tspan></text><g  id="v-92" color="#ffffff" transform="matrix(1,0,0,1,222.5,268)" display="none" style="fill: rgb(255, 255, 255);"><g ></g><g ></g><g ></g><g ></g></g><image  id="v-93"></image></g></g><!--z-index:31--><g   id="j_11"  transform="translate(219,820)" style=""><g  id="v-97" style="opacity: 1;"><rect  id="v-98" rx="20" ry="20" stroke="#3c7fc0" stroke-width="2" pointer-events="visiblePainted" fill="#438dd5" width="450" height="300" style="fill: rgb(67, 141, 213); stroke: rgb(60, 127, 192);"></rect><text  id="v-99" font-size="34" xml:space="preserve" y="0.8em" font-weight="bold" text-anchor="middle" pointer-events="visible" font-family="Open Sans" fill="#ffffff" transform="matrix(1,0,0,1,225,88.1)" style="fill: rgb(255, 255, 255);"><tspan dy="0" >Cognito</tspan></text><text  id="v-100" font-size="17" xml:space="preserve" y="0.8em" text-anchor="middle" font-family="Open Sans" fill="#ffffff" transform="matrix(1,0,0,1,225,128.9)" style="fill: rgb(255, 255, 255);"><tspan dy="0" >[Container: AWS Cognito]</tspan></text><text  id="v-101" font-size="24" xml:space="preserve" y="0.8em" text-anchor="middle" font-family="Open Sans" fill="#ffffff" transform="matrix(1,0,0,1,225,159.3)" style="fill: rgb(255, 255, 255);"><tspan dy="0" >Manages user authentication and</tspan><tspan dy="1.2em" x="0" >access control.</tspan></text><g  id="v-102" color="#ffffff" transform="matrix(1,0,0,1,222.5,268)" display="none" style="fill: rgb(255, 255, 255);"><g ></g><g ></g><g ></g><g ></g></g><image  id="v-103"></image></g></g><!--z-index:32--><g   id="j_12" ><path  stroke="#707070" d="M 1419 970 L 1719 970" id="v-116" stroke-width="2" stroke-dasharray="30 30" fill="none" style="opacity: 1;"></path><path  fill="black" stroke="black" d="M 0 0 0 0" transform="matrix(1,0,0,1,1419,970)"></path><path  fill="#707070" stroke="#707070" d="M 20 0 L 0 10 L 20 20 z" id="v-118" transform="matrix(-1,1.2246467991473532e-16,-1.2246467991473532e-16,-1,1719.0000000000002,980.0000000000001)" style="opacity: 1;"></path><path  d="M 1419 970 L 1719 970" id="v-117" fill="none" style="cursor: auto; pointer-events: visiblepainted;"></path><g ><g id="v-110"  label-idx="0" cursor="move" transform="matrix(1,0,0,1,1569,970)" style="cursor: default; opacity: 1;"><rect joint-selector="rect" id="v-113" fill="#ffffff" rx="3" ry="3" pointer-events="none" width="181.2064208984375" height="62.274953842163086" transform="matrix(1,0,0,1,-90.6,-31.1)"></rect><text joint-selector="text" id="v-112" font-size="24px" xml:space="preserve" y="0.8em" fill="#707070" text-anchor="middle" pointer-events="none" font-family="Open Sans" font-weight="normal" transform="matrix(1,0,0,1,0,-24.3)"><tspan dy="0" >Routes requests</tspan><tspan dy="1.2em" x="0" >to</tspan></text></g><g id="v-111"  label-idx="1" cursor="move" transform="matrix(1,0,0,1,1559,1010.7999877929688)" style="cursor: default; opacity: 1;"><rect joint-selector="rect" id="v-115" fill="#ffffff" rx="3" ry="3"  width="0" height="0" transform="matrix(1,0,0,1,0,0)" display="none"></rect><text joint-selector="text" id="v-114" fill="#000000" font-size="14" text-anchor="middle" pointer-events="none"></text></g></g><g  display="none" style="display: none;"></g><g  id="v-120" display="none"><g  id="v-108"><path  end="source" d="M 26 0 L 0 13 L 26 26 z"></path></g><g  id="v-109"><path  end="target" d="M 26 0 L 0 13 L 26 26 z"></path></g></g><g  id="v-119" display="none"><g  id="v-107" transform="translate(1459, 970.0000000000001) "><g  event="remove"><circle r="11"></circle><path transform="scale(.8) translate(-16, -16)" d="M24.778,21.419 19.276,15.917 24.777,10.415 21.949,7.585 16.447,13.087 10.945,7.585 8.117,10.415 13.618,15.917 8.116,21.419 10.946,24.248 16.447,18.746 21.948,24.248z"></path><title>Remove link.</title></g><g  event="link:options"><circle r="11" transform="translate(25)"></circle><path fill="white" transform="scale(.55) translate(29, -16)" d="M31.229,17.736c0.064-0.571,0.104-1.148,0.104-1.736s-0.04-1.166-0.104-1.737l-4.377-1.557c-0.218-0.716-0.504-1.401-0.851-2.05l1.993-4.192c-0.725-0.91-1.549-1.734-2.458-2.459l-4.193,1.994c-0.647-0.347-1.334-0.632-2.049-0.849l-1.558-4.378C17.165,0.708,16.588,0.667,16,0.667s-1.166,0.041-1.737,0.105L12.707,5.15c-0.716,0.217-1.401,0.502-2.05,0.849L6.464,4.005C5.554,4.73,4.73,5.554,4.005,6.464l1.994,4.192c-0.347,0.648-0.632,1.334-0.849,2.05l-4.378,1.557C0.708,14.834,0.667,15.412,0.667,16s0.041,1.165,0.105,1.736l4.378,1.558c0.217,0.715,0.502,1.401,0.849,2.049l-1.994,4.193c0.725,0.909,1.549,1.733,2.459,2.458l4.192-1.993c0.648,0.347,1.334,0.633,2.05,0.851l1.557,4.377c0.571,0.064,1.148,0.104,1.737,0.104c0.588,0,1.165-0.04,1.736-0.104l1.558-4.377c0.715-0.218,1.399-0.504,2.049-0.851l4.193,1.993c0.909-0.725,1.733-1.549,2.458-2.458l-1.993-4.193c0.347-0.647,0.633-1.334,0.851-2.049L31.229,17.736zM16,20.871c-2.69,0-4.872-2.182-4.872-4.871c0-2.69,2.182-4.872,4.872-4.872c2.689,0,4.871,2.182,4.871,4.872C20.871,18.689,18.689,20.871,16,20.871z"></path><title>Link options.</title></g></g></g></g><!--z-index:33--><g   id="j_13" ><path  stroke="#707070" d="M 2169 970 L 2469 970" id="v-133" stroke-width="2" stroke-dasharray="30 30" fill="none" style="opacity: 1;"></path><path  fill="black" stroke="black" d="M 0 0 0 0" transform="matrix(1,0,0,1,2169,970)"></path><path  fill="#707070" stroke="#707070" d="M 20 0 L 0 10 L 20 20 z" id="v-135" transform="matrix(-1,1.2246467991473532e-16,-1.2246467991473532e-16,-1,2469,980.0000000000001)" style="opacity: 1;"></path><path  d="M 2169 970 L 2469 970" id="v-134" fill="none" style="cursor: auto; pointer-events: visiblepainted;"></path><g ><g id="v-127"  label-idx="0" cursor="move" transform="matrix(1,0,0,1,2319,970)" style="cursor: default; opacity: 1;"><rect joint-selector="rect" id="v-130" fill="#ffffff" rx="3" ry="3" pointer-events="none" width="123.90381622314453" height="62.274953842163086" transform="matrix(1,0,0,1,-62,-31.1)"></rect><text joint-selector="text" id="v-129" font-size="24px" xml:space="preserve" y="0.8em" fill="#707070" text-anchor="middle" pointer-events="none" font-family="Open Sans" font-weight="normal" transform="matrix(1,0,0,1,0,-24.3)"><tspan dy="0" >Invokes for</tspan><tspan dy="1.2em" x="0" >processing</tspan></text></g><g id="v-128"  label-idx="1" cursor="move" transform="matrix(1,0,0,1,2309,1010.7999877929688)" style="cursor: default; opacity: 1;"><rect joint-selector="rect" id="v-132" fill="#ffffff" rx="3" ry="3"  width="0" height="0" transform="matrix(1,0,0,1,0,0)" display="none"></rect><text joint-selector="text" id="v-131" fill="#000000" font-size="14" text-anchor="middle" pointer-events="none"></text></g></g><g  display="none" style="display: none;"></g><g  id="v-137" display="none"><g  id="v-125"><path  end="source" d="M 26 0 L 0 13 L 26 26 z"></path></g><g  id="v-126"><path  end="target" d="M 26 0 L 0 13 L 26 26 z"></path></g></g><g  id="v-136" display="none"><g  id="v-124" transform="translate(2209, 970.0000000000001) "><g  event="remove"><circle r="11"></circle><path transform="scale(.8) translate(-16, -16)" d="M24.778,21.419 19.276,15.917 24.777,10.415 21.949,7.585 16.447,13.087 10.945,7.585 8.117,10.415 13.618,15.917 8.116,21.419 10.946,24.248 16.447,18.746 21.948,24.248z"></path><title>Remove link.</title></g><g  event="link:options"><circle r="11" transform="translate(25)"></circle><path fill="white" transform="scale(.55) translate(29, -16)" d="M31.229,17.736c0.064-0.571,0.104-1.148,0.104-1.736s-0.04-1.166-0.104-1.737l-4.377-1.557c-0.218-0.716-0.504-1.401-0.851-2.05l1.993-4.192c-0.725-0.91-1.549-1.734-2.458-2.459l-4.193,1.994c-0.647-0.347-1.334-0.632-2.049-0.849l-1.558-4.378C17.165,0.708,16.588,0.667,16,0.667s-1.166,0.041-1.737,0.105L12.707,5.15c-0.716,0.217-1.401,0.502-2.05,0.849L6.464,4.005C5.554,4.73,4.73,5.554,4.005,6.464l1.994,4.192c-0.347,0.648-0.632,1.334-0.849,2.05l-4.378,1.557C0.708,14.834,0.667,15.412,0.667,16s0.041,1.165,0.105,1.736l4.378,1.558c0.217,0.715,0.502,1.401,0.849,2.049l-1.994,4.193c0.725,0.909,1.549,1.733,2.459,2.458l4.192-1.993c0.648,0.347,1.334,0.633,2.05,0.851l1.557,4.377c0.571,0.064,1.148,0.104,1.737,0.104c0.588,0,1.165-0.04,1.736-0.104l1.558-4.377c0.715-0.218,1.399-0.504,2.049-0.851l4.193,1.993c0.909-0.725,1.733-1.549,2.458-2.458l-1.993-4.193c0.347-0.647,0.633-1.334,0.851-2.049L31.229,17.736zM16,20.871c-2.69,0-4.872-2.182-4.872-4.871c0-2.69,2.182-4.872,4.872-4.872c2.689,0,4.871,2.182,4.871,4.872C20.871,18.689,18.689,20.871,16,20.871z"></path><title>Link options.</title></g></g></g></g><!--z-index:34--><g   id="j_14" ><path  stroke="#707070" d="M 2882 1120 L 3257 1420" id="v-150" stroke-width="2" stroke-dasharray="30 30" fill="none" style="opacity: 1;"></path><path  fill="black" stroke="black" d="M 0 0 0 0" transform="matrix(0.7808688000832672,0.624695059254128,-0.624695059254128,0.7808688000832672,2881.5,1120)"></path><path  fill="#707070" stroke="#707070" d="M 20 0 L 0 10 L 20 20 z" id="v-152" transform="matrix(-0.7808688416748548,-0.6246950072646416,0.6246950072646416,-0.7808688416748548,3250.253144594102,1427.8086902472076)" style="opacity: 1;"></path><path  d="M 2882 1120 L 3257 1420" id="v-151" fill="none" style="cursor: auto; pointer-events: visiblepainted;"></path><g ><g id="v-144"  label-idx="0" cursor="move" transform="matrix(1,0,0,1,3069.5,1270)" style="cursor: default; opacity: 1;"><rect joint-selector="rect" id="v-147" fill="#ffffff" rx="3" ry="3" pointer-events="none" width="182.71743774414062" height="62.274953842163086" transform="matrix(1,0,0,1,-91.4,-31.1)"></rect><text joint-selector="text" id="v-146" font-size="24px" xml:space="preserve" y="0.8em" fill="#707070" text-anchor="middle" pointer-events="none" font-family="Open Sans" font-weight="normal" transform="matrix(1,0,0,1,0,-24.3)"><tspan dy="0" >Stores/Retrieves</tspan><tspan dy="1.2em" x="0" >Documents</tspan></text></g><g id="v-145"  label-idx="1" cursor="move" transform="matrix(1,0,0,1,3059.5,1310.800048828125)" style="cursor: default; opacity: 1;"><rect joint-selector="rect" id="v-149" fill="#ffffff" rx="3" ry="3"  width="0" height="0" transform="matrix(1,0,0,1,0,0)" display="none"></rect><text joint-selector="text" id="v-148" fill="#000000" font-size="14" text-anchor="middle" pointer-events="none"></text></g></g><g  display="none" style="display: none;"></g><g  id="v-154" display="none"><g  id="v-142"><path  end="source" d="M 26 0 L 0 13 L 26 26 z"></path></g><g  id="v-143"><path  end="target" d="M 26 0 L 0 13 L 26 26 z"></path></g></g><g  id="v-153" display="none"><g  id="v-141" transform="translate(2913.234752377721, 1144.987801902177) "><g  event="remove"><circle r="11"></circle><path transform="scale(.8) translate(-16, -16)" d="M24.778,21.419 19.276,15.917 24.777,10.415 21.949,7.585 16.447,13.087 10.945,7.585 8.117,10.415 13.618,15.917 8.116,21.419 10.946,24.248 16.447,18.746 21.948,24.248z"></path><title>Remove link.</title></g><g  event="link:options"><circle r="11" transform="translate(25)"></circle><path fill="white" transform="scale(.55) translate(29, -16)" d="M31.229,17.736c0.064-0.571,0.104-1.148,0.104-1.736s-0.04-1.166-0.104-1.737l-4.377-1.557c-0.218-0.716-0.504-1.401-0.851-2.05l1.993-4.192c-0.725-0.91-1.549-1.734-2.458-2.459l-4.193,1.994c-0.647-0.347-1.334-0.632-2.049-0.849l-1.558-4.378C17.165,0.708,16.588,0.667,16,0.667s-1.166,0.041-1.737,0.105L12.707,5.15c-0.716,0.217-1.401,0.502-2.05,0.849L6.464,4.005C5.554,4.73,4.73,5.554,4.005,6.464l1.994,4.192c-0.347,0.648-0.632,1.334-0.849,2.05l-4.378,1.557C0.708,14.834,0.667,15.412,0.667,16s0.041,1.165,0.105,1.736l4.378,1.558c0.217,0.715,0.502,1.401,0.849,2.049l-1.994,4.193c0.725,0.909,1.549,1.733,2.459,2.458l4.192-1.993c0.648,0.347,1.334,0.633,2.05,0.851l1.557,4.377c0.571,0.064,1.148,0.104,1.737,0.104c0.588,0,1.165-0.04,1.736-0.104l1.558-4.377c0.715-0.218,1.399-0.504,2.049-0.851l4.193,1.993c0.909-0.725,1.733-1.549,2.458-2.458l-1.993-4.193c0.347-0.647,0.633-1.334,0.851-2.049L31.229,17.736zM16,20.871c-2.69,0-4.872-2.182-4.872-4.871c0-2.69,2.182-4.872,4.872-4.872c2.689,0,4.871,2.182,4.871,4.872C20.871,18.689,18.689,20.871,16,20.871z"></path><title>Link options.</title></g></g></g></g><!--z-index:35--><g   id="j_15" ><path  stroke="#707070" d="M 2919 970 L 3219 970" id="v-167" stroke-width="2" stroke-dasharray="30 30" fill="none" style="opacity: 1;"></path><path  fill="black" stroke="black" d="M 0 0 0 0" transform="matrix(1,0,0,1,2919,970)"></path><path  fill="#707070" stroke="#707070" d="M 20 0 L 0 10 L 20 20 z" id="v-169" transform="matrix(-1,1.2246467991473532e-16,-1.2246467991473532e-16,-1,3219,980.0000000000001)" style="opacity: 1;"></path><path  d="M 2919 970 L 3219 970" id="v-168" fill="none" style="cursor: auto; pointer-events: visiblepainted;"></path><g ><g id="v-161"  label-idx="0" cursor="move" transform="matrix(1,0,0,1,3069,970)" style="cursor: default; opacity: 1;"><rect joint-selector="rect" id="v-164" fill="#ffffff" rx="3" ry="3" pointer-events="none" width="182.71743774414062" height="62.274953842163086" transform="matrix(1,0,0,1,-91.4,-31.1)"></rect><text joint-selector="text" id="v-163" font-size="24px" xml:space="preserve" y="0.8em" fill="#707070" text-anchor="middle" pointer-events="none" font-family="Open Sans" font-weight="normal" transform="matrix(1,0,0,1,0,-24.3)"><tspan dy="0" >Stores/Retrieves</tspan><tspan dy="1.2em" x="0" >Metadata</tspan></text></g><g id="v-162"  label-idx="1" cursor="move" transform="matrix(1,0,0,1,3059,1010.7999877929688)" style="cursor: default; opacity: 1;"><rect joint-selector="rect" id="v-166" fill="#ffffff" rx="3" ry="3"  width="0" height="0" transform="matrix(1,0,0,1,0,0)" display="none"></rect><text joint-selector="text" id="v-165" fill="#000000" font-size="14" text-anchor="middle" pointer-events="none"></text></g></g><g  display="none" style="display: none;"></g><g  id="v-171" display="none"><g  id="v-159"><path  end="source" d="M 26 0 L 0 13 L 26 26 z"></path></g><g  id="v-160"><path  end="target" d="M 26 0 L 0 13 L 26 26 z"></path></g></g><g  id="v-170" display="none"><g  id="v-158" transform="translate(2959, 970.0000000000001) "><g  event="remove"><circle r="11"></circle><path transform="scale(.8) translate(-16, -16)" d="M24.778,21.419 19.276,15.917 24.777,10.415 21.949,7.585 16.447,13.087 10.945,7.585 8.117,10.415 13.618,15.917 8.116,21.419 10.946,24.248 16.447,18.746 21.948,24.248z"></path><title>Remove link.</title></g><g  event="link:options"><circle r="11" transform="translate(25)"></circle><path fill="white" transform="scale(.55) translate(29, -16)" d="M31.229,17.736c0.064-0.571,0.104-1.148,0.104-1.736s-0.04-1.166-0.104-1.737l-4.377-1.557c-0.218-0.716-0.504-1.401-0.851-2.05l1.993-4.192c-0.725-0.91-1.549-1.734-2.458-2.459l-4.193,1.994c-0.647-0.347-1.334-0.632-2.049-0.849l-1.558-4.378C17.165,0.708,16.588,0.667,16,0.667s-1.166,0.041-1.737,0.105L12.707,5.15c-0.716,0.217-1.401,0.502-2.05,0.849L6.464,4.005C5.554,4.73,4.73,5.554,4.005,6.464l1.994,4.192c-0.347,0.648-0.632,1.334-0.849,2.05l-4.378,1.557C0.708,14.834,0.667,15.412,0.667,16s0.041,1.165,0.105,1.736l4.378,1.558c0.217,0.715,0.502,1.401,0.849,2.049l-1.994,4.193c0.725,0.909,1.549,1.733,2.459,2.458l4.192-1.993c0.648,0.347,1.334,0.633,2.05,0.851l1.557,4.377c0.571,0.064,1.148,0.104,1.737,0.104c0.588,0,1.165-0.04,1.736-0.104l1.558-4.377c0.715-0.218,1.399-0.504,2.049-0.851l4.193,1.993c0.909-0.725,1.733-1.549,2.458-2.458l-1.993-4.193c0.347-0.647,0.633-1.334,0.851-2.049L31.229,17.736zM16,20.871c-2.69,0-4.872-2.182-4.872-4.871c0-2.69,2.182-4.872,4.872-4.872c2.689,0,4.871,2.182,4.871,4.872C20.871,18.689,18.689,20.871,16,20.871z"></path><title>Link options.</title></g></g></g></g><!--z-index:36--><g   id="j_16" ><path  stroke="#707070" d="M 2882 820 L 3257 520" id="v-181" stroke-width="2" stroke-dasharray="30 30" fill="none" style="opacity: 1;"></path><path  fill="black" stroke="black" d="M 0 0 0 0" transform="matrix(0.7808686753084834,-0.6246952152225711,0.6246952152225711,0.7808686753084834,2881.5,820)"></path><path  fill="#707070" stroke="#707070" d="M 20 0 L 0 10 L 20 20 z" id="v-183" transform="matrix(-0.7808688416748546,0.6246950072646418,-0.6246950072646418,-0.7808688416748546,3262.7470447393953,527.8086865862897)" style="opacity: 1;"></path><path  d="M 2882 820 L 3257 520" id="v-182" fill="none" style="cursor: auto; pointer-events: visiblepainted;"></path><g ><g id="v-175"  label-idx="0" cursor="move" transform="matrix(1,0,0,1,3069.5,670)" style="cursor: default; opacity: 1;"><rect joint-selector="rect" id="v-178" fill="#ffffff" rx="3" ry="3" pointer-events="none" width="126.4028091430664" height="33.474952697753906" transform="matrix(1,0,0,1,-63.2,-16.7)"></rect><text joint-selector="text" id="v-177" font-size="24px" xml:space="preserve" y="0.8em" fill="#707070" text-anchor="middle" pointer-events="none" font-family="Open Sans" font-weight="normal" transform="matrix(1,0,0,1,0,-9.9)"><tspan dy="0" >Logs errors</tspan></text></g><g id="v-176"  label-idx="1" cursor="move" transform="matrix(1,0,0,1,3059.5,696.4000244140625)" style="cursor: default; opacity: 1;"><rect joint-selector="rect" id="v-180" fill="#ffffff" rx="3" ry="3"  width="0" height="0" transform="matrix(1,0,0,1,0,0)" display="none"></rect><text joint-selector="text" id="v-179" fill="#000000" font-size="14" text-anchor="middle" pointer-events="none"></text></g></g><g  display="none" style="display: none;"></g><g  id="v-185" display="none"><g  id="v-173"><path  end="source" d="M 26 0 L 0 13 L 26 26 z"></path></g><g  id="v-174"><path  end="target" d="M 26 0 L 0 13 L 26 26 z"></path></g></g><g  id="v-184" display="none"><g  id="v-172" transform="translate(2913.234752377721, 795.0121980978231) "><g  event="remove"><circle r="11"></circle><path transform="scale(.8) translate(-16, -16)" d="M24.778,21.419 19.276,15.917 24.777,10.415 21.949,7.585 16.447,13.087 10.945,7.585 8.117,10.415 13.618,15.917 8.116,21.419 10.946,24.248 16.447,18.746 21.948,24.248z"></path><title>Remove link.</title></g><g  event="link:options"><circle r="11" transform="translate(25)"></circle><path fill="white" transform="scale(.55) translate(29, -16)" d="M31.229,17.736c0.064-0.571,0.104-1.148,0.104-1.736s-0.04-1.166-0.104-1.737l-4.377-1.557c-0.218-0.716-0.504-1.401-0.851-2.05l1.993-4.192c-0.725-0.91-1.549-1.734-2.458-2.459l-4.193,1.994c-0.647-0.347-1.334-0.632-2.049-0.849l-1.558-4.378C17.165,0.708,16.588,0.667,16,0.667s-1.166,0.041-1.737,0.105L12.707,5.15c-0.716,0.217-1.401,0.502-2.05,0.849L6.464,4.005C5.554,4.73,4.73,5.554,4.005,6.464l1.994,4.192c-0.347,0.648-0.632,1.334-0.849,2.05l-4.378,1.557C0.708,14.834,0.667,15.412,0.667,16s0.041,1.165,0.105,1.736l4.378,1.558c0.217,0.715,0.502,1.401,0.849,2.049l-1.994,4.193c0.725,0.909,1.549,1.733,2.459,2.458l4.192-1.993c0.648,0.347,1.334,0.633,2.05,0.851l1.557,4.377c0.571,0.064,1.148,0.104,1.737,0.104c0.588,0,1.165-0.04,1.736-0.104l1.558-4.377c0.715-0.218,1.399-0.504,2.049-0.851l4.193,1.993c0.909-0.725,1.733-1.549,2.458-2.458l-1.993-4.193c0.347-0.647,0.633-1.334,0.851-2.049L31.229,17.736zM16,20.871c-2.69,0-4.872-2.182-4.872-4.871c0-2.69,2.182-4.872,4.872-4.872c2.689,0,4.871,2.182,4.871,4.872C20.871,18.689,18.689,20.871,16,20.871z"></path><title>Link options.</title></g></g></g></g><!--z-index:37--><g   id="j_17" ><path  stroke="#707070" d="M 3669 1480 L 3969 1360" id="v-198" stroke-width="2" stroke-dasharray="30 30" fill="none" style="opacity: 1;"></path><path  fill="black" stroke="black" d="M 0 0 0 0" transform="matrix(0.9284766089996245,-0.3713908810681253,0.3713908810681253,0.9284766089996245,3669,1480)"></path><path  fill="#707070" stroke="#707070" d="M 20 0 L 0 10 L 20 20 z" id="v-200" transform="matrix(-0.928476707906966,0.37139063379983406,-0.37139063379983406,-0.928476707906966,3972.714005448318,1369.2847279285713)" style="opacity: 1;"></path><path  d="M 3669 1480 L 3969 1360" id="v-199" fill="none" style="cursor: auto; pointer-events: visiblepainted;"></path><g ><g id="v-192"  label-idx="0" cursor="move" transform="matrix(1,0,0,1,3819,1420)" style="cursor: default; opacity: 1;"><rect joint-selector="rect" id="v-195" fill="#ffffff" rx="3" ry="3" pointer-events="none" width="128.43687438964844" height="91.07494735717773" transform="matrix(1,0,0,1,-64.2,-45.5)"></rect><text joint-selector="text" id="v-194" font-size="24px" xml:space="preserve" y="0.8em" fill="#707070" text-anchor="middle" pointer-events="none" font-family="Open Sans" font-weight="normal" transform="matrix(1,0,0,1,0,-38.7)"><tspan dy="0" >Encrypts/</tspan><tspan dy="1.2em" x="0" >Decrypts</tspan><tspan dy="1.2em" x="0" >Documents</tspan></text></g><g id="v-193"  label-idx="1" cursor="move" transform="matrix(1,0,0,1,3809,1475.199951171875)" style="cursor: default; opacity: 1;"><rect joint-selector="rect" id="v-197" fill="#ffffff" rx="3" ry="3"  width="0" height="0" transform="matrix(1,0,0,1,0,0)" display="none"></rect><text joint-selector="text" id="v-196" fill="#000000" font-size="14" text-anchor="middle" pointer-events="none"></text></g></g><g  display="none" style="display: none;"></g><g  id="v-202" display="none"><g  id="v-190"><path  end="source" d="M 26 0 L 0 13 L 26 26 z"></path></g><g  id="v-191"><path  end="target" d="M 26 0 L 0 13 L 26 26 z"></path></g></g><g  id="v-201" display="none"><g  id="v-189" transform="translate(3706.1390676354104, 1465.1443729458358) "><g  event="remove"><circle r="11"></circle><path transform="scale(.8) translate(-16, -16)" d="M24.778,21.419 19.276,15.917 24.777,10.415 21.949,7.585 16.447,13.087 10.945,7.585 8.117,10.415 13.618,15.917 8.116,21.419 10.946,24.248 16.447,18.746 21.948,24.248z"></path><title>Remove link.</title></g><g  event="link:options"><circle r="11" transform="translate(25)"></circle><path fill="white" transform="scale(.55) translate(29, -16)" d="M31.229,17.736c0.064-0.571,0.104-1.148,0.104-1.736s-0.04-1.166-0.104-1.737l-4.377-1.557c-0.218-0.716-0.504-1.401-0.851-2.05l1.993-4.192c-0.725-0.91-1.549-1.734-2.458-2.459l-4.193,1.994c-0.647-0.347-1.334-0.632-2.049-0.849l-1.558-4.378C17.165,0.708,16.588,0.667,16,0.667s-1.166,0.041-1.737,0.105L12.707,5.15c-0.716,0.217-1.401,0.502-2.05,0.849L6.464,4.005C5.554,4.73,4.73,5.554,4.005,6.464l1.994,4.192c-0.347,0.648-0.632,1.334-0.849,2.05l-4.378,1.557C0.708,14.834,0.667,15.412,0.667,16s0.041,1.165,0.105,1.736l4.378,1.558c0.217,0.715,0.502,1.401,0.849,2.049l-1.994,4.193c0.725,0.909,1.549,1.733,2.459,2.458l4.192-1.993c0.648,0.347,1.334,0.633,2.05,0.851l1.557,4.377c0.571,0.064,1.148,0.104,1.737,0.104c0.588,0,1.165-0.04,1.736-0.104l1.558-4.377c0.715-0.218,1.399-0.504,2.049-0.851l4.193,1.993c0.909-0.725,1.733-1.549,2.458-2.458l-1.993-4.193c0.347-0.647,0.633-1.334,0.851-2.049L31.229,17.736zM16,20.871c-2.69,0-4.872-2.182-4.872-4.871c0-2.69,2.182-4.872,4.872-4.872c2.689,0,4.871,2.182,4.871,4.872C20.871,18.689,18.689,20.871,16,20.871z"></path><title>Link options.</title></g></g></g></g><!--z-index:38--><g   id="j_18" ><path  stroke="#707070" d="M 3669 1060 L 3969 1180" id="v-215" stroke-width="2" stroke-dasharray="30 30" fill="none" style="opacity: 1;"></path><path  fill="black" stroke="black" d="M 0 0 0 0" transform="matrix(0.9284766955435519,0.371390664708372,-0.371390664708372,0.9284766955435519,3669,1060)"></path><path  fill="#707070" stroke="#707070" d="M 20 0 L 0 10 L 20 20 z" id="v-217" transform="matrix(-0.928476707906966,-0.3713906337998342,0.3713906337998342,-0.928476707906966,3965.2861927723216,1189.2848062295682)" style="opacity: 1;"></path><path  d="M 3669 1060 L 3969 1180" id="v-216" fill="none" style="cursor: auto; pointer-events: visiblepainted;"></path><g ><g id="v-209"  label-idx="0" cursor="move" transform="matrix(1,0,0,1,3819,1120)" style="cursor: default; opacity: 1;"><rect joint-selector="rect" id="v-212" fill="#ffffff" rx="3" ry="3" pointer-events="none" width="177.2835693359375" height="62.274953842163086" transform="matrix(1,0,0,1,-88.6,-31.1)"></rect><text joint-selector="text" id="v-211" font-size="24px" xml:space="preserve" y="0.8em" fill="#707070" text-anchor="middle" pointer-events="none" font-family="Open Sans" font-weight="normal" transform="matrix(1,0,0,1,0,-24.3)"><tspan dy="0" >Encrypts/</tspan><tspan dy="1.2em" x="0" >Decrypts Tables</tspan></text></g><g id="v-210"  label-idx="1" cursor="move" transform="matrix(1,0,0,1,3809,1160.800048828125)" style="cursor: default; opacity: 1;"><rect joint-selector="rect" id="v-214" fill="#ffffff" rx="3" ry="3"  width="0" height="0" transform="matrix(1,0,0,1,0,0)" display="none"></rect><text joint-selector="text" id="v-213" fill="#000000" font-size="14" text-anchor="middle" pointer-events="none"></text></g></g><g  display="none" style="display: none;"></g><g  id="v-219" display="none"><g  id="v-207"><path  end="source" d="M 26 0 L 0 13 L 26 26 z"></path></g><g  id="v-208"><path  end="target" d="M 26 0 L 0 13 L 26 26 z"></path></g></g><g  id="v-218" display="none"><g  id="v-206" transform="translate(3706.1390676354104, 1074.8556270541642) "><g  event="remove"><circle r="11"></circle><path transform="scale(.8) translate(-16, -16)" d="M24.778,21.419 19.276,15.917 24.777,10.415 21.949,7.585 16.447,13.087 10.945,7.585 8.117,10.415 13.618,15.917 8.116,21.419 10.946,24.248 16.447,18.746 21.948,24.248z"></path><title>Remove link.</title></g><g  event="link:options"><circle r="11" transform="translate(25)"></circle><path fill="white" transform="scale(.55) translate(29, -16)" d="M31.229,17.736c0.064-0.571,0.104-1.148,0.104-1.736s-0.04-1.166-0.104-1.737l-4.377-1.557c-0.218-0.716-0.504-1.401-0.851-2.05l1.993-4.192c-0.725-0.91-1.549-1.734-2.458-2.459l-4.193,1.994c-0.647-0.347-1.334-0.632-2.049-0.849l-1.558-4.378C17.165,0.708,16.588,0.667,16,0.667s-1.166,0.041-1.737,0.105L12.707,5.15c-0.716,0.217-1.401,0.502-2.05,0.849L6.464,4.005C5.554,4.73,4.73,5.554,4.005,6.464l1.994,4.192c-0.347,0.648-0.632,1.334-0.849,2.05l-4.378,1.557C0.708,14.834,0.667,15.412,0.667,16s0.041,1.165,0.105,1.736l4.378,1.558c0.217,0.715,0.502,1.401,0.849,2.049l-1.994,4.193c0.725,0.909,1.549,1.733,2.459,2.458l4.192-1.993c0.648,0.347,1.334,0.633,2.05,0.851l1.557,4.377c0.571,0.064,1.148,0.104,1.737,0.104c0.588,0,1.165-0.04,1.736-0.104l1.558-4.377c0.715-0.218,1.399-0.504,2.049-0.851l4.193,1.993c0.909-0.725,1.733-1.549,2.458-2.458l-1.993-4.193c0.347-0.647,0.633-1.334,0.851-2.049L31.229,17.736zM16,20.871c-2.69,0-4.872-2.182-4.872-4.871c0-2.69,2.182-4.872,4.872-4.872c2.689,0,4.871,2.182,4.871,4.872C20.871,18.689,18.689,20.871,16,20.871z"></path><title>Link options.</title></g></g></g></g><!--z-index:39--><g   id="j_19" ><path  stroke="#707070" d="M 669 970 L 969 970" id="v-232" stroke-width="2" stroke-dasharray="30 30" fill="none" style="opacity: 1;"></path><path  fill="black" stroke="black" d="M 0 0 0 0" transform="matrix(1,0,0,1,669,970)"></path><path  fill="#707070" stroke="#707070" d="M 20 0 L 0 10 L 20 20 z" id="v-234" transform="matrix(-1,1.2246467991473532e-16,-1.2246467991473532e-16,-1,969.0000000000001,980.0000000000001)" style="opacity: 1;"></path><path  d="M 669 970 L 969 970" id="v-233" fill="none" style="cursor: auto; pointer-events: visiblepainted;"></path><g ><g id="v-226"  label-idx="0" cursor="move" transform="matrix(1,0,0,1,819,970)" style="cursor: default; opacity: 1;"><rect joint-selector="rect" id="v-229" fill="#ffffff" rx="3" ry="3" pointer-events="none" width="196.7525177001953" height="62.274953842163086" transform="matrix(1,0,0,1,-98.4,-31.1)"></rect><text joint-selector="text" id="v-228" font-size="24px" xml:space="preserve" y="0.8em" fill="#707070" text-anchor="middle" pointer-events="none" font-family="Open Sans" font-weight="normal" transform="matrix(1,0,0,1,0,-24.3)"><tspan dy="0" >Authenticates API</tspan><tspan dy="1.2em" x="0" >Requests</tspan></text></g><g id="v-227"  label-idx="1" cursor="move" transform="matrix(1,0,0,1,809,1010.7999877929688)" style="cursor: default; opacity: 1;"><rect joint-selector="rect" id="v-231" fill="#ffffff" rx="3" ry="3"  width="0" height="0" transform="matrix(1,0,0,1,0,0)" display="none"></rect><text joint-selector="text" id="v-230" fill="#000000" font-size="14" text-anchor="middle" pointer-events="none"></text></g></g><g  display="none" style="display: none;"></g><g  id="v-236" display="none"><g  id="v-224"><path  end="source" d="M 26 0 L 0 13 L 26 26 z"></path></g><g  id="v-225"><path  end="target" d="M 26 0 L 0 13 L 26 26 z"></path></g></g><g  id="v-235" display="none"><g  id="v-223" transform="translate(709, 970.0000000000001) "><g  event="remove"><circle r="11"></circle><path transform="scale(.8) translate(-16, -16)" d="M24.778,21.419 19.276,15.917 24.777,10.415 21.949,7.585 16.447,13.087 10.945,7.585 8.117,10.415 13.618,15.917 8.116,21.419 10.946,24.248 16.447,18.746 21.948,24.248z"></path><title>Remove link.</title></g><g  event="link:options"><circle r="11" transform="translate(25)"></circle><path fill="white" transform="scale(.55) translate(29, -16)" d="M31.229,17.736c0.064-0.571,0.104-1.148,0.104-1.736s-0.04-1.166-0.104-1.737l-4.377-1.557c-0.218-0.716-0.504-1.401-0.851-2.05l1.993-4.192c-0.725-0.91-1.549-1.734-2.458-2.459l-4.193,1.994c-0.647-0.347-1.334-0.632-2.049-0.849l-1.558-4.378C17.165,0.708,16.588,0.667,16,0.667s-1.166,0.041-1.737,0.105L12.707,5.15c-0.716,0.217-1.401,0.502-2.05,0.849L6.464,4.005C5.554,4.73,4.73,5.554,4.005,6.464l1.994,4.192c-0.347,0.648-0.632,1.334-0.849,2.05l-4.378,1.557C0.708,14.834,0.667,15.412,0.667,16s0.041,1.165,0.105,1.736l4.378,1.558c0.217,0.715,0.502,1.401,0.849,2.049l-1.994,4.193c0.725,0.909,1.549,1.733,2.459,2.458l4.192-1.993c0.648,0.347,1.334,0.633,2.05,0.851l1.557,4.377c0.571,0.064,1.148,0.104,1.737,0.104c0.588,0,1.165-0.04,1.736-0.104l1.558-4.377c0.715-0.218,1.399-0.504,2.049-0.851l4.193,1.993c0.909-0.725,1.733-1.549,2.458-2.458l-1.993-4.193c0.347-0.647,0.633-1.334,0.851-2.049L31.229,17.736zM16,20.871c-2.69,0-4.872-2.182-4.872-4.871c0-2.69,2.182-4.872,4.872-4.872c2.689,0,4.871,2.182,4.871,4.872C20.871,18.689,18.689,20.871,16,20.871z"></path><title>Link options.</title></g></g></g></g><!--z-index:40--></g><g ></g><g ></g><g ></g></g></svg>